<svg width="407" height="255" viewBox="0 0 407 255" fill="none" xmlns="http://www.w3.org/2000/svg">
<path d="M376.671 254.317C392.771 234.91 387.514 202.986 373.339 183.539C361.06 166.696 350.82 151.256 344.791 130.993C339.323 112.618 344.472 93.095 339.26 74.7505C325.943 27.8838 263.804 33.1978 232.764 54.1567C214.468 66.51 199.999 84.9434 180.274 94.5801C152.609 108.097 125.45 95.5581 97.2669 102.985C72.6782 109.468 50.7371 124.169 36.4589 146.451C25.2304 163.972 19.4827 185.188 19.7677 206.27C20.0184 224.668 28.5578 241.19 40.6412 254.315H376.671V254.317Z" fill="#F2F9FF"/>
<path d="M239.003 18.1637C237.473 10.5796 227.534 6.78092 221.062 10.5228C218.147 3.81273 210.98 -0.576173 203.977 0.0613537C196.974 0.69888 190.635 6.31743 188.866 13.4532C186.072 10.8615 181.795 10.1918 178.402 11.8168C175.01 13.4418 172.691 17.2708 172.728 21.183H239.355C239.355 21.1811 239.154 18.9072 239.003 18.1637Z" fill="#E1F2FF"/>
<path d="M368.433 134.276C368.666 131.462 367.443 128.562 365.303 126.848C363.162 125.135 360.377 124.752 357.851 125.73C354.59 118.08 345.789 113.901 337.92 115.352C330.052 116.803 324.023 122.146 320.975 129.892C314.26 126.207 304.3 129.565 300.722 136.065H368.302L368.433 134.276Z" fill="#E1F2FF"/>
<path d="M37.9171 102.287C37.6755 99.355 38.9487 96.332 41.1796 94.5462C43.4105 92.7603 46.3141 92.3612 48.9454 93.3808C52.3432 85.407 61.5175 81.0522 69.7179 82.5637C77.9184 84.0752 84.2594 90.6359 87.4371 98.708C94.4347 94.8659 103.993 97.3365 108.487 104.151H38.0524L37.9171 102.287Z" fill="#E1F2FF"/>
<path d="M84.0181 206.154C83.9333 206.105 83.8503 206.058 83.771 206.026C83.5888 205.931 83.45 205.873 83.3291 205.842C82.8981 205.687 82.431 205.608 81.944 205.608C81.0044 205.608 79.9476 205.897 78.7158 206.491C74.7157 208.413 71.2332 212.153 68.3656 217.609C67.8048 218.684 67.2637 219.826 66.7154 221.107C64.187 227.045 62.4466 233.481 61.4096 240.738C61.1463 238.521 60.8253 236.322 60.4574 234.187C59.2274 227.157 57.3626 220.63 54.9117 214.79C54.2317 213.182 53.5212 211.637 52.7655 210.14C49.6527 203.956 46.1846 199.632 42.1628 196.923C40.9906 196.134 39.7498 195.483 38.4747 194.989C37.692 194.688 36.655 194.34 35.5765 194.34C35.4521 194.34 35.3276 194.344 35.2032 194.354C34.6856 194.391 34.1806 194.518 33.7153 194.73C33.5548 194.789 33.4051 194.868 33.2699 194.953C32.4313 195.434 31.7243 196.202 31.2247 197.17C29.2048 201.037 30.1174 205.604 31.2265 209.949C32.6387 215.488 34.7668 221.383 37.7317 227.97C38.7831 230.309 39.9626 232.781 41.5226 235.916C40.4567 235.195 39.2286 234.539 38.0635 234.073C37.4864 233.85 36.8931 233.663 36.3394 233.492L36.2474 233.462C35.279 233.156 34.278 232.84 33.3961 232.299C32.0038 231.455 30.855 230.072 29.7423 228.735C28.1859 226.86 26.5772 224.923 24.2885 224.402C23.8828 224.312 23.4698 224.268 23.0243 224.268C21.9981 224.268 21.017 224.505 20.0071 224.749C19.0693 224.97 18.1819 225.18 17.2838 225.18C16.8095 225.18 16.3694 225.121 15.9402 225C15.5849 224.9 15.2296 224.781 14.8816 224.663C14.2179 224.44 13.5308 224.209 12.8256 224.098C12.5912 224.062 12.3423 224.045 12.0862 224.045C10.4703 224.045 8.41429 224.732 7.30695 225.424L6.70459 225.806L7.33581 226.139C8.87779 226.956 11.7796 229.484 13.1142 232.31C13.4893 233.105 13.7634 233.969 14.0826 235.013C14.5407 236.481 15.0132 237.999 15.9979 239.179C17.466 240.937 19.6536 241.417 21.5833 241.843C23.183 242.195 24.8386 242.56 26.1389 243.579C28.0416 245.064 28.8568 247.586 29.7224 250.267C30.1787 251.665 30.6494 253.11 31.3077 254.43L31.3564 254.529H32.2491L32.1066 254.256C31.4177 252.938 30.9362 251.443 30.4709 250C29.6088 247.333 28.7161 244.572 26.6078 242.917C25.1686 241.786 23.4247 241.402 21.7312 241.031C19.7456 240.588 17.8699 240.172 16.5841 238.636C15.6949 237.56 15.2639 236.162 14.7896 234.624C14.5137 233.727 14.2269 232.8 13.8193 231.945C12.6453 229.465 10.3548 227.174 8.56578 225.946C8.96796 225.878 9.38096 225.844 9.79937 225.844C12.694 225.844 15.4334 227.499 17.2225 228.888C18.3226 229.741 19.3849 230.708 20.4129 231.642C22.063 233.142 23.7691 234.694 25.7025 235.851C27.0605 236.663 28.5321 237.242 29.9623 237.804C31.4556 238.39 32.9975 238.996 34.3682 239.864C37.1149 241.602 42.0871 245.802 44.5452 254.4L44.5831 254.531H45.4019L45.3352 254.296C42.8175 245.346 37.6379 240.969 34.7758 239.158C33.3384 238.248 31.7604 237.63 30.2328 237.028C28.8369 236.479 27.3941 235.914 26.092 235.134C24.2272 234.018 22.55 232.494 20.9268 231.018C19.888 230.074 18.8132 229.096 17.6878 228.224C15.9601 226.883 13.3793 225.307 10.564 225.055C11.1069 224.936 11.6227 224.873 12.079 224.873C12.2972 224.873 12.5082 224.889 12.7084 224.919C13.3288 225.013 13.9582 225.222 14.6273 225.443C14.9988 225.572 15.3685 225.693 15.7382 225.795C16.2324 225.933 16.7392 226.001 17.2892 226.001C18.31 226.001 19.2893 225.766 20.2956 225.524C21.2316 225.301 22.1171 225.089 23.0117 225.089C23.3976 225.089 23.7583 225.129 24.1118 225.208C26.1407 225.674 27.5979 227.424 29.1399 229.276C30.2977 230.664 31.4934 232.1 32.9957 233.018C33.957 233.598 35.0066 233.931 36.022 234.253L36.316 234.346C36.7993 234.497 37.2971 234.654 37.775 234.845C39.0717 235.361 40.9599 236.351 42.3666 237.584C42.7273 237.9 43.0502 238.229 43.3531 238.598L43.4866 238.481L43.409 238.674C43.7445 239.115 44.0186 239.652 44.2368 240.255L44.2459 240.458H44.2964C44.4713 241.001 44.6012 241.574 44.74 242.179L44.7833 242.378C45.025 243.471 45.2594 244.451 45.6796 245.35C46.1197 246.313 46.7653 247.179 47.3334 247.942L47.429 248.068C47.8474 248.632 48.2803 249.217 48.668 249.913C48.7708 250.091 48.8556 250.271 48.9656 250.511C49.4128 251.523 49.7501 252.857 49.9395 254.366L49.9593 254.525H50.751L50.7258 254.319C50.6518 253.71 50.5671 253.184 50.4679 252.715C50.2623 251.721 49.999 250.863 49.6906 250.172C49.6725 250.127 49.6563 250.089 49.6112 249.996C49.5391 249.852 49.4669 249.709 49.3714 249.529C49.3551 249.493 49.3335 249.448 49.3137 249.423C48.9079 248.702 48.4065 248.029 47.9646 247.433C47.7825 247.187 47.5985 246.939 47.4236 246.691C46.9655 246.063 46.6355 245.522 46.3848 244.991C46.2279 244.644 46.1035 244.3 45.9989 243.929C45.8239 243.388 45.6959 242.811 45.5588 242.195L45.5245 242.047C45.2414 240.789 44.8879 239.226 43.9321 238.029C43.6615 237.69 43.3333 237.352 42.9997 237.079C42.2494 235.604 41.5154 234.111 40.7904 232.617C37.6469 226.132 35.3926 220.713 33.6937 215.568C32.6837 212.498 31.8956 209.616 31.286 206.758C30.8135 204.537 30.7053 202.664 30.947 200.863C31.2283 198.712 31.901 197.127 32.9416 196.155C33.1581 195.958 33.3817 195.793 33.6179 195.655C41.0789 203.334 47.025 212.732 50.8196 222.838C53.0288 228.71 54.6177 234.803 56.0046 240.511C57.157 245.259 58.1273 249.924 58.8883 254.374L58.9136 254.525H59.7143L59.6783 254.309C59.0146 250.422 58.2012 246.408 57.2616 242.374C55.9956 236.962 54.4067 230.592 52.2299 224.393C50.3561 219.049 47.943 213.931 45.0628 209.183C42.0366 204.183 38.4585 199.52 34.4259 195.32C34.774 195.224 35.1473 195.176 35.5423 195.176C36.3358 195.176 37.2429 195.373 38.2385 195.765C42.6624 197.477 46.6517 201.234 50.091 206.932C50.7853 208.073 51.4652 209.306 52.1109 210.594C56.7548 219.894 59.6584 230.85 60.9894 244.098C61.0597 244.811 61.1283 245.524 61.1896 246.256L61.3465 248.19C61.4763 249.994 61.59 251.952 61.7036 254.349L61.7108 254.523H62.3258L62.5079 254.474L62.4989 254.281C62.3149 250.454 62.0733 247.079 61.7631 244.005C62.5025 237.246 63.8046 231.268 65.747 225.729C66.2682 224.247 66.8255 222.821 67.4026 221.485C69.8355 215.802 72.6489 211.762 76.0016 209.132C76.9412 208.398 77.9241 207.776 78.925 207.282C79.8466 206.828 80.8457 206.41 81.944 206.41C82.1713 206.41 82.3985 206.434 82.6185 206.484C76.3677 213.873 71.5181 222.694 68.5875 232.015C66.8579 237.524 65.7145 243.284 64.7352 248.689C64.4304 250.365 64.1256 252.204 63.8046 254.309L63.7722 254.521H64.5531L64.5765 254.366C64.7497 253.239 64.9318 252.115 65.123 250.993C65.976 246.031 67.0635 240.191 68.6758 234.499C70.0573 229.569 71.9546 224.775 74.3171 220.25C76.8564 215.396 79.9187 210.863 83.4193 206.779C84.1966 207.182 84.8603 207.906 85.3454 208.884C87.1254 212.52 86.2129 216.862 85.4067 220.693L85.3833 220.81C84.3391 225.744 82.7809 230.829 80.4796 236.818C78.5715 241.78 76.3911 246.72 74.2829 251.496L72.9501 254.521H73.8049L75.0349 251.735C76.6671 248.042 78.3533 244.224 79.9043 240.424C82.5157 233.992 84.3066 228.668 85.542 223.674C86.1426 221.232 86.7936 218.353 87.084 215.505C87.2751 213.644 87.1236 211.767 86.6403 210.078C86.276 208.788 85.5185 207.049 84.0181 206.154Z" fill="#C6E5FD"/>
<path d="M398.976 225.396C397.923 224.732 395.867 224.045 394.251 224.045C393.995 224.045 393.747 224.062 393.511 224.098C392.81 224.21 392.126 224.439 391.455 224.664C391.109 224.781 390.754 224.9 390.398 225.001C389.969 225.122 389.529 225.18 389.055 225.18C388.158 225.18 387.271 224.97 386.27 224.734C385.322 224.505 384.342 224.268 383.316 224.268C382.871 224.268 382.458 224.312 382.05 224.403C379.763 224.923 378.155 226.86 376.596 228.733C375.485 230.071 374.335 231.455 372.943 232.299C372.062 232.84 371.061 233.156 370.093 233.462L370.001 233.491C369.446 233.661 368.852 233.85 368.275 234.074C367.112 234.537 365.884 235.193 364.818 235.914C366.378 232.78 367.557 230.307 368.609 227.969C371.575 221.384 373.702 215.487 375.114 209.948C376.223 205.6 377.136 201.034 375.116 197.169C374.616 196.198 373.909 195.432 373.076 194.954C372.935 194.865 372.784 194.785 372.636 194.732C372.16 194.517 371.655 194.388 371.137 194.35C371.013 194.341 370.888 194.337 370.764 194.337C369.685 194.337 368.648 194.683 367.866 194.986C366.591 195.48 365.35 196.13 364.179 196.919C360.158 199.628 356.691 203.951 353.609 210.092L353.555 210.167L353.542 210.192C352.823 211.633 352.111 213.179 351.431 214.787C348.981 220.627 347.115 227.153 345.885 234.183C345.515 236.319 345.196 238.517 344.933 240.734C343.896 233.476 342.155 227.042 339.627 221.102C339.079 219.823 338.539 218.678 337.977 217.604C335.109 212.148 331.627 208.408 327.626 206.486C326.395 205.892 325.338 205.602 324.398 205.602C323.911 205.602 323.444 205.682 323.028 205.831C322.894 205.865 322.753 205.924 322.586 206.013C322.494 206.053 322.409 206.1 322.319 206.151C320.826 207.042 320.068 208.781 319.695 210.082C319.213 211.771 319.06 213.648 319.251 215.51C319.541 218.355 320.194 221.236 320.795 223.678C322.028 228.671 323.819 233.994 326.433 240.428C327.982 244.229 329.67 248.046 331.302 251.739L332.532 254.525H333.387L332.054 251.501C329.946 246.724 327.765 241.784 325.857 236.822C323.556 230.835 321.998 225.748 320.954 220.816L320.93 220.699C320.124 216.868 319.211 212.526 320.991 208.892C321.475 207.912 322.14 207.188 322.918 206.785C326.42 210.869 329.482 215.402 332.02 220.256C334.382 224.781 336.28 229.575 337.661 234.505C339.273 240.197 340.363 246.037 341.214 250.997C341.405 252.119 341.587 253.245 341.76 254.372L341.784 254.527H342.565L342.532 254.315C342.211 252.21 341.906 250.371 341.602 248.695C340.624 243.29 339.479 237.53 337.749 232.021C334.819 222.7 329.969 213.877 323.718 206.49C323.942 206.44 324.175 206.416 324.427 206.414C325.491 206.414 326.49 206.834 327.414 207.286C328.413 207.78 329.397 208.402 330.337 209.136C333.69 211.766 336.503 215.805 338.936 221.489C339.513 222.823 340.07 224.251 340.592 225.731C342.534 231.27 343.838 237.248 344.576 243.967C344.265 247.081 344.025 250.454 343.838 254.331L343.827 254.524H344.626L344.635 254.35C344.749 251.953 344.862 249.995 344.992 248.192L345.149 246.249C345.21 245.53 345.279 244.819 345.349 244.089C346.68 230.852 349.586 219.897 354.228 210.597C354.873 209.306 355.553 208.073 356.249 206.932C359.691 201.234 363.678 197.477 368.104 195.765C369.097 195.375 370.005 195.177 370.798 195.177C371.193 195.177 371.566 195.226 371.915 195.321C367.882 199.52 364.304 204.184 361.278 209.184C358.397 213.93 355.986 219.047 354.111 224.393C351.934 230.595 350.345 236.962 349.079 242.377C348.139 246.408 347.326 250.422 346.662 254.31L346.626 254.525H347.427L347.452 254.374C348.213 249.925 349.183 245.26 350.336 240.511C351.723 234.802 353.312 228.71 355.521 222.838C359.315 212.731 365.261 203.334 372.722 195.655C372.959 195.794 373.181 195.958 373.397 196.153C374.439 197.127 375.112 198.713 375.395 200.865C375.637 202.664 375.531 204.539 375.056 206.76C374.447 209.619 373.658 212.5 372.649 215.57C370.95 220.716 368.695 226.134 365.552 232.619C364.827 234.111 364.093 235.606 363.384 237.027C363.007 237.354 362.679 237.691 362.408 238.031C361.453 239.229 361.101 240.791 360.8 242.119L360.769 242.254C360.645 242.812 360.517 243.389 360.338 243.937C360.237 244.3 360.111 244.645 359.956 244.989C359.705 245.523 359.375 246.064 358.915 246.694C358.74 246.939 358.558 247.187 358.376 247.433C357.934 248.029 357.433 248.704 357.039 249.403C357.005 249.448 356.983 249.493 356.944 249.575C356.873 249.705 356.803 249.843 356.699 250.053C356.681 250.091 356.664 250.129 356.65 250.165C356.338 250.865 356.075 251.724 355.867 252.715C355.768 253.186 355.683 253.712 355.609 254.321L355.584 254.527H356.376L356.396 254.368C356.585 252.859 356.92 251.525 357.395 250.46C357.479 250.273 357.564 250.095 357.662 249.923L357.71 249.84C358.055 249.219 358.486 248.634 358.904 248.071L358.998 247.944C359.566 247.18 360.212 246.315 360.652 245.354C361.072 244.454 361.306 243.476 361.544 242.397L361.593 242.182C361.732 241.569 361.866 240.99 362.042 240.441L362.086 240.32C362.313 239.656 362.587 239.117 362.922 238.676L363.005 238.563C363.281 238.228 363.604 237.901 363.965 237.585C365.372 236.351 367.258 235.362 368.556 234.847C369.034 234.656 369.532 234.501 370.015 234.348L370.309 234.255C371.325 233.934 372.374 233.601 373.336 233.02C374.838 232.1 376.034 230.666 377.192 229.278C378.733 227.426 380.191 225.676 382.218 225.211C382.571 225.131 382.93 225.091 383.318 225.091C384.211 225.091 385.094 225.301 386.094 225.54C387.04 225.767 388.021 226.001 389.042 226.001C389.592 226.001 390.099 225.933 390.591 225.795C390.963 225.693 391.333 225.574 391.758 225.426C392.37 225.224 393.001 225.016 393.625 224.919C393.823 224.889 394.034 224.874 394.252 224.874C394.709 224.874 395.225 224.936 395.767 225.055C392.952 225.307 390.371 226.885 388.644 228.224C387.518 229.096 386.445 230.074 385.405 231.018C383.781 232.494 382.104 234.019 380.239 235.135C378.937 235.914 377.495 236.48 376.099 237.028C374.571 237.628 372.993 238.249 371.556 239.159C368.693 240.971 363.514 245.347 360.996 254.297L360.93 254.531H361.748L361.786 254.401C364.244 245.801 369.217 241.601 371.963 239.864C373.334 238.996 374.878 238.391 376.376 237.802C377.801 237.242 379.273 236.665 380.631 235.852C382.564 234.694 384.27 233.143 385.92 231.643C386.948 230.708 388.012 229.741 389.111 228.888C390.9 227.5 393.639 225.844 396.534 225.844C396.95 225.844 397.363 225.878 397.767 225.946C395.98 227.174 393.69 229.465 392.516 231.945C392.108 232.8 391.821 233.727 391.526 234.685C391.069 236.164 390.64 237.56 389.751 238.636C388.463 240.174 386.588 240.591 384.593 241.035C382.907 241.406 381.163 241.79 379.725 242.919C377.617 244.577 376.724 247.335 375.862 250.004C375.397 251.448 374.914 252.94 374.227 254.259L374.084 254.531H374.977L375.026 254.433C375.684 253.112 376.155 251.667 376.616 250.256C377.478 247.586 378.293 245.067 380.196 243.58C381.496 242.56 383.152 242.195 384.752 241.843C386.681 241.419 388.869 240.937 390.337 239.181C391.322 237.999 391.794 236.482 392.278 234.936C392.572 233.971 392.846 233.107 393.221 232.312C394.555 229.486 397.457 226.959 398.999 226.141L399.632 225.808L398.976 225.396Z" fill="#C6E5FD"/>
<path d="M406.341 254.351C406.341 254.556 406.184 254.72 405.989 254.72H0.351678C0.156902 254.72 0 254.556 0 254.351C0 254.249 0.0396752 254.156 0.102797 254.09C0.165919 254.024 0.25429 253.982 0.351678 253.982H405.989C406.184 253.981 406.341 254.147 406.341 254.351Z" fill="#C6E5FD"/>
<path d="M303.425 86.4176L301.43 83.718C301.794 83.4097 302.018 83.2243 302.099 83.1581C302.934 82.4789 303.726 82.0665 304.48 81.9171C305.232 81.7695 306.265 81.8546 307.58 82.1762C308.895 82.4978 309.719 82.6567 310.053 82.6567C310.576 82.6492 311.036 82.4846 311.432 82.1611C311.984 81.7128 312.285 81.096 312.338 80.3147C312.39 79.5334 312.127 78.7502 311.548 77.9671C310.989 77.2122 310.318 76.7468 309.531 76.5728C308.745 76.3988 307.861 76.5577 306.878 77.0514L305.183 74.0568C306.444 73.1544 307.865 72.8612 309.445 73.1771C311.025 73.4911 312.413 74.4597 313.613 76.0828C314.875 77.7911 315.454 79.4956 315.348 81.1982C315.241 82.8989 314.624 84.2099 313.494 85.1293C312.868 85.6382 312.139 85.9333 311.306 86.0184C310.475 86.1017 309.127 85.9276 307.268 85.4963C306.307 85.2731 305.618 85.2087 305.201 85.3033C304.786 85.396 304.195 85.7687 303.425 86.4176ZM297.614 86.8205L300.451 84.5145L302.649 87.4902L299.812 89.7963L297.614 86.8205Z" fill="#0968B8"/>
<path d="M292.24 65.6331L289.394 63.9721C289.614 63.5389 289.749 63.2759 289.799 63.1813C290.312 62.2127 290.887 61.5071 291.524 61.0588C292.16 60.6123 293.141 60.2661 294.471 60.0183C295.8 59.7724 296.617 59.5794 296.923 59.4413C297.401 59.22 297.762 58.8794 298.007 58.4179C298.346 57.7784 298.393 57.0879 298.148 56.3464C297.903 55.6067 297.367 54.9937 296.541 54.5132C295.746 54.0498 294.952 53.8984 294.164 54.0611C293.376 54.2238 292.622 54.7365 291.904 55.5934L289.224 53.539C290.047 52.1901 291.242 51.3351 292.813 50.9737C294.382 50.6124 296.023 50.9302 297.735 51.9291C299.535 52.979 300.705 54.3089 301.246 55.9169C301.787 57.5249 301.71 58.9835 301.015 60.2964C300.631 61.0228 300.07 61.5941 299.336 62.016C298.602 62.436 297.3 62.8313 295.428 63.2002C294.46 63.3913 293.803 63.6164 293.457 63.8737C293.111 64.1329 292.705 64.7193 292.24 65.6331ZM287.047 68.3988L288.791 65.109L291.928 66.9384L290.184 70.2282L287.047 68.3988Z" fill="#0968B8"/>
<path d="M267.566 68.0103L264.667 69.5691C264.447 69.1359 264.312 68.8711 264.267 68.7765C263.786 67.7909 263.544 66.8979 263.544 66.0939C263.544 65.2918 263.816 64.2419 264.359 62.946C264.902 61.6502 265.205 60.831 265.266 60.4867C265.356 59.9476 265.286 59.4425 265.057 58.9733C264.738 58.3225 264.217 57.8969 263.493 57.6983C262.77 57.4996 261.987 57.6283 261.147 58.0804C260.337 58.5155 259.776 59.1228 259.468 59.9003C259.16 60.6778 259.145 61.6199 259.427 62.7228L256.308 63.9184C255.697 62.4523 255.684 60.9332 256.27 59.363C256.857 57.7929 258.022 56.5386 259.764 55.6022C261.598 54.6166 263.302 54.3347 264.877 54.7566C266.451 55.1803 267.566 56.0581 268.217 57.3937C268.577 58.1334 268.72 58.9393 268.646 59.8133C268.57 60.6873 268.159 62.0418 267.412 63.8787C267.026 64.8302 266.839 65.5264 266.85 65.9729C266.86 66.4174 267.1 67.0966 267.566 68.0103ZM266.869 74.0753L265.232 70.725L268.426 69.0073L270.063 72.3576L266.869 74.0753Z" fill="#0968B8"/>
<path d="M213.069 162.932L207.345 248.896L207.28 249.877H174.761C171.791 249.877 169.521 247.112 169.952 244.03L181.552 162.932H213.069Z" fill="#60B3E5"/>
<path d="M213.659 162.932L207.935 248.896H176.45C173.48 248.896 171.209 246.118 171.651 243.037L183.099 162.932H213.659Z" fill="#92D0F6"/>
<path d="M123.478 246.249C120.979 246.249 118.952 248.376 118.952 250.998V253.508H157.728V246.248H123.478V246.249Z" fill="#92D0F6"/>
<path d="M281.604 246.248H156.385V253.508H287.004V251.912C287.004 248.783 284.587 246.248 281.604 246.248Z" fill="#77C3F0"/>
<path d="M287.357 221.791H109.303C106.421 221.791 104.049 219.595 103.712 216.608L102.248 203.731L89.6847 93.2701C89.2608 89.5395 92.132 86.1665 95.7335 86.1665H273.784C276.666 86.1665 279.038 88.3628 279.375 91.3499L292.16 203.731L293.408 214.688C293.832 218.416 290.957 221.791 287.357 221.791Z" fill="#60B3E5"/>
<path d="M289.522 219.128H111.469C108.587 219.128 106.216 216.931 105.878 213.944L104.414 201.067L91.8509 90.6065C91.4271 86.876 94.2983 83.5029 97.8998 83.5029H275.95C278.832 83.5029 281.204 85.6993 281.541 88.6864L294.326 201.067L295.574 212.024C295.996 215.753 293.121 219.128 289.522 219.128Z" fill="#92D0F6"/>
<path d="M294.324 201.067H104.412L91.849 90.6065C91.4251 86.876 94.2963 83.5029 97.8979 83.5029H275.948C278.83 83.5029 281.202 85.6993 281.539 88.6864L294.324 201.067Z" fill="#0968B8"/>
<path d="M287.177 194.61L275.621 89.9629H98.2463L109.803 194.61H287.177Z" fill="white"/>
<path d="M202.59 212.764C204.063 211.158 203.916 208.501 202.261 206.831C200.606 205.16 198.07 205.109 196.596 206.715C195.122 208.322 195.269 210.979 196.925 212.649C198.58 214.319 201.116 214.371 202.59 212.764Z" fill="white"/>
<path d="M108.783 187.878L99.6792 105.399H278.105L287.209 187.878H108.783Z" fill="#B9E0FB"/>
<path d="M239.151 96.6997H111.673C110.423 96.6997 109.529 97.761 109.673 99.072C109.818 100.383 110.948 101.444 112.196 101.444H239.674C240.923 101.444 241.818 100.383 241.674 99.072C241.529 97.7629 240.4 96.6997 239.151 96.6997Z" fill="#B9E0FB"/>
<path d="M251.069 100.794C251.877 99.8951 251.753 98.3937 250.79 97.4406C249.827 96.4875 248.391 96.4436 247.582 97.3425C246.773 98.2415 246.898 99.7429 247.861 100.696C248.824 101.649 250.26 101.693 251.069 100.794Z" fill="#B9E0FB"/>
<path d="M258.64 100.794C259.448 99.895 259.324 98.3937 258.361 97.4406C257.398 96.4875 255.962 96.4436 255.153 97.3425C254.344 98.2415 254.469 99.7429 255.432 100.696C256.395 101.649 257.831 101.693 258.64 100.794Z" fill="#B9E0FB"/>
<path d="M266.213 100.789C267.021 99.8902 266.897 98.3888 265.934 97.4357C264.971 96.4826 263.535 96.4387 262.726 97.3377C261.917 98.2366 262.042 99.738 263.005 100.691C263.968 101.644 265.404 101.688 266.213 100.789Z" fill="#B9E0FB"/>
<path d="M173.865 148.438L173.091 141.436H161.96L161.316 135.598L170.667 113.527H175.055L177.488 135.574H180.859L181.506 141.436H178.135L178.909 148.438H173.865ZM172.445 135.575L171.134 123.699L166.202 135.575H172.445Z" fill="#083B82"/>
<path d="M189.742 113.527C192.383 113.527 194.662 114.844 196.581 117.477C198.502 120.11 199.824 124.715 200.549 131.291C201.274 137.853 200.967 142.448 199.627 145.082C198.289 147.715 196.307 149.032 193.683 149.032C191.043 149.032 188.765 147.728 186.848 145.119C184.931 142.511 183.605 137.878 182.869 131.221C182.148 124.692 182.458 120.11 183.796 117.477C185.136 114.844 187.116 113.527 189.742 113.527ZM190.363 119.057C189.333 119.057 188.592 119.768 188.135 121.19C187.679 122.613 187.744 125.98 188.33 131.291C188.916 136.601 189.594 139.964 190.363 141.379C191.131 142.794 192.031 143.502 193.061 143.502C194.105 143.502 194.852 142.791 195.299 141.368C195.748 139.945 195.679 136.588 195.095 131.292C194.509 125.982 193.834 122.615 193.072 121.192C192.31 119.768 191.407 119.057 190.363 119.057Z" fill="#083B82"/>
<path d="M216.128 148.438L215.355 141.436H204.223L203.58 135.598L212.931 113.527H217.319L219.751 135.574H223.122L223.77 141.436H220.399L221.173 148.438H216.128ZM214.709 135.575L213.398 123.699L208.465 135.575H214.709Z" fill="#083B82"/>
<path d="M213.154 179.76H181.041C179.668 179.76 178.427 178.593 178.269 177.153C178.11 175.714 179.093 174.546 180.465 174.546H212.578C213.951 174.546 215.191 175.714 215.35 177.153C215.509 178.593 214.526 179.76 213.154 179.76Z" fill="white"/>
<path d="M183.601 177.443L183.56 177.074H184.469L184.564 177.946C184.487 178.037 184.368 178.114 184.207 178.182C184.047 178.25 183.881 178.284 183.709 178.284C183.491 178.284 183.295 178.235 183.123 178.141C182.95 178.044 182.813 177.906 182.712 177.728C182.611 177.548 182.548 177.356 182.524 177.146C182.499 176.917 182.523 176.714 182.595 176.536C182.667 176.359 182.784 176.222 182.95 176.128C183.076 176.056 183.239 176.018 183.439 176.018C183.699 176.018 183.906 176.075 184.065 176.19C184.223 176.304 184.335 176.463 184.398 176.663L183.989 176.746C183.947 176.639 183.882 176.553 183.794 176.491C183.706 176.429 183.601 176.398 183.48 176.398C183.296 176.398 183.156 176.459 183.06 176.582C182.965 176.705 182.93 176.886 182.957 177.127C182.986 177.386 183.062 177.581 183.188 177.711C183.313 177.842 183.464 177.906 183.643 177.906C183.731 177.906 183.818 177.887 183.902 177.851C183.987 177.815 184.057 177.772 184.117 177.719L184.086 177.441H183.601V177.443Z" fill="#B9E0FB"/>
<path d="M184.926 177.169C184.901 176.946 184.913 176.759 184.96 176.607C184.996 176.496 185.048 176.396 185.121 176.307C185.193 176.218 185.276 176.152 185.37 176.11C185.492 176.053 185.64 176.023 185.81 176.023C186.118 176.023 186.374 176.123 186.581 176.324C186.789 176.524 186.911 176.802 186.951 177.16C186.991 177.514 186.93 177.79 186.767 177.99C186.607 178.191 186.372 178.289 186.066 178.289C185.755 178.289 185.498 178.191 185.292 177.99C185.088 177.792 184.966 177.517 184.926 177.169ZM185.36 177.154C185.388 177.402 185.463 177.589 185.586 177.718C185.709 177.847 185.855 177.911 186.022 177.911C186.19 177.911 186.322 177.847 186.416 177.72C186.509 177.593 186.542 177.402 186.513 177.149C186.486 176.897 186.412 176.71 186.293 176.587C186.174 176.464 186.028 176.401 185.855 176.401C185.682 176.401 185.548 176.464 185.454 176.589C185.364 176.713 185.332 176.903 185.36 177.154Z" fill="#B9E0FB"/>
<path d="M188.974 178.248L188.774 176.428H188.154L188.112 176.058H189.771L189.813 176.428H189.194L189.394 178.248H188.974Z" fill="#B9E0FB"/>
<path d="M190.175 177.169C190.149 176.946 190.162 176.759 190.209 176.607C190.245 176.496 190.297 176.396 190.369 176.307C190.442 176.218 190.525 176.152 190.618 176.11C190.741 176.053 190.889 176.023 191.058 176.023C191.367 176.023 191.623 176.123 191.83 176.324C192.038 176.524 192.16 176.802 192.2 177.16C192.24 177.514 192.178 177.79 192.016 177.99C191.855 178.191 191.621 178.289 191.314 178.289C191.004 178.289 190.746 178.191 190.541 177.99C190.335 177.792 190.212 177.517 190.175 177.169ZM190.607 177.154C190.635 177.402 190.71 177.589 190.833 177.718C190.956 177.847 191.102 177.911 191.269 177.911C191.437 177.911 191.569 177.847 191.662 177.72C191.756 177.593 191.789 177.402 191.76 177.149C191.733 176.897 191.659 176.71 191.54 176.587C191.421 176.464 191.275 176.401 191.102 176.401C190.928 176.401 190.795 176.464 190.701 176.589C190.611 176.713 190.579 176.903 190.607 177.154Z" fill="#B9E0FB"/>
<path d="M193.751 178.248L193.509 176.058H193.931L194.027 176.92H194.853L194.757 176.058H195.179L195.421 178.248H194.999L194.892 177.291H194.066L194.173 178.248H193.751Z" fill="#B9E0FB"/>
<path d="M195.797 177.169C195.772 176.946 195.785 176.759 195.832 176.607C195.868 176.496 195.92 176.396 195.992 176.307C196.064 176.218 196.147 176.152 196.241 176.11C196.364 176.053 196.512 176.023 196.681 176.023C196.99 176.023 197.246 176.123 197.453 176.324C197.66 176.524 197.783 176.802 197.823 177.16C197.862 177.514 197.801 177.79 197.639 177.99C197.478 178.191 197.244 178.289 196.937 178.289C196.627 178.289 196.369 178.191 196.164 177.99C195.958 177.792 195.837 177.517 195.797 177.169ZM196.23 177.154C196.257 177.402 196.333 177.589 196.456 177.718C196.578 177.847 196.724 177.911 196.892 177.911C197.06 177.911 197.192 177.847 197.285 177.72C197.379 177.593 197.412 177.402 197.383 177.149C197.356 176.897 197.282 176.71 197.163 176.587C197.044 176.464 196.898 176.401 196.724 176.401C196.551 176.401 196.418 176.464 196.324 176.589C196.236 176.713 196.203 176.903 196.23 177.154Z" fill="#B9E0FB"/>
<path d="M198.412 178.248L198.171 176.058H198.802L199.347 177.552L199.556 176.058H200.189L200.43 178.248H200.039L199.848 176.523L199.624 178.248H199.218L198.614 176.523L198.805 178.248H198.412Z" fill="#B9E0FB"/>
<path d="M200.996 178.248L200.754 176.058H202.303L202.345 176.428H201.217L201.272 176.915H202.319L202.361 177.283H201.313L201.38 177.879H202.547L202.588 178.248H200.996Z" fill="#B9E0FB"/>
<path d="M203.086 178.248L202.844 176.058H203.521C203.777 176.058 203.946 176.069 204.026 176.09C204.148 176.122 204.256 176.194 204.35 176.304C204.442 176.413 204.5 176.557 204.518 176.731C204.532 176.865 204.521 176.979 204.485 177.07C204.449 177.161 204.399 177.234 204.332 177.285C204.265 177.338 204.197 177.372 204.125 177.389C204.026 177.41 203.881 177.422 203.69 177.422H203.416L203.508 178.248H203.086ZM203.308 176.428L203.376 177.049H203.607C203.773 177.049 203.883 177.038 203.937 177.015C203.991 176.992 204.031 176.956 204.056 176.907C204.083 176.858 204.092 176.801 204.085 176.737C204.076 176.657 204.047 176.591 203.997 176.54C203.946 176.489 203.887 176.457 203.816 176.444C203.764 176.434 203.663 176.428 203.512 176.428H203.308Z" fill="#B9E0FB"/>
<path d="M206.845 178.248H206.387L206.149 177.751H205.314L205.196 178.248H204.749L205.321 176.058H205.766L206.845 178.248ZM205.974 177.382L205.597 176.568L205.404 177.382H205.974Z" fill="#B9E0FB"/>
<path d="M208.099 177.443L208.058 177.074H208.967L209.063 177.946C208.985 178.037 208.866 178.114 208.705 178.182C208.545 178.25 208.379 178.284 208.208 178.284C207.989 178.284 207.793 178.235 207.622 178.141C207.448 178.044 207.311 177.906 207.21 177.728C207.109 177.548 207.046 177.356 207.023 177.146C206.998 176.917 207.021 176.714 207.093 176.536C207.165 176.359 207.282 176.222 207.448 176.128C207.575 176.056 207.737 176.018 207.937 176.018C208.197 176.018 208.404 176.075 208.563 176.19C208.722 176.304 208.833 176.463 208.897 176.663L208.487 176.746C208.446 176.639 208.381 176.553 208.292 176.491C208.204 176.429 208.099 176.398 207.979 176.398C207.795 176.398 207.654 176.459 207.558 176.582C207.463 176.705 207.429 176.886 207.456 177.127C207.484 177.386 207.56 177.581 207.686 177.711C207.811 177.842 207.962 177.906 208.141 177.906C208.229 177.906 208.316 177.887 208.401 177.851C208.485 177.815 208.556 177.772 208.615 177.719L208.585 177.441H208.099V177.443Z" fill="#B9E0FB"/>
<path d="M209.628 178.248L209.386 176.058H210.936L210.977 176.428H209.85L209.904 176.915H210.952L210.993 177.283H209.946L210.01 177.879H211.177L211.219 178.248H209.628Z" fill="#B9E0FB"/>
<path d="M226.515 166.296H164.706L164.636 165.672H226.447L226.515 166.296Z" fill="white"/>
<path d="M224.752 170.078H167.306L167.237 169.454H224.684L224.752 170.078Z" fill="white"/>
<path d="M166.657 159.336L166.249 155.642H167.391C167.823 155.642 168.107 155.661 168.242 155.696C168.449 155.751 168.631 155.872 168.788 156.058C168.945 156.243 169.039 156.483 169.071 156.777C169.097 157.004 169.079 157.195 169.017 157.348C168.956 157.503 168.869 157.624 168.759 157.713C168.648 157.8 168.532 157.859 168.41 157.889C168.244 157.925 168 157.942 167.677 157.942H167.214L167.367 159.334H166.657V159.336ZM167.028 156.266L167.144 157.314H167.533C167.813 157.314 167.998 157.295 168.089 157.255C168.179 157.217 168.245 157.157 168.291 157.074C168.336 156.99 168.352 156.896 168.339 156.786C168.325 156.652 168.274 156.54 168.19 156.453C168.105 156.366 168.004 156.311 167.887 156.29C167.8 156.273 167.629 156.266 167.373 156.266H167.028Z" fill="#002646"/>
<path d="M173.732 159.337H172.958L172.558 158.497H171.149L170.951 159.337H170.197L171.162 155.642H171.914L173.732 159.337ZM172.262 157.874L171.626 156.503L171.301 157.874H172.262Z" fill="#002646"/>
<path d="M176.584 157.98L176.516 157.358H178.048L178.211 158.83C178.079 158.981 177.877 159.113 177.608 159.229C177.338 159.344 177.058 159.401 176.768 159.401C176.4 159.401 176.07 159.32 175.778 159.159C175.486 158.996 175.255 158.765 175.084 158.463C174.912 158.16 174.808 157.833 174.768 157.479C174.725 157.095 174.764 156.753 174.885 156.454C175.006 156.155 175.206 155.926 175.484 155.765C175.697 155.642 175.971 155.582 176.306 155.582C176.743 155.582 177.096 155.678 177.363 155.871C177.63 156.064 177.818 156.329 177.926 156.667L177.235 156.806C177.165 156.624 177.057 156.48 176.909 156.376C176.761 156.272 176.584 156.219 176.378 156.219C176.068 156.219 175.832 156.321 175.671 156.529C175.511 156.736 175.453 157.042 175.498 157.449C175.547 157.888 175.675 158.217 175.886 158.434C176.095 158.654 176.351 158.763 176.653 158.763C176.802 158.763 176.948 158.733 177.091 158.671C177.233 158.61 177.354 158.535 177.452 158.448L177.399 157.978H176.584V157.98Z" fill="#002646"/>
<path d="M179.902 159.337L179.495 155.642H182.106L182.175 156.268H180.274L180.364 157.087H182.133L182.202 157.71H180.432L180.544 158.716H182.512L182.58 159.339H179.902V159.337Z" fill="#002646"/>
<path d="M186.527 159.337L186.12 155.642H186.812L188.525 158.109L188.253 155.642H188.913L189.321 159.337H188.607L186.92 156.929L187.185 159.337H186.527Z" fill="#002646"/>
<path d="M190.711 157.51C190.67 157.134 190.688 156.818 190.767 156.562C190.826 156.375 190.917 156.205 191.039 156.055C191.162 155.906 191.301 155.794 191.458 155.722C191.667 155.626 191.914 155.577 192.201 155.577C192.72 155.577 193.155 155.745 193.503 156.084C193.853 156.422 194.06 156.891 194.125 157.493C194.192 158.089 194.087 158.556 193.815 158.893C193.543 159.23 193.148 159.398 192.632 159.398C192.107 159.398 191.672 159.232 191.328 158.895C190.982 158.56 190.776 158.098 190.711 157.51ZM191.441 157.485C191.488 157.904 191.615 158.221 191.822 158.437C192.029 158.653 192.275 158.761 192.56 158.761C192.843 158.761 193.063 158.655 193.221 158.439C193.38 158.225 193.434 157.904 193.387 157.476C193.341 157.052 193.216 156.738 193.018 156.528C192.818 156.32 192.572 156.216 192.278 156.216C191.984 156.216 191.761 156.322 191.604 156.532C191.449 156.742 191.395 157.06 191.441 157.485Z" fill="#002646"/>
<path d="M196.661 159.337L196.322 156.268H195.278L195.209 155.642H198.008L198.077 156.268H197.034L197.373 159.337H196.661Z" fill="#002646"/>
<path d="M202.213 159.337L201.805 155.642H204.218L204.287 156.268H202.584L202.682 157.142H204.152L204.22 157.767H202.75L202.923 159.337H202.213Z" fill="#002646"/>
<path d="M205.851 157.51C205.81 157.134 205.828 156.818 205.907 156.562C205.967 156.375 206.057 156.205 206.179 156.055C206.302 155.906 206.441 155.794 206.598 155.722C206.807 155.626 207.054 155.577 207.341 155.577C207.86 155.577 208.295 155.745 208.643 156.084C208.993 156.422 209.2 156.891 209.265 157.493C209.332 158.089 209.227 158.556 208.955 158.893C208.683 159.23 208.288 159.398 207.772 159.398C207.247 159.398 206.812 159.232 206.468 158.895C206.12 158.56 205.916 158.098 205.851 157.51ZM206.58 157.485C206.627 157.904 206.753 158.221 206.96 158.437C207.168 158.653 207.413 158.761 207.698 158.761C207.981 158.761 208.201 158.655 208.36 158.439C208.519 158.225 208.573 157.904 208.526 157.476C208.479 157.052 208.354 156.738 208.156 156.528C207.956 156.32 207.711 156.216 207.417 156.216C207.123 156.216 206.899 156.322 206.742 156.532C206.589 156.742 206.533 157.06 206.58 157.485Z" fill="#002646"/>
<path d="M210.595 155.642H211.306L211.526 157.644C211.56 157.961 211.592 158.168 211.619 158.26C211.666 158.412 211.753 158.533 211.877 158.624C212.002 158.714 212.164 158.762 212.362 158.762C212.564 158.762 212.71 158.718 212.804 158.631C212.896 158.546 212.947 158.438 212.954 158.313C212.961 158.187 212.949 157.978 212.916 157.685L212.691 155.642H213.401L213.616 157.583C213.664 158.026 213.681 158.34 213.663 158.523C213.645 158.707 213.591 158.86 213.5 158.987C213.412 159.112 213.284 159.214 213.12 159.288C212.956 159.363 212.734 159.399 212.454 159.399C212.119 159.399 211.859 159.358 211.675 159.278C211.493 159.197 211.343 159.091 211.228 158.96C211.113 158.83 211.031 158.694 210.983 158.552C210.912 158.34 210.855 158.028 210.81 157.613L210.595 155.642Z" fill="#002646"/>
<path d="M215.551 159.337L215.144 155.642H215.836L217.549 158.109L217.277 155.642H217.937L218.345 159.337H217.631L215.944 156.929L216.209 159.337H215.551Z" fill="#002646"/>
<path d="M219.67 155.642H220.97C221.264 155.642 221.49 155.667 221.649 155.712C221.861 155.776 222.051 155.89 222.217 156.053C222.383 156.215 222.516 156.416 222.619 156.652C222.722 156.889 222.792 157.18 222.83 157.524C222.864 157.829 222.857 158.09 222.808 158.311C222.751 158.58 222.648 158.798 222.503 158.964C222.393 159.089 222.238 159.187 222.036 159.259C221.885 159.31 221.677 159.337 221.416 159.337H220.078L219.67 155.642ZM220.451 156.266L220.722 158.712H221.252C221.45 158.712 221.593 158.701 221.677 158.676C221.789 158.646 221.879 158.595 221.948 158.523C222.016 158.451 222.065 158.332 222.094 158.166C222.125 158.001 222.123 157.774 222.092 157.488C222.062 157.203 222.013 156.983 221.948 156.83C221.883 156.677 221.802 156.558 221.706 156.473C221.611 156.387 221.495 156.329 221.358 156.299C221.257 156.276 221.061 156.264 220.77 156.264H220.451V156.266Z" fill="#002646"/>
<path d="M269.472 236.521L269.28 242.477C269.251 243.366 269.289 244.155 268.508 244.497L264.295 246.667C262.096 247.634 262.755 250.174 265.139 250.174H276.144V246.658L276.383 236.521H269.472Z" fill="#FFC5BD"/>
<path d="M275.019 246.382C275.191 246.28 275.586 246.042 275.715 245.987C276.155 245.8 276.595 246.252 276.595 246.746V252.616C276.595 253.109 276.213 253.511 275.742 253.511H255.017C254.398 253.511 253.899 252.987 253.899 252.338C253.899 252.26 253.913 252.167 253.928 252.09C254.001 251.734 254.236 251.426 254.575 251.271L266.92 244.996C267.603 244.64 268.13 244.916 268.262 245.554C268.478 246.604 269.347 247.245 271.403 247.217C272.891 247.2 274.193 246.874 275.019 246.382Z" fill="#193368"/>
<path d="M276.595 252.091V252.615C276.595 253.109 276.213 253.51 275.742 253.51H255.017C254.398 253.51 253.899 252.986 253.899 252.337C253.899 252.26 253.913 252.167 253.928 252.089H276.595V252.091Z" fill="#193972"/>
<path d="M298.329 238.688L299.584 250.441H306.241L304.984 238.688H298.329Z" fill="#FFC5BD"/>
<path d="M313.301 253.159C313.101 253.908 312.43 254.481 311.032 254.587C309.048 254.721 303.753 254.511 301.111 254.123C299.499 253.898 298.942 253.49 298.884 252.442C298.869 252.186 298.855 251.903 298.841 251.588C298.812 250.285 298.832 248.802 298.895 247.317C298.907 247.003 299.252 246.823 299.493 247.033C300.208 247.633 300.666 247.835 301.434 247.886C302.282 247.943 303.037 247.466 303.007 246.677C302.976 245.855 303.634 245.599 305.077 245.599C305.934 245.599 306.477 245.614 307.674 246.723C309.016 247.981 312.399 250.854 312.969 251.409C313.33 251.751 313.501 252.47 313.301 253.159Z" fill="#193368"/>
<path d="M313.302 253.156C313.101 253.905 312.431 254.624 311.033 254.728C309.049 254.862 303.754 254.652 301.112 254.265C299.5 254.039 298.942 253.485 298.885 252.437C298.87 252.182 298.856 251.898 298.841 251.584C299.155 252.184 299.741 252.677 300.854 252.842C303.622 253.277 309.776 253.442 311.859 253.321C312.36 253.29 312.845 253.247 313.302 253.156Z" fill="#193972"/>
<path d="M307.219 243.648L304.633 200.431L302.025 156.814L292.382 150.69L283.125 155.477L290.218 200.431L297.039 243.648H307.219Z" fill="#193972"/>
<path d="M277.832 243.648L282.526 200.431L287.41 155.471L278.162 150.69L268.513 156.82L268.081 200.431L267.653 243.648H277.832Z" fill="#193972"/>
<path d="M285.662 171.935C285.49 171.935 285.339 171.804 285.31 171.622L282.772 155.54C282.74 155.336 282.872 155.143 283.066 155.109C283.263 155.073 283.445 155.213 283.478 155.418L286.015 171.499C286.048 171.704 285.916 171.897 285.721 171.931C285.7 171.935 285.68 171.935 285.662 171.935Z" fill="#193368"/>
<path d="M301.848 147.724C301.201 140.687 301.597 132.677 302.178 122.167L303.513 106.877C300.38 104.308 295.348 102.146 290.876 100.878L279.019 101.253C275.88 102.237 271.784 104.168 268.781 106.128L270.769 123.08C269.831 135.163 268.63 150.055 267.838 162.467H302.575C302.403 157.855 302.007 149.55 301.848 147.724Z" fill="#63B6D3"/>
<path d="M283.951 108.927C282.857 108.927 281.841 108.699 280.936 108.248C279.174 107.372 277.863 105.64 277.428 103.61C277.385 103.407 277.506 103.207 277.699 103.161C277.895 103.118 278.083 103.245 278.126 103.445C278.512 105.252 279.675 106.794 281.241 107.569C282.292 108.091 283.556 108.271 284.828 108.125C287.293 107.845 290.585 106.222 291.748 102.579C291.811 102.382 292.018 102.278 292.199 102.342C292.386 102.408 292.487 102.62 292.424 102.815C291.153 106.797 287.58 108.564 284.905 108.869C284.59 108.909 284.271 108.927 283.951 108.927Z" fill="#37A6BF"/>
<path d="M289.379 138.011L288.394 143.634C285.154 143.009 278.908 142.306 274.104 141.884C270.017 141.524 266.439 141.059 264.471 140.681L266.017 131.855C273.847 133.651 281.622 135.698 289.332 137.998L289.379 138.011Z" fill="#FFC5BD"/>
<path d="M269.614 136.607C269.785 134.135 268.014 131.985 265.658 131.805C263.301 131.625 261.252 133.483 261.08 135.955C260.909 138.427 262.68 140.577 265.037 140.756C267.393 140.936 269.442 139.078 269.614 136.607Z" fill="#FFC5BD"/>
<path d="M291.71 141.043C291.819 139.468 290.691 138.099 289.19 137.984C287.689 137.87 286.383 139.053 286.274 140.628C286.165 142.203 287.293 143.572 288.794 143.687C290.295 143.801 291.601 142.618 291.71 141.043Z" fill="#FFC5BD"/>
<path d="M289.379 143.885C290.902 143.885 292.137 142.59 292.137 140.993C292.137 139.395 290.902 138.1 289.379 138.1C287.856 138.1 286.622 139.395 286.622 140.993C286.622 142.59 287.856 143.885 289.379 143.885Z" fill="#FFC5BD"/>
<path d="M288.895 143.862C289.322 144.053 289.961 144.308 290.565 144.459C291.16 144.609 291.737 144.615 292.359 144.518C292.992 144.418 294.704 143.619 295.299 142.999C296.049 143.309 296.484 143.496 297.137 143.349C297.375 143.296 297.617 143.215 297.797 143.044C297.977 142.874 298.104 142.592 298.01 142.356C298.293 142.361 298.578 142.238 298.776 142.027C298.975 141.813 299.139 141.444 299.126 141.147C299.402 141.164 299.683 141.028 299.851 140.797C300.019 140.566 300.013 140.129 299.925 139.853C300.233 140.014 300.54 140.176 300.848 140.337C301.023 140.428 301.213 140.523 301.404 140.487C301.71 140.428 301.878 140.057 301.871 139.73C301.864 139.384 301.72 139.053 301.523 138.776C301.326 138.5 301.077 138.268 300.83 138.037C299.815 137.093 298.459 136.487 297.306 135.801C296.459 135.298 293.99 136.064 293.03 136.189L288.715 138.287L288.895 143.862Z" fill="#FFC5BD"/>
<path d="M298.07 142.566C298.032 142.566 297.992 142.549 297.965 142.517L296.921 141.323L296.059 141.159C295.981 141.144 295.931 141.066 295.945 140.985C295.96 140.903 296.032 140.847 296.111 140.865L297.067 141.049L298.176 142.316C298.228 142.377 298.225 142.472 298.167 142.528C298.138 142.553 298.104 142.566 298.07 142.566Z" fill="#EF9B8F"/>
<path d="M299.186 141.364C299.146 141.364 299.106 141.347 299.077 141.313L297.842 139.83L296.596 139.692C296.516 139.683 296.46 139.609 296.468 139.527C296.477 139.444 296.549 139.391 296.625 139.393L297.983 139.544L299.292 141.117C299.344 141.179 299.339 141.274 299.279 141.328C299.252 141.351 299.218 141.364 299.186 141.364Z" fill="#EF9B8F"/>
<path d="M299.981 140.07C299.939 140.07 299.898 140.052 299.871 140.016L298.628 138.413L296.963 138.008C296.886 137.99 296.839 137.908 296.855 137.829C296.873 137.747 296.951 137.7 297.027 137.715L298.787 138.143L300.091 139.826C300.139 139.891 300.13 139.985 300.069 140.036C300.044 140.059 300.011 140.07 299.981 140.07Z" fill="#EF9B8F"/>
<path d="M295.537 109.84C294.2 112.742 295.275 116.212 297.93 117.754C298.025 117.808 298.121 117.861 298.22 117.911C301.086 119.362 304.53 118.102 305.914 115.096C307.297 112.09 306.096 108.476 303.23 107.025C300.364 105.574 296.92 106.834 295.537 109.84Z" fill="#FFC5BD"/>
<path d="M289.489 141.182C291.761 141.182 293.603 139.251 293.603 136.867C293.603 134.484 291.761 132.552 289.489 132.552C287.217 132.552 285.375 134.484 285.375 136.867C285.375 139.251 287.217 141.182 289.489 141.182Z" fill="#FFC5BD"/>
<path d="M305.91 115.095C302.22 123.244 297.991 131.114 293.257 138.647L293.193 138.747L285.785 134.996C289.574 126.895 292.818 118.528 295.498 109.953L295.534 109.837L305.91 115.095Z" fill="#FFC5BD"/>
<path d="M278.557 113.996L283.686 112.066C284.799 115.32 287.356 121.338 289.419 125.908C291.176 129.796 292.59 133.275 293.265 135.25L285.212 138.281C282.759 130.277 280.543 122.195 278.566 114.047L278.557 113.996Z" fill="#FFC5BD"/>
<path d="M292.736 139.196C294.06 137.143 293.548 134.354 291.591 132.965C289.635 131.576 286.975 132.113 285.651 134.165C284.327 136.218 284.839 139.007 286.796 140.396C288.752 141.786 291.412 141.248 292.736 139.196Z" fill="#FFC5BD"/>
<path d="M283.337 114.552C284.18 113.245 283.854 111.468 282.607 110.583C281.361 109.698 279.667 110.04 278.823 111.348C277.98 112.655 278.306 114.432 279.553 115.317C280.799 116.202 282.493 115.859 283.337 114.552Z" fill="#FFC5BD"/>
<path d="M276.818 115.291C275.984 118.525 272.89 120.485 269.802 119.802C269.692 119.778 269.582 119.749 269.472 119.719C266.278 118.815 264.388 115.364 265.25 112.014C266.112 108.664 269.402 106.681 272.596 107.585C275.791 108.492 277.68 111.94 276.818 115.291Z" fill="#FFC5BD"/>
<path d="M266.73 140.504C268.956 139.676 270.121 137.11 269.33 134.775C268.54 132.439 266.094 131.218 263.868 132.047C261.641 132.876 260.477 135.441 261.267 137.777C262.058 140.112 264.503 141.333 266.73 140.504Z" fill="#FFC5BD"/>
<path d="M265.251 112.013C262.863 121.056 261.507 128.316 261.181 134.989L261.165 135.114L269.423 137.454C271.7 128.381 273.313 124.06 276.772 115.407L276.819 115.292L265.251 112.013Z" fill="#FFC5BD"/>
<path d="M271.166 132.41L277.274 115.658C277.274 115.658 278.326 113.021 277.61 110.715C277.101 109.079 276.05 106.983 273.516 106.029C271.079 105.112 267.681 105.679 266.075 108.402C262.648 114.207 260.909 127.976 260.237 135.853L260.179 136.873C260.049 139.179 261.67 141.184 263.86 141.428L285.889 143.884L287.52 136.78L271.166 132.41Z" fill="#63B6D3"/>
<path d="M290.876 100.872L284.937 99.2939L279.02 101.246V101.929C278.991 103.794 280.2 105.41 281.588 106.078C282.535 106.534 283.583 106.626 284.6 106.513C287.484 106.195 290.371 104.258 290.876 100.872Z" fill="#FFC5BD"/>
<path d="M290.883 90.0228C291.735 87.9683 292.485 86.5211 292.73 84.2624C292.892 82.7735 292.777 81.2128 292.164 79.8829C291.551 78.553 290.546 77.1039 289.211 76.9563C288.77 75.4486 287.35 74.5178 285.94 74.3249C284.248 74.0922 282.634 74.7884 280.977 74.9794C279.967 75.0948 278.91 75.4524 277.909 75.2556C276.726 75.021 276.062 74.8394 274.832 74.9454C273.384 75.0721 272.156 76.3661 271.655 77.889C271.153 79.4119 271.278 81.1144 271.671 82.6752C271.974 83.8783 272.446 85.0588 273.227 85.9517C274.803 87.7527 276.151 86.5609 278.129 86.6384C280.034 86.7141 281.714 87.6297 282.672 89.5215C283.31 90.7871 283.66 91.453 284.084 92.8283C284.436 93.969 284.955 95.2157 285.978 95.6035C286.779 95.9081 287.686 95.5732 288.348 94.9811C289.686 93.7836 290.187 91.7027 290.883 90.0228Z" fill="#193368"/>
<path d="M289.693 103.425L280.664 104.027L280.448 100.408L279.646 87.0691L288.674 86.4731L288.935 90.8185L289.693 103.425Z" fill="#FFC5BD"/>
<path d="M288.935 90.8185C288.488 95.7182 284.942 99.602 280.448 100.408L279.646 87.0691L288.672 86.4731L288.935 90.8185Z" fill="#EF9B8F"/>
<path d="M276.502 91.2552C277.52 90.9403 278.071 89.7135 277.734 88.515C277.397 87.3166 276.299 86.6003 275.282 86.9152C274.264 87.2301 273.713 88.4569 274.05 89.6554C274.387 90.8538 275.485 91.5701 276.502 91.2552Z" fill="#EF9B8F"/>
<path d="M290.625 84.7163C290.632 88.602 289.826 91.9031 287.862 94.8997C287.114 96.0404 286.077 97.0071 284.859 97.6238C282.558 98.7911 279.434 98.6435 277.701 96.7196C276.158 95.0056 275.483 92.5388 275.195 90.1797C274.888 87.6864 274.772 85.1665 274.888 82.6581C275.052 79.1072 278.296 76.2147 282.91 76.2241C288.097 76.2336 290.616 80.1798 290.625 84.7163Z" fill="#FFC5BD"/>
<path d="M282.89 75.7852C278.269 75.7852 274.651 78.7325 274.471 82.6371C274.435 83.1063 274.471 83.2066 274.471 83.2066C277.723 84.3927 282.361 84.1487 285.638 82.9758L285.658 82.9417C285.9 84.0692 286.639 85.1381 287.393 85.5524V89.0956H288.451H290.655C290.919 87.7392 291.045 86.2883 291.045 84.7181C291.032 79.3001 287.842 75.7946 282.89 75.7852Z" fill="#193368"/>
<path d="M290.987 89.6847C291.324 88.4862 290.773 87.2594 289.755 86.9445C288.738 86.6296 287.64 87.3459 287.303 88.5443C286.965 89.7428 287.517 90.9696 288.534 91.2845C289.552 91.5994 290.65 90.8831 290.987 89.6847Z" fill="#FFC5BD"/>
<path d="M288.096 89.4585C288.092 89.4585 288.088 89.4585 288.085 89.4585C287.987 89.4529 287.912 89.362 287.917 89.2599C287.93 89.065 287.975 88.874 288.054 88.6905C288.317 88.0757 288.927 87.6822 289.502 87.754C289.603 87.7673 289.702 87.7938 289.796 87.8335C289.984 87.913 290.146 88.0473 290.271 88.2213C290.33 88.3045 290.314 88.4218 290.234 88.4824C290.155 88.5467 290.043 88.5278 289.986 88.4445C289.901 88.3254 289.789 88.2346 289.663 88.1797C289.598 88.1532 289.531 88.1343 289.461 88.1248C289.042 88.0756 288.582 88.3746 288.379 88.8437C288.317 88.9856 288.283 89.1313 288.274 89.2807C288.269 89.3829 288.189 89.4585 288.096 89.4585Z" fill="#EF9B8F"/>
<path d="M277.385 88.1457C277.062 88.0776 276.75 88.297 276.685 88.6357C276.62 88.9743 276.829 89.3016 277.152 89.3697C277.475 89.4378 277.787 89.2183 277.852 88.8797C277.915 88.5411 277.708 88.2119 277.385 88.1457Z" fill="#193368"/>
<path d="M282.202 88.1457C281.879 88.0776 281.567 88.297 281.502 88.6357C281.437 88.9743 281.646 89.3016 281.969 89.3697C282.292 89.4378 282.604 89.2183 282.669 88.8797C282.732 88.5411 282.524 88.2119 282.202 88.1457Z" fill="#193368"/>
<path d="M283.999 86.2666C283.971 86.1361 283.812 86.0623 283.664 86.0396C282.975 85.9337 282.288 86.0188 281.615 86.1777C281.379 86.2326 280.735 86.3253 280.838 86.6582C280.905 86.8739 281.28 87.0309 281.516 87.0063C282.043 86.9514 282.566 86.8833 283.087 86.802C283.383 86.7566 284.095 86.6961 283.999 86.2666Z" fill="#193368"/>
<path d="M278.229 86.3738C277.591 86.0938 276.902 86.0049 276.209 85.9898C276.016 85.986 275.811 85.9576 275.623 86.003C275.537 86.0238 275.456 86.0579 275.403 86.1241C275.34 86.2016 275.322 86.3889 275.362 86.4816C275.402 86.5724 275.488 86.6424 275.584 86.6859C275.86 86.8127 276.197 86.8297 276.494 86.8694C276.817 86.911 277.142 86.9489 277.466 86.981C277.764 87.0094 278.471 87.1324 278.494 86.684C278.5 86.5478 278.366 86.4343 278.229 86.3738Z" fill="#193368"/>
<path d="M279.246 92.4203C279.223 92.4203 279.2 92.4146 279.176 92.4052C278.817 92.2444 278.581 92.0154 278.473 91.7298C278.375 91.4706 278.392 91.1831 278.521 90.8728C278.594 90.6988 278.705 90.4831 278.83 90.2429C278.983 89.9477 279.154 89.6148 279.299 89.2743C279.338 89.1797 279.443 89.1381 279.535 89.1797C279.625 89.2213 279.665 89.331 279.625 89.4275C279.475 89.7794 279.301 90.1218 279.144 90.4226C279.025 90.6534 278.916 90.8596 278.848 91.0242C278.76 91.2379 278.743 91.429 278.805 91.5936C278.875 91.7847 279.048 91.9417 279.317 92.0627C279.407 92.1044 279.448 92.2141 279.411 92.3087C279.382 92.3787 279.315 92.4203 279.246 92.4203Z" fill="#EF9B8F"/>
<path d="M279.566 93.841C279.512 93.841 279.458 93.8145 279.422 93.7653C279.364 93.6821 279.381 93.5648 279.458 93.5024C280.12 92.9878 281.292 92.7305 282.255 92.8895C282.353 92.9065 282.419 93.003 282.403 93.1032C282.389 93.2054 282.297 93.2773 282.199 93.2583C281.325 93.1089 280.262 93.3416 279.671 93.8032C279.64 93.8297 279.604 93.841 279.566 93.841Z" fill="#EF9B8F"/>
<path d="M276.952 90.9403C275.971 90.7644 275.248 89.8393 275.3 88.7724C275.358 87.6222 276.298 86.7368 277.394 86.7974C278.492 86.8579 279.335 87.8435 279.277 88.9937C279.219 90.1439 278.28 91.0293 277.183 90.9687C277.106 90.963 277.028 90.9536 276.952 90.9403ZM277.594 87.0206C277.526 87.0093 277.455 86.9998 277.385 86.996C276.393 86.9411 275.544 87.7432 275.491 88.7837C275.439 89.8242 276.202 90.7152 277.196 90.7701C278.188 90.8249 279.037 90.0228 279.089 88.9824C279.136 88.0157 278.482 87.1795 277.594 87.0206Z" fill="white"/>
<path d="M281.79 90.9388C281.35 90.8594 280.952 90.6304 280.649 90.2767C280.293 89.8624 280.113 89.327 280.142 88.769C280.2 87.6188 281.139 86.7334 282.236 86.7939C282.766 86.8223 283.255 87.0682 283.61 87.4825C283.965 87.8968 284.146 88.4322 284.117 88.9903C284.088 89.5465 283.855 90.0591 283.46 90.4318C283.065 90.8045 282.555 90.9937 282.023 90.9653C281.945 90.9615 281.866 90.952 281.79 90.9388ZM282.436 87.0191C282.366 87.0058 282.295 86.9983 282.225 86.9945C281.233 86.9396 280.384 87.7417 280.331 88.7822C280.306 89.2854 280.468 89.7697 280.791 90.1462C281.112 90.5207 281.556 90.744 282.036 90.7704C282.515 90.7969 282.977 90.6267 283.336 90.288C283.693 89.9513 283.904 89.4878 283.931 88.9827C283.956 88.4795 283.794 87.9952 283.471 87.6188C283.195 87.2972 282.835 87.0891 282.436 87.0191Z" fill="white"/>
<path d="M279.241 88.5672C279.553 88.4272 279.881 88.4291 280.19 88.5766C280.307 88.6315 280.392 88.4423 280.274 88.3855C279.919 88.2172 279.53 88.2096 279.171 88.3704C279.052 88.4234 279.122 88.6201 279.241 88.5672Z" fill="white"/>
<path d="M283.995 88.2971C284.747 88.072 285.256 87.9131 286.008 87.688C286.132 87.6501 286.083 87.4458 285.959 87.4837C285.284 87.6861 284.024 88.0701 283.946 88.0928C283.824 88.1288 283.87 88.3331 283.995 88.2971Z" fill="white"/>
<path d="M279.855 99.6566C279.855 99.6566 280.348 97.7611 280.804 97.9257C281.258 98.0902 281.998 98.8734 282.281 99.1421C282.597 99.441 282.386 100.154 281.991 100.192C281.578 100.232 280.53 100.094 280.252 100.086C279.974 100.08 279.855 99.6566 279.855 99.6566Z" fill="#EF9B8F"/>
<path d="M281.046 115.72C282.509 115.72 283.694 114.476 283.694 112.943C283.694 111.409 282.509 110.166 281.046 110.166C279.584 110.166 278.399 111.409 278.399 112.943C278.399 114.476 279.584 115.72 281.046 115.72Z" fill="#FFC5BD"/>
<path d="M278.581 113.953C278.442 113.427 278.296 112.867 278.067 112.377C277.578 111.336 276.72 110.547 276.047 109.626C275.515 108.896 275.1 108.079 274.749 107.241C274.411 106.439 274.026 105.563 273.829 104.709C273.699 104.148 273.721 103.51 274.054 103.05C274.208 102.839 274.421 102.676 274.543 102.443C274.763 102.027 274.653 101.476 274.902 101.079C275.14 100.697 275.631 100.582 275.932 100.251C276.096 100.071 276.193 99.8382 276.33 99.6357C276.617 99.2082 277.066 98.9263 277.535 98.7504C277.694 98.6918 277.863 98.6369 277.97 98.4988C278.067 98.3739 278.089 98.2018 278.168 98.0637C278.316 97.8064 278.628 97.7156 278.911 97.6797C279.55 97.5983 280.208 97.6816 280.808 97.9237C280.888 97.9559 280.98 98.0126 280.976 98.1015C280.973 98.1696 280.913 98.215 280.863 98.2585C280.237 98.7844 280.632 99.7114 280.776 100.377C281.01 101.454 281.743 103.663 282.931 103.962C283.602 104.131 283.703 103.022 283.708 102.557C283.714 102.131 283.69 101.694 283.817 101.289C283.943 100.884 284.268 100.51 284.675 100.495C284.821 100.489 284.976 100.536 285.07 100.654C285.296 100.932 285.157 101.482 285.155 101.813C285.151 102.292 285.178 102.772 285.167 103.251C285.16 103.584 285.153 103.917 285.146 104.25C285.131 104.919 285.117 105.589 285.034 106.253C284.904 107.29 284.282 108.079 283.912 109.049C283.543 110.02 283.297 111.106 283.575 112.11L278.581 113.953Z" fill="#FFC5BD"/>
<path d="M285.096 106.563C285.089 106.563 285.08 106.563 285.073 106.561C284.995 106.548 284.943 106.471 284.956 106.389C284.963 106.344 284.97 106.297 284.975 106.247C285.053 105.619 285.071 104.987 285.085 104.286L285.087 104.248C285.095 103.917 285.102 103.584 285.109 103.253C285.114 102.993 285.109 102.732 285.104 102.477V102.418C285.1 102.218 285.095 102.015 285.098 101.817C285.098 101.73 285.109 101.63 285.12 101.524C285.149 101.221 285.179 100.882 285.028 100.695C284.957 100.608 284.822 100.557 284.669 100.557C284.276 100.572 283.982 100.947 283.866 101.312C283.765 101.637 283.764 101.991 283.762 102.335V102.562C283.756 102.88 283.708 103.65 283.361 103.934C283.237 104.034 283.084 104.064 282.916 104.023C281.733 103.724 280.923 101.353 280.66 100.141C280.642 100.059 280.69 99.9799 280.768 99.961C280.84 99.9421 280.921 99.9931 280.939 100.074C281.217 101.359 282.02 103.487 282.983 103.731C283.096 103.76 283.15 103.724 283.185 103.697C283.388 103.531 283.468 102.98 283.475 102.558V102.348C283.477 101.968 283.479 101.588 283.594 101.219C283.74 100.756 284.128 100.279 284.663 100.258C284.907 100.258 285.116 100.347 285.244 100.5C285.475 100.786 285.437 101.191 285.405 101.548C285.394 101.652 285.385 101.743 285.385 101.821C285.383 102.019 285.387 102.218 285.39 102.416L285.392 102.475C285.398 102.732 285.405 102.999 285.398 103.264C285.388 103.597 285.383 103.93 285.376 104.263L285.374 104.301C285.36 105.008 285.34 105.65 285.26 106.293C285.255 106.344 285.246 106.395 285.239 106.446C285.226 106.51 285.167 106.563 285.096 106.563Z" fill="#EF9B8F"/>
<path d="M284.372 112.063L289.831 124.477L294.78 110.828C294.78 110.828 295.682 108.1 297.712 106.942C299.031 106.191 300.742 105.646 303.227 106.736C305.615 107.784 307.229 110.221 306.979 113.412C306.389 120.951 297.198 134.608 293.002 140.035C290.635 143.096 285.871 143.211 284.585 138.643C282.913 132.71 278.121 114.842 278.121 114.842L284.372 112.063Z" fill="#63B6D3"/>
<path d="M289.911 125.449L290.212 124.615C290.256 124.498 294.478 112.803 295.024 111.341C295.63 109.725 296.554 107.773 298.323 107.022C298.505 106.944 298.593 106.725 298.519 106.534C298.445 106.341 298.236 106.25 298.054 106.327C296.009 107.196 294.965 109.449 294.359 111.068C293.895 112.304 290.826 120.798 289.845 123.518L284.741 111.916C284.658 111.727 284.445 111.645 284.268 111.732C284.09 111.819 284.01 112.041 284.093 112.228L289.911 125.449Z" fill="#37A6BF"/>
<path d="M286.301 141.72C286.429 141.72 286.554 141.647 286.617 141.518C286.709 141.334 286.64 141.109 286.465 141.013C286.07 140.797 285.327 139.823 284.913 138.332C284.523 136.934 279.331 117.778 278.595 115.063L278.887 114.933C279.068 114.851 279.154 114.632 279.077 114.443C278.999 114.254 278.788 114.163 278.609 114.244L277.737 114.632L277.823 114.95C277.883 115.171 283.811 137.044 284.229 138.544C284.68 140.163 285.531 141.346 286.137 141.677C286.19 141.707 286.245 141.72 286.301 141.72Z" fill="#37A6BF"/>
<path d="M296.489 135.622C296.606 135.622 296.72 135.562 296.789 135.452L302.834 125.66C302.94 125.486 302.893 125.255 302.727 125.142C302.565 125.032 302.342 125.078 302.233 125.253L296.188 135.045C296.082 135.219 296.129 135.45 296.294 135.564C296.354 135.603 296.421 135.622 296.489 135.622Z" fill="#37A6BF"/>
<path d="M283.824 136.139C283.983 136.139 284.127 136.027 284.168 135.859C284.219 135.66 284.104 135.454 283.914 135.403L269.706 131.517L269.286 118.129C269.279 117.923 269.145 117.787 268.918 117.768C268.722 117.776 268.567 117.948 268.574 118.154L269.012 132.1L283.736 136.126C283.764 136.135 283.795 136.139 283.824 136.139Z" fill="#37A6BF"/>
<path d="M285.935 144.261C286.115 144.261 286.269 144.119 286.288 143.926C286.31 143.72 286.168 143.536 285.971 143.514L268.131 141.523C267.943 141.495 267.759 141.65 267.738 141.856C267.716 142.063 267.859 142.246 268.055 142.269L285.895 144.259C285.91 144.259 285.922 144.261 285.935 144.261Z" fill="#37A6BF"/>
</svg>
