<svg width="280" height="210" viewBox="0 0 280 210" fill="none" xmlns="http://www.w3.org/2000/svg">
<g clip-path="url(#clip0_4292_13544)">
<path opacity="0.1" d="M27.3013 142.433C23.7382 163.257 41.1858 179.431 44.0938 183.094L237.447 185.871C256.398 180.105 249.647 144.736 250.857 139.744C257.341 113.06 274.645 103.95 269.796 82.9326C261.497 46.9203 213.472 63.0264 196.555 50.34C185.79 42.2714 179.444 18.6085 156.755 15.4572C136.549 12.6553 127.201 23.4509 101.835 38.3525C74.9891 54.1216 44.0938 39.2636 32.9113 74.6269C29.0424 86.8577 37.8161 97.048 35.3075 117.447C33.916 128.829 29.2545 131.007 27.3013 142.433Z" fill="#2A8DCF"/>
<path d="M32.5187 174.195C41.0366 175.057 44.8806 179.45 46.2347 181.397H44.319C43.7262 180.654 42.5904 179.525 40.6372 178.532C38.2472 177.322 34.3908 177.478 30.9711 177.659C27.5515 177.834 18.3909 180.461 17.511 178.158C16.6249 175.849 23.876 173.322 32.5187 174.195Z" fill="#70BEED"/>
<path d="M17.6855 122.296C22.0225 120.062 24.4998 124.062 26.765 127.375C29.2424 130.714 30.5279 133.927 32.9117 135.868C38.1347 140.124 49.9724 143.893 51.988 148.692C53.3172 152.511 54.2782 158.264 56.4435 162.445C58.2657 165.971 61.4295 167.275 65.0363 169.029C69.9286 171.15 76.1439 177.022 76.4122 181.26L49.0613 181.403C39.1394 172.929 50.846 162.021 26.5341 152.105C24.4062 151.238 21.7541 148.342 21.8228 146.246C21.9101 142.489 22.4031 140.299 21.0677 137.503C17.3111 130.059 13.3486 124.53 17.6855 122.296Z" fill="#E1F2FF"/>
<path d="M63.7257 180.417C63.6383 180.417 63.5447 180.392 63.4698 180.33C63.0268 179.999 52.5058 172.136 48.6119 167.163C47.8256 166.158 47.133 164.08 46.328 161.678C45.2359 158.408 44.0004 154.701 42.2281 152.692C41.1236 151.444 38.977 150.027 36.7056 148.536C32.3748 145.684 27.4638 142.451 26.2844 138.414C25.0738 134.258 18.9521 126.72 18.8897 126.645C18.74 126.464 18.7712 126.189 18.9521 126.04C19.1331 125.89 19.4077 125.921 19.5574 126.102C19.8133 126.414 25.8476 133.852 27.1081 138.177C28.2001 141.915 32.9677 145.054 37.1736 147.824C39.5948 149.415 41.6852 150.795 42.8647 152.13C44.7554 154.27 46.0222 158.064 47.1392 161.409C47.8818 163.643 48.5869 165.752 49.2796 166.638C53.1048 171.525 63.8692 179.568 63.9753 179.649C64.1625 179.793 64.2062 180.061 64.0627 180.248C63.9878 180.361 63.8567 180.417 63.7257 180.417Z" fill="#81D1EA"/>
<path d="M52.8181 181.078C52.6745 180.872 47.4015 166.607 36.0755 163.25C24.7496 159.893 11.9945 162.607 12.2067 167.3C12.4189 171.993 27.6637 171.743 33.0428 172.036C37.6418 172.292 43.1894 172.504 45.8103 175.599C49.3423 179.774 49.673 181.078 49.673 181.078H52.8181Z" fill="#70BEED"/>
<path d="M53.1186 181.846C53.337 181.746 53.5617 181.653 53.7863 181.559C53.2684 181.01 52.8441 180.548 52.5632 180.218C50.3605 177.572 43.6023 170.19 38.8972 167.881C37.8925 167.388 36.6944 166.87 35.4276 166.321C30.6414 164.255 24.0891 161.428 20.7881 156.673C17.9113 152.53 8.78188 150.982 8.39498 150.92C8.20778 150.889 8.03305 151.013 8.00185 151.201C7.97065 151.388 8.09545 151.563 8.28266 151.594C8.37626 151.606 17.5119 153.154 20.2264 157.06C23.6398 161.971 30.2981 164.848 35.1593 166.945C36.4198 167.488 37.6117 168.006 38.5976 168.486C43.2029 170.745 49.8612 178.027 52.0391 180.648C52.2949 180.96 52.6693 181.366 53.1186 181.846Z" fill="#B1DFF0"/>
<path d="M17.1999 153.628C17.2747 153.328 18.9222 146.258 15.7272 145.378C15.0844 145.204 14.7287 145.422 14.5478 145.641C13.4308 146.982 16.0267 152.586 16.5571 153.697C16.6195 153.828 16.7568 153.903 16.9003 153.89C16.9315 153.884 16.9627 153.878 16.9939 153.865C17.1 153.821 17.1749 153.734 17.1999 153.628ZM15.5462 146.04C17.3559 146.539 17.125 150.227 16.7381 152.461C15.6148 149.934 14.5228 146.739 15.0719 146.084C15.0844 146.071 15.1031 146.046 15.1531 146.027C15.2217 145.99 15.334 145.977 15.5462 146.04Z" fill="#B1DFF0"/>
<path d="M16.6194 154.395C16.7442 154.302 16.7941 154.139 16.7379 153.996C16.6818 153.852 16.5382 153.765 16.3822 153.784C14.3043 154.021 7.48993 154.907 7.07184 156.436C7.00943 156.667 7.02816 157.016 7.48993 157.372C8.53205 158.171 10.2668 157.802 11.9454 157.097C14.1295 156.18 16.2325 154.676 16.6194 154.395ZM15.0531 154.639C12.869 156.036 9.29959 157.896 7.90179 156.829C7.77074 156.729 7.72082 156.648 7.72706 156.617C7.77074 156.448 8.04531 156.267 8.48213 156.08C9.73641 155.556 12.376 155.007 15.0531 154.639Z" fill="#B1DFF0"/>
<path d="M11.8648 152.218C11.9896 152.124 12.0396 151.962 11.9834 151.818C11.9272 151.675 11.7837 151.587 11.6277 151.606C9.66204 151.831 5.05676 152.473 4.73851 153.615C4.69483 153.778 4.6761 154.096 5.07548 154.395C5.86799 155.001 7.17843 154.726 8.43896 154.196C10.0489 153.522 11.584 152.423 11.8648 152.218ZM10.2611 152.473C8.52632 153.534 6.336 154.501 5.49357 153.853C5.44365 153.815 5.41869 153.784 5.40621 153.784C5.61214 153.397 7.69013 152.854 10.2611 152.473Z" fill="#B1DFF0"/>
<path d="M20.7571 157.497C20.8819 157.403 20.9318 157.241 20.8756 157.097C20.8195 156.954 20.6759 156.867 20.5199 156.885C18.4419 157.122 11.6339 158.009 11.2095 159.537C11.1471 159.768 11.1659 160.118 11.6276 160.473C12.6697 161.272 14.4045 160.904 16.0831 160.199C18.2672 159.282 20.3702 157.778 20.7571 157.497ZM19.1908 157.74C17.0067 159.138 13.4373 160.998 12.0395 159.931C11.9084 159.831 11.8585 159.75 11.8648 159.718C11.9147 159.55 12.183 159.369 12.6198 159.182C13.8741 158.658 16.5137 158.108 19.1908 157.74Z" fill="#B1DFF0"/>
<path d="M25.093 161.546C25.2178 161.453 25.2677 161.29 25.2116 161.147C25.1554 161.003 25.0119 160.916 24.8559 160.935C22.7779 161.172 15.9698 162.058 15.5455 163.587C15.4831 163.818 15.5018 164.167 15.9636 164.523C17.0057 165.322 18.7405 164.953 20.4191 164.248C22.6032 163.331 24.7124 161.833 25.093 161.546ZM23.5267 161.79C21.3426 163.181 17.7732 165.047 16.3754 163.98C16.2444 163.88 16.1945 163.799 16.2007 163.768C16.2506 163.599 16.5189 163.418 16.9558 163.231C18.2163 162.707 20.8497 162.158 23.5267 161.79Z" fill="#B1DFF0"/>
<path d="M29.8491 164.48C29.9677 164.38 29.9989 164.211 29.924 164.074C29.8553 163.937 29.6993 163.862 29.5496 163.893C27.4903 164.33 20.7571 165.884 20.5075 167.431C20.47 167.669 20.5324 168.018 21.0379 168.318C21.9365 168.842 23.1658 168.636 24.4326 168.105C26.8787 167.076 29.4372 164.848 29.8491 164.48ZM28.314 164.873C26.2922 166.458 22.9349 168.642 21.3874 167.731C21.2251 167.637 21.1814 167.562 21.1814 167.544C21.2189 167.294 21.7555 166.97 22.6042 166.614C23.9646 166.046 26.1112 165.397 28.314 164.873Z" fill="#B1DFF0"/>
<path d="M11.9269 152.111C12.0018 151.812 13.6492 144.742 10.4542 143.862C9.81147 143.687 9.45578 143.906 9.27481 144.124C8.15781 145.466 10.7537 151.069 11.2842 152.174C11.3466 152.305 11.4838 152.38 11.6274 152.367C11.6586 152.361 11.6898 152.355 11.721 152.342C11.8271 152.305 11.9019 152.217 11.9269 152.111ZM10.2795 144.517C12.0891 145.016 11.8583 148.704 11.4714 150.938C10.3481 148.411 9.25609 145.216 9.80523 144.561C9.81771 144.548 9.83643 144.517 9.88635 144.498C9.94875 144.473 10.0673 144.461 10.2795 144.517Z" fill="#B1DFF0"/>
<path d="M9.612 151.6C9.66816 151.463 9.63072 151.3 9.5184 151.207C9.28751 151.013 3.88348 146.502 1.02546 148.405C0.451361 148.792 0.40768 149.172 0.470082 149.428C0.850735 150.92 7.29688 151.631 9.26255 151.812C9.31871 151.818 9.37487 151.806 9.4248 151.787C9.51216 151.743 9.57456 151.681 9.612 151.6ZM8.13307 151.001C4.68223 150.601 1.28755 149.865 1.13155 149.254C1.12531 149.222 1.18147 149.116 1.40611 148.967C1.5122 148.892 1.63076 148.835 1.74933 148.786C3.59019 148.012 6.61046 149.903 8.13307 151.001Z" fill="#B1DFF0"/>
<path d="M21.2749 157.066C21.6306 156.349 24.6634 150.009 21.874 148.53C21.3186 148.23 20.9317 148.368 20.7071 148.53C19.2843 149.584 20.3951 155.756 20.6322 156.979C20.6571 157.123 20.7757 157.235 20.9192 157.254C20.9816 157.26 21.044 157.254 21.094 157.229C21.1751 157.198 21.2375 157.141 21.2749 157.066ZM21.5557 149.129C23.147 149.978 22.03 153.609 21.1127 155.775C20.6634 153.004 20.4138 149.597 21.1127 149.079C21.1252 149.073 21.1376 149.06 21.1564 149.054C21.2188 149.029 21.3373 149.017 21.5557 149.129Z" fill="#B1DFF0"/>
<path d="M25.1997 161.116C25.5554 160.399 28.5882 154.059 25.7988 152.58C25.2434 152.28 24.8565 152.417 24.6319 152.58C23.2091 153.634 24.3199 159.806 24.557 161.029C24.5819 161.172 24.7005 161.285 24.844 161.303C24.9064 161.31 24.9688 161.304 25.0188 161.279C25.0999 161.247 25.1623 161.191 25.1997 161.116ZM25.4805 153.179C27.0718 154.027 25.9548 157.659 25.0375 159.825C24.5882 157.054 24.3386 153.647 25.0375 153.129C25.05 153.123 25.0624 153.11 25.0812 153.104C25.1436 153.079 25.2621 153.066 25.4805 153.179Z" fill="#B1DFF0"/>
<path d="M29.7915 163.999C30.1472 163.281 33.18 156.941 30.3906 155.462C29.8352 155.162 29.4483 155.3 29.2237 155.462C27.8009 156.517 28.9117 162.688 29.1488 163.911C29.1737 164.055 29.2923 164.167 29.4358 164.186C29.4982 164.192 29.5606 164.186 29.6106 164.161C29.6917 164.13 29.7541 164.073 29.7915 163.999ZM30.0661 156.061C31.6574 156.91 30.5404 160.535 29.623 162.707C29.1737 159.936 28.9241 156.529 29.6293 156.011C29.6355 156.005 29.6542 155.992 29.673 155.986C29.7354 155.955 29.8477 155.942 30.0661 156.061Z" fill="#B1DFF0"/>
<path d="M35.1655 166.994C35.2841 166.895 35.3153 166.726 35.2404 166.589C35.1717 166.452 35.0157 166.377 34.866 166.408C32.8067 166.845 26.0797 168.399 25.8239 169.952C25.7865 170.189 25.8489 170.539 26.3543 170.838C27.2529 171.363 28.4822 171.157 29.7427 170.626C32.1952 169.59 34.7536 167.363 35.1655 166.994ZM33.6304 167.388C31.6086 168.979 28.2513 171.157 26.7038 170.246C26.5415 170.152 26.4978 170.077 26.4978 170.058C26.5353 169.809 27.0719 169.484 27.9206 169.129C29.281 168.561 31.4276 167.912 33.6304 167.388Z" fill="#B1DFF0"/>
<path d="M35.1094 166.514C35.4651 165.796 38.4978 159.456 35.7085 157.971C35.1531 157.671 34.7662 157.809 34.5415 157.971C33.1188 159.025 34.2295 165.197 34.4667 166.42C34.4916 166.564 34.6102 166.676 34.7537 166.695C34.8161 166.701 34.8785 166.695 34.9284 166.67C35.0096 166.645 35.072 166.589 35.1094 166.514ZM35.3902 158.576C36.9815 159.425 35.8645 163.057 34.9472 165.222C34.4979 162.451 34.2482 159.038 34.9472 158.526C34.9534 158.52 34.9721 158.507 34.9908 158.501C35.0532 158.47 35.1718 158.458 35.3902 158.576Z" fill="#B1DFF0"/>
<path d="M40.6006 169.546C40.7191 169.446 40.7503 169.278 40.6754 169.141C40.6068 169.003 40.4508 168.928 40.301 168.96C38.2418 169.396 31.5086 170.957 31.259 172.504C31.2215 172.741 31.2839 173.091 31.7894 173.39C32.688 173.914 33.9173 173.708 35.1778 173.178C37.6302 172.142 40.1887 169.914 40.6006 169.546ZM39.0655 169.939C37.0436 171.531 33.6864 173.708 32.1388 172.797C31.9766 172.704 31.9329 172.629 31.9329 172.61C31.9703 172.361 32.507 172.036 33.3557 171.68C34.716 171.113 36.8627 170.464 39.0655 169.939Z" fill="#B1DFF0"/>
<path d="M40.544 169.066C40.8997 168.349 43.9324 162.009 41.143 160.53C40.5876 160.23 40.2008 160.368 39.9761 160.53C38.5533 161.584 39.6641 167.756 39.9012 168.979C39.9262 169.123 40.0448 169.235 40.1883 169.254C40.2507 169.26 40.3131 169.254 40.363 169.229C40.4441 169.198 40.5065 169.141 40.544 169.066ZM40.8185 161.129C42.4098 161.978 41.2928 165.609 40.3755 167.775C39.9262 165.004 39.6766 161.597 40.3755 161.079C40.388 161.073 40.4004 161.06 40.4192 161.054C40.4878 161.023 40.6001 161.01 40.8185 161.129Z" fill="#B1DFF0"/>
<path d="M223.751 172.823C223.714 172.823 223.676 172.817 223.645 172.805C223.502 172.748 223.433 172.58 223.489 172.436C223.533 172.336 227.552 162.446 228.269 159.931C229.081 157.085 231.801 148.948 234.584 145.535C235.177 144.805 235.907 143.993 236.681 143.132C239.758 139.706 243.589 135.438 244.563 130.54C245.411 126.284 251.714 121.997 251.982 121.816C252.113 121.728 252.288 121.766 252.375 121.891C252.463 122.022 252.431 122.196 252.3 122.284C252.238 122.327 245.923 126.621 245.118 130.646C244.113 135.7 240.057 140.212 237.099 143.507C236.332 144.362 235.608 145.173 235.021 145.89C232.3 149.229 229.617 157.266 228.812 160.087C228.088 162.627 224.176 172.243 224.013 172.649C223.97 172.761 223.864 172.823 223.751 172.823Z" fill="#B3EBFA"/>
<path d="M246.584 127.001C246.702 126.97 246.783 126.864 246.79 126.739C246.839 125.666 247.02 120.28 245.741 119.644C245.535 119.544 245.205 119.494 244.786 119.844C242.696 121.603 246.122 126.664 246.265 126.883C246.322 126.964 246.409 127.007 246.502 127.007C246.534 127.014 246.559 127.007 246.584 127.001ZM245.492 120.162C246.059 120.443 246.309 123.101 246.253 125.797C245.267 124.131 243.963 121.291 245.155 120.287C245.267 120.193 245.361 120.149 245.429 120.149C245.454 120.149 245.473 120.149 245.492 120.162Z" fill="#B3EBFA"/>
<path d="M254.696 126.627C254.933 126.184 254.827 125.903 254.69 125.741C253.835 124.711 248.537 126.265 246.933 126.764C246.809 126.802 246.727 126.914 246.734 127.045C246.74 127.17 246.827 127.282 246.946 127.313C247.32 127.407 249.361 127.9 251.283 127.9C252.762 127.9 254.166 127.607 254.696 126.627ZM254.253 126.103C254.291 126.146 254.247 126.265 254.197 126.359C253.486 127.681 250.216 127.376 248.163 126.995C250.983 126.184 253.879 125.653 254.253 126.103Z" fill="#B3EBFA"/>
<path d="M255.564 123.444C255.77 123.063 255.645 122.82 255.551 122.708C254.915 121.934 251.314 122.957 249.798 123.431C249.673 123.469 249.592 123.581 249.598 123.712C249.604 123.837 249.692 123.949 249.81 123.981C250.085 124.049 251.576 124.411 252.993 124.411C254.097 124.417 255.158 124.193 255.564 123.444ZM255.102 123.057C255.102 123.057 255.102 123.094 255.058 123.176C254.628 123.974 252.681 123.931 251.052 123.662C253.099 123.101 254.877 122.826 255.102 123.057Z" fill="#B3EBFA"/>
<path d="M252.587 130.477C252.824 130.034 252.718 129.753 252.581 129.591C251.726 128.555 246.428 130.115 244.824 130.621C244.699 130.658 244.618 130.77 244.624 130.901C244.631 131.026 244.718 131.138 244.837 131.17C245.211 131.263 247.251 131.756 249.173 131.756C250.652 131.756 252.056 131.463 252.587 130.477ZM252.144 129.953C252.181 129.996 252.138 130.115 252.088 130.209C251.376 131.532 248.106 131.232 246.053 130.845C248.874 130.04 251.776 129.504 252.144 129.953Z" fill="#B3EBFA"/>
<path d="M250.621 135.157C250.858 134.714 250.752 134.433 250.615 134.271C249.76 133.241 244.462 134.795 242.858 135.301C242.733 135.338 242.652 135.45 242.659 135.581C242.665 135.706 242.752 135.818 242.871 135.85C243.245 135.943 245.286 136.436 247.208 136.436C248.693 136.436 250.097 136.143 250.621 135.157ZM250.184 134.633C250.222 134.677 250.178 134.795 250.128 134.889C249.417 136.212 246.147 135.906 244.094 135.525C246.914 134.72 249.81 134.19 250.184 134.633Z" fill="#B3EBFA"/>
<path d="M248.032 139.881C248.325 139.463 248.244 139.169 248.132 138.995C247.402 137.884 241.948 138.889 240.294 139.225C240.169 139.25 240.076 139.357 240.07 139.481C240.057 139.606 240.138 139.725 240.257 139.768C240.425 139.831 243.19 140.829 245.442 140.829C246.553 140.829 247.533 140.592 248.032 139.881ZM247.658 139.307C247.683 139.344 247.645 139.438 247.564 139.556C246.697 140.798 243.483 140.168 241.492 139.581C244.394 139.057 247.339 138.826 247.658 139.307Z" fill="#B3EBFA"/>
<path d="M250.036 124.025C250.154 123.993 250.235 123.887 250.242 123.762C250.292 122.689 250.472 117.304 249.193 116.667C248.987 116.567 248.657 116.518 248.238 116.867C246.148 118.627 249.574 123.688 249.724 123.906C249.78 123.987 249.867 124.031 249.961 124.031C249.986 124.037 250.011 124.031 250.036 124.025ZM248.937 117.185C249.505 117.466 249.755 120.124 249.699 122.82C248.713 121.154 247.409 118.315 248.6 117.31C248.713 117.216 248.806 117.173 248.875 117.173C248.9 117.173 248.925 117.173 248.937 117.185Z" fill="#B3EBFA"/>
<path d="M251.633 122.783C253.043 121.978 257.63 119.251 257.43 117.947C257.399 117.728 257.243 117.448 256.7 117.335C253.979 116.767 251.352 122.178 251.24 122.408C251.183 122.521 251.208 122.658 251.302 122.739C251.358 122.789 251.427 122.814 251.496 122.814C251.539 122.82 251.589 122.808 251.633 122.783ZM256.575 117.891C256.762 117.928 256.856 117.99 256.862 118.034C256.949 118.596 254.647 120.312 252.207 121.784C253.112 120.193 254.772 117.866 256.288 117.866C256.382 117.866 256.481 117.872 256.575 117.891Z" fill="#B3EBFA"/>
<path d="M244.651 131.032C244.757 130.97 244.813 130.851 244.794 130.726C244.588 129.666 243.477 124.343 242.073 124.018C241.855 123.968 241.524 123.993 241.206 124.411C239.577 126.545 244.126 130.808 244.32 130.989C244.376 131.038 244.445 131.063 244.513 131.063C244.557 131.07 244.607 131.057 244.651 131.032ZM241.942 124.574C242.566 124.717 243.446 127.263 244.039 129.909C242.679 128.48 240.732 125.971 241.655 124.761C241.749 124.636 241.836 124.574 241.911 124.574C241.924 124.567 241.93 124.574 241.942 124.574Z" fill="#B3EBFA"/>
<path d="M242.989 135.575C243.096 135.513 243.152 135.394 243.133 135.269C242.927 134.209 241.816 128.886 240.412 128.561C240.188 128.511 239.863 128.536 239.545 128.96C237.916 131.095 242.465 135.357 242.659 135.538C242.715 135.588 242.784 135.613 242.852 135.613C242.902 135.606 242.946 135.6 242.989 135.575ZM240.281 129.116C240.905 129.26 241.785 131.806 242.378 134.452C241.018 133.023 239.071 130.514 239.994 129.304C240.088 129.179 240.175 129.116 240.25 129.116C240.262 129.11 240.275 129.116 240.281 129.116Z" fill="#B3EBFA"/>
<path d="M240.475 139.4C240.581 139.338 240.637 139.219 240.618 139.095C240.412 138.034 239.302 132.711 237.898 132.386C237.673 132.336 237.348 132.361 237.03 132.786C235.402 134.92 239.951 139.182 240.144 139.363C240.2 139.413 240.269 139.438 240.338 139.438C240.387 139.438 240.431 139.425 240.475 139.4ZM237.767 132.948C238.391 133.091 239.27 135.637 239.863 138.283C238.503 136.854 236.556 134.346 237.479 133.135C237.573 133.01 237.66 132.948 237.735 132.948C237.748 132.942 237.76 132.942 237.767 132.948Z" fill="#B3EBFA"/>
<path d="M244.862 143.662C245.155 143.244 245.074 142.951 244.962 142.776C244.232 141.666 238.778 142.67 237.13 143.007C237.005 143.032 236.912 143.138 236.906 143.263C236.893 143.388 236.974 143.506 237.093 143.55C237.261 143.613 240.026 144.611 242.278 144.611C243.377 144.617 244.363 144.374 244.862 143.662ZM244.487 143.088C244.512 143.126 244.475 143.219 244.394 143.338C243.526 144.58 240.313 143.949 238.322 143.363C241.224 142.845 244.169 142.608 244.487 143.088Z" fill="#B3EBFA"/>
<path d="M237.305 143.188C237.411 143.126 237.467 143.007 237.448 142.883C237.242 141.822 236.132 136.499 234.728 136.174C234.515 136.125 234.179 136.15 233.86 136.568C232.232 138.702 236.781 142.964 236.974 143.145C237.03 143.195 237.099 143.22 237.168 143.22C237.218 143.226 237.261 143.213 237.305 143.188ZM234.597 136.73C235.277 136.886 236.157 139.694 236.693 142.065C235.333 140.636 233.386 138.128 234.31 136.917C234.403 136.792 234.491 136.73 234.565 136.73C234.578 136.724 234.59 136.73 234.597 136.73Z" fill="#B3EBFA"/>
<path d="M241.617 147.513C241.91 147.094 241.829 146.801 241.717 146.626C240.986 145.516 235.533 146.52 233.885 146.857C233.76 146.882 233.667 146.988 233.66 147.113C233.648 147.238 233.729 147.357 233.848 147.4C234.016 147.463 236.781 148.461 239.033 148.461C240.132 148.467 241.118 148.224 241.617 147.513ZM241.242 146.938C241.267 146.976 241.23 147.069 241.149 147.188C240.281 148.43 237.068 147.8 235.077 147.213C237.979 146.695 240.924 146.458 241.242 146.938Z" fill="#B3EBFA"/>
<path d="M234.06 147.038C234.166 146.976 234.222 146.858 234.203 146.733C233.997 145.672 232.887 140.349 231.483 140.024C231.264 139.975 230.933 140 230.615 140.424C228.986 142.558 233.536 146.82 233.729 147.001C233.785 147.051 233.854 147.076 233.922 147.076C233.966 147.076 234.016 147.063 234.06 147.038ZM231.351 140.58C231.976 140.723 232.855 143.269 233.448 145.915C232.088 144.486 230.141 141.978 231.064 140.761C231.158 140.636 231.245 140.574 231.32 140.574C231.333 140.58 231.345 140.58 231.351 140.58Z" fill="#B3EBFA"/>
<path d="M253.79 172.324C246.002 173.441 242.482 179.15 241.253 181.678H243.006C243.549 180.717 244.585 179.244 246.37 177.959C248.554 176.386 252.08 176.592 255.206 176.823C258.332 177.054 266.707 180.461 267.512 177.466C268.317 174.476 261.69 171.188 253.79 172.324Z" fill="#E1F2FF"/>
<path d="M194.09 181.647C194.09 181.647 190.196 174.502 194.508 170.508C198.82 166.508 203.269 166.633 204.105 161.666C204.941 156.698 201.047 152.218 203.413 147.856C205.778 143.494 216.068 141.797 216.76 137.803C217.453 133.803 214.258 132.474 216.623 127.507C218.988 122.539 228.024 109.697 235.949 111.513C243.874 113.329 234.139 120.717 234.283 125.079C234.42 129.441 239.013 131.014 237.759 136.468C236.504 141.921 230.252 143.856 230.944 147.737C231.637 151.613 234.801 154.296 234.383 158.296C233.965 162.296 229.416 169.665 229.272 171.001C229.135 172.336 234.976 175.725 234.414 177.909C233.859 180.087 232.186 181.659 232.186 181.659H194.09V181.647Z" fill="#E1F2FF"/>
<path d="M225.809 135.183C225.84 134.397 225.852 133.573 225.859 132.762C225.89 130.041 225.921 127.476 226.676 125.96C228.068 123.152 230.533 120.468 230.639 120.356C230.801 120.181 231.082 120.169 231.256 120.331C231.431 120.493 231.444 120.774 231.281 120.949C231.256 120.974 228.792 123.651 227.462 126.347C226.801 127.688 226.77 130.272 226.739 132.774C226.707 135.22 226.676 137.748 226.065 139.351C225.515 140.78 224.405 142.54 223.232 144.4C221.765 146.721 220.249 149.117 219.812 150.933C218.895 154.733 219.088 162.103 219.219 165.092C219.425 169.935 212.623 180.524 212.336 180.974C212.255 181.105 212.111 181.173 211.968 181.173C211.887 181.173 211.806 181.148 211.731 181.105C211.525 180.974 211.469 180.705 211.6 180.499C211.668 180.393 218.539 169.697 218.345 165.13C218.183 161.373 218.052 154.503 218.963 150.727C219.438 148.774 220.991 146.315 222.495 143.932C223.65 142.109 224.735 140.387 225.253 139.039C225.609 138.078 225.746 136.687 225.809 135.183Z" fill="#7CC9E0"/>
<path d="M226.001 139.07C225.827 139.07 225.664 138.964 225.596 138.796C225.502 138.571 225.614 138.315 225.839 138.228L232.285 135.607C232.51 135.513 232.766 135.626 232.853 135.85C232.947 136.075 232.834 136.331 232.61 136.418L226.163 139.039C226.107 139.058 226.051 139.07 226.001 139.07Z" fill="#7CC9E0"/>
<path d="M218.694 154.196C218.595 154.196 218.495 154.165 218.414 154.09L212.398 148.998C212.217 148.842 212.192 148.568 212.348 148.381C212.504 148.193 212.779 148.175 212.966 148.331L218.981 153.423C219.162 153.579 219.187 153.853 219.031 154.04C218.944 154.147 218.819 154.196 218.694 154.196Z" fill="#7CC9E0"/>
<path d="M212.934 179.364C212.853 179.364 212.772 179.339 212.697 179.295L201.951 172.256C201.752 172.125 201.696 171.85 201.827 171.651C201.958 171.451 202.226 171.395 202.432 171.526L213.178 178.565C213.377 178.696 213.433 178.97 213.302 179.17C213.215 179.295 213.078 179.364 212.934 179.364Z" fill="#7CC9E0"/>
<path d="M218.894 164.455C218.732 164.455 218.576 164.362 218.501 164.212C218.395 163.994 218.488 163.731 218.701 163.625L228.217 158.995C228.435 158.889 228.697 158.983 228.804 159.195C228.91 159.413 228.816 159.675 228.604 159.781L219.088 164.412C219.019 164.443 218.956 164.455 218.894 164.455Z" fill="#7CC9E0"/>
<path d="M259.388 131.969C255.713 132.293 253.323 134.053 251.588 136.855C249.672 139.681 248.237 142.046 246.321 143.7C242.109 147.332 232.2 150.645 230.771 154.683C229.866 157.89 229.398 162.708 227.807 166.227C226.465 169.198 223.832 170.327 220.849 171.844C216.786 173.684 211.963 178.102 212 181.641H235.682C243.657 174.421 232.574 165.791 252.793 157.16C254.565 156.405 256.655 153.947 256.468 152.199C256.162 149.067 255.601 147.245 256.574 144.892C259.326 138.621 271.232 131.65 259.388 131.969Z" fill="#E1F2FF"/>
<path d="M222.808 181.01C222.702 181.01 222.59 180.96 222.521 180.867C222.403 180.711 222.434 180.486 222.59 180.367C222.683 180.292 232.144 173.122 235.407 168.773C236 167.987 236.437 166.146 236.899 164.205C237.591 161.31 238.371 158.027 240 156.118C240.917 155.038 242.315 153.921 243.794 152.729C246.846 150.277 250.309 147.5 251.176 143.981C252.137 140.062 258.022 136.411 258.271 136.261C258.44 136.155 258.658 136.212 258.764 136.38C258.871 136.548 258.814 136.767 258.646 136.873C258.59 136.91 252.761 140.523 251.869 144.155C250.945 147.906 247.382 150.77 244.243 153.291C242.789 154.458 241.423 155.556 240.543 156.586C239.027 158.358 238.265 161.553 237.591 164.374C237.086 166.483 236.655 168.305 235.975 169.21C232.649 173.64 223.407 180.648 223.014 180.948C222.964 180.991 222.883 181.01 222.808 181.01Z" fill="#8ED7ED"/>
<path d="M251.618 160.068C241.009 164.605 236.766 177.578 235.687 181.372H239.175C239.487 180.517 240.317 178.702 242.507 175.307C244.991 171.463 251.3 170.483 256.51 169.591C262.607 168.542 280.061 166.795 279.543 161.466C279.012 156.143 264.011 154.77 251.618 160.068Z" fill="#E1F2FF"/>
<path d="M142.833 188.205C213.621 188.205 271.007 185.671 271.007 182.545C271.007 179.419 213.621 176.885 142.833 176.885C72.0442 176.885 14.6587 179.419 14.6587 182.545C14.6587 185.671 72.0442 188.205 142.833 188.205Z" fill="#E1F2FF"/>
<path d="M85.2851 41.274H61.0918C61.0918 41.274 62.4958 37.9979 65.1479 37.8419C67.8 37.6859 69.5161 38.4659 69.5161 38.4659C69.5161 38.4659 68.4241 32.9995 73.1042 32.9995C77.7844 32.9995 76.6923 38.4659 76.6923 38.4659C76.6923 38.4659 86.5332 37.3739 85.2851 41.274Z" fill="#70BEED"/>
<path d="M226.644 46.274H202.45C202.45 46.274 203.854 42.9979 206.506 42.8419C209.158 42.6859 210.874 43.4659 210.874 43.4659C210.874 43.4659 209.782 37.9995 214.463 37.9995C219.143 37.9995 218.051 43.4659 218.051 43.4659C218.051 43.4659 227.892 42.3739 226.644 46.274Z" fill="#70BEED"/>
<path d="M144.025 51.2387H172.574C172.574 51.2387 170.914 47.3698 167.787 47.1888C164.655 47.0016 162.627 47.9252 162.627 47.9252C162.627 47.9252 163.919 41.479 158.39 41.479C152.861 41.479 154.153 47.9252 154.153 47.9252C154.153 47.9252 142.552 46.6334 144.025 51.2387Z" fill="#70BEED"/>
<path d="M164.682 182.265H127.45L129.822 161.278H162.311L164.682 182.265Z" fill="#92D0F6"/>
<path d="M169.697 191.135C170.004 192.091 169.845 193.14 169.271 193.957C168.697 194.773 167.778 195.257 166.799 195.257H124.704C123.724 195.257 122.806 194.774 122.232 193.957C121.658 193.141 121.5 192.092 121.806 191.135L127.135 182.265H164.367L169.697 191.135Z" fill="#92D0F6"/>
<path d="M224.591 170.408H60.5093C57.1632 170.408 54.4502 167.695 54.4502 164.348V64.0591C54.4502 60.713 57.1632 58 60.5093 58H224.591C227.937 58 230.65 60.713 230.65 64.0591V164.348C230.65 167.695 227.937 170.408 224.591 170.408Z" fill="#04569B"/>
<path d="M222.536 157H62.3648C59.0984 157 56.4502 154.707 56.4502 151.88V67.1204C56.4502 64.2917 59.0984 62 62.3648 62H222.536C225.802 62 228.45 64.2929 228.45 67.1204V151.88C228.45 154.707 225.802 157 222.536 157Z" fill="#F2F9FF"/>
<path d="M54.4502 161V165.966C54.4502 168.194 57.1601 170 60.5024 170H224.398C227.74 170 230.45 168.194 230.45 165.966V161H54.4502Z" fill="#92D0F6"/>
<path d="M147.787 167.665C148.745 166.67 148.714 165.088 147.719 164.13C146.724 163.173 145.141 163.204 144.184 164.199C143.226 165.193 143.257 166.776 144.252 167.733C145.247 168.69 146.83 168.66 147.787 167.665Z" fill="white"/>
<path opacity="0.15" d="M127.332 180.521H164.205L164.368 182.265L165.366 183.926L126.17 183.871L127.136 182.265L127.332 180.521Z" fill="#92D0F6"/>
<path opacity="0.0323" d="M192.591 138.745C192.591 140.792 190.95 142.464 188.946 142.464H99.7488C97.7457 142.464 96.1045 140.792 96.1045 138.745V77.6972C96.1045 75.6504 97.7457 73.978 99.7488 73.978H188.94C190.943 73.978 192.585 75.6504 192.585 77.6972V138.745H192.591Z" fill="#FDFDFD"/>
<path opacity="0.0645" d="M192.422 138.677C192.422 140.673 190.818 142.308 188.859 142.308H99.78C97.8205 142.308 96.2168 140.673 96.2168 138.677V77.7221C96.2168 75.7253 97.8205 74.0903 99.78 74.0903H188.859C190.818 74.0903 192.422 75.7253 192.422 77.7221V138.677Z" fill="#FBFAFA"/>
<path opacity="0.0968" d="M192.26 138.602C192.26 140.555 190.693 142.146 188.784 142.146H99.8108C97.9013 142.146 96.335 140.549 96.335 138.602V77.7407C96.335 75.7875 97.9013 74.1963 99.8108 74.1963H188.778C190.687 74.1963 192.253 75.7938 192.253 77.7407V138.602H192.26Z" fill="#F9F8F8"/>
<path opacity="0.129" d="M192.091 138.533C192.091 140.436 190.562 141.99 188.703 141.99H99.8484C97.9826 141.99 96.46 140.436 96.46 138.533V77.7657C96.46 75.8624 97.9826 74.3086 99.8484 74.3086H188.703C190.569 74.3086 192.091 75.8624 192.091 77.7657V138.533Z" fill="#F7F6F6"/>
<path opacity="0.1613" d="M191.923 138.458C191.923 140.311 190.438 141.828 188.616 141.828H99.8801C98.0642 141.828 96.5728 140.311 96.5728 138.458V77.7843C96.5728 75.9309 98.0579 74.4146 99.8801 74.4146H188.622C190.438 74.4146 191.93 75.9309 191.93 77.7843V138.458H191.923Z" fill="#F5F4F4"/>
<path opacity="0.1935" d="M191.761 138.389C191.761 140.193 190.313 141.672 188.541 141.672H99.9109C98.1387 141.672 96.6909 140.193 96.6909 138.389V77.8156C96.6909 76.0121 98.1387 74.5332 99.9109 74.5332H188.541C190.313 74.5332 191.761 76.0121 191.761 77.8156V138.389Z" fill="#F3F1F1"/>
<path opacity="0.2258" d="M191.592 138.315C191.592 140.075 190.182 141.51 188.453 141.51H99.9421C98.2198 141.51 96.8032 140.068 96.8032 138.315V77.8346C96.8032 76.0749 98.2135 74.6396 99.9421 74.6396H188.46C190.182 74.6396 191.598 76.0811 191.598 77.8346V138.315H191.592Z" fill="#F1EFEF"/>
<path opacity="0.2581" d="M191.424 138.246C191.424 139.956 190.051 141.354 188.372 141.354H99.9733C98.2947 141.354 96.9219 139.956 96.9219 138.246V77.8596C96.9219 76.1498 98.2947 74.752 99.9733 74.752H188.379C190.057 74.752 191.43 76.1498 191.43 77.8596V138.246H191.424Z" fill="#EFEDED"/>
<path opacity="0.2903" d="M191.262 138.178C191.262 139.837 189.926 141.198 188.297 141.198H100.005C98.3759 141.198 97.0405 139.837 97.0405 138.178V77.8845C97.0405 76.2246 98.3759 74.8643 100.005 74.8643H188.291C189.92 74.8643 191.255 76.2246 191.255 77.8845V138.178H191.262Z" fill="#EDEAEA"/>
<path opacity="0.3226" d="M191.093 138.103C191.093 139.719 189.795 141.036 188.21 141.036H100.036C98.4508 141.036 97.1528 139.713 97.1528 138.103V77.9095C97.1528 76.2932 98.4508 74.9766 100.036 74.9766H188.21C189.795 74.9766 191.093 76.2995 191.093 77.9095V138.103Z" fill="#EBE8E8"/>
<path opacity="0.3548" d="M190.93 138.034C190.93 139.6 189.67 140.879 188.135 140.879H100.067C98.5315 140.879 97.271 139.6 97.271 138.034V77.9344C97.271 76.3681 98.5315 75.0889 100.067 75.0889H188.129C189.664 75.0889 190.924 76.3681 190.924 77.9344V138.034H190.93Z" fill="#E9E6E6"/>
<path opacity="0.3871" d="M190.762 137.959C190.762 139.475 189.539 140.717 188.048 140.717H100.098C98.6069 140.717 97.3838 139.475 97.3838 137.959V77.953C97.3838 76.4366 98.6069 75.1948 100.098 75.1948H188.048C189.539 75.1948 190.762 76.4366 190.762 77.953V137.959Z" fill="#E7E4E4"/>
<path opacity="0.4194" d="M190.594 137.89C190.594 139.357 189.415 140.561 187.967 140.561H100.136C98.6882 140.561 97.5088 139.357 97.5088 137.89V77.9779C97.5088 76.5115 98.6882 75.3071 100.136 75.3071H187.973C189.421 75.3071 190.6 76.5115 190.6 77.9779V137.89H190.594Z" fill="#E5E1E1"/>
<path opacity="0.4516" d="M190.431 137.815C190.431 139.238 189.29 140.399 187.892 140.399H100.167C98.7689 140.399 97.627 139.238 97.627 137.815V78.0029C97.627 76.5801 98.7689 75.4194 100.167 75.4194H187.892C189.29 75.4194 190.431 76.5801 190.431 78.0029V137.815Z" fill="#E3DFDF"/>
<path opacity="0.4839" d="M190.263 137.747C190.263 139.12 189.158 140.243 187.804 140.243H100.192C98.8374 140.243 97.7329 139.12 97.7329 137.747V78.0278C97.7329 76.655 98.8374 75.5317 100.192 75.5317H187.804C189.158 75.5317 190.263 76.655 190.263 78.0278V137.747Z" fill="#E1DDDD"/>
<path opacity="0.5161" d="M190.095 137.678C190.095 139.001 189.027 140.087 187.723 140.087H100.229C98.925 140.087 97.8579 139.001 97.8579 137.678V78.0528C97.8579 76.7298 98.925 75.644 100.229 75.644H187.723C189.027 75.644 190.095 76.7298 190.095 78.0528V137.678Z" fill="#E0DADA"/>
<path opacity="0.5484" d="M189.932 137.604C189.932 138.883 188.903 139.925 187.642 139.925H100.26C98.9998 139.925 97.9702 138.883 97.9702 137.604V78.0719C97.9702 76.7926 98.9998 75.7505 100.26 75.7505H187.642C188.903 75.7505 189.932 76.7926 189.932 78.0719V137.604Z" fill="#DED8D8"/>
<path opacity="0.5806" d="M189.764 137.534C189.764 138.764 188.772 139.768 187.561 139.768H100.292C99.0811 139.768 98.0889 138.764 98.0889 137.534V78.1027C98.0889 76.8733 99.0811 75.8687 100.292 75.8687H187.561C188.772 75.8687 189.764 76.8733 189.764 78.1027V137.534Z" fill="#DCD6D6"/>
<path opacity="0.6129" d="M189.601 137.459C189.601 138.639 188.647 139.606 187.486 139.606H100.322C99.1555 139.606 98.207 138.639 98.207 137.459V78.1212C98.207 76.9418 99.1618 75.9746 100.322 75.9746H187.48C188.647 75.9746 189.595 76.9418 189.595 78.1212V137.459H189.601Z" fill="#DAD3D3"/>
<path opacity="0.6452" d="M189.433 137.391C189.433 138.527 188.516 139.451 187.399 139.451H100.354C99.2371 139.451 98.3198 138.521 98.3198 137.391V78.1467C98.3198 77.011 99.2371 76.0874 100.354 76.0874H187.399C188.516 76.0874 189.433 77.0172 189.433 78.1467V137.391Z" fill="#D8D1D1"/>
<path opacity="0.6774" d="M189.264 137.316C189.264 138.402 188.391 139.288 187.317 139.288H100.385C99.3116 139.288 98.438 138.402 98.438 137.316V78.1653C98.438 77.0795 99.3116 76.1934 100.385 76.1934H187.317C188.391 76.1934 189.264 77.0795 189.264 78.1653V137.316Z" fill="#D6CFCF"/>
<path opacity="0.7097" d="M189.103 137.248C189.103 138.284 188.266 139.132 187.237 139.132H100.417C99.3932 139.132 98.5508 138.284 98.5508 137.248V78.1966C98.5508 77.1607 99.387 76.312 100.417 76.312H187.237C188.26 76.312 189.103 77.1607 189.103 78.1966V137.248Z" fill="#D4CDCD"/>
<path opacity="0.7419" d="M188.934 137.179C188.934 138.165 188.135 138.976 187.155 138.976H100.454C99.474 138.976 98.6753 138.165 98.6753 137.179V78.2215C98.6753 77.2355 99.474 76.4243 100.454 76.4243H187.155C188.135 76.4243 188.934 77.2355 188.934 78.2215V137.179Z" fill="#D2CACA"/>
<path opacity="0.7742" d="M188.765 137.104C188.765 138.046 188.004 138.814 187.074 138.814H100.485C99.5553 138.814 98.7939 138.046 98.7939 137.104V78.2401C98.7939 77.2978 99.5553 76.5303 100.485 76.5303H187.074C188.004 76.5303 188.765 77.2978 188.765 78.2401V137.104Z" fill="#D0C8C8"/>
<path opacity="0.8065" d="M188.603 137.035C188.603 137.928 187.879 138.658 186.993 138.658H100.516C99.6301 138.658 98.9062 137.928 98.9062 137.035V78.265C98.9062 77.3727 99.6301 76.6426 100.516 76.6426H186.993C187.879 76.6426 188.603 77.3727 188.603 78.265V137.035Z" fill="#CEC6C6"/>
<path opacity="0.8387" d="M188.435 136.96C188.435 137.803 187.748 138.496 186.912 138.496H100.548C99.7113 138.496 99.0249 137.803 99.0249 136.96V78.2836C99.0249 77.4412 99.7113 76.7485 100.548 76.7485H186.912C187.748 76.7485 188.435 77.4412 188.435 78.2836V136.96Z" fill="#CCC3C3"/>
<path opacity="0.871" d="M188.272 136.892C188.272 137.691 187.623 138.34 186.831 138.34H100.579C99.7862 138.34 99.1372 137.691 99.1372 136.892V78.3149C99.1372 77.5162 99.7862 76.8672 100.579 76.8672H186.831C187.623 76.8672 188.272 77.5162 188.272 78.3149V136.892Z" fill="#CAC1C1"/>
<path opacity="0.9032" d="M188.104 136.817C188.104 137.566 187.493 138.177 186.75 138.177H100.61C99.8674 138.177 99.2559 137.566 99.2559 136.817V78.3335C99.2559 77.5847 99.8674 76.9731 100.61 76.9731H186.75C187.493 76.9731 188.104 77.5847 188.104 78.3335V136.817Z" fill="#C8BFBF"/>
<path opacity="0.9355" d="M187.935 136.749C187.935 137.448 187.361 138.022 186.668 138.022H100.641C99.9419 138.022 99.374 137.448 99.374 136.749V78.3589C99.374 77.66 99.9481 77.0859 100.641 77.0859H186.668C187.367 77.0859 187.935 77.66 187.935 78.3589V136.749Z" fill="#C6BDBD"/>
<path opacity="0.9677" d="M187.773 136.68C187.773 137.329 187.243 137.865 186.588 137.865H100.672C100.023 137.865 99.4868 137.329 99.4868 136.68V78.3834C99.4868 77.7344 100.017 77.1978 100.672 77.1978H186.588C187.237 77.1978 187.773 77.7282 187.773 78.3834V136.68Z" fill="#C4BABA"/>
<path d="M187.605 136.605C187.605 137.21 187.112 137.703 186.506 137.703H100.703C100.098 137.703 99.605 137.21 99.605 136.605V78.4088C99.605 77.8035 100.098 77.3105 100.703 77.3105H186.5C187.105 77.3105 187.598 77.8035 187.598 78.4088V136.605H187.605Z" fill="#C2B8B8"/>
<path d="M187.605 136.586C187.605 137.198 187.099 137.703 186.488 137.703H99.3743C98.7628 137.703 98.2573 137.198 98.2573 136.586V77.3914C98.2573 76.7799 98.7628 76.2744 99.3743 76.2744H186.488C187.099 76.2744 187.605 76.7799 187.605 77.3914V136.586Z" fill="white"/>
<path d="M187.605 82.2338H98.2578V77.3914C98.2578 76.7736 98.757 76.2744 99.3748 76.2744H186.488C187.106 76.2744 187.605 76.7736 187.605 77.3914V82.2338Z" fill="url(#paint0_linear_4292_13544)"/>
<path d="M102.384 79.2573C102.384 79.6692 102.053 79.9999 101.641 79.9999C101.229 79.9999 100.898 79.6692 100.898 79.2573C100.898 78.8455 101.229 78.5147 101.641 78.5147C102.047 78.5085 102.384 78.8455 102.384 79.2573Z" fill="#D90D0F"/>
<path d="M104.917 79.2573C104.917 79.6692 104.586 79.9999 104.174 79.9999C103.762 79.9999 103.432 79.6692 103.432 79.2573C103.432 78.8455 103.762 78.5147 104.174 78.5147C104.58 78.5085 104.917 78.8455 104.917 79.2573Z" fill="#FFC61E"/>
<path d="M107.445 79.2573C107.445 79.6692 107.114 79.9999 106.702 79.9999C106.29 79.9999 105.959 79.6692 105.959 79.2573C105.959 78.8455 106.29 78.5147 106.702 78.5147C107.114 78.5085 107.445 78.8455 107.445 79.2573Z" fill="#31C224"/>
<path d="M112.748 80.8361H109.772C109.722 80.8361 109.678 80.7925 109.678 80.7425V77.766C109.678 77.716 109.722 77.6724 109.772 77.6724H112.748C112.798 77.6724 112.842 77.716 112.842 77.766V80.7425C112.842 80.7987 112.798 80.8361 112.748 80.8361Z" fill="white"/>
<path d="M111.537 80.2805C111.512 80.2805 111.487 80.2742 111.469 80.2555L110.539 79.3257C110.501 79.2883 110.501 79.2321 110.539 79.1947L111.469 78.2649C111.506 78.2275 111.562 78.2275 111.6 78.2649C111.637 78.3023 111.637 78.3585 111.6 78.3959L110.732 79.2633L111.6 80.1307C111.637 80.1682 111.637 80.2243 111.6 80.2618C111.587 80.268 111.562 80.2805 111.537 80.2805Z" fill="#A8A0A0"/>
<path d="M116.399 80.8357H113.422C113.372 80.8357 113.329 80.792 113.329 80.7421V77.7655C113.329 77.7156 113.372 77.6719 113.422 77.6719H116.399C116.449 77.6719 116.492 77.7156 116.492 77.7655V80.7421C116.486 80.7982 116.449 80.8357 116.399 80.8357Z" fill="white"/>
<path d="M114.627 80.2799C114.602 80.2799 114.577 80.2736 114.558 80.2549C114.521 80.2175 114.521 80.1613 114.558 80.1239L115.426 79.2565L114.558 78.3891C114.521 78.3517 114.521 78.2955 114.558 78.2581C114.596 78.2206 114.652 78.2206 114.689 78.2581L115.619 79.1878C115.657 79.2253 115.657 79.2815 115.619 79.3189L114.689 80.2487C114.677 80.2674 114.652 80.2799 114.627 80.2799Z" fill="#A8A0A0"/>
<path d="M122.32 80.8361H117.852C117.802 80.8361 117.759 80.7925 117.759 80.7425V77.766C117.759 77.716 117.802 77.6724 117.852 77.6724H122.32C122.37 77.6724 122.414 77.716 122.414 77.766V80.7425C122.408 80.7987 122.37 80.8361 122.32 80.8361Z" fill="white"/>
<path d="M121.403 78.3154H118.757C118.707 78.3154 118.663 78.3591 118.663 78.409V80.1064C118.663 80.1563 118.707 80.2 118.757 80.2H121.403C121.452 80.2 121.496 80.1563 121.496 80.1064V78.409C121.496 78.3529 121.459 78.3154 121.403 78.3154ZM118.857 78.4964H119.724V80.0128H118.857V78.4964ZM121.315 80.0128H119.905V78.4964H121.315V80.0128Z" fill="#A8A0A0"/>
<path d="M119.131 78.8708H119.437C119.487 78.8708 119.531 78.8271 119.531 78.7772C119.531 78.7273 119.487 78.6836 119.437 78.6836H119.131C119.081 78.6836 119.038 78.7273 119.038 78.7772C119.038 78.8271 119.081 78.8708 119.131 78.8708Z" fill="#A8A0A0"/>
<path d="M119.437 79.0576H119.131C119.081 79.0576 119.038 79.1013 119.038 79.1512C119.038 79.2011 119.081 79.2448 119.131 79.2448H119.437C119.487 79.2448 119.531 79.2011 119.531 79.1512C119.531 79.1013 119.493 79.0576 119.437 79.0576Z" fill="#A8A0A0"/>
<path d="M181.765 80.8357H178.788C178.739 80.8357 178.695 80.792 178.695 80.7421V77.7655C178.695 77.7156 178.739 77.6719 178.788 77.6719H181.765C181.815 77.6719 181.859 77.7156 181.859 77.7655V80.7421C181.859 80.7982 181.815 80.8357 181.765 80.8357Z" fill="white"/>
<path d="M181.129 80.38H179.419C179.369 80.38 179.325 80.3364 179.325 80.2864V78.951C179.325 78.9011 179.369 78.8574 179.419 78.8574H179.899C179.949 78.8574 179.993 78.9011 179.993 78.951C179.993 79.0009 179.949 79.0446 179.899 79.0446H179.512V80.1928H181.035V79.0446H180.648C180.598 79.0446 180.555 79.0009 180.555 78.951C180.555 78.9011 180.598 78.8574 180.648 78.8574H181.129C181.179 78.8574 181.222 78.9011 181.222 78.951V80.2864C181.222 80.3426 181.179 80.38 181.129 80.38Z" fill="#A8A0A0"/>
<path d="M179.937 78.6577C179.912 78.6577 179.887 78.6514 179.868 78.6327C179.83 78.5953 179.83 78.5391 179.868 78.5017L180.211 78.1585C180.249 78.121 180.305 78.121 180.342 78.1585L180.685 78.5017C180.723 78.5391 180.723 78.5953 180.685 78.6327C180.648 78.6701 180.592 78.6701 180.554 78.6327L180.28 78.3581L180.005 78.6327C179.98 78.6452 179.962 78.6577 179.937 78.6577Z" fill="#A8A0A0"/>
<path d="M180.273 79.4441C180.223 79.4441 180.18 79.4005 180.18 79.3505V78.221C180.18 78.1711 180.223 78.1274 180.273 78.1274C180.323 78.1274 180.367 78.1711 180.367 78.221V79.3505C180.367 79.4005 180.329 79.4441 180.273 79.4441Z" fill="#A8A0A0"/>
<path d="M185.921 80.8361H182.944C182.894 80.8361 182.851 80.7925 182.851 80.7425V77.766C182.851 77.716 182.894 77.6724 182.944 77.6724H185.921C185.971 77.6724 186.014 77.716 186.014 77.766V80.7425C186.014 80.7987 185.971 80.8361 185.921 80.8361Z" fill="white"/>
<path d="M184.785 80.2621H183.518C183.468 80.2621 183.425 80.2184 183.425 80.1685V78.9017C183.425 78.8518 183.468 78.8081 183.518 78.8081H184.785C184.835 78.8081 184.879 78.8518 184.879 78.9017V80.1685C184.879 80.2184 184.841 80.2621 184.785 80.2621ZM183.612 80.0749H184.692V78.9953H183.612V80.0749Z" fill="#A8A0A0"/>
<path d="M185.348 79.7006H185.086C185.036 79.7006 184.992 79.6569 184.992 79.6069C184.992 79.557 185.036 79.5133 185.086 79.5133H185.254V78.4338H184.175V78.6023C184.175 78.6522 184.131 78.6959 184.081 78.6959C184.031 78.6959 183.987 78.6522 183.987 78.6023V78.3402C183.987 78.2903 184.031 78.2466 184.081 78.2466H185.348C185.398 78.2466 185.441 78.2903 185.441 78.3402V79.6069C185.441 79.6631 185.398 79.7006 185.348 79.7006Z" fill="#A8A0A0"/>
<path d="M127.294 80.8361C127.244 80.8361 127.2 80.7925 127.2 80.7425V77.766C127.2 77.716 127.244 77.6724 127.294 77.6724H173.815C173.865 77.6724 173.908 77.716 173.908 77.766V80.7425C173.908 80.7925 173.865 80.8361 173.815 80.8361H127.294Z" fill="white"/>
<path d="M129.915 80.0558L129.366 79.5067C129.591 79.2134 129.578 78.7891 129.31 78.5207C129.016 78.2275 128.542 78.2275 128.255 78.5207C127.962 78.814 127.962 79.2883 128.255 79.5753C128.399 79.7189 128.592 79.7937 128.786 79.7937C128.948 79.7937 129.11 79.7376 129.241 79.6315L129.79 80.1806C129.809 80.1994 129.834 80.2056 129.859 80.2056C129.884 80.2056 129.909 80.1994 129.927 80.1806C129.952 80.1494 129.952 80.087 129.915 80.0558ZM128.38 79.4443C128.162 79.2259 128.162 78.8702 128.38 78.6518C128.492 78.5395 128.636 78.4895 128.779 78.4895C128.923 78.4895 129.066 78.5457 129.179 78.6518C129.397 78.8702 129.397 79.2259 129.179 79.4443C128.954 79.6627 128.598 79.6627 128.38 79.4443Z" fill="#A8A0A0"/>
<path d="M178.114 91.4878H118.67V92.0806H178.114V91.4878Z" fill="#65B3C9"/>
<path d="M178.108 94.689H108.811V95.2818H178.108V94.689Z" fill="#65B3C9"/>
<path d="M178.108 97.8843H108.811V98.4771H178.108V97.8843Z" fill="#65B3C9"/>
<path d="M178.108 101.079H108.811V101.672H178.108V101.079Z" fill="#65B3C9"/>
<path d="M178.108 104.28H108.811V104.873H178.108V104.28Z" fill="#65B3C9"/>
<path d="M178.108 107.476H108.811V108.068H178.108V107.476Z" fill="#65B3C9"/>
<path d="M178.108 110.67H108.811V111.263H178.108V110.67Z" fill="#65B3C9"/>
<path d="M178.108 113.872H108.811V114.464H178.108V113.872Z" fill="#65B3C9"/>
<path d="M178.108 117.066H108.811V117.659H178.108V117.066Z" fill="#65B3C9"/>
<path d="M178.108 120.268H108.811V120.861H178.108V120.268Z" fill="#65B3C9"/>
<path d="M178.108 123.463H108.811V124.056H178.108V123.463Z" fill="#65B3C9"/>
<path d="M178.108 126.658H108.811V127.251H178.108V126.658Z" fill="#65B3C9"/>
<path d="M178.108 129.859H108.811V130.452H178.108V129.859Z" fill="#65B3C9"/>
<path d="M128.476 170.408L163.54 174.938L163.028 170.408H128.476Z" fill="#92D0F6"/>
<path d="M176.782 195.374H115.915V192.924C115.915 191.177 117.331 189.761 119.077 189.761H173.621C175.368 189.761 176.783 191.177 176.783 192.924V195.374H176.782Z" fill="#77C3F0"/>
<path d="M33.1522 115.617L44.4678 107.207L44.231 107.353L53.1338 102.232C54.0854 101.685 54.4124 100.47 53.8655 99.5181C53.339 98.6014 52.1867 98.2666 51.2531 98.7311L42.0673 103.327C42.0211 103.349 41.9771 103.375 41.9354 103.403L41.8317 103.473L30.117 111.319C28.9094 112.127 28.5858 113.762 29.3942 114.969C30.2026 116.177 31.8375 116.501 33.0451 115.692C33.08 115.668 33.1195 115.64 33.1522 115.617Z" fill="#FFA08A"/>
<path d="M33.6436 116.167L38.6306 112.15C39.9024 111.127 40.1031 109.265 39.0793 107.993C38.0894 106.764 36.3113 106.54 35.0462 107.451L29.8552 111.199C28.456 112.209 28.1403 114.162 29.1505 115.562C30.1608 116.962 32.1147 117.277 33.5139 116.267C33.5557 116.237 33.6041 116.198 33.6436 116.167Z" fill="#EF487D"/>
<path d="M50.8957 98.9853C50.8957 98.9853 50.8281 102.117 53.0989 102.244L55.7203 100.423L53.3796 97.7822C53.3796 97.7822 51.2531 98.5286 50.8957 98.9853Z" fill="#FFA08A"/>
<path d="M54.7336 99.7279L56.2445 99.2115L56.9999 98.9578L57.3765 98.8349L57.5625 98.7752C57.6257 98.7549 57.6832 98.738 57.7396 98.721L57.7542 98.7165C57.9808 98.65 58.1094 98.4121 58.0429 98.1855C57.9786 97.9679 57.7553 97.8405 57.5366 97.8901C57.4644 97.907 57.3934 97.9239 57.328 97.9397L57.1296 97.9904L56.7395 98.0942L55.9649 98.3061L54.4213 98.738C54.1451 98.8146 53.985 99.101 54.0616 99.3772C54.1383 99.6535 54.4247 99.8136 54.7009 99.7369C54.71 99.7347 54.719 99.7313 54.7269 99.729L54.7336 99.7279Z" fill="#FFA08A"/>
<path d="M54.1316 99.0949L55.6424 98.5785L56.3979 98.326L56.7745 98.2031L56.9605 98.1433C57.0236 98.123 57.0811 98.1061 57.1375 98.0892L57.1522 98.0847C57.3788 98.0182 57.5073 97.7803 57.4408 97.5536C57.3765 97.336 57.1533 97.2086 56.9346 97.2582C56.8624 97.2752 56.7914 97.2921 56.726 97.3078L56.5275 97.3586L56.1374 97.4623L55.3628 97.6743L53.8193 98.1061C53.543 98.1828 53.3829 98.4692 53.4596 98.7454C53.5363 99.0217 53.8227 99.1818 54.0989 99.1051C54.1079 99.1028 54.1169 99.0994 54.1248 99.0972L54.1316 99.0949Z" fill="#FFA08A"/>
<path d="M53.8149 98.6636L55.0135 98.1033L55.6133 97.8293L55.9121 97.6962C56.0113 97.6523 56.1105 97.6106 56.1996 97.5733L56.212 97.5688C56.4307 97.4798 56.5367 97.2306 56.4477 97.0118C56.3631 96.8033 56.1308 96.6984 55.9189 96.7661C55.8005 96.8044 55.6934 96.8416 55.5874 96.8811L55.2717 96.9972L54.647 97.2328L53.4045 97.7132C53.1373 97.8169 53.0043 98.1168 53.108 98.384C53.2117 98.6512 53.5116 98.7843 53.7789 98.6805C53.789 98.676 53.8003 98.6715 53.8104 98.667L53.8149 98.6636Z" fill="#FFA08A"/>
<path d="M54.7935 100.632L56.2988 100.097L57.0519 99.8346L57.4274 99.7072L57.6134 99.6452L57.7904 99.5889L57.8085 99.5832C58.034 99.5122 58.158 99.272 58.087 99.0465C58.0193 98.8345 57.8006 98.7128 57.5886 98.7579C57.5165 98.7737 57.4443 98.7895 57.3789 98.8052L57.1805 98.8537L56.7892 98.9529L56.0124 99.1548L54.4632 99.5674C54.1655 99.6464 53.9885 99.9519 54.0686 100.25C54.1475 100.547 54.453 100.724 54.7507 100.644C54.7654 100.641 54.7789 100.636 54.7924 100.632H54.7935Z" fill="#FFA08A"/>
<path d="M53.9797 101.59L55.4342 101.32L56.1603 101.19L56.5211 101.13C56.6406 101.109 56.7612 101.091 56.8684 101.077L56.883 101.074C57.1175 101.043 57.281 100.827 57.2495 100.593C57.219 100.372 57.024 100.214 56.8063 100.223C56.6665 100.23 56.5425 100.239 56.4174 100.248L56.0442 100.278L55.3023 100.345L53.8207 100.488C53.514 100.517 53.2897 100.79 53.319 101.096C53.3483 101.402 53.6212 101.627 53.9267 101.597C53.9425 101.596 53.9583 101.594 53.9741 101.591L53.9797 101.59Z" fill="#FFA08A"/>
<path d="M35.8693 96.3329C35.8749 96.3329 35.8817 96.3317 35.8873 96.3306C35.9223 96.3205 35.9426 96.2844 35.9324 96.2494C35.9268 96.2314 35.4047 94.4601 34.0202 94.4263C34.019 94.4263 34.019 94.4263 34.019 94.4263C33.983 94.4263 33.9536 94.4545 33.9536 94.4905C33.9525 94.5266 33.9818 94.5571 34.0179 94.5582C35.3055 94.5898 35.8016 96.2697 35.8073 96.2866C35.814 96.3137 35.84 96.3329 35.8693 96.3329Z" fill="#000932"/>
<path d="M35.7059 96.3323C35.7195 96.3323 35.733 96.3278 35.7454 96.3188C35.7747 96.2973 35.7804 96.2556 35.7589 96.2263C35.7296 96.188 35.0396 95.2792 34.0158 95.3119C33.9797 95.313 33.9515 95.3435 33.9527 95.3796C33.9538 95.4156 33.9854 95.4449 34.0203 95.4427C34.0372 95.4427 34.053 95.4416 34.0699 95.4416C34.999 95.4416 35.6462 96.2951 35.6529 96.3041C35.6665 96.3233 35.6868 96.3323 35.7059 96.3323Z" fill="#000932"/>
<path d="M43.3963 180.094C43.8955 180.032 44.2361 179.467 44.1569 178.832C44.0778 178.198 43.6088 177.734 43.1096 177.796C42.6103 177.858 42.2697 178.423 42.3489 179.058C42.4281 179.692 42.897 180.156 43.3963 180.094Z" fill="#CCE3F5"/>
<path d="M48.2402 183.264C48.2368 183.673 45.285 184.023 42.9962 184.004C40.7085 183.985 38.856 183.639 38.8594 183.231C38.8628 182.822 40.7198 182.506 43.0086 182.525C45.2974 182.543 48.2436 182.855 48.2402 183.264Z" fill="#000932"/>
<path d="M41.6029 182.124C41.6389 182.124 41.6739 182.123 41.71 182.121C42.6706 182.062 43.4024 181.237 43.3437 180.276L43.0134 174.819C42.9547 173.858 42.1305 173.128 41.1688 173.185C40.2081 173.244 39.4764 174.069 39.535 175.03L39.8654 180.487C39.9218 181.412 40.6896 182.124 41.6029 182.124Z" fill="#FFA08A"/>
<path d="M39.7326 179.109L38.8633 183.209C42.2018 183.632 44.4839 183.61 47.7457 182.978C47.7457 182.978 46.5562 182.715 45.5629 181.766C44.697 180.938 43.9844 179.769 43.3665 178.75C41.9944 179.391 41.1138 179.459 39.7326 179.109Z" fill="#193368"/>
<path d="M17.8293 174.399C17.3513 174.823 16.6195 174.779 16.1956 174.301C15.7717 173.822 15.8156 173.091 16.2937 172.667C16.7718 172.243 17.5035 172.287 17.9274 172.765C18.3514 173.243 18.3074 173.975 17.8293 174.399Z" fill="#CCE3F5"/>
<path d="M15.229 175.012C15.7375 175.012 16.2415 174.791 16.5854 174.364L20.022 170.112C20.6275 169.363 20.5102 168.266 19.7616 167.66C19.0129 167.055 17.9158 167.172 17.3104 167.921L13.8737 172.174C13.2683 172.922 13.3855 174.019 14.1342 174.625C14.4578 174.885 14.8445 175.012 15.229 175.012Z" fill="#FFA08A"/>
<path d="M14.5673 171.285L10.8071 173.632L17.3297 180.548C17.3297 180.548 17.0219 179.114 16.7829 177.214C16.6341 176.025 17.2936 174.846 17.6105 173.698C15.7929 172.945 14.3768 172.184 14.5673 171.285Z" fill="#193368"/>
<path d="M28.3991 130.584C28.3157 131.063 28.2435 131.544 28.1702 132.024C28.1037 132.505 28.0304 132.986 27.9684 133.468C27.8399 134.431 27.7238 135.396 27.6155 136.363C27.4013 138.295 27.2141 140.231 27.0664 142.174C26.9176 144.115 26.8274 146.065 26.7304 148.014C26.6842 148.988 26.6278 149.963 26.5692 150.936C26.5072 151.909 26.4316 152.878 26.3459 153.848L27.1329 152.001C26.9029 152.324 26.6763 152.648 26.4339 152.961C26.1926 153.274 25.94 153.578 25.6785 153.875C25.1564 154.47 24.5994 155.039 24.0898 155.643C23.835 155.945 23.5892 156.255 23.3569 156.575C23.1247 156.896 22.9037 157.226 22.6782 157.551C22.4527 157.877 22.2283 158.203 22.0062 158.532C21.7841 158.861 21.5597 159.187 21.3398 159.517C20.4547 160.834 19.5866 162.164 18.7387 163.511C17.8919 164.858 17.061 166.218 16.2774 167.615C15.5591 168.894 16.0146 170.514 17.2955 171.232C18.3215 171.807 19.5685 171.625 20.3916 170.872C21.5721 169.789 22.7064 168.669 23.8226 167.536C24.9388 166.403 26.0348 165.251 27.1149 164.089C27.3866 163.799 27.6527 163.506 27.9222 163.214C28.1917 162.923 28.4578 162.629 28.7238 162.336C28.9888 162.042 29.2594 161.751 29.5176 161.451C29.7758 161.151 30.0216 160.841 30.2572 160.524C30.7285 159.889 31.1547 159.217 31.6148 158.572C31.8436 158.249 32.0827 157.934 32.3319 157.627C32.5799 157.32 32.8449 157.025 33.1053 156.726C33.4842 156.292 33.7221 155.784 33.8224 155.256L33.8923 154.88C34.0716 153.923 34.2599 152.968 34.4617 152.015C34.6669 151.062 34.8744 150.109 35.0931 149.159C35.5249 147.255 35.9624 145.354 36.3424 143.444C36.7235 141.534 37.064 139.62 37.3786 137.701C37.5341 136.741 37.6818 135.781 37.8183 134.818C37.8882 134.337 37.9479 133.855 38.0122 133.374C38.0708 132.891 38.1306 132.408 38.1791 131.925C38.4497 129.211 36.4698 126.791 33.7559 126.521C31.1683 126.262 28.8456 128.066 28.3991 130.584Z" fill="#002646"/>
<path d="M33.2223 131.246L32.981 133.005C32.9765 133.041 33.0013 133.074 33.0374 133.078C33.0735 133.083 33.1061 133.058 33.1107 133.022L33.3519 131.263C33.3565 131.227 33.3316 131.194 33.2956 131.189C33.2606 131.185 33.2279 131.21 33.2223 131.246Z" fill="#38B6FC"/>
<path d="M32.7408 134.766L32.4996 136.524C32.495 136.559 32.5198 136.592 32.5548 136.598C32.5898 136.602 32.6225 136.577 32.6281 136.542L32.8694 134.784C32.8739 134.747 32.8491 134.715 32.8141 134.71C32.778 134.705 32.7453 134.729 32.7408 134.766Z" fill="#38B6FC"/>
<path d="M32.2594 138.283L32.0181 140.042C32.0136 140.077 32.0373 140.109 32.0722 140.114C32.1072 140.119 32.1399 140.095 32.1444 140.06L32.3857 138.301C32.3902 138.266 32.3665 138.233 32.3304 138.229C32.2966 138.223 32.2639 138.248 32.2594 138.283Z" fill="#38B6FC"/>
<path d="M31.7783 141.802L31.5381 143.562C31.5336 143.596 31.5573 143.626 31.5911 143.631C31.625 143.635 31.6554 143.611 31.6599 143.579L31.9035 141.82C31.908 141.785 31.8843 141.753 31.8493 141.749C31.8144 141.743 31.7828 141.768 31.7783 141.802Z" fill="#38B6FC"/>
<path d="M31.2979 145.321L31.0577 147.081C31.0532 147.112 31.0757 147.142 31.1073 147.146C31.1389 147.151 31.1682 147.128 31.1727 147.097L31.4162 145.338C31.4208 145.305 31.3982 145.275 31.3655 145.27C31.3328 145.266 31.3024 145.288 31.2979 145.321Z" fill="#38B6FC"/>
<path d="M30.8189 148.839L30.5787 150.599C30.5742 150.629 30.5956 150.657 30.625 150.66C30.6543 150.665 30.6825 150.643 30.6858 150.614L30.9294 148.855C30.9339 148.825 30.9125 148.797 30.8809 148.792C30.8516 148.788 30.8234 148.809 30.8189 148.839Z" fill="#38B6FC"/>
<path d="M30.3397 152.358L30.0995 154.118C30.0961 154.147 30.1153 154.173 30.1435 154.176C30.1717 154.179 30.1976 154.16 30.201 154.132L30.4445 152.373C30.449 152.344 30.4287 152.318 30.3994 152.313C30.3701 152.31 30.3442 152.33 30.3397 152.358Z" fill="#38B6FC"/>
<path d="M29.1251 155.536L28.0224 156.928C28.0044 156.95 28.0089 156.982 28.0303 157C28.0529 157.018 28.0845 157.013 28.1025 156.992L29.2041 155.599C29.221 155.578 29.2176 155.545 29.1962 155.528C29.1748 155.511 29.1432 155.515 29.1251 155.536Z" fill="#38B6FC"/>
<path d="M26.9199 158.32L25.8183 159.712C25.8003 159.735 25.8048 159.766 25.8262 159.784C25.8488 159.802 25.8804 159.798 25.8984 159.776L27.0011 158.385C27.0191 158.362 27.0146 158.33 26.9932 158.313C26.9707 158.294 26.938 158.297 26.9199 158.32Z" fill="#38B6FC"/>
<path d="M24.7168 161.106L23.6164 162.5C23.6006 162.52 23.604 162.549 23.6243 162.565C23.6445 162.581 23.6739 162.577 23.6896 162.557L24.7935 161.167C24.8104 161.145 24.807 161.115 24.7856 161.098C24.7653 161.081 24.7337 161.085 24.7168 161.106Z" fill="#38B6FC"/>
<path d="M22.5159 163.893L21.4154 165.286C21.4008 165.304 21.4041 165.33 21.4222 165.345C21.4402 165.36 21.4662 165.356 21.4808 165.338L22.5846 163.948C22.5993 163.929 22.597 163.901 22.5779 163.886C22.5587 163.87 22.5316 163.874 22.5159 163.893Z" fill="#38B6FC"/>
<path d="M20.3149 166.68L19.2145 168.074C19.2021 168.09 19.2044 168.113 19.2201 168.126C19.2359 168.138 19.2596 168.136 19.272 168.12L20.3758 166.73C20.3894 166.713 20.386 166.688 20.3691 166.675C20.3533 166.66 20.3285 166.662 20.3149 166.68Z" fill="#38B6FC"/>
<path d="M17.2599 180.971C17.69 180.59 16.5879 178.644 14.7982 176.625C13.0085 174.606 11.209 173.278 10.7788 173.659C10.3487 174.04 11.4508 175.986 13.2405 178.005C15.0302 180.025 16.8298 181.353 17.2599 180.971Z" fill="#000932"/>
<path d="M35.753 142.153L27.2651 139.747L27.9394 133.732L36.1172 135.867L35.753 142.153Z" fill="#002646"/>
<path d="M34.4702 132.669C34.5175 133.56 34.5863 134.448 34.6551 135.337L34.7667 136.669L34.8896 138.001C34.9291 138.445 34.9776 138.888 35.0204 139.333C35.0655 139.777 35.1072 140.22 35.1568 140.664C35.2549 141.552 35.3451 142.439 35.4534 143.326C35.8593 146.874 36.3993 150.419 36.8571 153.971C36.9157 154.415 36.9687 154.859 37.0228 155.304L37.0634 155.636C37.0702 155.692 37.0781 155.747 37.0826 155.803L37.0928 155.97C37.1063 156.192 37.1198 156.415 37.13 156.638C37.1751 157.528 37.1751 158.42 37.1717 159.312C37.1683 160.204 37.1863 161.096 37.2551 161.985C37.3273 162.875 37.4051 163.764 37.4863 164.655L37.6114 165.99C37.6531 166.436 37.6971 166.881 37.7422 167.326C37.8301 168.217 37.9316 169.108 38.0252 169.998C38.2281 171.78 38.4401 173.564 38.704 175.348V175.352C38.9182 176.798 40.2633 177.797 41.7099 177.584C42.9129 177.406 43.807 176.443 43.9502 175.292C44.1746 173.487 44.3471 171.681 44.5117 169.873C44.5861 168.969 44.6684 168.066 44.7361 167.162C44.7722 166.709 44.806 166.257 44.8376 165.805L44.9334 164.448C44.9954 163.543 45.054 162.638 45.1059 161.733C45.1544 160.827 45.1533 159.924 45.1307 159.021C45.1082 158.118 45.0879 157.216 45.1138 156.312C45.169 155.405 45.1059 154.505 45.0969 153.603C45.0259 149.995 45.0383 146.378 44.9154 142.767C44.8917 141.864 44.8488 140.962 44.8161 140.059C44.8004 139.608 44.7756 139.157 44.7541 138.705C44.7316 138.254 44.7135 137.801 44.6865 137.352L44.6109 135.999L44.5241 134.647C44.461 133.746 44.3978 132.844 44.3121 131.944C44.0551 129.23 41.6467 127.238 38.9328 127.495C36.2911 127.745 34.3338 130.033 34.4679 132.658L34.4702 132.669Z" fill="#002646"/>
<path d="M39.326 132.311L39.4568 134.082C39.459 134.118 39.4906 134.145 39.5267 134.143C39.5627 134.141 39.5898 134.109 39.5876 134.073L39.4568 132.302C39.4545 132.266 39.4229 132.239 39.3869 132.241C39.3496 132.243 39.3226 132.275 39.326 132.311Z" fill="#38B6FC"/>
<path d="M39.5875 135.852L39.7183 137.624C39.7206 137.66 39.7521 137.686 39.7871 137.683C39.8232 137.681 39.8491 137.65 39.8469 137.615L39.7161 135.843C39.7138 135.807 39.6822 135.78 39.6462 135.783C39.6123 135.786 39.5853 135.816 39.5875 135.852Z" fill="#38B6FC"/>
<path d="M39.8504 139.394L39.9812 141.165C39.9834 141.2 40.0139 141.227 40.05 141.224C40.0849 141.221 40.112 141.191 40.1086 141.155L39.9778 139.384C39.9755 139.349 39.944 139.322 39.909 139.324C39.8741 139.328 39.847 139.359 39.8504 139.394Z" fill="#38B6FC"/>
<path d="M40.1115 142.936L40.2434 144.707C40.2456 144.741 40.2761 144.767 40.3099 144.765C40.3437 144.762 40.3697 144.733 40.3674 144.698L40.2377 142.927C40.2355 142.892 40.205 142.866 40.1701 142.868C40.1351 142.871 40.1092 142.901 40.1115 142.936Z" fill="#38B6FC"/>
<path d="M40.3768 146.478L40.5087 148.249C40.5109 148.282 40.5391 148.306 40.5718 148.303C40.6045 148.301 40.6293 148.273 40.6259 148.24L40.4963 146.469C40.494 146.435 40.4647 146.41 40.432 146.412C40.3993 146.415 40.3734 146.444 40.3768 146.478Z" fill="#38B6FC"/>
<path d="M40.6408 150.019L40.7727 151.79C40.7749 151.822 40.802 151.844 40.8336 151.842C40.8651 151.84 40.8877 151.813 40.8854 151.781L40.7558 150.01C40.7535 149.978 40.7253 149.953 40.6938 149.957C40.6622 149.959 40.6385 149.987 40.6408 150.019Z" fill="#38B6FC"/>
<path d="M40.9045 153.561L41.0364 155.332C41.0386 155.361 41.0646 155.384 41.0939 155.382C41.1232 155.379 41.1457 155.353 41.1435 155.324L41.0138 153.553C41.0116 153.522 40.9856 153.5 40.9541 153.502C40.9247 153.503 40.9022 153.53 40.9045 153.561Z" fill="#38B6FC"/>
<path d="M41.0747 157.103L41.095 158.879C41.095 158.908 41.1187 158.932 41.148 158.931C41.1773 158.931 41.201 158.907 41.1999 158.878L41.1807 157.102C41.1807 157.073 41.1559 157.049 41.1266 157.049C41.0984 157.049 41.0747 157.074 41.0747 157.103Z" fill="#38B6FC"/>
<path d="M41.1138 160.654L41.1341 162.429C41.1341 162.458 41.1577 162.481 41.1859 162.48C41.2141 162.48 41.2378 162.456 41.2367 162.428L41.2175 160.652C41.2175 160.623 41.1938 160.601 41.1645 160.601C41.1363 160.602 41.1138 160.625 41.1138 160.654Z" fill="#38B6FC"/>
<path d="M41.1558 164.205L41.1772 165.981C41.1772 166.007 41.1986 166.029 41.2245 166.027C41.2505 166.027 41.2719 166.006 41.2708 165.98L41.2539 164.204C41.2539 164.177 41.2313 164.155 41.2042 164.156C41.1772 164.156 41.1558 164.178 41.1558 164.205Z" fill="#38B6FC"/>
<path d="M41.1987 167.757L41.2202 169.533C41.2202 169.557 41.2393 169.575 41.263 169.575C41.2867 169.575 41.3047 169.555 41.3047 169.532L41.2878 167.756C41.2878 167.731 41.2675 167.711 41.2427 167.712C41.219 167.712 41.1987 167.732 41.1987 167.757Z" fill="#38B6FC"/>
<path d="M41.2427 171.308L41.2641 173.083C41.2641 173.105 41.281 173.121 41.3024 173.121C41.3239 173.121 41.3396 173.104 41.3396 173.082L41.3227 171.307C41.3227 171.284 41.3047 171.267 41.2821 171.267C41.2596 171.267 41.2427 171.285 41.2427 171.308Z" fill="#38B6FC"/>
<path d="M41.2856 174.859L41.2913 175.32C41.2913 175.34 41.3071 175.355 41.3262 175.355C41.3454 175.355 41.3612 175.34 41.3612 175.32L41.3567 174.859C41.3567 174.84 41.3409 174.824 41.3206 174.824C41.3014 174.823 41.2856 174.839 41.2856 174.859Z" fill="#38B6FC"/>
<path d="M41.0773 143.687C41.0784 143.687 41.0795 143.687 41.0818 143.687L41.9714 143.686C42.5926 143.685 43.1722 143.438 43.604 142.992C44.0358 142.545 44.2613 141.957 44.2399 141.335L44.0279 137.916C44.0223 137.825 43.9456 137.755 43.8532 137.761C43.763 137.767 43.6931 137.845 43.6987 137.936L43.9107 141.351C43.9287 141.878 43.7348 142.38 43.3661 142.763C42.9974 143.145 42.5013 143.356 41.9702 143.357L41.0806 143.358C41.0795 143.358 41.0784 143.358 41.0773 143.358C40.0456 143.358 39.1932 142.552 39.1346 141.522L39.0106 139.323C39.0049 139.232 38.9282 139.163 38.8369 139.168C38.7467 139.174 38.6768 139.25 38.6824 139.342L38.8065 141.542C38.8753 142.746 39.872 143.687 41.0773 143.687Z" fill="#38B6FC"/>
<path d="M38.4712 104.998L38.8794 111.174C37.5794 113.438 35.0447 112.948 34.2093 111.28L34.0176 104.574C34.7685 103.277 37.0754 103.673 38.4712 104.998Z" fill="#FFA08A"/>
<path d="M39.0319 110.913C39.0372 109.932 37.888 109.13 36.4652 109.122C35.0423 109.114 33.8845 109.904 33.8792 110.885C33.8739 111.867 35.0231 112.668 36.446 112.676C37.8688 112.684 39.0266 111.894 39.0319 110.913Z" fill="#FFA08A"/>
<path d="M44.5044 134.941C44.5044 134.941 40.1376 139.571 27.7554 135.381L27.9459 133.584L44.5044 134.941Z" fill="#1093DD"/>
<path d="M36.3135 106.388L38.7365 108.203L38.617 106.388H36.3135Z" fill="#3B3348"/>
<path d="M40.1388 98.625L40.1377 98.6137H40.1355C39.6912 96.9754 37.7485 96.0498 35.7619 96.5425C33.7527 97.0408 32.4594 98.8009 32.8743 100.473C32.9454 100.759 33.0626 101.023 33.216 101.263L33.7098 103.947C33.8947 104.949 34.5374 105.814 35.489 106.339C36.4406 106.865 38.8129 106.834 39.5029 106.755C40.0238 106.696 41.0499 104.755 40.7026 103.354L40.2268 99.3624C40.2324 99.1312 40.2087 98.899 40.1512 98.6678C40.1467 98.6554 40.1422 98.6408 40.1388 98.625Z" fill="#FFA08A"/>
<path d="M40.1431 100.995C40.1431 100.995 39.6954 100.574 39.2106 100.632C38.7258 100.689 38.3887 101.202 38.3887 101.202C38.3887 101.202 38.8363 101.623 39.3211 101.565C39.8059 101.508 40.1431 100.995 40.1431 100.995Z" fill="white"/>
<path d="M40.0238 100.994C39.9933 100.736 39.7599 100.552 39.5017 100.583C39.2436 100.613 39.0598 100.847 39.0902 101.105C39.1207 101.363 39.354 101.547 39.6122 101.516C39.8693 101.486 40.0542 101.253 40.0238 100.994Z" fill="#461F16"/>
<path opacity="0.5" d="M39.6871 103.417C39.9854 103.056 39.934 102.521 39.5722 102.222C39.2104 101.924 38.6754 101.975 38.3771 102.337C38.0787 102.699 38.1302 103.234 38.4919 103.532C38.8537 103.831 39.3888 103.779 39.6871 103.417Z" fill="#FF7D90"/>
<path d="M40.3804 101.05C40.739 101.17 41.1584 101.987 41.1426 102.152C41.1155 102.428 40.6826 102.808 40.3229 102.687C39.9644 102.568 39.7434 102.257 39.8313 101.994C39.9193 101.732 40.0219 100.931 40.3804 101.05Z" fill="#FFA08A"/>
<path d="M40.1376 104.396C40.4262 104.396 40.6157 104.221 40.6867 104.101C40.7239 104.039 40.7025 103.957 40.6405 103.92C40.5785 103.884 40.4984 103.904 40.4612 103.965C40.4443 103.994 40.2864 104.225 39.9301 104.09C39.8625 104.065 39.7858 104.098 39.761 104.167C39.7351 104.235 39.77 104.311 39.8377 104.336C39.9471 104.378 40.0474 104.396 40.1376 104.396Z" fill="#461F16"/>
<path d="M45.0998 134.433C43.572 127.341 42.5438 126.622 42.5032 124.155C42.3837 116.818 45.791 110.25 38.6482 110.035C37.4813 110 32.2936 110.698 31.2169 110.83C29.759 111.007 29.6102 111.259 29.4625 112.81C29.3238 114.271 29.3407 114.631 29.8154 116.02C30.4254 117.807 30.3645 121.191 30.1491 123.434C29.7883 127.208 27.2188 132.812 27.2188 132.812C29.0002 136.461 40.8491 138.606 45.0998 134.433Z" fill="#2A8DCF"/>
<path d="M29.9395 101.651C29.9395 104.491 31.1955 106.897 33.4471 106.897C35.6987 106.897 37.5242 104.595 37.5242 101.755C37.5242 98.9148 38.8253 95.8423 36.5737 95.8209C31.3533 95.7724 29.9395 98.811 29.9395 101.651Z" fill="#000932"/>
<path d="M33.9443 111.805C36.7844 111.805 39.0868 109.502 39.0868 106.662C39.0868 103.822 36.7844 101.52 33.9443 101.52C31.1042 101.52 28.8018 103.822 28.8018 106.662C28.8018 109.502 31.1042 111.805 33.9443 111.805Z" fill="#000932"/>
<path d="M38.8797 100.222C38.8943 100.222 38.9079 100.22 38.9225 100.215C39.3397 100.072 39.5257 100.115 39.8471 100.21C39.917 100.23 39.9903 100.19 40.0106 100.12C40.0309 100.051 39.9914 99.9773 39.9215 99.957C39.5674 99.8521 39.3183 99.8014 38.838 99.966C38.7692 99.9897 38.7331 100.064 38.7568 100.133C38.7737 100.187 38.8256 100.222 38.8797 100.222Z" fill="#461F16"/>
<path d="M38.1683 101.837C38.2269 102.503 38.0634 103.202 37.3982 103.261C36.7318 103.32 35.8163 102.714 35.7577 102.049C35.699 101.383 36.1918 100.796 36.857 100.738C37.5222 100.679 38.1096 101.172 38.1683 101.837Z" fill="#FFA08A"/>
<path d="M37.0291 102.478C37.063 102.478 37.0979 102.465 37.1239 102.439C37.1746 102.387 37.1735 102.304 37.1216 102.253C36.8837 102.022 36.913 101.667 36.913 101.663C36.9198 101.591 36.8657 101.527 36.7935 101.52C36.7202 101.513 36.6571 101.567 36.6503 101.64C36.648 101.659 36.6108 102.124 36.9378 102.442C36.9637 102.466 36.9964 102.478 37.0291 102.478Z" fill="#461F16"/>
<path d="M36.4555 117.539C39.2957 117.539 41.5981 114.837 41.5981 111.503C41.5981 108.17 39.2957 105.468 36.4555 105.468C33.6154 105.468 31.313 108.17 31.313 111.503C31.313 114.837 33.6154 117.539 36.4555 117.539Z" fill="#000932"/>
<path d="M31.1709 117.539C34.011 117.539 36.3134 114.837 36.3134 111.503C36.3134 108.17 34.011 105.468 31.1709 105.468C28.3307 105.468 26.0283 108.17 26.0283 111.503C26.0283 114.837 28.3307 117.539 31.1709 117.539Z" fill="#000932"/>
<path d="M33.288 119.684C36.1282 119.684 38.4306 116.982 38.4306 113.649C38.4306 110.315 36.1282 107.613 33.288 107.613C30.4479 107.613 28.1455 110.315 28.1455 113.649C28.1455 116.982 30.4479 119.684 33.288 119.684Z" fill="#000932"/>
<path d="M37.5738 95.7069C33.1517 95.9154 34.6231 99.1638 34.6231 99.1638C35.1925 99.3002 36.1813 99.3419 36.7992 99.3566C38.1071 99.387 39.3394 99.1243 40.4072 98.6384C40.4072 98.6384 40.8864 95.5513 37.5738 95.7069Z" fill="#000932"/>
<path d="M26.7546 114.661C26.767 114.661 26.7805 114.658 26.7918 114.65C26.8223 114.63 26.829 114.588 26.8087 114.559C25.821 113.121 25.4512 111.742 25.7105 110.461C26.0759 108.66 27.5822 107.679 27.5969 107.668L27.6307 107.647L27.6273 107.608C27.5123 106.388 28.0208 105.447 29.1381 104.811C29.9793 104.333 30.8689 104.216 30.8779 104.215L31.0526 104.192L30.9072 104.094C30.8982 104.088 29.9556 103.421 29.7763 101.093C29.5982 98.7668 32.294 97.212 32.3222 97.1962C32.3538 97.1782 32.3651 97.1387 32.347 97.1071C32.329 97.0756 32.2895 97.0643 32.2579 97.0823C32.2298 97.0981 29.4617 98.6935 29.6467 101.103C29.7955 103.038 30.4494 103.85 30.7189 104.107C30.4291 104.16 29.747 104.314 29.0784 104.694C28.2812 105.146 27.3635 106.013 27.4954 107.579C27.2654 107.738 25.9293 108.732 25.5843 110.434C25.317 111.751 25.6936 113.163 26.7027 114.632C26.7129 114.651 26.7343 114.661 26.7546 114.661Z" fill="#000932"/>
<path d="M110.344 112.228L82.9609 105.079C82.5559 104.24 81.7989 103.577 80.8274 103.323C79.9989 103.107 79.1622 103.226 78.4606 103.595L78.5062 103.42C78.7467 102.5 78.195 101.559 77.275 101.318C76.7302 101.176 76.1783 101.311 75.7691 101.636C75.2932 97.6784 72.4573 94.2184 68.3734 93.1525C64.8558 92.2341 61.2789 93.3178 58.8524 95.6927C57.6669 95.3959 56.4613 96.1084 56.1516 97.2936C56.0875 97.5383 56.0673 97.785 56.0857 98.0234C55.074 97.9996 54.1412 98.6692 53.8748 99.6909C53.6084 100.713 54.0942 101.753 54.9883 102.227C54.8557 102.427 54.7531 102.651 54.6891 102.896C54.3794 104.081 55.0835 105.292 56.2624 105.613C57.2178 108.871 59.8093 111.565 63.3259 112.484C67.4747 113.568 71.7076 111.865 74.0359 108.543C74.2477 108.98 74.6425 109.326 75.1501 109.457C76.0445 109.691 76.9585 109.176 77.2299 108.301C77.6612 108.968 78.3336 109.482 79.1632 109.699C80.1356 109.953 81.1188 109.744 81.8835 109.21L101.882 114.432L100.799 118.579L101.797 118.839L102.18 117.374L103.644 117.757L103.262 119.222L104.035 119.424L104.417 117.959L105.882 118.342L105.499 119.807L106.321 120.021L106.704 118.556L108.168 118.939L107.785 120.404L108.558 120.606L109.65 116.425C110.658 116.499 111.606 115.848 111.87 114.835C112.168 113.693 111.485 112.526 110.344 112.228ZM64.1957 109.149C60.7038 108.237 58.6049 104.655 59.5169 101.163C60.4289 97.671 64.0113 95.5721 67.5032 96.4841C70.9951 97.396 73.094 100.978 72.182 104.47C71.27 107.962 67.6876 110.061 64.1957 109.149Z" fill="#0968B8"/>
<path d="M39.5958 116.474L48.529 122.08L48.6429 122.151C49.4671 122.667 50.5033 122.57 51.2147 121.985L60.2415 114.543C61.0883 113.845 61.2089 112.593 60.511 111.746C59.8356 110.926 58.6371 110.791 57.7937 111.414L48.3993 118.386L51.0851 118.291L42.5386 112.111C41.3604 111.26 39.7153 111.524 38.8629 112.702C38.0117 113.88 38.2755 115.525 39.4537 116.378C39.4977 116.41 39.5496 116.444 39.5958 116.474Z" fill="#FFA08A"/>
<path d="M39.0692 116.546L44.4079 120.08C45.77 120.98 47.6033 120.607 48.5053 119.246C49.3757 117.931 49.051 116.168 47.7995 115.238L42.6536 111.428C41.2667 110.401 39.3094 110.693 38.2822 112.08C37.2551 113.467 37.5471 115.424 38.9339 116.451C38.9768 116.482 39.0275 116.518 39.0692 116.546Z" fill="#2A8DCF"/>
<path d="M59.1629 115.207C59.1629 115.207 57.1819 113.156 58.2767 111.163L60.499 110.354L61.4991 113.737C61.4991 113.737 59.7402 115.145 59.1629 115.207Z" fill="#FFA08A"/>
<path d="M61.2417 112.344L62.4255 111.263L63.0152 110.718L63.3095 110.442L63.4572 110.301C63.5057 110.255 63.5576 110.203 63.6105 110.151C63.7774 109.984 63.7774 109.714 63.6105 109.547C63.4504 109.387 63.1934 109.38 63.0265 109.529L63.0141 109.54C62.969 109.58 62.925 109.619 62.8743 109.662L62.7255 109.788L62.421 110.042L61.8065 110.548L60.5685 111.556L60.5663 111.558C60.3442 111.739 60.3103 112.066 60.4919 112.288C60.6723 112.51 60.9992 112.544 61.2214 112.362C61.227 112.358 61.2349 112.351 61.2417 112.344Z" fill="#FFA08A"/>
<path d="M61.4585 113.191L62.6423 112.11L63.232 111.566L63.5263 111.289L63.674 111.148C63.7225 111.102 63.7743 111.05 63.8273 110.998C63.9942 110.832 63.9942 110.561 63.8273 110.394C63.6672 110.234 63.4102 110.227 63.2433 110.376L63.2309 110.387C63.1858 110.427 63.1418 110.466 63.0911 110.509L62.9423 110.635L62.6378 110.889L62.0233 111.395L60.7853 112.403L60.7831 112.406C60.561 112.586 60.5271 112.913 60.7087 113.135C60.8891 113.357 61.216 113.391 61.4382 113.209C61.4438 113.205 61.4517 113.197 61.4585 113.191Z" fill="#FFA08A"/>
<path d="M61.5732 113.754L62.6387 112.954L63.1697 112.55L63.4358 112.343C63.5249 112.273 63.6128 112.202 63.7087 112.122C63.8891 111.97 63.9128 111.701 63.7617 111.52C63.6162 111.348 63.3648 111.318 63.1844 111.448L63.1731 111.457C63.0942 111.513 63.0062 111.576 62.9172 111.636L62.6454 111.819L62.0952 112.182L60.9846 112.903L60.9813 112.905C60.7411 113.06 60.6723 113.382 60.8279 113.622C60.9835 113.862 61.3048 113.931 61.545 113.775C61.554 113.768 61.5642 113.761 61.5732 113.754Z" fill="#FFA08A"/>
<path d="M60.5574 111.874L61.7289 110.778L62.3118 110.225L62.6027 109.946L62.7493 109.803C62.7977 109.755 62.8485 109.703 62.9003 109.65C63.065 109.481 63.0627 109.211 62.8936 109.046C62.7346 108.89 62.4854 108.885 62.3186 109.025L62.3028 109.038L62.1618 109.159L62.0119 109.284L61.7052 109.534L61.0839 110.034L59.8335 111.027L59.8313 111.029C59.59 111.221 59.5505 111.572 59.7411 111.812C59.9328 112.053 60.2834 112.093 60.5236 111.902C60.5348 111.894 60.5461 111.884 60.5574 111.874Z" fill="#FFA08A"/>
<path d="M59.4394 111.93L60.3436 110.751L60.7924 110.157L61.0156 109.856C61.09 109.754 61.1633 109.654 61.2434 109.539C61.3776 109.345 61.3291 109.078 61.134 108.945C60.9514 108.818 60.7033 108.855 60.5635 109.021L60.5534 109.034C60.4846 109.116 60.4045 109.21 60.3245 109.3L60.0809 109.574L59.586 110.122L58.587 111.212L58.5847 111.216C58.3773 111.442 58.3919 111.795 58.6197 112.003C58.8463 112.21 59.1992 112.195 59.4067 111.968C59.4191 111.955 59.4304 111.943 59.4394 111.93Z" fill="#FFA08A"/>
<path d="M145.45 78C162.544 78 176.45 91.9061 176.45 109C176.45 126.094 162.544 140 145.45 140C128.356 140 114.45 126.094 114.45 109C114.454 91.9061 128.36 78 145.45 78ZM122.122 109C122.122 114.052 123.742 118.729 126.481 122.551L159.006 90.0264C155.183 87.2878 150.506 85.6682 145.454 85.6682C132.588 85.6682 122.122 96.1342 122.122 109ZM168.782 109C168.782 103.948 167.162 99.2709 164.424 95.4486L131.899 127.974C135.721 130.712 140.398 132.332 145.45 132.332C158.316 132.332 168.782 121.866 168.782 109Z" fill="#083B82"/>
</g>
<defs>
<linearGradient id="paint0_linear_4292_13544" x1="142.932" y1="82.2336" x2="142.932" y2="76.2771" gradientUnits="userSpaceOnUse">
<stop stop-color="#E0D5D5"/>
<stop offset="1" stop-color="#EDE1E1"/>
</linearGradient>
<clipPath id="clip0_4292_13544">
<rect width="279.1" height="209.266" fill="white" transform="translate(0.450195)"/>
</clipPath>
</defs>
</svg>
