<svg width="18" height="18" viewBox="0 0 18 18" fill="none" xmlns="http://www.w3.org/2000/svg">
<path d="M2.3125 7.3125V7.25H2.25C1.96821 7.25 1.69796 7.13806 1.4987 6.9388C1.29944 6.73954 1.1875 6.46929 1.1875 6.1875V4.5C1.1875 4.21821 1.29944 3.94796 1.4987 3.7487C1.69796 3.54944 1.96821 3.4375 2.25 3.4375H15.75C16.0318 3.4375 16.302 3.54944 16.5013 3.7487C16.7006 3.94796 16.8125 4.21821 16.8125 4.5V6.1875C16.8125 6.46929 16.7006 6.73954 16.5013 6.9388C16.302 7.13806 16.0318 7.25 15.75 7.25H15.6875V7.3125V13.5C15.6875 13.7818 15.5756 14.052 15.3763 14.2513C15.177 14.4506 14.9068 14.5625 14.625 14.5625H3.375C3.09321 14.5625 2.82296 14.4506 2.6237 14.2513C2.42444 14.052 2.3125 13.7818 2.3125 13.5V7.3125ZM14.625 13.5625H14.6875V13.5V7.3125V7.25H14.625H3.375H3.3125V7.3125V13.5V13.5625H3.375H14.625ZM15.75 6.25H15.8125V6.1875V4.5V4.4375H15.75H2.25H2.1875V4.5V6.1875V6.25H2.25H15.75ZM6.8125 9.5625C6.8125 9.42989 6.86518 9.30271 6.95895 9.20895C7.05271 9.11518 7.17989 9.0625 7.3125 9.0625H10.6875C10.8201 9.0625 10.9473 9.11518 11.0411 9.20895C11.1348 9.30271 11.1875 9.42989 11.1875 9.5625C11.1875 9.69511 11.1348 9.82229 11.0411 9.91605C10.9473 10.0098 10.8201 10.0625 10.6875 10.0625H7.3125C7.17989 10.0625 7.05271 10.0098 6.95895 9.91605C6.86518 9.82229 6.8125 9.69511 6.8125 9.5625Z" fill="currentColor" stroke="currentColor" stroke-width="0.125"/>
</svg>
