<svg width="19" height="18" viewBox="0 0 19 18" fill="none" xmlns="http://www.w3.org/2000/svg">
<path d="M16.25 8.99998C16.2502 10.7746 15.5515 12.4779 14.3051 13.7412C13.0588 15.0045 11.3651 15.7261 9.5907 15.75H9.5C7.77611 15.7543 6.11676 15.0946 4.86641 13.9078C4.81271 13.857 4.76955 13.7961 4.73938 13.7287C4.70921 13.6612 4.69262 13.5885 4.69056 13.5146C4.6885 13.4407 4.70102 13.3671 4.72739 13.2981C4.75376 13.2291 4.79347 13.1659 4.84426 13.1122C4.89504 13.0585 4.95591 13.0153 5.02337 12.9852C5.09084 12.955 5.16359 12.9384 5.23746 12.9364C5.31134 12.9343 5.3849 12.9468 5.45394 12.9732C5.52298 12.9996 5.58615 13.0393 5.63984 13.0901C6.44408 13.8485 7.45396 14.3532 8.54335 14.541C9.63273 14.7289 10.7533 14.5915 11.7651 14.1462C12.7769 13.7009 13.6351 12.9673 14.2324 12.0371C14.8297 11.1069 15.1396 10.0213 15.1235 8.91598C15.1075 7.81064 14.766 6.73454 14.1419 5.82211C13.5178 4.90968 12.6387 4.20137 11.6144 3.78567C10.59 3.36998 9.46594 3.26532 8.38249 3.48477C7.29903 3.70422 6.30425 4.23806 5.52242 5.01959C5.51668 5.0258 5.51057 5.03167 5.50414 5.03717L3.63523 6.74998H5.5625C5.71168 6.74998 5.85476 6.80924 5.96025 6.91473C6.06574 7.02022 6.125 7.16329 6.125 7.31248C6.125 7.46166 6.06574 7.60474 5.96025 7.71023C5.85476 7.81571 5.71168 7.87498 5.5625 7.87498H2.1875C2.03832 7.87498 1.89524 7.81571 1.78975 7.71023C1.68426 7.60474 1.625 7.46166 1.625 7.31248V3.93748C1.625 3.78829 1.68426 3.64522 1.78975 3.53973C1.89524 3.43424 2.03832 3.37498 2.1875 3.37498C2.33668 3.37498 2.47976 3.43424 2.58525 3.53973C2.69074 3.64522 2.75 3.78829 2.75 3.93748V6.03279L4.73633 4.21873C5.68131 3.27741 6.884 2.63717 8.19256 2.37881C9.50112 2.12046 10.8569 2.25558 12.0887 2.76712C13.3205 3.27866 14.3732 4.14368 15.1138 5.25299C15.8544 6.3623 16.2498 7.66616 16.25 8.99998Z" fill="currentColor"/>
</svg>
