<svg
  width="319"
  height="301"
  viewBox="0 0 319 301"
  fill="none"
  xmlns="http://www.w3.org/2000/svg"
>
  <g clip-path="url(#clip0_593_3695)">
    <g opacity="0.25">
      <path
        opacity="0.3"
        d="M108.457 34.2161C100.427 44.5437 86.8436 50.5358 75.3348 51.4504C60.1026 52.6604 44.323 49.0954 31.345 61.3676C23.7037 68.5984 20.0379 80.3448 22.6883 90.6581C26.7718 106.553 44.7984 115.325 49.2996 131.097C53.484 145.746 44.6399 160.712 35.551 172.761C26.4621 184.81 16.1488 197.939 16.9699 213.178C17.6397 225.573 26.1452 236.65 36.9338 242.246C47.7224 247.842 60.4195 248.526 72.3172 246.43C83.1202 244.529 94.8162 240.596 104.517 245.861C111.078 249.419 115.032 256.405 119.843 262.217C135.119 280.661 162.133 287.69 184.063 278.918C199.922 272.58 213.022 258.983 229.861 256.441C243.681 254.352 257.804 260.164 271.618 258.004C290.393 255.065 305.266 235.065 302.19 215.785C298.813 194.561 277.214 177.233 281.355 156.167C282.947 148.051 288.226 141.324 292.684 134.432C299.605 123.744 304.963 111.573 305.51 98.7387C306.058 85.9048 298.272 71.8177 288.046 64.4068C273.663 53.9783 255.521 58.0403 241.6 46.978C235.377 42.0302 231.395 34.7634 226.519 28.4185C212.237 9.83734 188.968 -1.05207 165.986 0.0714424C142.99 1.20936 120.887 14.3314 108.457 34.2161Z"
        fill="currentColor"
      />
    </g>
    <path
      opacity="0.3"
      d="M98.839 265.04C83.7292 264.601 78.6086 265.688 63.4988 265.249C48.0938 264.795 33.2649 265.249 14.3093 267.813C12.1126 268.108 -0.0731219 269.318 0.40221 272.199C0.884743 275.08 11.875 275.166 15.4472 275.505C21.0503 276.038 27.8634 275.217 30.168 277.961C33.805 282.282 23.5494 281.223 22.2603 285.019C20.9639 288.821 29.5919 290.528 34.0139 291.407C70.1319 298.544 91.2841 298.321 128.057 300.092C162.8 301.77 196.8 300.841 231.557 299.581C259.739 298.558 293.041 298.047 314.971 289.088C316.894 288.303 319.047 286.668 318.608 284.637C318.406 283.715 317.693 283.009 316.966 282.412C310.938 277.435 279.105 278.357 271.341 277.421C268.59 277.089 262.814 277.557 262.303 274.482C261.791 271.407 280.113 272.177 279.919 269.484C279.724 266.798 263.714 266.272 255.417 265.66C235.41 264.19 114.597 267.208 98.839 265.04Z"
      fill="currentColor"
    />
    <path
      d="M240.037 273.955H83.9341C80.4339 273.955 77.6035 271.117 77.6035 267.624V67.4087C77.6035 63.9085 80.4411 61.0781 83.9341 61.0781H240.03C243.53 61.0781 246.361 63.9157 246.361 67.4087V267.617C246.368 271.117 243.53 273.955 240.037 273.955Z"
      fill="currentColor"
    />
    <path
      d="M88.4355 262.072V72.9624C88.4355 72.5663 88.7596 72.2422 89.1557 72.2422H234.816C235.212 72.2422 235.536 72.5663 235.536 72.9624V262.072C235.536 262.468 235.212 262.792 234.816 262.792H89.1557C88.7596 262.792 88.4355 262.468 88.4355 262.072Z"
      fill="#F2F9FF"
    />
    <path
      d="M190.49 55.4978H178.931V54.9C178.931 45.5446 171.347 37.9609 161.992 37.9609C152.636 37.9609 145.053 45.5446 145.053 54.9V55.4978H133.494C126.011 55.4978 119.939 61.5691 119.939 69.0519V73.6396C119.939 75.0728 121.099 76.2323 122.532 76.2323H201.466C202.899 76.2323 204.059 75.0728 204.059 73.6396V69.0519C204.044 61.5619 197.973 55.4978 190.49 55.4978ZM168.301 55.1017H155.676V53.8413C155.676 50.3556 158.499 47.5324 161.985 47.5324C165.47 47.5324 168.294 50.3556 168.294 53.8413V55.1017H168.301Z"
      fill="currentColor"
    />
    <path
      d="M122.321 97.6523H101.99V117.984H122.321V97.6523Z"
      stroke="#FFC65C"
      stroke-width="1.19596"
      stroke-miterlimit="10"
      stroke-linecap="round"
    />
    <path
      d="M122.321 138.709H101.99V159.04H122.321V138.709Z"
      stroke="#FFC65C"
      stroke-width="1.19596"
      stroke-miterlimit="10"
      stroke-linecap="round"
    />
    <path
      d="M122.321 179.775H101.99V200.107H122.321V179.775Z"
      stroke="#FFC65C"
      stroke-width="1.19596"
      stroke-miterlimit="10"
      stroke-linecap="round"
    />
    <path
      d="M122.321 220.834H101.99V241.165H122.321V220.834Z"
      stroke="#FFC65C"
      stroke-width="1.19596"
      stroke-miterlimit="10"
      stroke-linecap="round"
    />
    <path
      d="M195.404 101.238H213.805"
      stroke="currentColor"
      stroke-width="1.03644"
      stroke-miterlimit="10"
      stroke-linecap="round"
    />
    <path
      d="M140.057 101.238H188.49"
      stroke="currentColor"
      stroke-width="1.03644"
      stroke-miterlimit="10"
      stroke-linecap="round"
    />
    <path
      d="M140.057 107.82H213.805"
      stroke="currentColor"
      stroke-width="1.03644"
      stroke-miterlimit="10"
      stroke-linecap="round"
    />
    <path
      d="M140.057 148.484H172.149"
      stroke="currentColor"
      stroke-width="1.03644"
      stroke-miterlimit="10"
      stroke-linecap="round"
    />
    <path
      d="M170.951 114.395H179.522"
      stroke="currentColor"
      stroke-width="1.03644"
      stroke-miterlimit="10"
      stroke-linecap="round"
    />
    <path
      d="M140.057 114.395H166.697"
      stroke="currentColor"
      stroke-width="1.03644"
      stroke-miterlimit="10"
      stroke-linecap="round"
    />
    <path
      d="M175.201 141.9H213.804"
      stroke="currentColor"
      stroke-width="1.03644"
      stroke-miterlimit="10"
      stroke-linecap="round"
    />
    <path
      d="M140.057 141.9H169.354"
      stroke="currentColor"
      stroke-width="1.03644"
      stroke-miterlimit="10"
      stroke-linecap="round"
    />
    <path
      d="M195.404 182.562H213.805"
      stroke="currentColor"
      stroke-width="1.03644"
      stroke-miterlimit="10"
      stroke-linecap="round"
    />
    <path
      d="M174.143 182.562H189.555"
      stroke="currentColor"
      stroke-width="1.03644"
      stroke-miterlimit="10"
      stroke-linecap="round"
    />
    <path
      d="M140.057 182.562H168.829"
      stroke="currentColor"
      stroke-width="1.03644"
      stroke-miterlimit="10"
      stroke-linecap="round"
    />
    <path
      d="M140.057 189.145H213.805"
      stroke="currentColor"
      stroke-width="1.03644"
      stroke-miterlimit="10"
      stroke-linecap="round"
    />
    <path
      d="M184.775 195.723H196.464"
      stroke="currentColor"
      stroke-width="1.03644"
      stroke-miterlimit="10"
      stroke-linecap="round"
    />
    <path
      d="M140.057 195.721H176.268"
      stroke="currentColor"
      stroke-width="1.03644"
      stroke-miterlimit="10"
      stroke-linecap="round"
    />
    <path
      d="M181.584 224.422H213.806"
      stroke="currentColor"
      stroke-width="1.03644"
      stroke-miterlimit="10"
      stroke-linecap="round"
    />
    <path
      d="M140.057 224.422H176.801"
      stroke="currentColor"
      stroke-width="1.03644"
      stroke-miterlimit="10"
      stroke-linecap="round"
    />
    <path
      d="M203.908 230.996H213.804"
      stroke="currentColor"
      stroke-width="1.03644"
      stroke-miterlimit="10"
      stroke-linecap="round"
    />
    <path
      d="M140.057 230.996H196.463"
      stroke="currentColor"
      stroke-width="1.03644"
      stroke-miterlimit="10"
      stroke-linecap="round"
    />
    <path
      d="M158.201 237.578H170.553"
      stroke="currentColor"
      stroke-width="1.03644"
      stroke-miterlimit="10"
      stroke-linecap="round"
    />
    <path
      d="M140.057 237.578H153.409"
      stroke="currentColor"
      stroke-width="1.03644"
      stroke-miterlimit="10"
      stroke-linecap="round"
    />
    <path
      d="M107.701 104.565L112.354 110.01L127.903 94.0645"
      stroke="#FF5787"
      stroke-width="1.59459"
      stroke-miterlimit="10"
      stroke-linecap="round"
    />
    <path
      d="M107.701 146.021L112.354 151.473L127.903 135.527"
      stroke="#FF5787"
      stroke-width="1.59459"
      stroke-miterlimit="10"
      stroke-linecap="round"
    />
    <path
      d="M107.701 187.086L112.354 192.531L127.903 176.586"
      stroke="#FF5787"
      stroke-width="1.59459"
      stroke-miterlimit="10"
      stroke-linecap="round"
    />
    <path
      d="M119.928 70.6445H191.148"
      stroke="currentColor"
      stroke-width="0.478356"
      stroke-miterlimit="10"
      stroke-linecap="round"
    />
    <path
      d="M156.205 65.8613H158.459"
      stroke="currentColor"
      stroke-width="0.478356"
      stroke-miterlimit="10"
      stroke-linecap="round"
    />
    <path
      d="M151.021 65.8613H155.011"
      stroke="currentColor"
      stroke-width="0.478356"
      stroke-miterlimit="10"
      stroke-linecap="round"
    />
    <path
      d="M120.463 65.8613H148.63"
      stroke="currentColor"
      stroke-width="0.478356"
      stroke-miterlimit="10"
      stroke-linecap="round"
    />
    <path
      d="M70.6504 238.835C71.8459 238.489 73.1279 238.431 74.345 238.662"
      stroke="currentColor"
      stroke-width="0.478356"
      stroke-miterlimit="10"
    />
    <path
      d="M70.3262 236.803C70.5926 236.803 70.8591 236.803 71.1256 236.803"
      stroke="currentColor"
      stroke-width="0.478356"
      stroke-miterlimit="10"
    />
    <path
      d="M80.112 226.338C79.8527 224.134 79.363 221.959 78.6428 219.856C78.1602 218.452 77.5265 217.004 76.3165 216.133C74.4944 214.822 71.9737 215.204 69.8419 215.909C67.8326 216.572 65.8952 217.472 64.0947 218.581C63.3962 219.006 62.676 219.518 62.4095 220.295C62.071 221.26 62.5463 222.319 63.1081 223.176C63.6626 224.033 64.3396 224.89 64.4476 225.906C64.5557 226.921 63.7418 228.11 62.7336 227.922C61.286 227.656 61.466 225.366 60.3497 224.401C59.111 223.327 57.0152 224.739 56.9144 226.381C56.8135 228.016 57.9515 229.456 59.1254 230.601C59.7808 231.242 60.5154 231.984 60.4433 232.892C60.3425 234.195 58.6933 234.743 57.3897 234.635C56.0861 234.527 54.6889 234.102 53.5366 234.707C52.1538 235.427 51.8082 237.263 51.9738 238.805C52.4635 243.32 56.0501 247.98 60.5442 248.642C62.1574 250.81 66.0393 250.918 68.74 250.76C71.4336 250.594 72.8596 250.162 74.1919 247.814C74.3648 247.512 74.516 247.188 74.5232 246.842C74.5448 245.567 72.7731 245.185 71.5128 245.38C70.2524 245.574 68.6032 245.74 68.0342 244.595C67.3572 243.227 69.2514 241.873 70.7638 242.045C72.2762 242.218 73.6806 243.14 75.2002 243.075C78.0234 242.953 79.6078 239.453 79.0245 236.687C78.7436 235.348 77.8001 233.886 76.4318 233.965C75.6179 234.015 74.9337 234.613 74.1271 234.721C72.6579 234.923 71.412 233.122 71.9305 231.732C72.4491 230.342 74.2928 229.723 75.6539 230.313C76.2301 230.565 76.7342 230.983 77.3464 231.098C78.4051 231.3 79.4494 230.501 79.8743 229.514C80.2992 228.527 80.2344 227.404 80.112 226.338ZM70.1516 225.704C69.5322 225.942 68.6824 225.214 68.2503 224.084C67.8182 222.953 67.9694 221.844 68.5816 221.606C69.201 221.369 70.0508 222.096 70.4829 223.227C70.915 224.357 70.7638 225.466 70.1516 225.704Z"
      fill="#FFC65C"
    />
    <path
      d="M80.112 226.338C79.8527 224.134 79.363 221.959 78.6428 219.856C78.1602 218.452 77.5265 217.004 76.3165 216.133C74.4944 214.822 71.9737 215.204 69.8419 215.909C67.8326 216.572 65.8952 217.472 64.0947 218.581C63.3962 219.006 62.676 219.518 62.4095 220.295C62.071 221.26 62.5463 222.319 63.1081 223.176C63.6626 224.033 64.3396 224.89 64.4476 225.906C64.5557 226.921 63.7418 228.11 62.7336 227.922C61.286 227.656 61.466 225.366 60.3497 224.401C59.111 223.327 57.0152 224.739 56.9144 226.381C56.8135 228.016 57.9515 229.456 59.1254 230.601C59.7808 231.242 60.5154 231.984 60.4433 232.892C60.3425 234.195 58.6933 234.743 57.3897 234.635C56.0861 234.527 54.6889 234.102 53.5366 234.707C52.1538 235.427 51.8082 237.263 51.9738 238.805C52.4635 243.32 56.0501 247.98 60.5442 248.642C62.1574 250.81 66.0393 250.918 68.74 250.76C71.4336 250.594 72.8596 250.162 74.1919 247.814C74.3648 247.512 74.516 247.188 74.5232 246.842C74.5448 245.567 72.7731 245.185 71.5128 245.38C70.2524 245.574 68.6032 245.74 68.0342 244.595C67.3572 243.227 69.2514 241.873 70.7638 242.045C72.2762 242.218 73.6806 243.14 75.2002 243.075C78.0234 242.953 79.6078 239.453 79.0245 236.687C78.7436 235.348 77.8001 233.886 76.4318 233.965C75.6179 234.015 74.9337 234.613 74.1271 234.721C72.6579 234.923 71.412 233.122 71.9305 231.732C72.4491 230.342 74.2928 229.723 75.6539 230.313C76.2301 230.565 76.7342 230.983 77.3464 231.098C78.4051 231.3 79.4494 230.501 79.8743 229.514C80.2992 228.527 80.2344 227.404 80.112 226.338ZM70.1516 225.704C69.5322 225.942 68.6824 225.214 68.2503 224.084C67.8182 222.953 67.9694 221.844 68.5816 221.606C69.201 221.369 70.0508 222.096 70.4829 223.227C70.915 224.357 70.7638 225.466 70.1516 225.704Z"
      fill="url(#paint0_linear_593_3695)"
    />
    <path
      d="M57.3396 286.238H54.4084C46.8535 286.238 40.7246 280.109 40.7246 272.554V262.32H71.0234V272.554C71.0234 280.109 64.8945 286.238 57.3396 286.238Z"
      fill="currentColor"
    />
    <path
      opacity="0.5"
      d="M57.3396 286.238H54.4084C46.8535 286.238 40.7246 280.109 40.7246 272.554V262.32H71.0234V272.554C71.0234 280.109 64.8945 286.238 57.3396 286.238Z"
      fill="currentColor"
    />
    <path
      d="M57.7433 222.211C56.7494 220.727 55.1434 219.416 53.3717 219.625C51.3047 219.877 50.0732 221.995 49.1657 223.867C48.071 224.746 46.501 223.025 46.8539 221.663C47.2068 220.302 48.4744 219.424 49.4178 218.379C51.3912 216.212 52.0465 212.92 51.0527 210.162C50.0588 207.403 47.4589 205.286 44.5493 204.876C42.4967 204.58 40.0336 205.38 39.371 207.346C38.9893 208.484 39.0542 210.083 37.9162 210.45C36.6631 210.846 35.77 209.031 36.1518 207.778C36.5335 206.518 37.5489 205.495 37.7722 204.199C38.2331 201.491 35.0354 199.51 32.2915 199.488C26.926 199.452 21.9926 204.263 21.9134 209.629C21.899 210.767 22.1295 212.02 23.0081 212.74C24.038 213.583 25.5288 213.388 26.8612 213.446C28.1936 213.504 29.7996 214.202 29.8068 215.535C29.814 217.004 27.8983 217.645 26.4363 217.465C24.9815 217.285 23.3898 216.752 22.1295 217.493C20.6315 218.372 20.5234 220.468 20.6963 222.196C20.97 224.962 21.9926 228.253 24.7006 228.865C26.1914 229.204 27.711 228.577 29.2378 228.469C30.7647 228.368 32.6444 229.233 32.5868 230.76C32.5147 232.502 30.1021 233.043 28.4312 232.546C27.5886 232.294 26.7099 231.912 25.8601 232.142C24.6214 232.466 24.038 234.022 24.3621 235.261C24.6862 236.5 25.6657 237.457 26.6667 238.25C32.4931 242.837 40.8907 243.896 47.6821 240.907C58.053 237.263 60.6457 226.546 57.7433 222.211ZM33.6022 210.889C33.271 210.911 32.9397 210.047 32.8604 208.945C32.7812 207.85 32.9829 206.935 33.307 206.914C33.6383 206.892 33.9695 207.756 34.0488 208.858C34.128 209.953 33.9263 210.86 33.6022 210.889ZM38.4564 237.184C37.2681 237.407 36.2022 237.061 36.0797 236.413C35.9573 235.765 36.8215 235.059 38.0171 234.836C39.2054 234.613 40.2713 234.958 40.3937 235.606C40.509 236.255 39.6447 236.96 38.4564 237.184Z"
      fill="#FFC65C"
    />
    <path
      d="M41.6545 217.667C41.316 214.952 42.1442 212.107 43.9015 210.004"
      stroke="currentColor"
      stroke-width="0.478356"
      stroke-miterlimit="10"
      stroke-linecap="round"
    />
    <path
      d="M43.6357 217.263C43.4773 216.716 43.6213 216.089 44.003 215.664"
      stroke="currentColor"
      stroke-width="0.478356"
      stroke-miterlimit="10"
      stroke-linecap="round"
    />
    <path
      d="M31.2715 224.487C33.0576 224.098 35.0021 224.523 36.4641 225.618"
      stroke="currentColor"
      stroke-width="0.478356"
      stroke-miterlimit="10"
      stroke-linecap="round"
    />
    <path
      d="M49.2678 235.989C48.8069 234.534 49.7071 232.791 51.1619 232.33"
      stroke="currentColor"
      stroke-width="0.478356"
      stroke-miterlimit="10"
      stroke-linecap="round"
    />
    <path
      d="M58.6387 258.732C58.7539 250.493 62.2469 238.098 67.8068 232.02"
      stroke="currentColor"
      stroke-width="0.478356"
      stroke-miterlimit="10"
      stroke-linecap="round"
    />
    <path
      d="M57.041 238.402C57.8981 238.669 58.5678 239.461 58.6831 240.354"
      stroke="currentColor"
      stroke-width="0.478356"
      stroke-miterlimit="10"
      stroke-linecap="round"
    />
    <path
      d="M37.7285 219.561C44.2823 226.438 52.4566 251.595 53.0471 260.986"
      stroke="currentColor"
      stroke-width="0.478356"
      stroke-miterlimit="10"
      stroke-linecap="round"
    />
    <path
      d="M71.2212 265.51H40.5407C39.5469 265.51 38.7402 264.703 38.7402 263.71V259.734C38.7402 258.74 39.5469 257.934 40.5407 257.934H71.2212C72.2151 257.934 73.0217 258.74 73.0217 259.734V263.71C73.0217 264.703 72.2151 265.51 71.2212 265.51Z"
      fill="currentColor"
    />
    <path
      d="M225.531 116.836C224.394 117.686 224.322 119.335 224.35 120.754C224.379 121.964 224.408 123.174 224.437 124.384C224.48 126.112 224.61 128.049 225.913 129.18C225.985 129.245 226.064 129.31 226.165 129.331C226.533 129.439 226.813 128.993 226.936 128.633C227.62 126.623 228.095 124.52 227.995 122.403C227.894 120.286 227.181 118.147 225.726 116.605"
      fill="#002646"
    />
    <path
      d="M244.303 139.745L244.174 124.728C244.174 124.728 244.707 117.289 238.859 117.289C233.011 117.289 226.234 116.223 225.967 120.875C225.701 125.528 225.838 130.973 225.967 132.571C226.097 134.163 226.5 137.224 230.216 137.62L230.087 141.473L235.402 146.126L244.303 139.745Z"
      fill="#FFBFBF"
    />
    <path
      d="M248.822 128.049C248.822 126.508 247.576 125.262 246.035 125.262C244.494 125.262 243.248 126.508 243.248 128.049C243.248 129.59 244.494 130.836 246.035 130.836C247.569 130.836 248.822 129.59 248.822 128.049Z"
      fill="#FFBFBF"
    />
    <path
      d="M248.022 150.376L244.299 139.746L235.26 143.736L230.075 141.475L223.564 146.66C223.564 146.66 224.854 177.765 227.929 177.362C231.004 176.959 243.766 178.017 243.766 178.017L248.022 150.376Z"
      fill="#FEF8FF"
    />
    <path
      opacity="0.14"
      d="M248.022 150.376L244.299 139.746L235.26 143.736L230.075 141.475L223.564 146.66C223.564 146.66 224.854 177.765 227.929 177.362C231.004 176.959 243.766 178.017 243.766 178.017L248.022 150.376Z"
      fill="url(#paint1_linear_593_3695)"
    />
    <path
      d="M245.232 128.979C245.232 128.979 245.83 127.121 247.494 127.251"
      stroke="currentColor"
      stroke-width="0.478356"
      stroke-miterlimit="10"
      stroke-linecap="round"
    />
    <path
      d="M241.676 122.497C242.007 121.669 241.424 120.696 240.632 120.286C239.839 119.875 238.903 119.875 238.01 119.883C235.922 119.904 233.826 119.919 231.737 119.94C230.736 119.947 229.735 119.955 228.756 119.746C225.86 119.126 223.549 116.433 223.376 113.48C223.203 110.527 225.191 107.582 227.992 106.631C230.794 105.687 234.164 106.825 235.806 109.288C236.858 110.851 237.276 112.875 238.716 114.085C239.818 115.014 241.337 115.288 242.778 115.317C243.714 115.338 244.679 115.266 245.572 115.554C246.465 115.842 247.294 116.598 247.308 117.535C247.322 118.637 246.314 119.947 247.149 120.668C247.344 120.833 247.596 120.912 247.783 121.085C248.359 121.633 247.877 122.583 247.38 123.203C246.408 124.42 245.435 125.637 244.463 126.854C244.254 127.113 244.045 127.38 243.75 127.524C242.972 127.92 241.993 127.279 241.705 126.458C241.417 125.644 241.482 123.34 241.676 122.497Z"
      fill="#002646"
    />
    <g opacity="0.76">
      <path
        d="M241.676 122.497C242.007 121.669 241.424 120.696 240.632 120.286C239.839 119.875 238.903 119.875 238.01 119.883C235.922 119.904 233.826 119.919 231.737 119.94C230.736 119.947 229.735 119.955 228.756 119.746C225.86 119.126 223.549 116.433 223.376 113.48C223.203 110.527 225.191 107.582 227.992 106.631C230.794 105.687 234.164 106.825 235.806 109.288C236.858 110.851 237.276 112.875 238.716 114.085C239.818 115.014 241.337 115.288 242.778 115.317C243.714 115.338 244.679 115.266 245.572 115.554C246.465 115.842 247.294 116.598 247.308 117.535C247.322 118.637 246.314 119.947 247.149 120.668C247.344 120.833 247.596 120.912 247.783 121.085C248.359 121.633 247.877 122.583 247.38 123.203C246.408 124.42 245.435 125.637 244.463 126.854C244.254 127.113 244.045 127.38 243.75 127.524C242.972 127.92 241.993 127.279 241.705 126.458C241.417 125.644 241.482 123.34 241.676 122.497Z"
        fill="url(#paint2_linear_593_3695)"
      />
    </g>
    <path
      d="M223.837 143.065C223.837 143.065 217.327 142.265 210.154 151.433C202.98 160.601 200.323 168.041 199.387 175.618C198.458 183.194 204.169 192.225 222.239 185.585C222.239 185.585 218.249 182.798 217.723 177.483C217.723 177.483 212.674 179.607 212.941 175.221C213.207 170.835 221.043 168.178 221.043 168.178L261.043 178.808C261.043 178.808 268.749 148.913 255.461 143.994C242.174 139.075 243.369 171.368 243.369 171.368L226.228 159.147L223.837 143.065Z"
      fill="currentColor"
    />
    <path
      d="M244.437 141.467L239.389 168.705L244.308 169.367C244.308 169.367 253.476 158.075 255.471 143.987C255.464 143.995 247.232 141.604 244.437 141.467Z"
      fill="currentColor"
    />
    <path
      d="M233.934 149.31L231.018 165.522L240.848 170.837L236.066 148.381L233.934 149.31Z"
      fill="#FF5787"
    />
    <path
      opacity="0.76"
      d="M233.934 149.31L231.018 165.522L240.848 170.837L236.066 148.381L233.934 149.31Z"
      fill="url(#paint3_linear_593_3695)"
    />
    <path
      d="M229.152 165.652C229.152 165.119 229.023 141.863 229.023 141.863C229.023 141.863 224.637 141.734 221.317 142.929C221.317 142.929 220.784 160.337 223.974 165.789C227.157 171.233 229.152 165.652 229.152 165.652Z"
      fill="currentColor"
    />
    <path
      d="M221.179 274.352C221.179 274.352 218.385 277.132 216.397 277.938C212.81 279.4 209.08 280.696 209.886 283.124C210.549 285.119 220.121 284.586 227.69 283.124C233.12 282.079 234.467 280.336 234.467 280.336L235 273.43L221.179 274.352Z"
      fill="currentColor"
    />
    <path
      d="M256.662 274.748C256.662 274.748 257.058 278.601 257.462 279.53C257.865 280.459 263.31 283.65 270.483 285.241C277.656 286.833 278.455 286.17 278.722 285.508C278.988 284.845 279.255 282.454 275.798 280.459C272.341 278.464 271.282 274.078 271.282 274.078L256.662 274.748Z"
      fill="currentColor"
    />
    <path
      d="M220.516 202.461L219.717 275.676C219.717 275.676 228.755 278.73 235.396 274.61L238.852 210.297L243.771 212.558C243.771 212.558 251.679 247.243 255.266 274.546C255.266 274.546 264.434 277.138 272.205 274.546L262.439 204.78L260.847 186.84L220.783 190.03L220.516 202.461Z"
      fill="#002646"
    />
    <path
      d="M220.379 180.868C220.379 182.064 219.982 204.188 219.982 204.188C219.982 204.188 234.732 204.988 235.128 185.254C235.128 185.254 233.933 207.775 263.23 205.982L261.639 192.226L238.52 179.27L220.379 180.868Z"
      fill="currentColor"
    />
    <path
      d="M220.379 180.868C220.379 182.064 219.982 204.188 219.982 204.188C219.982 204.188 234.732 204.988 235.128 185.254C235.128 185.254 233.933 207.775 263.23 205.982L261.639 192.226L238.52 179.27L220.379 180.868Z"
      fill="currentColor"
    />
    <path
      d="M281.602 201.956L284.137 197.009C285.909 193.552 290.158 192.183 293.615 193.955L298.375 196.396C301.832 198.168 303.201 202.417 301.429 205.874L298.894 210.822C297.122 214.279 293.673 216.18 290.216 214.409L284.656 211.434C281.191 209.662 279.823 205.42 281.602 201.956Z"
      fill="#FF5787"
    />
    <path
      d="M197.462 168.915L282.705 210.572L292.406 193.165L207.092 149.578L195.799 154.627L197.462 168.915Z"
      fill="#FFC65C"
    />
    <path
      d="M197.462 168.915L282.705 210.572L292.406 193.165L207.092 149.578L195.799 154.627L197.462 168.915Z"
      fill="url(#paint4_linear_593_3695)"
    />
    <path
      d="M208.69 154.094C208.028 155.952 203.246 153.698 202.18 155.556C201.114 157.414 204.837 159.942 204.038 161.533L282.568 201.396L286.558 194.223L208.69 154.094Z"
      fill="url(#paint5_linear_593_3695)"
    />
    <path
      d="M276.986 207.913C276.986 207.913 281.768 201.136 286.551 190.109C287.084 190.239 296.648 195.424 296.648 195.424C296.648 195.424 293.99 204.593 287.746 213.365L276.986 207.913Z"
      fill="#DDE3F5"
    />
    <path
      d="M284.65 204.52C286.494 201.344 288.72 197.015 290.448 192.125"
      stroke="currentColor"
      stroke-width="0.478356"
      stroke-miterlimit="10"
    />
    <path
      d="M281.107 210.038C281.107 210.038 281.986 208.849 283.275 206.797"
      stroke="currentColor"
      stroke-width="0.478356"
      stroke-miterlimit="10"
    />
    <path
      d="M284.104 211.631C284.104 211.631 290.247 203.593 293.625 193.957"
      stroke="currentColor"
      stroke-width="0.478356"
      stroke-miterlimit="10"
    />
    <path
      d="M181.518 148.777L197.463 168.907C197.463 168.907 199.789 169.771 198.457 165.119C197.124 160.466 203.239 163.124 204.038 161.532C204.838 159.94 201.114 157.413 202.18 155.554C203.246 153.696 208.028 155.951 208.691 154.092C209.353 152.234 206.3 151.305 207.099 149.577L181.518 148.777Z"
      fill="#FFBFBF"
    />
    <path
      d="M187.43 156.087C187.43 156.087 190.621 153.696 190.887 149.044L181.518 148.777L187.43 156.087Z"
      fill="#FF5787"
    />
    <path
      d="M236.662 129.189C236.065 129.607 235.741 129.787 235.2 130.161C234.581 130.593 234.797 131.407 235.265 131.616C236.662 132.243 238.535 131.486 239.651 130.233C240.451 129.333 240.307 128.541 240.047 128.087C239.766 127.597 239.118 127.187 238.29 127.518C237.786 127.713 237.26 128.771 236.662 129.189Z"
      fill="#FEF8FF"
    />
    <path
      opacity="0.14"
      d="M236.662 129.189C236.065 129.607 235.741 129.787 235.2 130.161C234.581 130.593 234.797 131.407 235.265 131.616C236.662 132.243 238.535 131.486 239.651 130.233C240.451 129.333 240.307 128.541 240.047 128.087C239.766 127.597 239.118 127.187 238.29 127.518C237.786 127.713 237.26 128.771 236.662 129.189Z"
      fill="url(#paint6_linear_593_3695)"
    />
    <path
      d="M221.75 185.19C223.334 184.657 225.257 183.728 228.376 181.532C232.106 178.896 228.16 179.558 228.16 179.558C232.769 176.706 227.936 177.362 227.936 177.362C231.451 173.847 226.402 175.165 226.402 175.165C231.235 169.454 222.009 175.381 222.009 175.381C223.104 169.893 217.486 178.183 217.486 178.183L216.24 178.802C216.78 182.706 220.713 184.283 221.75 185.19Z"
      fill="#FFBFBF"
    />
    <path
      d="M239.785 195.821C239.785 195.821 237.07 194.784 235.269 191.831C233.807 189.44 233.678 186.387 233.678 186.387L240.455 189.973L239.785 195.821Z"
      fill="#FFBFBF"
    />
    <path
      d="M233.676 143.462C234.072 143.332 237.399 143.995 237.399 143.995L238.062 146.919L236.729 151.039L233.676 150.909L231.947 147.589L233.676 143.462Z"
      fill="#FF5787"
    />
    <path
      d="M235.268 143.729L244.436 137.881L246.56 141.871L238.192 150.11L235.268 143.729Z"
      fill="#FEF8FF"
    />
    <path
      d="M230.082 139.609L235.267 143.729L231.681 150.11L228.49 142.267L230.082 139.609Z"
      fill="#FEF8FF"
    />
    <path
      d="M254.799 159.012C254.799 159.012 259.185 165.66 257.723 175.757C256.261 185.854 244.04 191.039 240.446 189.974C236.859 188.908 234.979 198.141 248.152 199.142C260.374 200.071 269.038 191.702 271.803 185.191C274.065 179.876 280.438 153.834 255.462 143.996C255.462 143.996 255.577 149.066 255.066 152.768C254.727 155.224 252.999 155.512 254.799 159.012Z"
      fill="currentColor"
    />
    <path
      d="M257.723 175.756C257.723 175.756 258.652 168.979 255.994 162.072"
      stroke="currentColor"
      stroke-width="0.478356"
      stroke-miterlimit="10"
      stroke-linecap="round"
    />
    <path
      d="M243.295 181.352L246.161 182.799"
      stroke="currentColor"
      stroke-width="0.478356"
      stroke-miterlimit="10"
      stroke-linecap="round"
    />
    <path
      d="M222.834 161.15L225.693 162.598"
      stroke="currentColor"
      stroke-width="0.478356"
      stroke-miterlimit="10"
      stroke-linecap="round"
    />
    <path
      d="M238.654 179.012L240.426 179.905"
      stroke="currentColor"
      stroke-width="0.478356"
      stroke-miterlimit="10"
      stroke-linecap="round"
    />
    <path
      d="M227.373 163.562L229.152 164.456"
      stroke="currentColor"
      stroke-width="0.478356"
      stroke-miterlimit="10"
      stroke-linecap="round"
    />
    <path
      d="M231.092 175.195L236.717 178.033"
      stroke="currentColor"
      stroke-width="0.478356"
      stroke-miterlimit="10"
      stroke-linecap="round"
    />
    <path
      d="M206.564 162.865L224.836 172.033"
      stroke="currentColor"
      stroke-width="0.478356"
      stroke-miterlimit="10"
      stroke-linecap="round"
    />
    <path
      d="M277.252 189.715L281.71 191.969"
      stroke="currentColor"
      stroke-width="0.478356"
      stroke-miterlimit="10"
      stroke-linecap="round"
    />
    <path
      d="M272.479 187.309L275.028 188.591"
      stroke="currentColor"
      stroke-width="0.478356"
      stroke-miterlimit="10"
      stroke-linecap="round"
    />
    <path
      d="M239.918 128.18C239.918 128.18 238.852 129.642 237.131 130.441"
      stroke="currentColor"
      stroke-width="0.478356"
      stroke-miterlimit="10"
      stroke-linecap="round"
    />
    <path
      d="M240.373 125.816L240.603 127.574C240.618 127.711 240.726 127.826 240.863 127.84L242.281 128.099L240.884 128.287C240.74 128.294 240.625 128.409 240.611 128.56L240.366 130.584L240.128 128.589C240.121 128.445 240.006 128.33 239.854 128.315L238.436 128.171L239.847 127.912C239.984 127.898 240.099 127.79 240.106 127.646L240.373 125.816Z"
      fill="white"
    />
    <path
      d="M214.367 177.93C214.367 177.93 216.225 178.146 217.723 177.477C217.723 177.477 218.17 181.755 221.749 185.183C221.749 185.183 219.718 186.767 216.607 187.142C213.496 187.516 210.024 179.169 214.367 177.93Z"
      fill="currentColor"
    />
  </g>
  <defs>
    <linearGradient
      id="paint0_linear_593_3695"
      x1="54.8791"
      y1="225.964"
      x2="73.6611"
      y2="235.163"
      gradientUnits="userSpaceOnUse"
    >
      <stop />
      <stop offset="1" stop-opacity="0" />
    </linearGradient>
    <linearGradient
      id="paint1_linear_593_3695"
      x1="236.127"
      y1="145.778"
      x2="232.938"
      y2="172.354"
      gradientUnits="userSpaceOnUse"
    >
      <stop />
      <stop offset="1" stop-opacity="0" />
    </linearGradient>
    <linearGradient
      id="paint2_linear_593_3695"
      x1="236.078"
      y1="101.319"
      x2="235.546"
      y2="124.174"
      gradientUnits="userSpaceOnUse"
    >
      <stop />
      <stop offset="1" stop-opacity="0" />
    </linearGradient>
    <linearGradient
      id="paint3_linear_593_3695"
      x1="236.676"
      y1="148.792"
      x2="236.145"
      y2="162.612"
      gradientUnits="userSpaceOnUse"
    >
      <stop />
      <stop offset="1" stop-opacity="0" />
    </linearGradient>
    <linearGradient
      id="paint4_linear_593_3695"
      x1="194.229"
      y1="153.133"
      x2="273.426"
      y2="196.718"
      gradientUnits="userSpaceOnUse"
    >
      <stop />
      <stop offset="1" stop-opacity="0" />
    </linearGradient>
    <linearGradient
      id="paint5_linear_593_3695"
      x1="239.027"
      y1="184.843"
      x2="247.491"
      y2="169.071"
      gradientUnits="userSpaceOnUse"
    >
      <stop />
      <stop offset="1" stop-opacity="0" />
    </linearGradient>
    <linearGradient
      id="paint6_linear_593_3695"
      x1="240.953"
      y1="127.198"
      x2="237.498"
      y2="130.122"
      gradientUnits="userSpaceOnUse"
    >
      <stop />
      <stop offset="1" stop-opacity="0" />
    </linearGradient>
    <clipPath id="clip0_593_3695">
      <rect
        width="318.278"
        height="301"
        fill="white"
        transform="translate(0.396484)"
      />
    </clipPath>
  </defs>
</svg>
