<svg width="20" height="20" viewBox="0 0 20 20" fill="none" xmlns="http://www.w3.org/2000/svg">
<path d="M9.99966 5.32716C10.8155 5.32716 11.613 5.56909 12.2914 6.02235C12.9697 6.47561 13.4985 7.11985 13.8107 7.87359C14.1229 8.62734 14.2046 9.45674 14.0454 10.2569C13.8862 11.0571 13.4934 11.7921 12.9165 12.369C12.3396 12.9459 11.6046 13.3387 10.8044 13.4979C10.0042 13.6571 9.17484 13.5754 8.42109 13.2632C7.66735 12.9509 7.02311 12.4222 6.56985 11.7439C6.11659 11.0655 5.87466 10.268 5.87466 9.45216C5.87466 8.35814 6.30926 7.30893 7.08284 6.53534C7.85643 5.76176 8.90564 5.32716 9.99966 5.32716ZM18.7512 7.96247C18.5551 7.9953 18.38 8.10471 18.2644 8.26663C18.1489 8.42856 18.1025 8.62973 18.1353 8.82591C18.2114 9.2807 18.2497 9.74103 18.2497 10.2022C18.2514 12.2217 17.5092 14.1712 16.1647 15.6781C15.6191 14.8875 14.9265 14.2092 14.1247 13.6803C14.0562 13.6349 13.9747 13.6132 13.8927 13.6187C13.8107 13.6241 13.7328 13.6563 13.6709 13.7103C12.6519 14.592 11.3495 15.0772 10.002 15.0772C8.65452 15.0772 7.35209 14.592 6.3331 13.7103C6.27083 13.6552 6.192 13.6223 6.10901 13.6169C6.02602 13.6114 5.94358 13.6337 5.87466 13.6803C5.07156 14.2086 4.37795 14.887 3.83185 15.6781C2.77674 14.4891 2.08759 13.0207 1.84728 11.4493C1.60698 9.87796 1.82576 8.27065 2.4773 6.82069C3.12885 5.37073 4.18541 4.13988 5.51992 3.27618C6.85443 2.41247 8.41004 1.9527 9.99966 1.95216C10.4608 1.95209 10.9211 1.99034 11.3759 2.06653C11.5712 2.09735 11.7708 2.0498 11.9312 1.93424C12.0916 1.81868 12.1999 1.64445 12.2325 1.44945C12.2651 1.25446 12.2195 1.05446 12.1054 0.892982C11.9913 0.731499 11.8181 0.621589 11.6234 0.587159C9.58664 0.244517 7.49367 0.558035 5.64669 1.48245C3.79972 2.40686 2.29431 3.89433 1.34783 5.73009C0.401351 7.56586 0.0627717 9.65492 0.38098 11.6957C0.699188 13.7364 1.65772 15.6232 3.11817 17.0836C4.57863 18.5441 6.46543 19.5026 8.50617 19.8208C10.5469 20.139 12.636 19.8005 14.4717 18.854C16.3075 17.9075 17.795 16.4021 18.7194 14.5551C19.6438 12.7082 19.9573 10.6152 19.6147 8.57841C19.5818 8.38224 19.4724 8.20714 19.3105 8.09163C19.1486 7.97612 18.9474 7.92966 18.7512 7.96247Z" fill="currentColor"/>
<path d="M19.5574 2.1096C19.5195 2.01848 19.4641 1.93573 19.3942 1.86609C19.3247 1.79627 19.2421 1.74083 19.1512 1.70295C19.0602 1.66506 18.9627 1.64548 18.8642 1.6453C18.7657 1.64513 18.6681 1.66437 18.5771 1.70193C18.486 1.7395 18.4032 1.79464 18.3335 1.86422L15.8654 4.33292L14.8965 3.3653C14.7557 3.22448 14.5647 3.14537 14.3656 3.14537C14.1664 3.14537 13.9754 3.22448 13.8346 3.3653C13.6938 3.50613 13.6147 3.69712 13.6147 3.89628C13.6147 4.09543 13.6938 4.28642 13.8346 4.42725L15.3338 5.92646C15.4035 5.99634 15.4862 6.05179 15.5773 6.08963C15.6684 6.12746 15.7661 6.14694 15.8648 6.14694C15.9634 6.14694 16.0611 6.12746 16.1522 6.08963C16.2434 6.05179 16.3261 5.99634 16.3958 5.92646L19.3942 2.92803C19.4641 2.85839 19.5195 2.77564 19.5574 2.68452C19.5952 2.59341 19.6147 2.49572 19.6147 2.39706C19.6147 2.2984 19.5952 2.20071 19.5574 2.1096Z" fill="currentColor"/>
</svg>
