<svg width="73" height="74" viewBox="0 0 73 74" fill="none" xmlns="http://www.w3.org/2000/svg">
<g clip-path="url(#clip0_8594_11706)">
<g clip-path="url(#clip1_8594_11706)">
<path fill-rule="evenodd" clip-rule="evenodd" d="M72 42.5394V46.3419C72 46.9198 71.6456 47.4064 71.0986 47.585L68.6067 48.3936C68.2116 48.5216 67.9289 48.7958 67.7855 49.1825C67.6575 49.5214 67.5225 49.8561 67.3706 50.1795C67.1948 50.5578 67.2033 50.953 67.3945 51.3242L68.5828 53.6558C68.8416 54.1705 68.7502 54.7681 68.3438 55.1745L65.6536 57.8647C65.2472 58.2711 64.6495 58.3625 64.1348 58.1038L61.8033 56.9155C61.432 56.7242 61.0383 56.7158 60.6586 56.8916C60.3352 57.0434 60.0005 57.1784 59.6616 57.3064C59.2748 57.4498 58.9992 57.7325 58.8727 58.1277L58.0641 60.6195C57.908 61.0977 57.5142 61.4323 57.0277 61.5041L54.9267 50.8489C58.462 50.8447 61.328 47.9788 61.328 44.4392C61.328 40.8997 58.4578 38.0338 54.9183 38.0338C52.1677 38.0338 49.8192 39.7677 48.9108 42.2033C48.8264 42.1794 48.7392 42.1512 48.652 42.1316L41.6278 40.2823C41.8191 40.1389 41.9625 39.9392 42.0539 39.6959C42.1777 39.357 42.3169 39.0266 42.4645 38.6989C42.6403 38.3248 42.6319 37.9255 42.4448 37.5584L41.2566 35.2227C40.9936 34.708 41.0892 34.1103 41.4956 33.7039L44.183 31.0166C44.5936 30.6102 45.187 30.5145 45.7017 30.7775L48.0375 31.9658C48.4045 32.1528 48.8025 32.1612 49.178 31.9855C49.5042 31.8378 49.8361 31.6986 50.175 31.5748C50.5659 31.4314 50.8373 31.1445 50.9639 30.7494L51.7725 28.2617C51.9525 27.7119 52.4419 27.3575 53.0156 27.3575H56.8181C57.3961 27.3575 57.8827 27.7119 58.0612 28.2617L58.8698 30.7494C58.9978 31.1445 59.272 31.4314 59.6587 31.5748C59.9977 31.6986 60.3323 31.8378 60.6558 31.9855C61.0341 32.1612 61.4292 32.1528 61.8005 31.9658L64.132 30.7775C64.6467 30.5145 65.2444 30.6102 65.6508 31.0166L68.3438 33.7053C68.7502 34.1117 68.8416 34.7094 68.5828 35.2241L67.3945 37.5598C67.2033 37.9269 67.1948 38.3248 67.3706 38.7003C67.5225 39.0266 67.6575 39.3584 67.7855 39.6973C67.9289 40.0883 68.2116 40.3597 68.6067 40.4863L71.0986 41.2948C71.6442 41.4748 72 41.9656 72 42.5394ZM55.4808 65.4711C55.5525 65.8452 55.5891 66.2206 55.5891 66.5834C55.5891 67.9194 55.1152 69.1709 54.3052 70.1511C53.4994 71.1355 52.3645 71.8456 51.0483 72.1044C50.6855 72.1761 50.3142 72.2127 49.9359 72.2127H45.0127C45.0408 72.0973 45.0605 71.9778 45.0759 71.8541L47.4511 52.0667C47.5748 51.0219 47.2514 49.9897 46.5539 49.205C45.848 48.4119 44.8762 47.9731 43.8159 47.9731H11.7759C10.7156 47.9731 9.73828 48.4119 9.03797 49.205C8.34047 49.9897 8.01703 51.0233 8.14078 52.0667L10.5595 72.2127H5.65734C5.27906 72.2127 4.90359 72.1761 4.545 72.1044C3.23016 71.8456 2.09391 71.1355 1.28813 70.1511C0.478125 69.1709 0 67.9194 0 66.5834C0 66.2206 0.0365625 65.8466 0.111094 65.4711L3.41719 48.7142C3.62812 47.6342 4.12313 46.6808 4.83187 45.9242C5.53781 45.1705 6.45469 44.6248 7.52203 44.3422L16.9017 41.8742C17.2252 41.7898 17.5078 41.6745 17.7581 41.5269C18.0098 41.3792 18.2489 41.188 18.4753 40.9447L20.6761 38.6483V37.1928C20.6761 37.1773 20.6803 37.1577 20.6803 37.1366C19.9434 36.6627 19.2572 36.1128 18.6314 35.5025C16.4714 33.3973 15.0244 30.5553 14.7094 27.3941C13.8488 27.1747 13.0795 26.7162 12.4777 26.0989C11.6452 25.2383 11.1305 24.0697 11.1305 22.783C11.1305 21.5947 11.5608 20.5105 12.278 19.678V12.2122C12.278 10.6569 12.9122 9.24219 13.9317 8.21844C14.805 7.34938 15.9567 6.76016 17.2406 6.60406C17.4234 5.38062 17.9986 4.28375 18.8353 3.44703C19.8605 2.42187 21.2709 1.78906 22.8291 1.78906H30.2878C33.8752 1.78906 37.132 3.25156 39.4917 5.61125C41.8514 7.97094 43.3139 11.2278 43.3139 14.8152V19.678C44.0311 20.5105 44.4614 21.5947 44.4614 22.783C44.4614 24.0711 43.9467 25.2383 43.1142 26.0989C42.5123 26.7162 41.7431 27.1747 40.8825 27.3941C40.5633 30.5553 39.1205 33.3973 36.9605 35.5025C36.3347 36.1128 35.6484 36.6627 34.9116 37.1366V37.1928V38.6483L37.1123 40.9447C37.343 41.188 37.5792 41.3792 37.8295 41.5269C38.0841 41.6745 38.3681 41.7898 38.6902 41.8742L48.0698 44.3422C49.1344 44.6248 50.0513 45.1719 50.76 45.9242C51.4702 46.6822 51.9595 47.6342 52.1747 48.7142L55.4808 65.4711ZM27.7959 36.958C30.7336 36.958 33.4083 35.7781 35.37 33.8684C37.3387 31.9517 38.5875 29.3037 38.662 26.383C38.6733 25.7769 39.1598 25.2833 39.7702 25.2664C40.4395 25.2467 41.0414 24.9598 41.4802 24.5084C41.9105 24.0655 42.1777 23.4566 42.1777 22.783C42.1777 22.0967 41.8992 21.4752 41.4478 21.0252C41.002 20.5794 40.3791 20.2995 39.6942 20.2995C39.5423 20.2995 39.3989 20.3108 39.2723 20.3319C39.1528 20.3516 39.0417 20.3797 38.925 20.4191C38.7928 20.4753 38.6466 20.5034 38.4905 20.5034C37.8605 20.5034 37.3458 19.993 37.3458 19.363V17.4617C37.3458 17.0989 37.2853 16.7727 37.163 16.4773C37.0392 16.1778 36.848 15.9036 36.5962 15.6519C36.3417 15.4002 36.0661 15.2131 35.7666 15.0936C35.46 14.9698 35.1323 14.9108 34.778 14.9108C32.2313 14.9347 29.8027 14.8348 27.5147 14.5958C25.238 14.3567 23.0934 13.9812 21.0966 13.4511C19.5173 13.4427 18.9436 16.6686 18.5287 18.9917L18.4205 19.5781C18.4092 19.678 18.3839 19.7778 18.3445 19.8734C18.1012 20.4556 17.4319 20.7298 16.8539 20.4908C16.7062 20.4275 16.5516 20.3797 16.3842 20.3473C16.2253 20.315 16.0608 20.2995 15.8934 20.2995C15.2072 20.2995 14.5856 20.578 14.1356 21.0252C13.6898 21.4752 13.41 22.0981 13.41 22.783C13.41 23.4566 13.6772 24.0669 14.1075 24.5084C14.5463 24.9584 15.1481 25.2453 15.8133 25.2664C16.4152 25.2819 16.9102 25.7684 16.9214 26.3787C16.9973 29.3009 18.2489 31.9517 20.2134 33.8684C22.1794 35.7781 24.8541 36.958 27.7959 36.958ZM32.6278 38.322C31.1287 38.9155 29.4989 39.2473 27.7959 39.2473C26.093 39.2473 24.4631 38.9169 22.9641 38.322V39.6341C22.9641 40.97 23.5069 42.1766 24.3787 43.0498C25.252 43.9231 26.46 44.4645 27.7945 44.4645C29.1291 44.4645 30.337 43.9231 31.2103 43.0498C32.0836 42.1766 32.625 40.9686 32.625 39.6341V38.322H32.6278ZM45.18 51.7953L42.8048 71.5827C42.7655 71.9455 42.4617 72.2127 42.0947 72.2127H12.8602L10.4091 51.7953C10.3612 51.3931 10.4766 51.0261 10.748 50.7195C11.0194 50.4172 11.3695 50.2569 11.7759 50.2569H43.8173C44.2238 50.2569 44.5753 50.4158 44.8453 50.7195C45.1167 51.0261 45.2278 51.3917 45.18 51.7953ZM30.3314 61.2341C30.3314 59.8391 29.1909 58.6986 27.7959 58.6986C26.3967 58.6986 25.2563 59.8391 25.2563 61.2341C25.2563 62.6333 26.3967 63.7695 27.7959 63.7695C29.1909 63.7695 30.3314 62.6333 30.3314 61.2341Z" fill="currentColor"/>
</g>
</g>
<defs>
<clipPath id="clip0_8594_11706">
<rect width="72.54" height="72.54" fill="white" transform="translate(0 0.667969)"/>
</clipPath>
<clipPath id="clip1_8594_11706">
<rect width="72" height="72" fill="white" transform="translate(0 1)"/>
</clipPath>
</defs>
</svg>
