<svg width="72" height="73" viewBox="0 0 72 73" fill="none" xmlns="http://www.w3.org/2000/svg">
<path d="M15.4992 33.958H5.55394C3.96541 33.958 2.66699 35.2426 2.66699 36.8311V58.9871C2.66699 60.5756 3.96541 61.874 5.55394 61.874H15.4992C17.0877 61.874 18.3861 60.5756 18.3861 58.9871V36.8311C18.3861 35.2426 17.0877 33.958 15.4992 33.958ZM10.0293 57.4538C8.57897 57.4538 7.40482 56.2936 7.40482 54.8432C7.40482 53.3928 8.57897 52.2188 10.0293 52.2188C11.4658 52.2188 12.64 53.3928 12.64 54.8432C12.64 56.2936 11.4658 57.4538 10.0293 57.4538Z" fill="currentColor"/>
<path d="M69.2455 47.7159C69.0383 46.818 68.4858 46.0721 67.6846 45.6301C66.8834 45.1743 65.958 45.0777 65.0878 45.3677L44.2026 52.2051C43.5396 52.4399 42.8213 52.5642 42.0892 52.5642H31.55C30.9698 52.5642 30.514 52.1084 30.514 51.5283C30.514 50.9619 30.9698 50.4923 31.55 50.4923H42.0892C42.5727 50.4923 43.0286 50.4232 43.4705 50.2712C43.4843 50.2712 43.4982 50.2575 43.512 50.2575L43.5258 50.2437C45.1834 49.6635 46.3713 48.0612 46.3713 46.2102C46.3713 43.8344 44.4512 41.9144 42.0892 41.9144H35.238C33.6081 41.9144 32.0472 41.2238 30.956 40.0082L29.5056 38.406C28.8012 37.6325 27.7928 37.1904 26.743 37.1904H20.4582V58.9872C20.4582 59.3463 20.4168 59.6917 20.3477 60.0232L30.0305 65.5346C34.0639 67.8275 39.0504 67.8137 43.07 65.4931L67.7123 51.2382C68.9554 50.5199 69.577 49.111 69.2455 47.7159Z" fill="currentColor"/>"/>
<path d="M35.1132 22.2861C32.475 23.916 30.3754 26.3608 29.2013 29.3306H19.5184C17.6261 29.3306 16.3 27.4383 16.9631 25.6702C18.4963 21.5816 22.4329 18.667 27.0603 18.667C30.2787 18.667 33.1518 20.0621 35.1132 22.2861Z" fill="currentColor"/>
<path d="M32.1827 11.2139C32.1827 14.0441 29.8916 16.3351 27.0615 16.3351C24.2314 16.3351 21.9404 14.0441 21.9404 11.2139C21.9404 8.38379 24.2314 6.09277 27.0615 6.09277C29.8916 6.09277 32.1827 8.38379 32.1827 11.2139Z" fill="currentColor"/>
<path d="M66.2477 29.3306H56.4129C55.2526 26.3885 53.1807 23.9712 50.5977 22.3413C52.5729 20.0898 55.4736 18.667 58.7197 18.667C63.3331 18.667 67.2699 21.5816 68.8031 25.6702C69.4523 27.4383 68.1401 29.3306 66.2477 29.3306Z" fill="currentColor"/>
<path d="M63.8331 11.2139C63.8331 14.0441 61.542 16.3351 58.7119 16.3351C55.8818 16.3351 53.5908 14.0441 53.5908 11.2139C53.5908 8.38379 55.8818 6.09277 58.7119 6.09277C61.542 6.09277 63.8331 8.38379 63.8331 11.2139Z" fill="currentColor"/>
<path d="M51.6076 34.5959C53.8132 34.5959 55.3534 32.388 54.5822 30.3217C52.8023 25.5527 48.207 22.1533 42.8197 22.1533C37.4177 22.1533 32.8192 25.5525 31.0385 30.3213C30.2669 32.3877 31.8072 34.5959 34.0129 34.5959L51.6076 34.5959Z" fill="currentColor"/>
<path d="M48.7844 13.2437C48.7844 16.5454 46.1117 19.218 42.8101 19.218C39.5086 19.218 36.8359 16.5454 36.8359 13.2437C36.8359 9.94218 39.5086 7.26953 42.8101 7.26953C46.1117 7.26953 48.7844 9.94218 48.7844 13.2437Z" fill="currentColor"/>
</svg>
