<svg width="14" height="16" viewBox="0 0 14 16" fill="none" xmlns="http://www.w3.org/2000/svg">
<path d="M12.6971 7.6463L12.6973 7.64647C12.7438 7.6929 12.7807 7.74805 12.8058 7.80875C12.831 7.86945 12.8439 7.93451 12.8439 8.00022C12.8439 8.06593 12.831 8.13099 12.8058 8.19169L12.8636 8.21562L12.8058 8.19169C12.7807 8.25239 12.7438 8.30753 12.6973 8.35397L12.6973 8.35398L6.92814 14.1196L6.92813 14.1196C6.2013 14.8464 5.21554 15.2546 4.1877 15.2545C3.15987 15.2545 2.17416 14.8461 1.44742 14.1193C0.720678 13.3924 0.312435 12.4067 0.3125 11.3788C0.312565 10.351 0.720932 9.3653 1.44777 8.63856L1.44809 8.63823L8.42701 1.55665C8.42705 1.55662 8.42708 1.55658 8.42712 1.55654C8.94267 1.04051 9.64209 0.750387 10.3715 0.75C11.101 0.749614 11.8008 1.03903 12.3169 1.55459C12.833 2.07015 13.1232 2.76962 13.1236 3.49911C13.1239 4.22861 12.8345 4.92838 12.319 5.44448L12.3187 5.44478L5.33836 12.5263C5.33831 12.5264 5.33826 12.5264 5.33821 12.5265C5.03293 12.8317 4.61893 13.0031 4.18725 13.0031C3.75549 13.0031 3.34142 12.8316 3.03613 12.5263C2.73083 12.221 2.55932 11.807 2.55932 11.3752C2.55932 10.9435 2.73083 10.5294 3.03613 10.2241L3.03647 10.2238L8.89351 4.27391L8.89352 4.27392L8.89456 4.27281C8.94017 4.22415 8.99505 4.18512 9.05597 4.15799C9.11689 4.13087 9.18261 4.1162 9.24929 4.11486C9.31596 4.11352 9.38223 4.12553 9.44419 4.15018C9.50615 4.17483 9.56255 4.21163 9.61008 4.2584C9.6576 4.30518 9.6953 4.36099 9.72093 4.42255C9.74656 4.48411 9.75963 4.55018 9.75935 4.61687C9.75906 4.68355 9.74545 4.7495 9.71929 4.81085C9.69314 4.87219 9.65498 4.92768 9.60706 4.97406L9.60597 4.97514L3.74877 10.9308C3.74869 10.9309 3.7486 10.9309 3.74852 10.931C3.69036 10.9888 3.64414 11.0574 3.61247 11.133C3.58076 11.2087 3.56427 11.2899 3.56394 11.372C3.56361 11.4541 3.57946 11.5355 3.61057 11.6114C3.64168 11.6874 3.68745 11.7565 3.74526 11.8147C3.80307 11.873 3.87179 11.9193 3.94751 11.951C4.02322 11.9828 4.10443 11.9993 4.18652 11.9996C4.2686 11.9999 4.34995 11.9841 4.42591 11.953C4.50187 11.9218 4.57096 11.8761 4.62924 11.8183L4.62972 11.8178L11.6093 4.73977C11.6093 4.73971 11.6094 4.73964 11.6095 4.73958C11.9381 4.41152 12.123 3.96638 12.1235 3.50202C12.124 3.03758 11.9399 2.59197 11.6118 2.26322C11.2838 1.93447 10.8385 1.74951 10.3741 1.74903C9.90965 1.74855 9.46404 1.93259 9.13528 2.26066L9.13492 2.26103L2.15746 9.33974C2.15741 9.33979 2.15735 9.33985 2.1573 9.3399C1.89017 9.60665 1.67818 9.9234 1.53343 10.2721C1.38865 10.6208 1.31398 10.9946 1.31368 11.3722C1.31338 11.7498 1.38746 12.1238 1.53168 12.4727C1.6759 12.8217 1.88744 13.1388 2.15423 13.4061C2.42101 13.6733 2.73782 13.8853 3.08655 14.0301C3.43529 14.1749 3.80912 14.2495 4.18672 14.2498C4.56431 14.2501 4.93826 14.1761 5.28723 14.0318C5.63619 13.8876 5.95334 13.6761 6.22055 13.4093L6.22056 13.4093L11.9903 7.6438C11.9903 7.64378 11.9903 7.64377 11.9903 7.64375C12.0844 7.55042 12.2117 7.49825 12.3442 7.49872C12.4768 7.49919 12.6037 7.55227 12.6971 7.6463Z" fill="currentColor" stroke="currentColor" stroke-width="0.125"/>
</svg>
