<svg width="24" height="24" viewBox="0 0 24 24" fill="none" xmlns="http://www.w3.org/2000/svg">
<path d="M22 11.0773V22.1539C22 22.6435 21.8084 23.1131 21.4675 23.4593C21.1265 23.8055 20.664 24 20.1818 24H3.81818C3.33597 24 2.87351 23.8055 2.53253 23.4593C2.19156 23.1131 2 22.6435 2 22.1539V11.0773C2 10.5877 2.19156 10.1181 2.53253 9.77193C2.87351 9.42572 3.33597 9.23122 3.81818 9.23122H6.54545C6.78656 9.23122 7.01779 9.32847 7.18828 9.50157C7.35877 9.67468 7.45455 9.90946 7.45455 10.1543C7.45455 10.3991 7.35877 10.6339 7.18828 10.807C7.01779 10.9801 6.78656 11.0773 6.54545 11.0773H3.81818V22.1539H20.1818V11.0773H17.4545C17.2134 11.0773 16.9822 10.9801 16.8117 10.807C16.6412 10.6339 16.5455 10.3991 16.5455 10.1543C16.5455 9.90946 16.6412 9.67468 16.8117 9.50157C16.9822 9.32847 17.2134 9.23122 17.4545 9.23122H20.1818C20.664 9.23122 21.1265 9.42572 21.4675 9.77193C21.8084 10.1181 22 10.5877 22 11.0773ZM8.09773 6.19208L11.0909 3.15179V13.8465C11.0909 14.0913 11.1867 14.3261 11.3572 14.4992C11.5277 14.6723 11.7589 14.7695 12 14.7695C12.2411 14.7695 12.4723 14.6723 12.6428 14.4992C12.8133 14.3261 12.9091 14.0913 12.9091 13.8465V3.15179L15.9023 6.19208C16.0729 6.36528 16.3042 6.46258 16.5455 6.46258C16.7867 6.46258 17.0181 6.36528 17.1886 6.19208C17.3592 6.01888 17.4551 5.78396 17.4551 5.53902C17.4551 5.29408 17.3592 5.05916 17.1886 4.88596L12.6432 0.270718C12.5588 0.184896 12.4585 0.116813 12.3481 0.0703611C12.2378 0.0239093 12.1195 0 12 0C11.8805 0 11.7622 0.0239093 11.6519 0.0703611C11.5415 0.116813 11.4412 0.184896 11.3568 0.270718L6.81136 4.88596C6.64078 5.05916 6.54495 5.29408 6.54495 5.53902C6.54495 5.78396 6.64078 6.01888 6.81136 6.19208C6.98195 6.36528 7.21331 6.46258 7.45455 6.46258C7.69579 6.46258 7.92715 6.36528 8.09773 6.19208Z" fill="currentColor"/>
</svg>
