<svg width="24" height="24" viewBox="0 0 24 24" fill="none" xmlns="http://www.w3.org/2000/svg">
<path d="M22.2857 3H1.71429C1.25963 3 0.823594 3.18964 0.502103 3.52721C0.180612 3.86477 0 4.32261 0 4.8V7.5C0 7.97739 0.180612 8.43523 0.502103 8.77279C0.823594 9.11036 1.25963 9.3 1.71429 9.3V19.2C1.71429 19.6774 1.8949 20.1352 2.21639 20.4728C2.53788 20.8104 2.97391 21 3.42857 21H20.5714C21.0261 21 21.4621 20.8104 21.7836 20.4728C22.1051 20.1352 22.2857 19.6774 22.2857 19.2V9.3C22.7404 9.3 23.1764 9.11036 23.4979 8.77279C23.8194 8.43523 24 7.97739 24 7.5V4.8C24 4.32261 23.8194 3.86477 23.4979 3.52721C23.1764 3.18964 22.7404 3 22.2857 3ZM20.5714 19.2H3.42857V9.3H20.5714V19.2ZM22.2857 7.5H1.71429V4.8H22.2857V7.5ZM8.57143 12.9C8.57143 12.6613 8.66173 12.4324 8.82248 12.2636C8.98323 12.0948 9.20124 12 9.42857 12H14.5714C14.7988 12 15.0168 12.0948 15.1775 12.2636C15.3383 12.4324 15.4286 12.6613 15.4286 12.9C15.4286 13.1387 15.3383 13.3676 15.1775 13.5364C15.0168 13.7052 14.7988 13.8 14.5714 13.8H9.42857C9.20124 13.8 8.98323 13.7052 8.82248 13.5364C8.66173 13.3676 8.57143 13.1387 8.57143 12.9Z" fill="currentColor"/>
</svg>
