<svg width="20" height="21" viewBox="0 0 20 21" fill="none" xmlns="http://www.w3.org/2000/svg">
<path d="M4.10353 10.1305H5.8329C6.26906 10.1305 6.62393 9.74205 6.62393 9.26449V8.48449C6.62393 8.00689 6.26903 7.61816 5.8329 7.61816H4.10353C3.66738 7.61816 3.3125 8.00693 3.3125 8.48449V9.26449C3.31235 9.74209 3.66711 10.1305 4.10353 10.1305Z" fill="currentColor"/>
<path d="M9.15432 10.1305H10.8837C11.3198 10.1305 11.6747 9.74205 11.6747 9.26449V8.48449C11.6747 8.00689 11.3198 7.61816 10.8837 7.61816H9.15432C8.71816 7.61816 8.36328 8.00693 8.36328 8.48449V9.26449C8.36328 9.74209 8.71804 10.1305 9.15432 10.1305Z" fill="currentColor"/>
<path d="M14.2051 10.1305H15.9345C16.3706 10.1305 16.7255 9.74205 16.7255 9.26449V8.48449C16.7255 8.00689 16.3707 7.61816 15.9345 7.61816H14.2051C13.7689 7.61816 13.4141 8.00693 13.4141 8.48449V9.26449C13.4141 9.74209 13.769 10.1305 14.2051 10.1305Z" fill="currentColor"/>
<path d="M4.10378 14.0299H5.83314C6.2693 14.0299 6.62418 13.6415 6.62418 13.1636V12.3836C6.62418 11.906 6.26927 11.5176 5.83314 11.5176H4.10378C3.66762 11.5176 3.31274 11.906 3.31274 12.3836V13.1636C3.3126 13.6412 3.66736 14.0299 4.10378 14.0299Z" fill="currentColor"/>
<path d="M9.15432 14.0299H10.8837C11.3198 14.0299 11.6747 13.6415 11.6747 13.1636V12.3836C11.6747 11.906 11.3198 11.5176 10.8837 11.5176H9.15432C8.71816 11.5176 8.36328 11.906 8.36328 12.3836V13.1636C8.36328 13.6412 8.71804 14.0299 9.15432 14.0299Z" fill="currentColor"/>
<path d="M14.2049 14.0299H15.9342C16.3704 14.0299 16.7253 13.6415 16.7253 13.1636V12.3836C16.7253 11.906 16.3705 11.5176 15.9342 11.5176H14.2049C13.7687 11.5176 13.4138 11.906 13.4138 12.3836V13.1636C13.4138 13.6412 13.7687 14.0299 14.2049 14.0299Z" fill="currentColor"/>
<path d="M4.10353 17.9294H5.8329C6.26906 17.9294 6.62393 17.5409 6.62393 17.0631V16.2833C6.62393 15.8057 6.26903 15.417 5.8329 15.417H4.10353C3.66738 15.417 3.3125 15.8058 3.3125 16.2833V17.0631C3.31235 17.5407 3.66711 17.9294 4.10353 17.9294Z" fill="currentColor"/>
<path d="M9.15432 17.9294H10.8837C11.3198 17.9294 11.6747 17.5409 11.6747 17.0631V16.2833C11.6747 15.8057 11.3198 15.417 10.8837 15.417H9.15432C8.71816 15.417 8.36328 15.8058 8.36328 16.2833V17.0631C8.36328 17.5407 8.71804 17.9294 9.15432 17.9294Z" fill="currentColor"/>
<path d="M17.7865 2.10269H17.3601V3.61459C17.3601 4.46362 16.6717 5.15167 15.823 5.15167H15.7233C14.8742 5.15167 14.1862 4.46362 14.1862 3.61459V2.10254H5.85228V3.61443C5.85228 4.46347 5.16393 5.15152 4.3152 5.15152H4.21548C3.36645 5.15152 2.6784 4.46317 2.6784 3.61443V2.10254H2.21363C1.20287 2.10269 0.383789 2.92177 0.383789 3.93207V18.3607C0.383789 19.3711 1.20287 20.19 2.21305 20.19H15.9045C15.9857 20.1614 16.0623 20.0807 16.1261 20.0146L19.3764 16.6373C19.408 16.6044 19.4478 16.5537 19.4856 16.5021C19.5701 16.3869 19.6159 16.248 19.6159 16.1052V3.93212C19.6159 2.92178 18.7968 2.10274 17.7865 2.10274L17.7865 2.10269ZM18.4712 15.4965H16.4465C15.755 15.4965 15.1896 16.0618 15.1896 16.7534V19.0452L2.21327 19.0453C1.8357 19.0453 1.52866 18.7382 1.52866 18.3608V6.54832H18.4712L18.4712 15.4965Z" fill="currentColor"/>
<path d="M4.21463 4.49156H4.31436C4.79791 4.49156 5.19113 4.09818 5.19113 3.61467L5.19128 1.09065C5.19128 0.607095 4.79805 0.213867 4.3145 0.213867H4.21478C3.73123 0.213867 3.33789 0.607248 3.33789 1.09065V3.61452C3.33789 4.09822 3.73124 4.49156 4.21463 4.49156Z" fill="currentColor"/>
<path d="M15.7225 4.49156H15.8225C16.3061 4.49156 16.6993 4.09818 16.6993 3.61467V1.09065C16.6993 0.607095 16.3061 0.213867 15.8225 0.213867H15.7225C15.2389 0.213867 14.8457 0.607248 14.8457 1.09065V3.61452C14.8456 4.09822 15.2389 4.49156 15.7225 4.49156Z" fill="currentColor"/>
</svg>
