<svg width="17" height="16" viewBox="0 0 17 16" fill="none" xmlns="http://www.w3.org/2000/svg">
<path d="M12.1585 2.17266V2.22157H12.2074H13.6747C13.9212 2.22157 14.1576 2.31947 14.3318 2.49375C14.5061 2.66802 14.604 2.90439 14.604 3.15085V12.9328C14.604 13.1793 14.5061 13.4157 14.3318 13.5899C14.1576 13.7642 13.9212 13.8621 13.6747 13.8621H3.89275C3.64629 13.8621 3.40992 13.7642 3.23564 13.5899C3.06137 13.4157 2.96346 13.1793 2.96346 12.9328V3.15085C2.96346 2.90439 3.06137 2.66802 3.23564 2.49375C3.40992 2.31947 3.64629 2.22157 3.89275 2.22157H5.36004H5.40895V2.17266V1.68356C5.40895 1.56681 5.45533 1.45485 5.53788 1.3723C5.62043 1.28974 5.7324 1.24337 5.84914 1.24337C5.96589 1.24337 6.07785 1.28974 6.1604 1.3723C6.24295 1.45485 6.28933 1.56681 6.28933 1.68356V2.17266V2.22157H6.33824H11.2292H11.2781V2.17266V1.68356C11.2781 1.56681 11.3245 1.45485 11.4071 1.3723C11.4896 1.28974 11.6016 1.24337 11.7183 1.24337C11.8351 1.24337 11.947 1.28974 12.0296 1.3723C12.1121 1.45485 12.1585 1.56681 12.1585 1.68356V2.17266ZM5.40895 3.15085V3.10194H5.36004H3.89275H3.84384V3.15085V5.10725V5.15616H3.89275H13.6747H13.7236V5.10725V3.15085V3.10194H13.6747H12.2074H12.1585V3.15085V3.63995C12.1585 3.7567 12.1121 3.86866 12.0296 3.95121C11.947 4.03376 11.8351 4.08014 11.7183 4.08014C11.6016 4.08014 11.4896 4.03376 11.4071 3.95121C11.3245 3.86866 11.2781 3.7567 11.2781 3.63995V3.15085V3.10194H11.2292H6.33824H6.28933V3.15085V3.63995C6.28933 3.7567 6.24295 3.86866 6.1604 3.95121C6.07785 4.03376 5.96589 4.08014 5.84914 4.08014C5.7324 4.08014 5.62043 4.03376 5.53788 3.95121C5.45533 3.86866 5.40895 3.7567 5.40895 3.63995V3.15085ZM13.6747 12.9817H13.7236V12.9328V6.08544V6.03653H13.6747H3.89275H3.84384V6.08544V12.9328V12.9817H3.89275H13.6747ZM7.75663 7.5527V7.55274V11.4655C7.75663 11.5823 7.71025 11.6942 7.6277 11.7768C7.54515 11.8593 7.43318 11.9057 7.31644 11.9057C7.19969 11.9057 7.08773 11.8593 7.00518 11.7768C6.92263 11.6942 6.87625 11.5823 6.87625 11.4655V8.34386V8.26456L6.80539 8.30015L6.53524 8.43584C6.53521 8.43585 6.53519 8.43586 6.53516 8.43587C6.53516 8.43587 6.53516 8.43588 6.53516 8.43588C6.43068 8.48809 6.30975 8.49667 6.19894 8.45974C6.08811 8.42279 5.99649 8.34333 5.94424 8.23884C5.892 8.13434 5.8834 8.01337 5.92034 7.90254C5.95729 7.79171 6.03675 7.70009 6.14124 7.64784L7.11944 7.15874L7.11945 7.15874C7.18659 7.12514 7.2612 7.10927 7.3362 7.11264C7.41119 7.11601 7.48408 7.13851 7.54793 7.17799C7.61179 7.21747 7.66448 7.27262 7.70101 7.33821C7.73753 7.40379 7.75668 7.47763 7.75663 7.5527ZM11.3835 9.38478L11.3833 9.38503L10.2119 10.9471L10.1532 11.0253H10.251H11.2292C11.346 11.0253 11.4579 11.0717 11.5405 11.1543C11.623 11.2368 11.6694 11.3488 11.6694 11.4655C11.6694 11.5823 11.623 11.6942 11.5405 11.7768C11.4579 11.8593 11.346 11.9057 11.2292 11.9057H9.27283C9.19108 11.9057 9.11095 11.883 9.04141 11.84C8.97187 11.797 8.91568 11.7355 8.87912 11.6624C8.84256 11.5893 8.82708 11.5074 8.83442 11.426C8.84176 11.3446 8.87163 11.2668 8.92068 11.2014L10.6802 8.85561C10.7242 8.797 10.7558 8.73001 10.773 8.65876C10.7902 8.5875 10.7927 8.51348 10.7802 8.44125C10.7678 8.36901 10.7407 8.30007 10.7007 8.23866C10.6607 8.17726 10.6085 8.12468 10.5474 8.08416C10.4864 8.04364 10.4176 8.01602 10.3455 8.00301C10.2734 7.99 10.1993 7.99187 10.1279 8.00851C10.0566 8.02514 9.98932 8.05618 9.93036 8.09974C9.8714 8.14329 9.82196 8.19843 9.78508 8.26178L9.78506 8.26177L9.78437 8.26305C9.75632 8.3147 9.7182 8.36022 9.67228 8.39691C9.62635 8.4336 9.57354 8.46072 9.51696 8.47667C9.46039 8.49262 9.40119 8.49707 9.34286 8.48977C9.28453 8.48247 9.22826 8.46356 9.17736 8.43416C9.12646 8.40476 9.08196 8.36546 9.0465 8.31859C9.01103 8.27171 8.98531 8.2182 8.97086 8.16123C8.9564 8.10425 8.95351 8.04495 8.96234 7.98684C8.97118 7.92872 8.99156 7.87297 9.02229 7.82286L9.0223 7.82287L9.02294 7.82176C9.17912 7.55149 9.42009 7.34029 9.70851 7.2209C9.99692 7.1015 10.3167 7.08058 10.6182 7.16138C10.9197 7.24218 11.1861 7.42018 11.3762 7.66779C11.5662 7.91541 11.6693 8.21881 11.6694 8.53095V8.5311C11.6704 8.83934 11.5699 9.13934 11.3835 9.38478Z" fill="#585B5D" stroke="#002646" stroke-width="0.0978197"/>
</svg>
