<svg width="19" height="20" viewBox="0 0 19 20" fill="none" xmlns="http://www.w3.org/2000/svg">
<path d="M18.7388 14.6162C18.5716 15.8865 17.9477 17.0526 16.9837 17.8966C16.0196 18.7406 14.7813 19.2047 13.5 19.2024C6.05626 19.2024 8.4831e-06 13.1462 8.4831e-06 5.70245C-0.00228837 4.42116 0.461903 3.18284 1.30588 2.21879C2.14986 1.25473 3.31592 0.63086 4.58626 0.463697C4.9075 0.424473 5.2328 0.490193 5.51362 0.651046C5.79444 0.811899 6.0157 1.05926 6.14438 1.3562L8.12438 5.77651V5.78776C8.2229 6.01506 8.26359 6.26322 8.24282 6.51008C8.22204 6.75694 8.14044 6.99481 8.00532 7.20245C7.98845 7.22776 7.97063 7.2512 7.95188 7.27463L6.00001 9.58838C6.7022 11.0153 8.1947 12.4946 9.64032 13.1987L11.9222 11.2571C11.9446 11.2383 11.9681 11.2208 11.9925 11.2046C12.2 11.0663 12.4387 10.9818 12.687 10.9589C12.9353 10.936 13.1854 10.9753 13.4147 11.0734L13.4269 11.079L17.8434 13.0581C18.1409 13.1863 18.3889 13.4074 18.5503 13.6882C18.7116 13.9691 18.7778 14.2946 18.7388 14.6162Z" fill="currentColor"/>
</svg>
