<svg width="32" height="32" viewBox="0 0 32 32" fill="none" xmlns="http://www.w3.org/2000/svg">
<path d="M28 13.3055C27.7878 13.3055 27.5844 13.3898 27.4343 13.5398C27.2843 13.6899 27.2 13.8934 27.2 14.1055V22.0002C27.2 23.3793 26.6522 24.702 25.677 25.6772C24.7018 26.6523 23.3791 27.2002 22 27.2002H10C8.62089 27.2002 7.29825 26.6523 6.32306 25.6772C5.34787 24.702 4.80001 23.3793 4.80001 22.0002V10.0002C4.80001 8.62107 5.34787 7.29843 6.32306 6.32324C7.29825 5.34805 8.62089 4.8002 10 4.8002H17.8947C17.9997 4.8002 18.1038 4.7795 18.2008 4.7393C18.2979 4.6991 18.3861 4.64017 18.4604 4.56588C18.5347 4.49159 18.5936 4.4034 18.6338 4.30634C18.674 4.20928 18.6947 4.10525 18.6947 4.0002C18.6947 3.89514 18.674 3.79111 18.6338 3.69405C18.5936 3.59699 18.5347 3.5088 18.4604 3.43451C18.3861 3.36022 18.2979 3.3013 18.2008 3.26109C18.1038 3.22089 17.9997 3.2002 17.8947 3.2002H10C8.19708 3.20196 6.4685 3.91895 5.19364 5.19382C3.91877 6.46868 3.20178 8.19726 3.20001 10.0002V22.0002C3.20178 23.8031 3.91877 25.5317 5.19364 26.8066C6.4685 28.0814 8.19708 28.7984 10 28.8002H22C23.8029 28.7984 25.5315 28.0814 26.8064 26.8066C28.0813 25.5317 28.7982 23.8031 28.8 22.0002V14.1055C28.8 13.8934 28.7157 13.6899 28.5657 13.5398C28.4157 13.3898 28.2122 13.3055 28 13.3055Z" fill="currentColor"/>
<path d="M11.0667 12.8094C10.9163 12.6613 10.7135 12.5786 10.5025 12.5794C10.2914 12.5801 10.0892 12.6642 9.93991 12.8133C9.79059 12.9625 9.70625 13.1646 9.70527 13.3756C9.70429 13.5867 9.78674 13.7896 9.93467 13.9401L14.6227 18.6281C14.697 18.7025 14.7852 18.7615 14.8823 18.8017C14.9794 18.842 15.0835 18.8627 15.1887 18.8627C15.2938 18.8627 15.3979 18.842 15.495 18.8017C15.5921 18.7615 15.6804 18.7025 15.7547 18.6281L27.0667 7.31475C27.1419 7.24065 27.2017 7.15237 27.2427 7.05503C27.2836 6.95769 27.3049 6.85321 27.3053 6.7476C27.3056 6.642 27.2851 6.53737 27.2448 6.43974C27.2045 6.34212 27.1453 6.25343 27.0706 6.17881C26.9959 6.10418 26.9071 6.04508 26.8095 6.00492C26.7118 5.96476 26.6071 5.94434 26.5015 5.94483C26.3959 5.94532 26.2915 5.96672 26.1942 6.00778C26.0969 6.04885 26.0087 6.10877 25.9347 6.18409L15.188 16.9308L11.0667 12.8094Z" fill="currentColor"/>
</svg>
