<svg width="15" height="14" viewBox="0 0 15 14" fill="none" xmlns="http://www.w3.org/2000/svg">
<g clip-path="url(#clip0_3182_31918)">
<path d="M7.36841 6.60862C7.94236 6.60939 8.50365 6.43989 8.98124 6.12158C9.45884 5.80327 9.83129 5.35045 10.0515 4.82041C10.2716 4.29037 10.3296 3.70693 10.2181 3.14392C10.1066 2.5809 9.83065 2.06361 9.42507 1.65749C9.0195 1.25137 8.50258 0.974683 7.93971 0.862427C7.37685 0.750171 6.79333 0.807396 6.263 1.02686C5.73266 1.24632 5.27934 1.61816 4.96039 2.09533C4.64144 2.5725 4.47119 3.13356 4.47119 3.70751C4.47119 4.47626 4.77631 5.21358 5.31953 5.75753C5.86275 6.30148 6.59966 6.60759 7.36841 6.60862ZM7.36841 1.58028C7.7887 1.57952 8.19976 1.70349 8.54954 1.93651C8.89931 2.16953 9.17207 2.50111 9.33326 2.88926C9.49445 3.2774 9.53683 3.70465 9.45502 4.1169C9.37322 4.52915 9.17091 4.90785 8.87372 5.20504C8.57653 5.50222 8.19784 5.70453 7.78559 5.78634C7.37334 5.86814 6.94609 5.82577 6.55794 5.66457C6.16979 5.50338 5.83821 5.23063 5.60519 4.88085C5.37218 4.53107 5.2482 4.12001 5.24897 3.69973C5.25 3.13793 5.47363 2.59944 5.87088 2.20219C6.26813 1.80494 6.80662 1.58131 7.36841 1.58028Z" fill="currentColor"/>
<path d="M2.70185 12.3993V10.0193C3.30225 9.3892 4.0272 8.89091 4.83062 8.55615C5.63404 8.22139 6.49832 8.0575 7.36852 8.07488C8.55954 8.05884 9.7318 8.37243 10.7557 8.98099L11.2807 8.39377C10.1101 7.65643 8.75195 7.27167 7.36852 7.28544C6.35632 7.25965 5.3509 7.45748 4.42393 7.86484C3.49696 8.27219 2.67128 8.87904 2.00574 9.6421C1.95386 9.70893 1.92519 9.79085 1.92407 9.87544V12.3993C1.91884 12.6112 1.99775 12.8164 2.14352 12.9702C2.28928 13.124 2.49004 13.2138 2.70185 13.2199H7.52018L6.78129 12.4421L2.70185 12.3993Z" fill="currentColor"/>
<path d="M12.0354 12.3993V12.4421H10.8104L10.1104 13.2199H12.0354C12.2444 13.2138 12.4428 13.1262 12.5882 12.9757C12.7335 12.8253 12.8142 12.624 12.8131 12.4149V10.1865L12.0354 11.0537V12.3993Z" fill="currentColor"/>
<path d="M13.8865 7.23855C13.8096 7.1701 13.7087 7.13493 13.606 7.14076C13.5032 7.14659 13.4069 7.19295 13.3382 7.26966L8.81933 12.3252L6.79711 10.1513C6.76391 10.1125 6.7234 10.0806 6.67788 10.0575C6.63236 10.0343 6.58272 10.0203 6.5318 10.0164C6.48088 10.0124 6.42968 10.0185 6.38112 10.0343C6.33256 10.0501 6.28759 10.0754 6.24877 10.1085C6.21076 10.1431 6.17997 10.1849 6.1582 10.2315C6.13643 10.278 6.1241 10.3284 6.12193 10.3798C6.11976 10.4311 6.12779 10.4824 6.14556 10.5306C6.16332 10.5789 6.19048 10.6231 6.22544 10.6608L8.82711 13.4608L13.9177 7.77522C13.9826 7.69896 14.0156 7.60061 14.0098 7.50064C14.004 7.40067 13.9598 7.30679 13.8865 7.23855Z" fill="currentColor"/>
</g>
<defs>
<clipPath id="clip0_3182_31918">
<rect width="14" height="14" fill="white" transform="translate(0.368652 -0.00244141)"/>
</clipPath>
</defs>
</svg>
