<svg width="13" height="15" viewBox="0 0 13 15" fill="none" xmlns="http://www.w3.org/2000/svg">
<path d="M9.2232 1.78041L9.31568 2.04068H9.59189H11.0174C11.1908 2.04068 11.3576 2.10733 11.4832 2.22682C11.6078 2.3454 11.6825 2.50695 11.6922 2.6785L11.6933 2.72154V13.3878C11.6933 13.5611 11.6266 13.7279 11.5071 13.8535L11.5071 13.8536C11.3886 13.9781 11.2272 14.0528 11.0556 14.0625L11.0126 14.0636H1.41331C1.23989 14.0636 1.07314 13.9969 0.94754 13.8775L0.677918 14.1609L0.947536 13.8775C0.82293 13.7589 0.748239 13.5974 0.738544 13.4259L0.73747 13.3829V2.71652C0.73747 2.54313 0.804114 2.37637 0.92362 2.25074L0.923657 2.25071C1.0421 2.12617 1.20362 2.05146 1.3752 2.04176L1.41819 2.04068H2.83889H3.11513L3.2076 1.78038C3.3323 1.42935 3.61465 1.15277 3.96752 1.03512C3.93491 1.05857 3.90589 1.08318 3.88059 1.10705C3.778 1.20386 3.69854 1.32313 3.63905 1.43371C3.6173 1.47413 3.5967 1.5163 3.57747 1.5595C3.5699 1.56375 3.56312 1.568 3.55729 1.57219C3.52458 1.60455 3.48071 1.66375 3.46721 1.688C3.44628 1.72896 3.43767 1.76438 3.43557 1.77299L3.43546 1.77347C3.43209 1.7873 3.43018 1.79846 3.42925 1.80427C3.42626 1.8229 3.42528 1.83834 3.42517 1.84007L3.42516 1.84021L3.42336 1.86669L3.4248 1.88803L3.42502 1.91048L3.42539 2.01556L3.4254 2.11742C3.42531 2.11863 3.42523 2.11984 3.42515 2.12105L3.42338 2.14724L3.42512 2.17343C3.42522 2.17484 3.42526 2.17561 3.42527 2.17587C3.42527 2.17591 3.42527 2.17594 3.42527 2.17595C3.42527 2.17597 3.42528 2.17598 3.42528 2.17598L3.42533 2.1774L3.42533 2.1775C3.42537 2.17856 3.42565 2.18673 3.42649 2.19662C3.42675 2.19969 3.42728 2.20564 3.42823 2.21309L3.42828 2.21345C3.42884 2.21791 3.43135 2.23773 3.43767 2.26208C3.44217 2.27799 3.45907 2.32316 3.47316 2.35158C3.48785 2.37313 3.52202 2.40254 3.56752 2.43197C3.58953 2.48311 3.61351 2.53301 3.63905 2.5805C3.69854 2.69107 3.778 2.81034 3.8806 2.90714C3.98079 3.00168 4.13941 3.1078 4.34788 3.1078H8.08285C8.59107 3.1078 9.00767 2.6912 9.00767 2.18298C9.00767 1.82133 8.9414 1.50954 8.78156 1.27714C8.73502 1.20948 8.68246 1.15141 8.62526 1.10266C8.9016 1.24227 9.11822 1.48497 9.2232 1.78041Z" stroke="currentColor" stroke-width="0.782558"/>
<path d="M8.63782 6.69412L8.63784 6.6941C8.71215 6.61978 8.83278 6.61974 8.90719 6.69416L8.90723 6.69419C8.98159 6.76853 8.98163 6.88913 8.90719 6.96357L5.81627 10.0544L5.81627 10.0544C5.78055 10.0902 5.73214 10.1102 5.68162 10.1102C5.63107 10.1102 5.58261 10.0901 5.54691 10.0544L3.78993 8.29745L3.7899 8.29742C3.71554 8.22308 3.71549 8.10248 3.78993 8.02804C3.86433 7.95364 3.98492 7.95364 4.05932 8.02802L4.05933 8.02802L5.43912 9.40736L5.68164 9.6498L5.92414 9.40734L8.63782 6.69412Z" fill="currentColor" stroke="currentColor" stroke-width="0.686008"/>
</svg>
