<svg width="31" height="31" viewBox="0 0 31 31" fill="none" xmlns="http://www.w3.org/2000/svg">
<path d="M25.9707 7.0625V7H25.9082H5.2832H5.2207V7.0625V18.0043V18.1552L5.3274 18.0485L10.0946 13.2813C10.0946 13.2813 10.0946 13.2813 10.0946 13.2813C10.4345 12.9417 10.8953 12.7509 11.3758 12.7509C11.8563 12.7509 12.3171 12.9417 12.657 13.2813C12.657 13.2813 12.657 13.2813 12.657 13.2813L17.8132 18.4376L17.8574 18.4817L17.9016 18.4376L20.2454 16.0938L20.2012 16.0496L20.2454 16.0938C20.4137 15.9254 20.6135 15.7919 20.8334 15.7008C21.0534 15.6097 21.2891 15.5628 21.5271 15.5628C21.7652 15.5628 22.0009 15.6097 22.2209 15.7008C22.4408 15.7919 22.6406 15.9254 22.8089 16.0938L22.8089 16.0938L25.864 19.1477L25.9707 19.2544V19.1035V7.0625ZM5.23901 20.6121L5.2207 20.6304V20.6562V23.9375V24H5.2832H20.752H20.9028L20.7961 23.8933L11.4211 14.5183L11.377 14.4741L11.3328 14.5183L5.23901 20.6121ZM25.9082 24H25.9707V23.9375V21.7555V21.7296L25.9524 21.7113L21.5731 17.3308L21.5289 17.2866L21.4847 17.3308L19.141 19.6746L19.0968 19.7188L19.141 19.7629L23.3597 23.9817L23.378 24H23.4039H25.9082ZM5.2832 5.25H25.9082C26.3889 5.25 26.8499 5.44096 27.1898 5.78087C27.5297 6.12078 27.7207 6.5818 27.7207 7.0625V23.9375C27.7207 24.4182 27.5297 24.8792 27.1898 25.2191C26.8499 25.559 26.3889 25.75 25.9082 25.75H5.2832C4.8025 25.75 4.34148 25.559 4.00157 25.2191C3.66166 24.8792 3.4707 24.4182 3.4707 23.9375V7.0625C3.4707 6.5818 3.66166 6.12078 4.00157 5.78087C4.34148 5.44096 4.8025 5.25 5.2832 5.25ZM17.5332 12.2188C17.5332 11.953 17.612 11.6932 17.7597 11.4722C17.9073 11.2512 18.1172 11.079 18.3627 10.9773C18.6083 10.8756 18.8784 10.849 19.1391 10.9008C19.3998 10.9527 19.6392 11.0806 19.8271 11.2686C20.0151 11.4565 20.143 11.6959 20.1949 11.9566C20.2467 12.2173 20.2201 12.4874 20.1184 12.733C20.0167 12.9785 19.8445 13.1884 19.6235 13.336C19.4025 13.4837 19.1427 13.5625 18.877 13.5625C18.5206 13.5625 18.1788 13.4209 17.9268 13.1689C17.6748 12.9169 17.5332 12.5751 17.5332 12.2188Z" fill="#0968B8" stroke="#0968B8" stroke-width="0.125"/>
</svg>
