<svg width="20" height="21" viewBox="0 0 20 21" fill="none" xmlns="http://www.w3.org/2000/svg">
<path d="M5.89991 2.37793C5.89991 1.1782 4.92385 0.202148 3.72413 0.202148C0.837642 0.32168 0.838462 4.43465 3.72413 4.55371C4.92389 4.55371 5.89991 3.57766 5.89991 2.37793Z" fill="currentColor"/>
<path d="M7.44793 8.94678V8.27752C7.24277 3.33592 0.20332 3.33975 0 8.27749V8.94674C0 9.27034 0.262344 9.53268 0.585938 9.53268H6.86199C7.18559 9.53272 7.44793 9.27038 7.44793 8.94678Z" fill="currentColor"/>
<path d="M18.4519 2.37793C18.4519 1.1782 17.4759 0.202148 16.2761 0.202148C13.3896 0.32168 13.3905 4.43465 16.2761 4.55371C17.4759 4.55371 18.4519 3.57766 18.4519 2.37793Z" fill="currentColor"/>
<path d="M16.2759 4.55371C14.2225 4.55371 12.552 6.2243 12.552 8.27766V8.94691C12.552 9.27051 12.8143 9.53285 13.1379 9.53285H19.414C19.7375 9.53285 19.9999 9.27051 19.9999 8.94691V8.27766C19.9999 6.2243 18.3293 4.55371 16.2759 4.55371Z" fill="currentColor"/>
<path d="M3.68235 10.8296C3.68235 10.7878 3.68313 10.7462 3.68391 10.7046H2.51204C2.4654 13.2163 3.68297 15.4855 5.56844 16.8674C5.73688 16.5098 5.94735 16.1759 6.19344 15.8718C4.66813 14.7185 3.68235 12.8892 3.68235 10.8296Z" fill="currentColor"/>
<path d="M7.41432 5.06398C8.97275 4.33414 11.0274 4.33414 12.5859 5.06398C12.8638 4.74527 13.1821 4.46277 13.5329 4.22457C11.4589 3.05664 8.54131 3.05667 6.46729 4.22457C6.81807 4.46277 7.13643 4.74531 7.41432 5.06398Z" fill="currentColor"/>
<path d="M16.3162 10.7046C16.3617 12.7979 15.363 14.6994 13.8066 15.8718C14.0527 16.1758 14.2632 16.5098 14.4316 16.8674C16.317 15.4856 17.5347 13.2162 17.488 10.7046H16.3162Z" fill="currentColor"/>
<path d="M12.1758 13.0474C12.1758 11.8476 11.1997 10.8716 10 10.8716C7.11352 10.9911 7.11434 15.1041 10 15.2231C11.1997 15.2231 12.1758 14.2471 12.1758 13.0474Z" fill="currentColor"/>
<path d="M10.0001 15.2231C7.94667 15.2231 6.27612 16.8937 6.27612 18.9471V19.6164C6.27612 19.94 6.53847 20.2023 6.86206 20.2023H13.1381C13.4617 20.2023 13.7241 19.94 13.7241 19.6164V18.9471C13.724 16.8937 12.0535 15.2231 10.0001 15.2231Z" fill="currentColor"/>
</svg>
