<svg
    width="24"
    height="24"
    viewBox="0 0 24 24"
    fill="none"
    xmlns="http://www.w3.org/2000/svg"
    >
    <path
        d="M12.0441 13.0161L11.9999 12.9718L11.9557 13.0161L5.73636 19.2364C5.60735 19.3654 5.43238 19.4378 5.24993 19.4378C5.06748 19.4378 4.89251 19.3654 4.7635 19.2364C4.63449 19.1073 4.56201 18.9324 4.56201 18.7499C4.56201 18.5675 4.63449 18.3925 4.7635 18.2635L10.9838 12.0441L11.028 11.9999L10.9838 11.9557L4.7635 5.73636C4.7635 5.73636 4.7635 5.73636 4.76349 5.73636C4.63449 5.60735 4.56201 5.43237 4.56201 5.24993C4.56201 5.06748 4.63449 4.89251 4.7635 4.7635C4.89251 4.63449 5.06748 4.56201 5.24993 4.56201C5.43237 4.56201 5.60735 4.63449 5.73636 4.76349C5.73636 4.7635 5.73636 4.7635 5.73636 4.7635L11.9557 10.9838L11.9999 11.028L12.0441 10.9838L18.2635 4.76349C18.3925 4.63449 18.5675 4.56201 18.7499 4.56201C18.9324 4.56201 19.1073 4.63449 19.2364 4.7635C19.3654 4.89251 19.4378 5.06748 19.4378 5.24993C19.4378 5.43238 19.3654 5.60735 19.2364 5.73636L13.0161 11.9557L12.9718 11.9999L13.0161 12.0441L19.2364 18.2635C19.3002 18.3274 19.3509 18.4032 19.3855 18.4867C19.4201 18.5701 19.4378 18.6596 19.4378 18.7499C19.4378 18.8403 19.4201 18.9297 19.3855 19.0132C19.3509 19.0966 19.3002 19.1725 19.2364 19.2364C19.1725 19.3002 19.0966 19.3509 19.0132 19.3855C18.9297 19.4201 18.8403 19.4378 18.7499 19.4378C18.6596 19.4378 18.5701 19.4201 18.4867 19.3855C18.4032 19.3509 18.3274 19.3002 18.2635 19.2364L12.0441 13.0161Z"
        fill="#585B5D"
        stroke="#002646"
        stroke-width="0.125"
    />
</svg>