<svg width="14" height="14" viewBox="0 0 14 14" fill="none" xmlns="http://www.w3.org/2000/svg">
<g clip-path="url(#clip0_3882_11352)">
<path d="M7 14C10.8596 14 14 10.8599 14 7C14 6.33378 13.907 5.67725 13.7229 5.04848C13.6321 4.7393 13.3093 4.56171 12.9992 4.65242C12.6898 4.74286 12.5128 5.06685 12.6032 5.37604C12.7557 5.89842 12.8333 6.44501 12.8333 7C12.8333 10.2165 10.2165 12.8333 7 12.8333C3.78355 12.8333 1.16667 10.2165 1.16667 7C1.16667 3.78355 3.78355 1.16667 7 1.16667C8.16895 1.16667 9.2936 1.50846 10.2523 2.15489C10.5192 2.33504 10.8821 2.26426 11.062 1.99738C11.242 1.7302 11.1718 1.36761 10.9046 1.1876C9.75246 0.410726 8.40236 0 7 0C3.1404 0 0 3.14012 0 7C0 10.8599 3.1404 14 7 14Z" fill="#5A5A5A"/>
<path d="M13.0043 1.33757L7.00006 7.34152L5.07916 5.4209C4.85129 5.19318 4.48215 5.19318 4.25429 5.4209C4.02657 5.64877 4.02657 6.01791 4.25429 6.24577L6.58762 8.57911C6.7017 8.69318 6.85066 8.75001 7.00006 8.75001C7.14945 8.75001 7.29842 8.69318 7.41249 8.57911L13.8292 2.16244C14.0569 1.93458 14.0569 1.56543 13.8292 1.33757C13.6013 1.10985 13.2322 1.10985 13.0043 1.33757Z" fill="#5A5A5A"/>
</g>
<defs>
<clipPath id="clip0_3882_11352">
<rect width="14" height="14" fill="white"/>
</clipPath>
</defs>
</svg>
