<svg width="60" height="61" viewBox="0 0 60 61" fill="none" xmlns="http://www.w3.org/2000/svg">
<path d="M50.8 15.9068C51.5366 13.8469 50.6438 11.5576 48.7131 10.5546C46.7825 9.55162 44.4122 10.1498 43.1757 11.9489C42.9569 12.2592 42.7828 12.5988 42.6578 12.9563L40.4973 19.0189L31.1587 45.2487C30.8351 46.1729 30.8217 47.1781 31.123 48.1092L32.3372 51.7612C32.4644 52.157 32.7679 52.4696 33.1585 52.6068C33.5469 52.7395 33.9754 52.6878 34.3191 52.4629L37.551 50.412C38.3701 49.897 38.995 49.1167 39.3187 48.1991L40.4972 44.8889L43.1755 37.3508L50.8 15.9068Z" fill="currentColor"/>
<path d="M40.4975 13.6931L40.9796 12.3438C41.1626 11.8355 41.4081 11.352 41.7116 10.9045C42.1111 10.3356 42.6066 9.84306 43.1758 9.44733V8.85368C43.1668 6.45194 41.2384 4.50898 38.8547 4.5H12.3209C9.9372 4.509 8.00879 6.45194 7.99988 8.85368V53.1463C8.00881 55.5481 9.9372 57.491 12.3209 57.5H38.8547C41.2384 57.491 43.1669 55.5481 43.1758 53.1463V42.6756L40.9974 48.8102C40.8679 49.1813 40.7005 49.5366 40.4974 49.8717C40.0042 50.7105 39.3167 51.4211 38.4976 51.9406L35.2658 53.9915C34.7703 54.3108 34.1944 54.4795 33.6052 54.4772C33.2414 54.475 32.8798 54.4143 32.5339 54.2973C31.6277 53.9668 30.9269 53.2291 30.6412 52.3004L29.427 48.6843C28.9985 47.3733 29.0163 45.9543 29.4806 44.6545L40.4975 13.6931ZM20.374 12.5596H34.3905C35.1293 12.5596 35.7297 13.1646 35.7297 13.9089C35.7297 14.6533 35.1293 15.2583 34.3905 15.2583H20.374C19.6352 15.2583 19.0348 14.6533 19.0348 13.9089C19.0348 13.1646 19.6352 12.5596 20.374 12.5596ZM16.7851 21.1231H34.3904C35.1292 21.1231 35.7296 21.728 35.7296 22.4724C35.7296 23.2167 35.1292 23.8217 34.3904 23.8217H16.7851C16.0463 23.8217 15.4459 23.2167 15.4459 22.4724C15.4459 21.728 16.0463 21.1231 16.7851 21.1231ZM16.7851 29.6687H32.6054C33.3442 29.6687 33.9446 30.2736 33.9446 31.018C33.9446 31.7623 33.3442 32.3673 32.6054 32.3673H16.7851C16.0463 32.3673 15.4459 31.7623 15.4459 31.018C15.4459 30.2736 16.0463 29.6687 16.7851 29.6687ZM25.4449 49.4402H16.7851C16.0463 49.4402 15.4459 48.8353 15.4459 48.0909C15.4459 47.3466 16.0463 46.7416 16.7851 46.7416H25.4449C26.1837 46.7416 26.7841 47.3466 26.7841 48.0909C26.7841 48.8353 26.1837 49.4402 25.4449 49.4402ZM29.016 40.9131H16.7851C16.0463 40.9131 15.4459 40.3081 15.4459 39.5638C15.4459 38.8194 16.0463 38.2145 16.7851 38.2145H29.016C29.7548 38.2145 30.3552 38.8194 30.3552 39.5638C30.3552 40.3081 29.7548 40.9131 29.016 40.9131Z" fill="currentColor"/>
</svg>
