<svg width="20" height="24" viewBox="0 0 20 24" fill="none" xmlns="http://www.w3.org/2000/svg">
<path d="M20 6.26436V10.7044C20 12.7386 19.5809 14.629 18.7563 16.3229C18.0753 17.7235 17.1103 18.9988 15.8916 20.1144C13.7529 22.0716 11.4036 23.0169 10.4928 23.3325C10.1736 23.4429 9.82663 23.4429 9.50743 23.3325C8.59668 23.0182 6.2474 22.0716 4.10844 20.1144C2.88992 18.9988 1.92574 17.7235 1.24366 16.3229C0.418309 14.629 2.51862e-07 12.7386 2.51862e-07 10.7044V6.26436C-0.000192273 5.93119 0.109996 5.60734 0.313346 5.34343C0.516697 5.07951 0.801752 4.8904 1.12396 4.80565C5.21014 3.73669 8.10058 1.95868 9.15356 1.24334C9.40287 1.07273 9.69791 0.981445 10 0.981445C10.3021 0.981445 10.5971 1.07273 10.8464 1.24334C11.8997 1.95816 14.7901 3.73617 18.8758 4.80565C19.198 4.89043 19.4831 5.07955 19.6864 5.34345C19.8898 5.60735 20.0001 5.93118 20 6.26436Z" fill="currentColor"/>
<path d="M12.4347 9.97307H12.0876V8.86246C12.0907 8.58636 12.039 8.31239 11.9355 8.05641C11.832 7.80044 11.6787 7.56754 11.4846 7.3712C11.2904 7.17487 11.0593 7.019 10.8045 6.91262C10.5497 6.80624 10.2763 6.75146 10.0002 6.75146C9.72405 6.75146 9.45067 6.80624 9.19587 6.91262C8.94107 7.019 8.7099 7.17487 8.51575 7.3712C8.3216 7.56754 8.16833 7.80044 8.06481 8.05641C7.96129 8.31239 7.90959 8.58636 7.91268 8.86246V9.97307H7.56562C7.31136 9.97307 7.06751 10.0741 6.88773 10.2539C6.70794 10.4336 6.60693 10.6775 6.60693 10.9317V15.8008C6.60693 16.0551 6.70794 16.2989 6.88773 16.4787C7.06751 16.6585 7.31136 16.7595 7.56562 16.7595H12.4347C12.689 16.7595 12.9328 16.6585 13.1126 16.4787C13.2924 16.2989 13.3934 16.0551 13.3934 15.8008V10.9317C13.3934 10.6775 13.2924 10.4336 13.1126 10.2539C12.9328 10.0741 12.689 9.97307 12.4347 9.97307ZM10.5006 13.7253V14.3974C10.5006 14.5301 10.4479 14.6573 10.3541 14.7512C10.2602 14.845 10.133 14.8977 10.0003 14.8977C9.86761 14.8977 9.74036 14.845 9.64653 14.7512C9.55271 14.6573 9.5 14.5301 9.5 14.3974V13.7253C9.31948 13.616 9.17968 13.4507 9.10196 13.2545C9.02423 13.0584 9.01286 12.8421 9.06957 12.6389C9.12628 12.4357 9.24796 12.2566 9.41602 12.129C9.58408 12.0014 9.78929 11.9323 10.0003 11.9323C10.2113 11.9323 10.4165 12.0014 10.5846 12.129C10.7526 12.2566 10.8743 12.4357 10.931 12.6389C10.9877 12.8421 10.9764 13.0584 10.8986 13.2545C10.8209 13.4507 10.6811 13.616 10.5006 13.7253ZM11.1266 9.97307H8.87398V8.86246C8.87398 8.56375 8.99264 8.27726 9.20387 8.06604C9.41509 7.85481 9.70158 7.73615 10.0003 7.73615C10.299 7.73615 10.5855 7.85481 10.7967 8.06604C11.0079 8.27726 11.1266 8.56375 11.1266 8.86246V9.97307Z" fill="white"/>
</svg>
