<svg width="18" height="21" viewBox="0 0 18 21" fill="none" xmlns="http://www.w3.org/2000/svg">
<path d="M15.75 2.20201H12.3506C11.9292 1.73019 11.4129 1.35269 10.8355 1.09422C10.2581 0.835756 9.63262 0.702148 9 0.702148C8.36738 0.702148 7.7419 0.835756 7.1645 1.09422C6.58709 1.35269 6.07079 1.73019 5.64937 2.20201H2.25C1.85218 2.20201 1.47064 2.36005 1.18934 2.64135C0.908035 2.92266 0.75 3.30419 0.75 3.70201V19.452C0.75 19.8498 0.908035 20.2314 1.18934 20.5127C1.47064 20.794 1.85218 20.952 2.25 20.952H15.75C16.1478 20.952 16.5294 20.794 16.8107 20.5127C17.092 20.2314 17.25 19.8498 17.25 19.452V3.70201C17.25 3.30419 17.092 2.92266 16.8107 2.64135C16.5294 2.36005 16.1478 2.20201 15.75 2.20201ZM9 2.20201C9.79565 2.20201 10.5587 2.51808 11.1213 3.08069C11.6839 3.6433 12 4.40636 12 5.20201H6C6 4.40636 6.31607 3.6433 6.87868 3.08069C7.44129 2.51808 8.20435 2.20201 9 2.20201ZM12 14.202H6C5.80109 14.202 5.61032 14.123 5.46967 13.9823C5.32902 13.8417 5.25 13.6509 5.25 13.452C5.25 13.2531 5.32902 13.0623 5.46967 12.9217C5.61032 12.781 5.80109 12.702 6 12.702H12C12.1989 12.702 12.3897 12.781 12.5303 12.9217C12.671 13.0623 12.75 13.2531 12.75 13.452C12.75 13.6509 12.671 13.8417 12.5303 13.9823C12.3897 14.123 12.1989 14.202 12 14.202ZM12 11.202H6C5.80109 11.202 5.61032 11.123 5.46967 10.9823C5.32902 10.8417 5.25 10.6509 5.25 10.452C5.25 10.2531 5.32902 10.0623 5.46967 9.92168C5.61032 9.78103 5.80109 9.70201 6 9.70201H12C12.1989 9.70201 12.3897 9.78103 12.5303 9.92168C12.671 10.0623 12.75 10.2531 12.75 10.452C12.75 10.6509 12.671 10.8417 12.5303 10.9823C12.3897 11.123 12.1989 11.202 12 11.202Z" fill="currentColor"/>
</svg>
