<svg width="15" height="15" viewBox="0 0 15 15" fill="none" xmlns="http://www.w3.org/2000/svg">
<path d="M10.1987 2.76777V2.81668H10.2476H12.4486C12.5523 2.81668 12.6519 2.85791 12.7252 2.93129C12.7986 3.00467 12.8398 3.10419 12.8398 3.20796C12.8398 3.31174 12.7986 3.41126 12.7252 3.48464C12.6519 3.55802 12.5523 3.59924 12.4486 3.59924H12.0084H11.9595V3.64815V11.5715C11.9595 11.7921 11.8719 12.0036 11.7159 12.1595C11.56 12.3154 11.3485 12.403 11.128 12.403H4.08497C3.86445 12.403 3.65297 12.3154 3.49704 12.1595C3.34111 12.0036 3.25351 11.7921 3.25351 11.5715V3.64815V3.59924H3.2046H2.76441C2.66063 3.59924 2.56111 3.55802 2.48773 3.48464C2.41435 3.41126 2.37313 3.31174 2.37313 3.20796C2.37313 3.10419 2.41435 3.00467 2.48773 2.93129C2.56111 2.85791 2.66063 2.81668 2.76441 2.81668H4.96535H5.01426V2.76777V2.32759C5.01426 1.99032 5.14824 1.66687 5.38672 1.42839C5.6252 1.18991 5.94865 1.05593 6.28592 1.05593H8.92705C9.26431 1.05593 9.58777 1.18991 9.82625 1.42839C10.0647 1.66687 10.1987 1.99032 10.1987 2.32759V2.76777ZM9.36724 2.81668H9.41615V2.76777V2.32759C9.41615 2.19787 9.36462 2.07346 9.2729 1.98174C9.18117 1.89002 9.05677 1.83849 8.92705 1.83849H6.28592C6.1562 1.83849 6.0318 1.89002 5.94007 1.98174C5.84835 2.07346 5.79682 2.19787 5.79682 2.32759V2.76777V2.81668H5.84573H9.36724ZM11.128 11.6205H11.1769V11.5715V3.64815V3.59924H11.128H4.08497H4.03606V3.64815V11.5715V11.6205H4.08497H11.128ZM6.6772 5.8491V9.37061C6.6772 9.47438 6.63597 9.5739 6.56259 9.64728C6.48921 9.72066 6.38969 9.76188 6.28592 9.76188C6.18214 9.76188 6.08262 9.72066 6.00924 9.64728C5.93586 9.5739 5.89464 9.47438 5.89464 9.37061V5.8491C5.89464 5.74532 5.93586 5.6458 6.00924 5.57242C6.08262 5.49904 6.18214 5.45782 6.28592 5.45782C6.38969 5.45782 6.48921 5.49904 6.56259 5.57242C6.63597 5.6458 6.6772 5.74532 6.6772 5.8491ZM9.31833 5.8491V9.37061C9.31833 9.47438 9.27711 9.5739 9.20373 9.64728C9.13035 9.72066 9.03082 9.76188 8.92705 9.76188C8.82328 9.76188 8.72375 9.72066 8.65037 9.64728C8.57699 9.5739 8.53577 9.47438 8.53577 9.37061V5.8491C8.53577 5.74532 8.57699 5.6458 8.65037 5.57242C8.72375 5.49904 8.82328 5.45782 8.92705 5.45782C9.03082 5.45782 9.13035 5.49904 9.20373 5.57242C9.27711 5.6458 9.31833 5.74532 9.31833 5.8491Z" fill="currentColor" stroke="currentColor" stroke-width="0.0978197"/>
</svg>
