<svg width="16" height="16" viewBox="0 0 16 16" fill="none" xmlns="http://www.w3.org/2000/svg">
<path d="M13.25 9.5C13.25 9.64834 13.206 9.79334 13.1236 9.91668C13.0412 10.04 12.9241 10.1361 12.787 10.1929C12.65 10.2497 12.4992 10.2645 12.3537 10.2356C12.2082 10.2066 12.0746 10.1352 11.9697 10.0303C11.8648 9.92544 11.7934 9.7918 11.7644 9.64632C11.7355 9.50083 11.7503 9.35003 11.8071 9.21299C11.8639 9.07594 11.96 8.95881 12.0833 8.8764C12.2067 8.79399 12.3517 8.75 12.5 8.75C12.6989 8.75 12.8897 8.82902 13.0303 8.96967C13.171 9.11032 13.25 9.30109 13.25 9.5ZM12.9656 11.9556C12.8558 12.6636 12.4966 13.3091 11.9528 13.7757C11.4091 14.2422 10.7165 14.4991 10 14.5H8.5C7.7046 14.4992 6.94202 14.1828 6.37959 13.6204C5.81716 13.058 5.50083 12.2954 5.5 11.5V8.96813C4.53346 8.84635 3.64457 8.37604 3.00017 7.64544C2.35576 6.91484 2.00012 5.97418 2 5V2.5C2 2.23478 2.10536 1.98043 2.29289 1.79289C2.48043 1.60536 2.73478 1.5 3 1.5H4C4.13261 1.5 4.25979 1.55268 4.35355 1.64645C4.44732 1.74021 4.5 1.86739 4.5 2C4.5 2.13261 4.44732 2.25979 4.35355 2.35355C4.25979 2.44732 4.13261 2.5 4 2.5H3V5C2.99996 5.39735 3.07887 5.79076 3.23213 6.15737C3.38539 6.52397 3.60995 6.85648 3.89277 7.13559C4.1756 7.41469 4.51106 7.63483 4.87966 7.78322C5.24827 7.93161 5.64268 8.0053 6.04 8C7.67188 7.97875 9 6.60938 9 4.94812V2.5H8C7.86739 2.5 7.74021 2.44732 7.64645 2.35355C7.55268 2.25979 7.5 2.13261 7.5 2C7.5 1.86739 7.55268 1.74021 7.64645 1.64645C7.74021 1.55268 7.86739 1.5 8 1.5H9C9.26522 1.5 9.51957 1.60536 9.70711 1.79289C9.89464 1.98043 10 2.23478 10 2.5V4.94812C10 7.00062 8.46688 8.71625 6.5 8.9675V11.5C6.5 12.0304 6.71071 12.5391 7.08579 12.9142C7.46086 13.2893 7.96957 13.5 8.5 13.5H10C10.4542 13.4992 10.8946 13.3442 11.2492 13.0603C11.6037 12.7764 11.8512 12.3805 11.9513 11.9375C11.3474 11.8019 10.8153 11.4471 10.458 10.9417C10.1006 10.4364 9.94343 9.81653 10.0168 9.20199C10.0901 8.58745 10.3888 8.02197 10.8551 7.61495C11.3213 7.20794 11.9219 6.98833 12.5407 6.99862C13.1596 7.00892 13.7526 7.24838 14.205 7.67068C14.6574 8.09298 14.9372 8.66809 14.99 9.28472C15.0429 9.90136 14.8651 10.5157 14.4912 11.0088C14.1172 11.502 13.5737 11.8389 12.9656 11.9544V11.9556ZM14 9.5C14 9.20333 13.912 8.91332 13.7472 8.66665C13.5824 8.41997 13.3481 8.22771 13.074 8.11418C12.7999 8.00065 12.4983 7.97094 12.2074 8.02882C11.9164 8.0867 11.6491 8.22956 11.4393 8.43934C11.2296 8.64912 11.0867 8.91639 11.0288 9.20736C10.9709 9.49834 11.0006 9.79994 11.1142 10.074C11.2277 10.3481 11.42 10.5824 11.6666 10.7472C11.9133 10.912 12.2033 11 12.5 11C12.8978 11 13.2794 10.842 13.5607 10.5607C13.842 10.2794 14 9.89782 14 9.5Z" fill="currentColor"/>
</svg>
