<svg width="73" height="73" viewBox="0 0 73 73" fill="none" xmlns="http://www.w3.org/2000/svg">
<g clip-path="url(#clip0_1478_25320)">
<path d="M36.2716 0.5C28.455 0.5 22.0974 6.81176 22.0974 14.5698V21.8591C22.0974 29.6177 28.455 35.9295 36.2716 35.9295C44.0889 35.9295 50.4459 29.6177 50.4459 21.8591V14.5698C50.4461 6.81176 44.0889 0.5 36.2716 0.5Z" fill="currentColor"/>
<path d="M67.5312 54.2642C62.9923 46.5873 55.7375 40.8959 47.1031 38.2383C46.9029 38.1767 46.6865 38.2291 46.5373 38.3754C42.5208 42.306 37.5298 45.3726 36.2821 46.1133C34.9502 45.2683 29.34 41.639 26.0048 38.3754C25.8562 38.2291 25.638 38.1767 25.4389 38.2383C16.8035 40.8965 9.54917 46.5879 5.01205 54.2648C4.90817 54.4405 4.90817 54.6588 5.01205 54.8344C11.455 65.7311 23.4327 72.5002 36.271 72.5002C49.11 72.5002 61.0882 65.7311 67.5312 54.8344C67.6357 54.6582 67.6357 54.4399 67.5312 54.2642ZM55.5494 58.4609C55.5494 58.7714 55.2517 59.0087 54.9395 59.0087H51.1005C50.7877 59.0087 50.4465 59.2754 50.4465 59.5864V63.5268C50.4465 63.8367 50.2794 64.0734 49.9665 64.0734H46.5187C46.2059 64.0734 45.9111 63.8367 45.9111 63.5268V59.5864C45.91 59.2759 45.6964 59.0087 45.3836 59.0087H41.3792C41.0664 59.0087 40.8076 58.7708 40.8076 58.4609V55.0683C40.8076 54.7578 41.0664 54.5073 41.3792 54.5073H45.3836C45.6964 54.5073 45.91 54.2538 45.91 53.9428V49.9978C45.91 49.6873 46.2048 49.4425 46.5176 49.4425H49.9282C50.2405 49.4425 50.4459 49.6873 50.4459 49.9978V53.9543C50.4459 54.2654 50.7489 54.5067 51.0622 54.5067H54.9395C55.2517 54.5067 55.5494 54.7694 55.5494 55.0798V58.4609Z" fill="currentColor"/>
</g>
<defs>
<clipPath id="clip0_1478_25320">
<rect width="72.5434" height="72" fill="white" transform="translate(0.000244141 0.5)"/>
</clipPath>
</defs>
</svg>
