<svg width="16" height="17" viewBox="0 0 16 17" fill="none" xmlns="http://www.w3.org/2000/svg">
<path d="M2.88583 13.391V13.4399H2.93474H12.7167H12.7656V13.391V9.96734C12.7656 9.85059 12.812 9.73863 12.8946 9.65608C12.9771 9.57353 13.0891 9.52715 13.2058 9.52715C13.3226 9.52715 13.4345 9.57353 13.5171 9.65608C13.5996 9.73863 13.646 9.85059 13.646 9.96734V13.391C13.646 13.6375 13.5481 13.8739 13.3738 14.0481C13.1995 14.2224 12.9632 14.3203 12.7167 14.3203H2.93474C2.68828 14.3203 2.45191 14.2224 2.27763 14.0481C2.10336 13.8739 2.00545 13.6375 2.00545 13.391V9.96734C2.00545 9.85059 2.05183 9.73863 2.13438 9.65608C2.21693 9.57353 2.3289 9.52715 2.44564 9.52715C2.56239 9.52715 2.67435 9.57353 2.7569 9.65608C2.83945 9.73863 2.88583 9.85059 2.88583 9.96734V13.391ZM7.51429 10.2788L7.51427 10.2788L5.06878 7.8333C4.98618 7.7507 4.93977 7.63866 4.93977 7.52185C4.93977 7.40503 4.98618 7.29299 5.06878 7.21039C5.15138 7.12779 5.26342 7.08139 5.38023 7.08139C5.49705 7.08139 5.60908 7.12779 5.69169 7.21039L7.30204 8.82136L7.38554 8.90489V8.78678V3.11996C7.38554 3.00321 7.43191 2.89125 7.51447 2.8087C7.59702 2.72615 7.70898 2.67977 7.82573 2.67977C7.94247 2.67977 8.05444 2.72615 8.13699 2.8087C8.21954 2.89125 8.26592 3.00321 8.26592 3.11996V8.78678V8.90489L8.34942 8.82136L9.95977 7.21039C9.95977 7.21039 9.95977 7.21039 9.95977 7.21039C10.0007 7.16949 10.0492 7.13705 10.1027 7.11491C10.1561 7.09278 10.2134 7.08139 10.2712 7.08139C10.3291 7.08139 10.3863 7.09278 10.4398 7.11491C10.4932 7.13705 10.5418 7.16949 10.5827 7.21039C10.6236 7.25129 10.656 7.29985 10.6782 7.35329C10.7003 7.40673 10.7117 7.464 10.7117 7.52185C10.7117 7.57969 10.7003 7.63696 10.6782 7.6904C10.656 7.74384 10.6236 7.7924 10.5827 7.8333L8.13718 10.2788L8.13716 10.2788C8.09628 10.3197 8.04773 10.3522 7.99429 10.3744C7.94086 10.3965 7.88357 10.4079 7.82573 10.4079C7.76788 10.4079 7.7106 10.3965 7.65716 10.3744C7.60372 10.3522 7.55517 10.3197 7.51429 10.2788Z" fill="#0968B8" stroke="#002646" stroke-width="0.0978197"/>
</svg>
