<svg width="24" height="24" viewBox="0 0 24 24" fill="none" xmlns="http://www.w3.org/2000/svg">
<path d="M16.2377 3.57374C16.2144 3.55049 16.1869 3.53205 16.1565 3.51947C16.1262 3.50689 16.0936 3.50042 16.0608 3.50042C16.0279 3.50042 15.9954 3.50689 15.965 3.51947C15.9347 3.53205 15.9071 3.55048 15.8839 3.57371C15.8839 3.57372 15.8839 3.57373 15.8839 3.57374L13.5017 5.9559L13.4576 6.00009L13.5017 6.04428L17.9558 10.4993L18 10.5435L18.0442 10.4993L20.4273 8.11619M16.2377 3.57374L16.1934 3.61791L16.2376 3.57371L16.2377 3.57374ZM16.2377 3.57374L20.4273 7.76244C20.4273 7.76244 20.4273 7.76245 20.4273 7.76246C20.4506 7.78567 20.469 7.81324 20.4816 7.84358L20.4238 7.86751L20.4816 7.84358C20.4941 7.87393 20.5006 7.90646 20.5006 7.93931C20.5006 7.97217 20.4941 8.0047 20.4816 8.03505L20.4238 8.01112L20.4816 8.03505C20.469 8.0654 20.4505 8.09297 20.4273 8.11619M20.4273 8.11619L20.3831 8.07197L20.4273 8.11616L20.4273 8.11619ZM3.61599 14.4266L3.61607 14.4265L15.1773 2.86617L15.1331 2.82197L15.1773 2.86616C15.2934 2.75008 15.4312 2.65799 15.5829 2.59516C15.7345 2.53234 15.8971 2.5 16.0613 2.5C16.2254 2.5 16.388 2.53234 16.5396 2.59516C16.6913 2.65799 16.8291 2.75007 16.9452 2.86616L16.9894 2.82197L16.9452 2.86616L21.1349 7.05585C21.251 7.17193 21.343 7.30973 21.4059 7.4614C21.4687 7.61306 21.501 7.77562 21.501 7.93978C21.501 8.10395 21.4687 8.2665 21.4059 8.41817C21.343 8.56983 21.251 8.70764 21.1349 8.82371L10.3142 19.6434L10.2075 19.7501H10.3584H20.25C20.3826 19.7501 20.5098 19.8028 20.6036 19.8965C20.6973 19.9903 20.75 20.1175 20.75 20.2501C20.75 20.3827 20.6973 20.5099 20.6036 20.6036C20.5098 20.6974 20.3826 20.7501 20.25 20.7501H4.5C4.16848 20.7501 3.85054 20.6184 3.61612 20.384C3.3817 20.1496 3.25 19.8316 3.25 19.5001L3.25 15.3104L3.25 15.3103C3.2497 15.1461 3.28188 14.9835 3.34469 14.8319C3.40751 14.6802 3.49971 14.5424 3.61599 14.4266ZM7.12674 17.5809L7.08255 17.6251L7.12675 17.6693L8.95581 19.4984L9 19.5425L9.04419 19.4984L17.2492 11.2943L17.2934 11.2501L17.2492 11.2059L15.4192 9.3759L15.375 9.33171L15.3308 9.3759L7.12674 17.5809ZM6.3308 16.8743L6.37499 16.9185L6.4192 16.8743L14.6242 8.66929L14.6684 8.62508L14.6242 8.58089L12.7942 6.75183L12.75 6.70766L12.7058 6.75184L4.50175 14.9559L4.45756 15.0001L4.50173 15.0443L6.3308 16.8743ZM4.3567 16.3134L4.25 16.2067V16.3576V19.5001C4.25 19.5664 4.27634 19.63 4.32322 19.6769L4.36742 19.6327L4.32323 19.6769C4.37011 19.7238 4.4337 19.7501 4.5 19.7501H7.6425H7.79339L7.6867 19.6434L4.3567 16.3134Z" fill="currentColor" stroke="currentColor" stroke-width="0.125"/>
</svg>
