<svg
  width="19"
  height="19"
  viewBox="0 0 19 19"
  fill="none"
  xmlns="http://www.w3.org/2000/svg"
>
  <path
    d="M16.25 3.89453H2.75C2.60082 3.89453 2.45774 3.95379 2.35225 4.05928C2.24676 4.16477 2.1875 4.30785 2.1875 4.45703V14.0195C2.1875 14.3179 2.30603 14.604 2.517 14.815C2.72798 15.026 3.01413 15.1445 3.3125 15.1445H15.6875C15.9859 15.1445 16.272 15.026 16.483 14.815C16.694 14.604 16.8125 14.3179 16.8125 14.0195V4.45703C16.8125 4.30785 16.7532 4.16477 16.6477 4.05928C16.5423 3.95379 16.3992 3.89453 16.25 3.89453ZM9.5 9.88164L4.19633 5.01953H14.8037L9.5 9.88164ZM7.44055 9.51953L3.3125 13.303V5.73602L7.44055 9.51953ZM8.27305 10.2824L9.1168 11.0594C9.22057 11.1546 9.35632 11.2075 9.49719 11.2075C9.63806 11.2075 9.7738 11.1546 9.87758 11.0594L10.7213 10.2824L14.7995 14.0195H4.19633L8.27305 10.2824ZM11.5595 9.51953L15.6875 5.73531V13.3038L11.5595 9.51953Z"
    fill="currentColor"
  />
</svg>
