<svg width="15" height="20" viewBox="0 0 15 20" fill="none" xmlns="http://www.w3.org/2000/svg">
<path d="M14.3971 15.7989C13.9775 15.0828 13.3282 14.6521 12.7036 14.3648C12.0784 14.0777 11.4596 13.9226 11.0877 13.782C10.7792 13.6677 10.4534 13.519 10.2264 13.3596C10.1127 13.2802 10.0252 13.1986 9.97473 13.1294C9.9232 13.0583 9.90926 13.0092 9.90871 12.9663C9.90871 12.6896 9.90871 12.5571 9.90871 12.1747C10.6981 12.0591 13.4682 11.0491 13.0588 7.92188C12.4261 3.08836 10.9621 0 7.59848 0C7.53945 0 7.48254 0.00375 7.42406 0.00539062C7.36613 0.00375 7.30926 0 7.24969 0C3.88602 0 2.42262 3.08836 1.78938 7.92188C1.34664 11.3046 4.625 12.2104 5.09133 12.1862C5.09133 12.5589 5.09133 12.6928 5.09133 12.9663C5.09133 13.0027 5.07684 13.0553 5.02051 13.1305C4.93734 13.2421 4.76559 13.3773 4.56113 13.4919C4.35777 13.6078 4.12324 13.7079 3.91824 13.7803C3.66656 13.8689 3.30488 13.9681 2.90883 14.1079C2.31426 14.3186 1.6327 14.622 1.08695 15.1667C0.540118 15.7095 0.151563 16.5054 0.154805 17.5969C0.154805 17.7359 0.160704 17.8797 0.173048 18.0289C0.181641 18.1217 0.214376 18.1988 0.253555 18.2645C0.329219 18.3868 0.431173 18.4816 0.559454 18.5782C0.783751 18.7448 1.09555 18.9082 1.50016 19.07C2.71191 19.5514 4.76129 19.9992 7.50031 20C9.72574 20 11.4972 19.7027 12.732 19.3343C13.3496 19.1494 13.8321 18.9482 14.1788 18.7485C14.3526 18.6477 14.4927 18.5486 14.6032 18.4411C14.6585 18.3868 14.7068 18.33 14.7465 18.2645C14.7863 18.1988 14.819 18.1218 14.827 18.0289C14.8394 17.8797 14.8453 17.7364 14.8453 17.598C14.8458 16.8706 14.6768 16.2749 14.3971 15.7989ZM3.89676 9.8884L3.89731 9.88867C3.89785 9.88945 3.89785 9.89 3.89785 9.89C3.89731 9.89 3.89731 9.88891 3.89676 9.8884ZM4.4543 9.61684L4.42371 9.44379L4.25844 9.38477C4.15324 9.34719 4.07328 9.30883 4.00301 9.26023C3.89996 9.18727 3.80606 9.08773 3.69656 8.88355C3.58871 8.6807 3.47387 8.37773 3.34883 7.93797C3.29356 7.74559 3.27422 7.59613 3.27422 7.48508C3.27422 7.35629 3.29891 7.28062 3.32414 7.23312C3.36223 7.16391 3.40891 7.13438 3.46852 7.11051C3.5093 7.09469 3.55274 7.08879 3.57691 7.08691L3.62844 7.09793C4.01215 8.23238 4.0057 8.46742 3.99711 8.5093C4.33785 7.56777 3.11274 5.72469 7.24969 5.99867C7.31031 5.99461 7.36563 5.99273 7.42406 5.98953C7.48254 5.99277 7.53781 5.99465 7.59848 5.99867C11.736 5.72469 10.5103 7.56777 10.8511 8.5093C10.843 8.46742 10.836 8.23402 11.2165 7.10707L11.4081 7.08668C11.4269 7.08613 11.5235 7.09551 11.5873 7.13793C11.6217 7.15996 11.6501 7.1857 11.6759 7.2332C11.7011 7.2807 11.7258 7.35609 11.7263 7.48516C11.7263 7.59625 11.7065 7.74543 11.6518 7.93805C11.4848 8.52516 11.3357 8.86648 11.1983 9.0559C11.1296 9.15145 11.0668 9.21152 10.9971 9.26035C10.9273 9.30895 10.8468 9.34731 10.7416 9.38488L10.5763 9.44391L10.5457 9.61695C10.3525 10.7002 9.79445 11.3093 9.38231 11.7684L9.30449 11.8545V11.9707C9.30449 12.5199 9.30449 12.6455 9.30449 12.9664C9.30449 13.0123 9.30934 13.0568 9.31684 13.1003L7.50031 15.1009L5.68273 13.0992C5.69024 13.0563 5.69559 13.0123 5.69559 12.9664C5.69559 12.6455 5.69559 12.5202 5.69559 11.9707V11.8545L5.61832 11.7684C5.20613 11.3091 4.64805 10.7001 4.4543 9.61684ZM4.52246 14.1866C4.71941 14.0975 4.91848 13.9931 5.09828 13.8681C5.2507 13.7613 5.39074 13.6414 5.5018 13.496C5.52758 13.4621 5.55117 13.4259 5.57375 13.3884L7.28668 15.2752C6.85363 15.5296 6.46402 15.6318 6.12488 15.6318C5.62742 15.6315 5.22816 15.4155 4.94695 15.1129C4.68934 14.8362 4.54449 14.4879 4.52246 14.1866ZM7.17777 16.0235L7.14289 15.8813C7.14449 15.8805 7.14559 15.8805 7.14719 15.8789C7.14719 15.8789 7.16324 15.9615 7.17777 16.0235ZM7.08277 15.9148C6.79027 16.4783 6.49516 16.6111 6.45703 16.6277C6.39852 16.6527 6.30625 16.6329 6.28262 16.6191C6.18281 16.5609 6.21715 16.4971 6.22465 16.4412C6.22789 16.4171 6.39051 15.9709 7.08277 15.9148ZM7.46914 19.3646C6.25098 18.0938 5.39934 16.1638 5.18684 15.654C5.45301 15.8096 5.7691 15.9068 6.12488 15.9065C6.17426 15.9065 6.22418 15.9041 6.27461 15.9004C5.76805 16.2105 5.78734 16.6404 5.9666 16.8271C6.35297 17.2286 6.89606 16.8411 7.22449 16.2116C7.04363 16.6522 6.69805 17.8247 6.69805 17.8247C6.69805 17.8247 6.88106 17.9077 7.06402 17.9077C7.14668 17.1277 7.51102 16.0506 7.51266 16.0463C7.5143 16.0506 7.87863 17.1277 7.96184 17.9077C8.1443 17.9077 8.3273 17.8247 8.3273 17.8247C8.3273 17.8247 7.98168 16.6522 7.80082 16.2116C8.12981 16.8411 8.67289 17.2286 9.05871 16.8271C9.23793 16.6409 9.25723 16.2114 8.75281 15.9014C8.79359 15.9041 8.83492 15.9066 8.87516 15.9066C9.2159 15.9068 9.5191 15.817 9.77777 15.6729C9.5116 16.2977 8.65942 18.1575 7.46914 19.3646ZM7.8475 16.0235C7.86199 15.9615 7.87859 15.8789 7.87859 15.8789C7.88023 15.8805 7.88078 15.8805 7.88234 15.8813L7.8475 16.0235ZM7.94246 15.9148C8.63473 15.9709 8.79731 16.4171 8.8011 16.4413C8.80809 16.4971 8.84293 16.5609 8.74258 16.6192C8.71895 16.6329 8.62664 16.6527 8.56816 16.6278C8.53008 16.6111 8.23602 16.4783 7.94246 15.9148ZM10.0536 15.1128C9.77242 15.4155 9.37317 15.6315 8.87516 15.6318C8.53602 15.6318 8.14641 15.5295 7.71336 15.2752L9.42469 13.3902C9.44457 13.424 9.46492 13.457 9.48746 13.4876C9.64844 13.7033 9.87168 13.863 10.1148 14.0025C10.2323 14.0688 10.3547 14.1289 10.4781 14.1847C10.4561 14.4863 10.3112 14.8357 10.0536 15.1128Z" fill="currentColor"/>
</svg>
