<svg width="30" height="31" viewBox="0 0 30 31" fill="none" xmlns="http://www.w3.org/2000/svg">
<path d="M25.038 8.6081L20.3505 3.9206C20.1746 3.74477 19.9362 3.646 19.6875 3.646H10.3125C9.81539 3.64656 9.33881 3.84429 8.9873 4.1958C8.6358 4.54731 8.43807 5.02389 8.4375 5.521V7.396H6.5625C6.06539 7.39656 5.58881 7.59429 5.2373 7.9458C4.8858 8.29731 4.68807 8.77389 4.6875 9.271V26.146C4.68807 26.6431 4.8858 27.1197 5.2373 27.4712C5.58881 27.8227 6.06539 28.0204 6.5625 28.021H19.6875C20.1846 28.0204 20.6612 27.8227 21.0127 27.4712C21.3642 27.1197 21.5619 26.6431 21.5625 26.146V24.271H23.4375C23.9346 24.2704 24.4112 24.0727 24.7627 23.7212C25.1142 23.3697 25.3119 22.8931 25.3125 22.396V9.271C25.3125 9.02237 25.2137 8.78392 25.038 8.6081ZM19.6875 26.146H6.5625V9.271H15.5492L19.6875 13.4094L19.6884 23.3153C19.6883 23.3214 19.6875 23.3274 19.6875 23.3335C19.6875 23.3397 19.6883 23.3456 19.6884 23.3518L19.6887 26.1459L19.6875 26.146ZM23.4375 22.396H21.5625V13.021C21.5625 12.7724 21.4637 12.5339 21.288 12.3581L16.6005 7.6706C16.4246 7.49477 16.1862 7.396 15.9375 7.396H10.3125V5.521H19.2992L23.4375 9.65936V22.396ZM16.875 18.646C16.875 18.8946 16.7762 19.1331 16.6004 19.3089C16.4246 19.4847 16.1861 19.5835 15.9375 19.5835H10.3125C10.0639 19.5835 9.8254 19.4847 9.64959 19.3089C9.47377 19.1331 9.375 18.8946 9.375 18.646C9.375 18.3974 9.47377 18.1589 9.64959 17.9831C9.8254 17.8073 10.0639 17.7085 10.3125 17.7085H15.9375C16.1861 17.7085 16.4246 17.8073 16.6004 17.9831C16.7762 18.1589 16.875 18.3974 16.875 18.646ZM16.875 22.396C16.875 22.6446 16.7762 22.8831 16.6004 23.0589C16.4246 23.2347 16.1861 23.3335 15.9375 23.3335H10.3125C10.0639 23.3335 9.8254 23.2347 9.64959 23.0589C9.47377 22.8831 9.375 22.6446 9.375 22.396C9.375 22.1474 9.47377 21.9089 9.64959 21.7331C9.8254 21.5573 10.0639 21.4585 10.3125 21.4585H15.9375C16.1861 21.4585 16.4246 21.5573 16.6004 21.7331C16.7762 21.9089 16.875 22.1474 16.875 22.396Z" fill="#0968B8"/>
</svg>
