<svg width="24" height="24" viewBox="0 0 24 24" fill="none" xmlns="http://www.w3.org/2000/svg">
<path d="M18.8125 5.25V5.1875H18.75H15.75C15.5677 5.1875 15.3928 5.11507 15.2639 4.98614C15.1349 4.8572 15.0625 4.68234 15.0625 4.5C15.0625 4.31766 15.1349 4.1428 15.2639 4.01386C15.3928 3.88493 15.5677 3.8125 15.75 3.8125H19.5C19.6823 3.8125 19.8572 3.88493 19.9861 4.01386C20.1151 4.1428 20.1875 4.31766 20.1875 4.5V8.25C20.1875 8.43234 20.1151 8.6072 19.9861 8.73614C19.8572 8.86507 19.6823 8.9375 19.5 8.9375C19.3177 8.9375 19.1428 8.86507 19.0139 8.73614C18.8849 8.6072 18.8125 8.43234 18.8125 8.25V5.25ZM5.1875 18.75V18.8125H5.25H8.25C8.43234 18.8125 8.6072 18.8849 8.73614 19.0139C8.86507 19.1428 8.9375 19.3177 8.9375 19.5C8.9375 19.6823 8.86507 19.8572 8.73614 19.9861C8.6072 20.1151 8.43234 20.1875 8.25 20.1875H4.5C4.31766 20.1875 4.1428 20.1151 4.01386 19.9861C3.88493 19.8572 3.8125 19.6823 3.8125 19.5V15.75C3.8125 15.5677 3.88493 15.3928 4.01386 15.2639C4.1428 15.1349 4.31766 15.0625 4.5 15.0625C4.68234 15.0625 4.8572 15.1349 4.98614 15.2639C5.11507 15.3928 5.1875 15.5677 5.1875 15.75V18.75ZM18.75 18.8125H18.8125V18.75V15.75C18.8125 15.5677 18.8849 15.3928 19.0139 15.2639C19.1428 15.1349 19.3177 15.0625 19.5 15.0625C19.6823 15.0625 19.8572 15.1349 19.9861 15.2639C20.1151 15.3928 20.1875 15.5677 20.1875 15.75V19.5C20.1875 19.6823 20.1151 19.8572 19.9861 19.9861C19.8572 20.1151 19.6823 20.1875 19.5 20.1875H15.75C15.5677 20.1875 15.3928 20.1151 15.2639 19.9861C15.1349 19.8572 15.0625 19.6823 15.0625 19.5C15.0625 19.3177 15.1349 19.1428 15.2639 19.0139C15.3928 18.8849 15.5677 18.8125 15.75 18.8125H18.75ZM5.25 5.1875H5.1875V5.25V8.25C5.1875 8.43234 5.11507 8.6072 4.98614 8.73614C4.8572 8.86507 4.68234 8.9375 4.5 8.9375C4.31766 8.9375 4.1428 8.86507 4.01386 8.73614C3.88493 8.6072 3.8125 8.43234 3.8125 8.25V4.5C3.8125 4.31766 3.88493 4.1428 4.01386 4.01386C4.1428 3.88493 4.31766 3.8125 4.5 3.8125H8.25C8.43234 3.8125 8.6072 3.88493 8.73614 4.01386C8.86507 4.1428 8.9375 4.31766 8.9375 4.5C8.9375 4.68234 8.86507 4.8572 8.73614 4.98614C8.6072 5.11507 8.43234 5.1875 8.25 5.1875H5.25Z" fill="#585B5D" stroke="#002646" stroke-width="0.125"/>
</svg>
