<svg width="20" height="21" viewBox="0 0 20 21" fill="none" xmlns="http://www.w3.org/2000/svg">
<path fill-rule="evenodd" clip-rule="evenodd" d="M7.37165 11.6694V2.97433H9.91799C10.0861 2.97433 10.2224 2.84182 10.2224 2.67835V0.202148H19.5224C19.6425 0.202148 19.7398 0.296779 19.7398 0.413566V12.9587C19.2331 12.7476 18.474 12.7087 17.399 13.0154L13.5226 14.1213C13.3225 13.7271 12.9563 13.4147 12.4883 13.2928L9.7329 12.575C8.93669 12.0322 8.29005 11.7713 7.70276 11.6941C7.59062 11.6794 7.48044 11.6713 7.37165 11.6694ZM11.8622 11.2066L13.0582 12.1907C13.1737 12.2858 13.3435 12.2838 13.4568 12.1862L15.2546 10.6349C15.3803 10.5265 15.3918 10.3393 15.2802 10.2171C15.1688 10.0949 14.9762 10.0837 14.8506 10.1921L13.2501 11.5731L12.2555 10.7547C12.1272 10.6492 11.935 10.6648 11.8265 10.7895C11.718 10.9142 11.734 11.1011 11.8622 11.2066ZM9.05317 5.01523H18.0583C18.2263 5.01523 18.3627 4.88263 18.3627 4.71924C18.3627 4.5559 18.2263 4.42326 18.0583 4.42326H9.05317C8.88516 4.42326 8.74881 4.5559 8.74881 4.71924C8.74881 4.88263 8.88516 5.01523 9.05317 5.01523ZM9.05317 7.08044H18.0583C18.2263 7.08044 18.3627 6.94779 18.3627 6.78445C18.3627 6.62107 18.2263 6.48847 18.0583 6.48847H9.05317C8.88516 6.48847 8.74881 6.62107 8.74881 6.78445C8.74881 6.94779 8.88516 7.08044 9.05317 7.08044ZM9.05317 9.14649H18.0583C18.2263 9.14649 18.3627 9.01389 18.3627 8.8505C18.3627 8.68716 18.2263 8.55452 18.0583 8.55452H9.05317C8.88516 8.55452 8.74881 8.68716 8.74881 8.8505C8.74881 9.01389 8.88516 9.14649 9.05317 9.14649ZM9.61363 0.498132V2.38237H7.67602L9.61363 0.498132ZM4.64692 19.1554C4.68179 19.2375 4.68187 19.3202 4.64818 19.4023C4.6127 19.4842 4.55213 19.5425 4.46795 19.5772L4.46739 19.5775L2.9794 20.1773C2.81126 20.2458 2.61721 20.1675 2.5476 20.0045L2.54756 20.0044C1.70773 18.0419 0.866737 16.0795 0.0269579 14.1172L0.0265665 14.1162C-0.00900041 14.0347 -0.00852215 13.953 0.0260012 13.8718C0.0609159 13.7897 0.121136 13.731 0.204923 13.697L1.6943 13.0959C1.86235 13.0281 2.05632 13.1059 2.1268 13.2693C2.21654 13.4791 4.55465 18.9398 4.64692 19.1554ZM4.80736 17.9895C4.22855 16.6375 3.64939 15.2856 3.07067 13.9337C3.82353 13.5878 4.57535 13.2396 5.32364 12.8837C6.17564 12.4783 6.83889 12.178 7.62123 12.2808C8.14313 12.3494 8.71289 12.5969 9.42558 13.0887C9.45506 13.1091 9.48806 13.1242 9.52297 13.1333L12.3308 13.8647C12.869 14.0049 13.1919 14.5482 13.0478 15.0716C12.9037 15.5948 12.3452 15.9088 11.8072 15.7678L11.8067 15.7677L8.07517 14.7959C7.9129 14.7537 7.74585 14.8475 7.70237 15.0053C7.65893 15.1632 7.75541 15.3256 7.91768 15.3679L11.6493 16.3396C12.5104 16.5654 13.4051 16.0627 13.6359 15.2248C13.685 15.0464 13.7003 14.8666 13.6855 14.6918L17.5704 13.5835C18.2377 13.3931 18.7572 13.3453 19.1511 13.4043C19.4803 13.4535 19.7093 13.5774 19.8449 13.7556C20.0046 13.9656 20.0302 14.2403 19.9704 14.5092C19.8724 14.9496 19.5448 15.3827 19.0888 15.5537L13.2774 17.7315C12.8305 17.8987 12.31 18.1071 11.781 18.2389C11.2949 18.36 10.8016 18.4195 10.3609 18.2951L7.26461 17.4216C6.73932 17.2725 6.23486 17.3139 5.74179 17.5474L4.80736 17.9895Z" fill="currentColor"/>
</svg>
