<svg width="22" height="22" viewBox="0 0 22 22" fill="none" xmlns="http://www.w3.org/2000/svg">
<path d="M21.5 11.2022C21.5 13.9869 20.3938 16.6576 18.4246 18.6268C16.4555 20.5959 13.7848 21.7022 11 21.7022C8.21523 21.7022 5.54451 20.5959 3.57538 18.6268C1.60625 16.6576 0.5 13.9869 0.5 11.2022C0.5 11.0032 0.579018 10.8125 0.71967 10.6718C0.860322 10.5312 1.05109 10.4522 1.25 10.4522C1.44891 10.4522 1.63968 10.5312 1.78033 10.6718C1.92098 10.8125 2 11.0032 2 11.2022C1.997 13.2107 2.66495 15.1627 3.89784 16.7483C5.13074 18.334 6.85792 19.4624 8.80526 19.9544C10.7526 20.4465 12.8085 20.2741 14.6466 19.4645C16.4848 18.6549 17.9999 17.2545 18.9514 15.4856C19.9029 13.7168 20.2363 11.6808 19.8988 9.70081C19.5612 7.72083 18.572 5.91033 17.0881 4.55667C15.6043 3.20301 13.7108 2.38376 11.7082 2.22895C9.70564 2.07414 7.70874 2.59264 6.03445 3.70215H6.5C6.69891 3.70215 6.88968 3.78117 7.03033 3.92182C7.17098 4.06248 7.25 4.25324 7.25 4.45215C7.25 4.65107 7.17098 4.84183 7.03033 4.98248C6.88968 5.12314 6.69891 5.20215 6.5 5.20215H4.25C4.15149 5.20221 4.05394 5.18285 3.96292 5.14518C3.8719 5.10751 3.7892 5.05226 3.71954 4.98261C3.64989 4.91295 3.59465 4.83025 3.55698 4.73923C3.5193 4.64821 3.49994 4.55066 3.5 4.45215V2.20215C3.5 2.00324 3.57902 1.81248 3.71967 1.67182C3.86032 1.53117 4.05109 1.45215 4.25 1.45215C4.44891 1.45215 4.63968 1.53117 4.78033 1.67182C4.92098 1.81248 5 2.00324 5 2.20215V2.58759C6.57408 1.49048 8.41875 0.845755 10.3336 0.723487C12.2484 0.60122 14.16 1.00608 15.8609 1.89408C17.5617 2.78208 18.9867 4.11926 19.9809 5.76029C20.975 7.40133 21.5005 9.28345 21.5 11.2022ZM17.75 11.2022C17.75 12.5372 17.3541 13.8422 16.6124 14.9523C15.8707 16.0623 14.8165 16.9275 13.5831 17.4383C12.3497 17.9492 10.9925 18.0829 9.68314 17.8225C8.37377 17.562 7.17103 16.9191 6.22703 15.9751C5.28302 15.0311 4.64015 13.8284 4.3797 12.519C4.11925 11.2096 4.25292 9.85244 4.76381 8.61904C5.2747 7.38564 6.13987 6.33143 7.2499 5.58973C8.35993 4.84803 9.66498 4.45215 11 4.45215C12.7896 4.45411 14.5054 5.16589 15.7708 6.43134C17.0363 7.69679 17.748 9.41254 17.75 11.2022ZM13.666 12.0782L11.75 10.8008V7.45215C11.75 7.25324 11.671 7.06248 11.5303 6.92182C11.3897 6.78117 11.1989 6.70215 11 6.70215C10.8011 6.70215 10.6103 6.78117 10.4697 6.92182C10.329 7.06248 10.25 7.25324 10.25 7.45215V11.2022C10.25 11.3256 10.2805 11.4472 10.3388 11.556C10.397 11.6649 10.4813 11.7577 10.584 11.8262L12.834 13.3262C12.9995 13.4342 13.201 13.4725 13.3946 13.4328C13.5882 13.3931 13.7583 13.2786 13.8679 13.1141C13.9776 12.9497 14.0179 12.7486 13.9801 12.5546C13.9423 12.3606 13.8294 12.1894 13.666 12.0782Z" fill="currentColor"/>
</svg>
