<svg width="20" height="21" viewBox="0 0 20 21" fill="none" xmlns="http://www.w3.org/2000/svg">
<path d="M11.2582 0.701587C10.9126 0.380335 10.4651 0.202642 10.0014 0.202149C9.53769 0.201828 9.09003 0.378894 8.74378 0.699493L0.646674 8.12126C0.257057 8.47652 0.0241178 8.9819 0.00175099 9.52013C-0.0204775 10.0584 0.1697 10.5827 0.528597 10.9715C0.887339 11.3604 1.38332 11.5801 1.90182 11.5798H2.04708C2.14217 11.5809 2.21889 11.6606 2.21997 11.7594V18.9447C2.22043 19.2781 2.34794 19.5976 2.57486 19.8334C2.80177 20.0692 3.10925 20.2017 3.43021 20.2021H6.5422C6.86313 20.2017 7.17061 20.0692 7.39756 19.8334C7.62447 19.5977 7.75198 19.2782 7.75244 18.9447V15.3521C7.75244 14.5178 8.18081 13.7469 8.87624 13.3298C9.57166 12.9126 10.4284 12.9126 11.1238 13.3298C11.8192 13.7469 12.2476 14.5178 12.2476 15.3521V18.9447C12.248 19.2781 12.3756 19.5976 12.6025 19.8334C12.8294 20.0692 13.1369 20.2017 13.4578 20.2021H16.5698C16.8907 20.2017 17.1982 20.0692 17.4252 19.8334C17.6521 19.5977 17.7796 19.2782 17.7801 18.9447V11.7594C17.7811 11.6606 17.8579 11.5809 17.9529 11.5798H18.0982C18.6165 11.5801 19.1125 11.3606 19.4713 10.9718C19.83 10.583 20.0204 10.0589 19.9983 9.52075C19.976 8.98267 19.7434 8.47745 19.3539 8.12188L11.2582 0.701587Z" fill="currentColor"/>
</svg>
