<svg width="54" height="54" viewBox="0 0 54 54" fill="none" xmlns="http://www.w3.org/2000/svg">
<path fill-rule="evenodd" clip-rule="evenodd" d="M11.425 12.1202H3.22966H1.58276C1.2923 12.1202 1.05542 12.357 1.05542 12.6475V14.5902C1.05542 14.8807 1.2922 15.1176 1.58276 15.1176H3.22966V47.7614H1.58276C1.2923 47.7614 1.05542 47.9983 1.05542 48.2888V50.7305C1.05542 51.0209 1.2923 51.2578 1.58276 51.2578H3.22966H50.7719H52.4187C52.7092 51.2578 52.946 51.0209 52.946 50.7305V48.2887C52.946 47.9982 52.7092 47.7613 52.4187 47.7613H50.7718V17.2268H42.5765V47.7614H40.4671V7.84888H13.5344V47.7614H11.425V15.1175V12.1202ZM28.6103 33.1716H33.9677C34.2581 33.1716 34.495 33.4085 34.495 33.699V47.7614H28.6104V33.1716H28.6103ZM26.5008 47.7614H20.6162V33.699C20.6162 33.4086 20.8531 33.1716 21.1435 33.1716H26.5008V47.7614ZM12.4054 2.74219H41.5961C41.8866 2.74219 42.1235 2.97907 42.1235 3.26953V5.21227C42.1235 5.50273 41.8866 5.73961 41.5961 5.73961H12.4054C12.115 5.73961 11.8781 5.50273 11.8781 5.21227V3.26953C11.8781 2.97907 12.115 2.74219 12.4054 2.74219ZM29.106 11.0214C29.3963 11.0214 29.6333 11.2583 29.6333 11.5487V14.9807H33.0653C33.3558 14.9807 33.5926 15.2176 33.5926 15.508V19.7184C33.5926 20.0089 33.3558 20.2458 33.0653 20.2458H29.6333V23.6777C29.6333 23.9682 29.3965 24.2051 29.106 24.2051H24.8956C24.6051 24.2051 24.3682 23.9682 24.3682 23.6777V20.2458H20.9363C20.6458 20.2458 20.4089 20.0089 20.4089 19.7184V15.508C20.4089 15.2176 20.6458 14.9807 20.9363 14.9807H24.3682V11.5487C24.3682 11.2584 24.6051 11.0214 24.8956 11.0214H29.106ZM42.5765 15.1175V12.1202H52.4187C52.7092 12.1202 52.946 12.357 52.946 12.6475V14.5902C52.946 14.8807 52.7092 15.1176 52.4187 15.1176H42.5765V15.1175Z" fill="white"/>
</svg>
