<svg width="24" height="24" viewBox="0 0 24 24" fill="none" xmlns="http://www.w3.org/2000/svg">
<path fill-rule="evenodd" clip-rule="evenodd" d="M5.99671 7.47936C5.99671 6.92708 5.54899 6.47936 4.99671 6.47936H2.83801H2.20325C2.0913 6.47936 2 6.56725 2 6.67501V7.3958C2 7.50356 2.09126 7.59145 2.20325 7.59145C2.55382 7.59145 2.83801 7.87564 2.83801 8.2262V19.068C2.83801 19.4186 2.55382 19.7028 2.20325 19.7028C2.0913 19.7028 2 19.7907 2 19.8984V20.8043C2 20.9121 2.0913 21 2.20325 21H2.83801H21.162H21.7967C21.9087 21 22 20.9121 22 20.8043V19.8984C22 19.7906 21.9087 19.7027 21.7967 19.7027C21.4462 19.7027 21.162 19.4186 21.162 19.068V9.37402C21.162 8.82173 20.7143 8.37402 20.162 8.37402H19.0033C18.451 8.37402 18.0033 8.82173 18.0033 9.37402V19.2963C18.0033 19.5208 17.8213 19.7028 17.5968 19.7028C17.3723 19.7028 17.1903 19.5208 17.1903 19.2963V5.89466C17.1903 5.34237 16.7426 4.89466 16.1903 4.89466H7.80972C7.25743 4.89466 6.80972 5.34237 6.80972 5.89466V19.2963C6.80972 19.5208 6.62772 19.7028 6.40321 19.7028C6.17871 19.7028 5.99671 19.5208 5.99671 19.2963V7.59141V7.47936ZM12.6204 15.2898C12.6204 14.7375 13.0681 14.2898 13.6204 14.2898H14.6852C14.7972 14.2898 14.8885 14.3776 14.8885 14.4854V18.7028C14.8885 19.2551 14.4408 19.7028 13.8885 19.7028H13.6204C13.0681 19.7028 12.6204 19.2551 12.6204 18.7028L12.6204 15.2898ZM11.8073 18.7028C11.8073 19.2551 11.3596 19.7028 10.8073 19.7028H10.5392C9.98694 19.7028 9.53923 19.2551 9.53923 18.7028V14.4854C9.53923 14.3777 9.63053 14.2898 9.74248 14.2898H10.8073C11.3596 14.2898 11.8073 14.7375 11.8073 15.2898V18.7028ZM6.37459 3H17.6254C17.7374 3 17.8287 3.08789 17.8287 3.19565V3.91643C17.8287 4.0242 17.7374 4.11209 17.6254 4.11209H6.37459C6.26264 4.11209 6.17134 4.0242 6.17134 3.91643V3.19565C6.17134 3.08789 6.26264 3 6.37459 3ZM12.8114 6.0717C12.9233 6.0717 13.0147 6.15959 13.0147 6.26735V6.54066C13.0147 7.09294 13.4624 7.54066 14.0147 7.54066H14.3374C14.4494 7.54066 14.5407 7.62854 14.5407 7.73631V9.29844C14.5407 9.4062 14.4494 9.49409 14.3374 9.49409H14.0147C13.4624 9.49409 13.0147 9.9418 13.0147 10.4941V10.7674C13.0147 10.8752 12.9234 10.963 12.8114 10.963H11.1886C11.0767 10.963 10.9854 10.8752 10.9854 10.7674V10.4941C10.9854 9.9418 10.5377 9.49409 9.98536 9.49409H9.6626C9.55065 9.49409 9.45935 9.4062 9.45935 9.29844V7.73631C9.45935 7.62854 9.55065 7.54066 9.6626 7.54066H9.98537C10.5377 7.54066 10.9854 7.09294 10.9854 6.54066V6.26735C10.9854 6.15963 11.0767 6.0717 11.1886 6.0717H12.8114ZM18.5593 7.59141C18.2522 7.59141 18.0033 7.34247 18.0033 7.03539C18.0033 6.7283 18.2522 6.47936 18.5593 6.47936H21.7967C21.9087 6.47936 22 6.56725 22 6.67501V7.3958C22 7.50356 21.9087 7.59145 21.7967 7.59145L18.5593 7.59141Z" fill="currentColor"/>
</svg>
