<svg
  width="18"
  height="18"
  viewBox="0 0 18 18"
  fill="none"
  xmlns="http://www.w3.org/2000/svg"
>
  <path
    d="M3.375 3.3125H3.3125V3.375V14.625V14.6875H3.375H7.3125C7.44511 14.6875 7.57229 14.7402 7.66605 14.8339C7.75982 14.9277 7.8125 15.0549 7.8125 15.1875C7.8125 15.3201 7.75982 15.4473 7.66605 15.5411C7.57229 15.6348 7.44511 15.6875 7.3125 15.6875H3.375C3.09321 15.6875 2.82296 15.5756 2.6237 15.3763C2.42444 15.177 2.3125 14.9068 2.3125 14.625V3.375C2.3125 3.09321 2.42444 2.82296 2.6237 2.6237C2.82296 2.42444 3.09321 2.3125 3.375 2.3125H7.3125C7.44511 2.3125 7.57229 2.36518 7.66605 2.45895C7.75982 2.55271 7.8125 2.67989 7.8125 2.8125C7.8125 2.94511 7.75982 3.07229 7.66605 3.16605C7.57229 3.25982 7.44511 3.3125 7.3125 3.3125H3.375ZM15.5413 8.64622C15.5878 8.69266 15.6247 8.74783 15.6498 8.80853C15.675 8.86923 15.6879 8.93429 15.6879 9C15.6879 9.06571 15.675 9.13077 15.6498 9.19147C15.6247 9.25217 15.5878 9.30731 15.5413 9.35375L12.7288 12.1663C12.6349 12.2601 12.5077 12.3128 12.375 12.3128C12.2423 12.3128 12.1151 12.2601 12.0212 12.1663C11.9274 12.0724 11.8747 11.9452 11.8747 11.8125C11.8747 11.6798 11.9274 11.5526 12.0212 11.4587L13.874 9.6067L13.9807 9.5H13.8298H7.3125C7.17989 9.5 7.05271 9.44732 6.95895 9.35355C6.86518 9.25979 6.8125 9.13261 6.8125 9C6.8125 8.86739 6.86518 8.74021 6.95895 8.64645C7.05271 8.55268 7.17989 8.5 7.3125 8.5H13.8298H13.9807L13.874 8.3933L12.0212 6.54128C11.9274 6.44745 11.8747 6.32019 11.8747 6.1875C11.8747 6.05481 11.9274 5.92755 12.0212 5.83373C12.1151 5.7399 12.2423 5.68719 12.375 5.68719C12.5077 5.68719 12.6349 5.7399 12.7288 5.83373L15.5413 8.64622Z"
    fill="currentColor"
    stroke="currentColor"
    stroke-width="0.125"
  />
</svg>
