<svg width="21" height="21" viewBox="0 0 21 21" fill="none" xmlns="http://www.w3.org/2000/svg">
<g clip-path="url(#clip0_8026_35456)">
<path d="M19.9506 15.9244L19.955 15.92C18.1278 14.4347 15.9425 13.3772 13.5516 12.8819C14.3669 12.0872 14.875 10.9788 14.875 9.75C15.3928 9.75 15.8125 9.33031 15.8125 8.8125V8.1875C15.8125 7.91062 15.6903 7.66469 15.5 7.49312V4.75C15.5 2.67906 13.8209 1 11.75 1H9.25C7.17906 1 5.5 2.67906 5.5 4.75V7.49312C5.30969 7.66469 5.1875 7.91062 5.1875 8.1875V8.8125C5.1875 9.33031 5.60719 9.75 6.125 9.75C6.125 10.9788 6.63312 12.0872 7.44875 12.8819C5.0575 13.3775 2.87188 14.4347 1.045 15.92L1.04937 15.9244C0.71 16.2638 0.5 16.7325 0.5 17.25V19.75C0.5 20.4409 1.05906 21 1.75 21H19.25C19.9409 21 20.5 20.4409 20.5 19.75V17.25C20.5 16.7325 20.29 16.2638 19.9506 15.9244ZM6.75 9.75V9.4375C6.75 9.26469 6.61031 9.125 6.4375 9.125H6.125C5.95219 9.125 5.8125 8.98531 5.8125 8.8125V8.1875C5.8125 8.01469 5.95219 7.875 6.125 7.875H6.4375C6.61031 7.875 6.75 7.73531 6.75 7.5625V7.25V6.9375C6.75 6.24719 7.30969 5.6875 8 5.6875C8.6525 5.6875 9.22688 5.35375 9.5625 4.84781C9.89812 5.35375 10.4725 5.6875 11.125 5.6875H13C13.6903 5.6875 14.25 6.24719 14.25 6.9375V7.25V7.5625C14.25 7.73531 14.3897 7.875 14.5625 7.875H14.875C15.0478 7.875 15.1875 8.01469 15.1875 8.1875V8.8125C15.1875 8.98531 15.0478 9.125 14.875 9.125H14.5625C14.3897 9.125 14.25 9.26469 14.25 9.4375V9.75C14.25 11.8209 12.5709 13.5 10.5 13.5C8.42906 13.5 6.75 11.8209 6.75 9.75ZM8.08906 13.3994C8.78063 13.8572 9.60844 14.125 10.5 14.125C11.3916 14.125 12.2194 13.8572 12.9109 13.3994C13.4297 13.4872 13.9412 13.5963 14.4397 13.7381C13.4234 14.7447 12.0347 15.375 10.4916 15.375C8.95031 15.375 7.56312 14.7466 6.5475 13.7419C7.05 13.5984 7.56563 13.4878 8.08906 13.3994Z" fill="currentColor"/>
<path d="M8.16782 7.83187C8.31626 7.91156 8.50313 7.85312 8.58813 7.70812C8.59688 7.69344 8.68126 7.5625 8.93688 7.5625C9.18938 7.5625 9.27938 7.69875 9.28407 7.70563C9.33969 7.81344 9.44907 7.875 9.56219 7.875C9.61032 7.875 9.65938 7.86406 9.70501 7.84031C9.85844 7.76125 9.91876 7.57281 9.83969 7.41937C9.74751 7.24031 9.45344 6.9375 8.93688 6.9375C8.40844 6.9375 8.11876 7.24469 8.03063 7.42625C7.95751 7.57719 8.01969 7.75281 8.16782 7.83187Z" fill="currentColor"/>
<path d="M11.2934 7.83187C11.4419 7.91156 11.6287 7.85312 11.7137 7.70812C11.7225 7.69344 11.8069 7.5625 12.0625 7.5625C12.315 7.5625 12.405 7.69875 12.4097 7.70563C12.4653 7.81344 12.5747 7.875 12.6878 7.875C12.7359 7.875 12.785 7.86406 12.8306 7.84031C12.9841 7.76125 13.0444 7.57281 12.9653 7.41937C12.8731 7.24031 12.5791 6.9375 12.0625 6.9375C11.5341 6.9375 11.2444 7.24469 11.1562 7.42625C11.0831 7.57719 11.1453 7.75281 11.2934 7.83187Z" fill="currentColor"/>
</g>
<defs>
<clipPath id="clip0_8026_35456">
<rect width="20" height="20" fill="white" transform="translate(0.5 0.75)"/>
</clipPath>
</defs>
</svg>
