<svg
  width="15"
  height="15"
  viewBox="0 0 15 15"
  fill="none"
  xmlns="http://www.w3.org/2000/svg"
>
  <path
    d="M13.6875 0.894531H1.31252C1.01415 0.894531 0.728003 1.01306 0.517024 1.22404C0.306046 1.43501 0.18752 1.72116 0.18752 2.01953V13.2695C0.186248 13.484 0.246868 13.6942 0.362106 13.875C0.477344 14.0559 0.642307 14.1996 0.837207 14.2891C0.986141 14.3582 1.14832 14.3942 1.31252 14.3945C1.57662 14.3939 1.83195 14.2997 2.03322 14.1287C2.03658 14.1266 2.03965 14.124 2.04236 14.121L4.3008 12.1445H13.6875C13.9859 12.1445 14.272 12.026 14.483 11.815C14.694 11.604 14.8125 11.3179 14.8125 11.0195V2.01953C14.8125 1.72116 14.694 1.43501 14.483 1.22404C14.272 1.01306 13.9859 0.894531 13.6875 0.894531ZM13.6875 11.0195H4.3008C4.03588 11.0194 3.77941 11.1128 3.57658 11.2832L3.56814 11.2909L1.31252 13.2695V2.01953H13.6875V11.0195ZM4.68752 5.39453C4.68752 5.24535 4.74678 5.10227 4.85227 4.99678C4.95776 4.89129 5.10084 4.83203 5.25002 4.83203H9.75002C9.8992 4.83203 10.0423 4.89129 10.1478 4.99678C10.2533 5.10227 10.3125 5.24535 10.3125 5.39453C10.3125 5.54372 10.2533 5.68679 10.1478 5.79228C10.0423 5.89777 9.8992 5.95703 9.75002 5.95703H5.25002C5.10084 5.95703 4.95776 5.89777 4.85227 5.79228C4.74678 5.68679 4.68752 5.54372 4.68752 5.39453ZM4.68752 7.64453C4.68752 7.49535 4.74678 7.35227 4.85227 7.24678C4.95776 7.14129 5.10084 7.08203 5.25002 7.08203H9.75002C9.8992 7.08203 10.0423 7.14129 10.1478 7.24678C10.2533 7.35227 10.3125 7.49535 10.3125 7.64453C10.3125 7.79372 10.2533 7.93679 10.1478 8.04228C10.0423 8.14777 9.8992 8.20703 9.75002 8.20703H5.25002C5.10084 8.20703 4.95776 8.14777 4.85227 8.04228C4.74678 7.93679 4.68752 7.79372 4.68752 7.64453Z"
    fill="currentColor"
  />
</svg>
