<svg width="10" height="10" viewBox="0 0 10 10" fill="none" xmlns="http://www.w3.org/2000/svg">
<path d="M5.97965 5.00063L9.40965 1.57063C9.53745 1.44023 9.60861 1.26466 9.60769 1.08208C9.60677 0.899498 9.53383 0.724658 9.40473 0.595553C9.27562 0.466448 9.10078 0.393509 8.9182 0.392587C8.73562 0.391665 8.56005 0.462834 8.42965 0.590628L4.99965 4.02063L1.56965 0.590628C1.43925 0.462834 1.26368 0.391665 1.0811 0.392587C0.898521 0.393509 0.723682 0.466448 0.594577 0.595553C0.465471 0.724658 0.392533 0.899498 0.39161 1.08208C0.390688 1.26466 0.461857 1.44023 0.589652 1.57063L4.01965 5.00063L0.589652 8.43063C0.461857 8.56103 0.390688 8.7366 0.39161 8.91918C0.392533 9.10176 0.465471 9.2766 0.594577 9.4057C0.723682 9.53481 0.898521 9.60775 1.0811 9.60867C1.26368 9.60959 1.43925 9.53842 1.56965 9.41063L4.99965 5.98063L8.42965 9.41063C8.56005 9.53842 8.73562 9.60959 8.9182 9.60867C9.10078 9.60775 9.27562 9.53481 9.40473 9.4057C9.53383 9.2766 9.60677 9.10176 9.60769 8.91918C9.60861 8.7366 9.53745 8.56103 9.40965 8.43063L5.97965 5.00063Z" fill="currentColor"/>
</svg>
