<svg
  width="101"
  height="100"
  viewBox="0 0 101 100"
  fill="none"
  xmlns="http://www.w3.org/2000/svg"
>
  <path
    d="M0.635254 50.0001C0.635254 22.3163 23.0754 0 50.6353 0C78.1538 0 100.635 22.306 100.635 50.0001C100.635 61.7466 96.5787 72.5538 89.7971 81.0798C80.435 92.8985 66.1286 99.9898 50.6456 99.9898C35.0696 99.9898 20.8458 92.8469 11.4837 81.0798C4.6815 72.5538 0.635254 61.7466 0.635254 50.0001Z"
    fill="#D6DCE8"
  />
  <path
    d="M6.44926 89.5391C6.99633 88.3417 6.44926 86.9173 5.24158 86.3702C4.04422 85.8232 2.61978 86.3599 2.08303 87.5573C1.53596 88.7546 2.06239 90.1894 3.27007 90.7365C4.4571 91.2835 5.90219 90.7468 6.44926 89.5391Z"
    fill="#D6DCE8"
  />
  <path
    d="M9.97817 94.2371C10.3291 93.4733 9.97817 92.5649 9.21434 92.214C8.45051 91.863 7.5525 92.2037 7.20155 92.9675C6.8506 93.7313 7.19122 94.6397 7.95505 94.9906C8.71888 95.3416 9.62722 95.001 9.97817 94.2371Z"
    fill="#D6DCE8"
  />
  <path
    d="M94.8439 6.37731C95.7006 5.37606 95.5767 3.85872 94.5755 2.99166C93.5742 2.13493 92.0672 2.24847 91.2002 3.24972C90.3434 4.25096 90.4467 5.77863 91.4479 6.63536C92.4491 7.49209 93.9871 7.37855 94.8439 6.37731Z"
    fill="#D6DCE8"
  />
  <path
    d="M96.9146 11.8749C97.4617 11.2349 97.3791 10.2647 96.7391 9.71759C96.0992 9.17052 95.1392 9.24278 94.5921 9.88275C94.0451 10.5227 94.107 11.493 94.747 12.0401C95.3869 12.5871 96.3675 12.5149 96.9146 11.8749Z"
    fill="#D6DCE8"
  />
  <path
    d="M9.46007 11.1136C10.3168 10.1124 10.1929 8.59505 9.19169 7.72799C8.19046 6.87126 6.68344 6.9848 5.81639 7.98604C4.95966 8.98729 5.06288 10.515 6.06412 11.3717C7.06535 12.2284 8.60334 12.1149 9.46007 11.1136Z"
    fill="#D6DCE8"
  />
  <path
    d="M89.5308 24.7626V92.5166C89.5308 96.6455 86.1865 99.9898 82.0577 99.9898H20.5691C16.4403 99.9898 13.0959 96.6455 13.0959 92.5166V7.47317C13.0959 3.34435 16.4403 0 20.5691 0H63.2199C63.6121 0 63.994 0.0309661 64.3656 0.0825764C65.8107 0.309662 67.1732 0.959952 68.2674 1.96119L87.1052 19.2506C88.2303 20.2828 89.0044 21.6247 89.3347 23.0905C89.4689 23.6375 89.5308 24.1949 89.5308 24.7626Z"
    fill="#F9F9F9"
  />
  <path
    d="M89.3446 23.0855H67.9883C65.9858 23.0855 64.3652 21.465 64.3652 19.4625V0.0776367C65.8103 0.304722 67.1728 0.955012 68.267 1.95625L87.1047 19.2457C88.2401 20.2779 89.0143 21.6301 89.3446 23.0855Z"
    fill="url(#paint0_linear_3737_10197)"
  />
  <path
    d="M53.5148 11.158V8.43299C53.5148 8.27816 53.3909 8.1543 53.2361 8.1543H26.9149C26.7601 8.1543 26.6362 8.27816 26.6362 8.43299V11.158C26.6362 11.3128 26.7601 11.4367 26.9149 11.4367H53.2258C53.3909 11.447 53.5148 11.3232 53.5148 11.158Z"
    fill="#E0E4ED"
  />
  <path
    d="M42.7489 18.9588V16.2338C42.7489 16.0789 42.6251 15.9551 42.4702 15.9551H26.9149C26.7601 15.9551 26.6362 16.0789 26.6362 16.2338V18.9588C26.6362 19.1136 26.7601 19.2375 26.9149 19.2375H42.4599C42.6251 19.2478 42.7489 19.1136 42.7489 18.9588Z"
    fill="#E0E4ED"
  />
  <path
    d="M59.5842 85.7909V87.9895C59.5842 88.2991 59.3261 88.5572 59.0165 88.5572H27.2039C26.8943 88.5572 26.6362 88.2991 26.6362 87.9895V85.7909C26.6362 85.4812 26.8943 85.2231 27.2039 85.2231H59.0165C59.3364 85.2231 59.5842 85.4709 59.5842 85.7909Z"
    fill="#E0E4ED"
  />
  <path
    d="M52.6454 69.7914C63.0948 69.7914 71.5658 61.3205 71.5658 50.871C71.5658 40.4216 63.0948 31.9507 52.6454 31.9507C42.196 31.9507 33.7251 40.4216 33.7251 50.871C33.7251 61.3205 42.196 69.7914 52.6454 69.7914Z"
    fill="url(#paint1_linear_3737_10197)"
  />
  <path
    d="M35.3474 33.5779C25.7995 43.1258 25.7995 58.6089 35.3474 68.1568C44.8953 77.7047 60.3784 77.7047 69.9263 68.1568C79.4742 58.6089 79.4742 43.1258 69.9263 33.5779C60.3784 24.03 44.9057 24.03 35.3474 33.5779ZM65.1369 63.357C58.2418 70.2522 47.0527 70.2522 40.1575 63.357C33.2624 56.4619 33.2624 45.2728 40.1575 38.3777C47.0527 31.4825 58.2418 31.4825 65.1369 38.3777C72.032 45.2728 72.032 56.4619 65.1369 63.357Z"
    fill="url(#paint2_linear_3737_10197)"
  />
  <path
    d="M77.4385 71.0412L72.8039 75.6654L67.457 70.3186C69.2427 68.9768 70.8427 67.3459 72.0916 65.6943L77.4385 71.0412Z"
    fill="url(#paint3_linear_3737_10197)"
  />
  <path
    d="M80.8953 70.2571L91.2483 80.6101C93.705 83.0668 93.705 87.0408 91.2483 89.4871C88.7917 91.9438 84.8177 91.9438 82.3714 89.4871L72.0183 79.1341C71.2751 78.3909 71.2751 77.2039 72.0183 76.4607L78.2219 70.2571C78.9651 69.5139 80.1624 69.5139 80.8953 70.2571Z"
    fill="url(#paint4_linear_3737_10197)"
  />
  <path
    d="M73.235 29.3362C73.235 29.9762 72.7189 30.4923 72.0789 30.4923C71.439 30.4923 70.9229 29.9762 70.9229 29.3362C70.9229 28.6963 71.439 28.1802 72.0789 28.1802C72.7189 28.1802 73.235 28.6963 73.235 29.3362Z"
    fill="#989FB0"
  />
  <path
    d="M77.2389 29.3362C77.2389 29.9762 76.7228 30.4923 76.0828 30.4923C75.4429 30.4923 74.9268 29.9762 74.9268 29.3362C74.9268 28.6963 75.4429 28.1802 76.0828 28.1802C76.7228 28.1802 77.2389 28.6963 77.2389 29.3362Z"
    fill="#989FB0"
  />
  <path
    d="M81.2428 29.3362C81.2428 29.9762 80.7267 30.4923 80.0867 30.4923C79.4468 30.4923 78.9307 29.9762 78.9307 29.3362C78.9307 28.6963 79.4468 28.1802 80.0867 28.1802C80.7267 28.1802 81.2428 28.6963 81.2428 29.3362Z"
    fill="#989FB0"
  />
  <defs>
    <linearGradient
      id="paint0_linear_3737_10197"
      x1="64.3732"
      y1="11.5843"
      x2="89.3398"
      y2="11.5843"
      gradientUnits="userSpaceOnUse"
    >
      <stop stop-color="#D6DCE8" />
      <stop offset="1" stop-color="white" />
    </linearGradient>
    <linearGradient
      id="paint1_linear_3737_10197"
      x1="33.7157"
      y1="50.8729"
      x2="71.5642"
      y2="50.8729"
      gradientUnits="userSpaceOnUse"
    >
      <stop stop-color="#D6DCE8" />
      <stop offset="1" stop-color="white" />
    </linearGradient>
    <linearGradient
      id="paint2_linear_3737_10197"
      x1="28.1896"
      y1="50.8685"
      x2="77.0957"
      y2="50.8685"
      gradientUnits="userSpaceOnUse"
    >
      <stop stop-color="#989FB0" />
      <stop offset="1" stop-color="#AAB2C5" />
    </linearGradient>
    <linearGradient
      id="paint3_linear_3737_10197"
      x1="67.4576"
      y1="70.6786"
      x2="77.4334"
      y2="70.6786"
      gradientUnits="userSpaceOnUse"
    >
      <stop stop-color="#989FB0" />
      <stop offset="1" stop-color="#AAB2C5" />
    </linearGradient>
    <linearGradient
      id="paint4_linear_3737_10197"
      x1="71.4659"
      y1="80.511"
      x2="93.0877"
      y2="80.511"
      gradientUnits="userSpaceOnUse"
    >
      <stop stop-color="#989FB0" />
      <stop offset="1" stop-color="#AAB2C5" />
    </linearGradient>
  </defs>
</svg>
