<svg width="28" height="28" viewBox="0 0 28 28" fill="none" xmlns="http://www.w3.org/2000/svg">
<path d="M23.7713 18.9941C23.1932 17.9982 22.3338 15.1805 22.3338 11.5003C22.3338 9.29019 21.4559 7.17057 19.8931 5.60777C18.3303 4.04497 16.2106 3.16699 14.0005 3.16699C11.7904 3.16699 9.67075 4.04497 8.10794 5.60777C6.54514 7.17057 5.66717 9.29019 5.66717 11.5003C5.66717 15.1816 4.80675 17.9982 4.22863 18.9941C4.08099 19.2472 4.00272 19.5349 4.00172 19.8279C4.00071 20.121 4.077 20.4092 4.2229 20.6633C4.36879 20.9175 4.57913 21.1287 4.83269 21.2757C5.08626 21.4226 5.3741 21.5001 5.66717 21.5003H9.91821C10.1105 22.4411 10.6218 23.2866 11.3656 23.8938C12.1095 24.5011 13.0403 24.8327 14.0005 24.8327C14.9607 24.8327 15.8915 24.5011 16.6354 23.8938C17.3792 23.2866 17.8905 22.4411 18.0828 21.5003H22.3338C22.6268 21.4999 22.9145 21.4223 23.1679 21.2753C23.4214 21.1283 23.6316 20.917 23.7773 20.6629C23.9231 20.4087 23.9993 20.1207 23.9982 19.8277C23.9972 19.5347 23.9189 19.2472 23.7713 18.9941ZM14.0005 23.167C13.4836 23.1668 12.9795 23.0065 12.5576 22.708C12.1356 22.4095 11.8165 21.9876 11.6443 21.5003H16.3568C16.1845 21.9876 15.8654 22.4095 15.4434 22.708C15.0215 23.0065 14.5174 23.1668 14.0005 23.167ZM5.66717 19.8337C6.46925 18.4545 7.33383 15.2587 7.33383 11.5003C7.33383 9.73222 8.03621 8.03652 9.28646 6.78628C10.5367 5.53604 12.2324 4.83366 14.0005 4.83366C15.7686 4.83366 17.4643 5.53604 18.7145 6.78628C19.9648 8.03652 20.6672 9.73222 20.6672 11.5003C20.6672 15.2555 21.5297 18.4514 22.3338 19.8337H5.66717Z" fill="#002646"/>
<circle cx="19.0018" cy="5.66634" r="2.91667" fill="#DC1010" stroke="white" stroke-width="0.833333"/>
</svg>
