<svg width="50" height="102" viewBox="0 0 50 102" fill="none" xmlns="http://www.w3.org/2000/svg">
<g clip-path="url(#clip0_3945_27713)">
<path d="M2.65252 101.214H47.3475C48.8126 101.214 50 100.027 50 98.5615C50 97.0965 48.8126 95.909 47.3475 95.909H2.65252C1.18744 95.909 0 97.0965 0 98.5615C0 100.027 1.18744 101.214 2.65252 101.214Z" fill="#478ECA"/>
<path d="M25.9852 30.7963C21.2151 30.7963 17.3481 26.9294 17.3481 22.1592V9.32723C17.3481 4.55712 21.2151 0.690186 25.9852 0.690186C30.7553 0.690186 34.6222 4.55712 34.6222 9.32723V22.1592C34.6222 26.9294 30.7553 30.7963 25.9852 30.7963Z" fill="#333333"/>
<path d="M17.8647 73.783V94.6172L25.4567 94.5509V73.783H17.8647Z" fill="#009688"/>
<path d="M24.3439 76.5329C25.8262 75.0506 25.8263 72.6473 24.3439 71.165C22.8616 69.6827 20.4583 69.6827 18.976 71.165C17.4937 72.6473 17.4936 75.0506 18.976 76.5329C20.4583 78.0153 22.8616 78.0153 24.3439 76.5329Z" fill="#009688"/>
<path d="M22.7553 98.2489C24.763 97.6458 25.9016 95.5293 25.2985 93.5216C24.6953 91.514 22.5789 90.3754 20.5712 90.9785C18.5636 91.5816 17.425 93.6981 18.0281 95.7057C18.6312 97.7134 20.7476 98.852 22.7553 98.2489Z" fill="#009688"/>
<path d="M17.8647 53.0151V73.8494L25.4567 73.783V53.0151H17.8647Z" fill="#009688"/>
<path d="M25.4079 53.6863C25.7408 51.6166 24.3329 49.6689 22.2631 49.336C20.1934 49.0031 18.2457 50.4111 17.9128 52.4808C17.5799 54.5505 18.9879 56.4982 21.0576 56.8311C23.1273 57.164 25.075 55.756 25.4079 53.6863Z" fill="#009688"/>
<path d="M24.3439 76.5329C25.8262 75.0506 25.8263 72.6473 24.3439 71.165C22.8616 69.6827 20.4583 69.6827 18.976 71.165C17.4937 72.6473 17.4936 75.0506 18.976 76.5329C20.4583 78.0153 22.8616 78.0153 24.3439 76.5329Z" fill="#009688"/>
<path d="M25.4894 98.5682H15.1445V97.0762C15.1445 95.7026 16.2577 94.5894 17.6313 94.5894H25.4894V98.5682Z" fill="#333333"/>
<path d="M34.2384 73.783V94.6172L26.6465 94.5509V73.783H34.2384Z" fill="#009688"/>
<path d="M31.3262 77.5431C33.3651 77.0555 34.6227 75.0073 34.135 72.9684C33.6474 70.9295 31.5993 69.6719 29.5604 70.1596C27.5215 70.6472 26.2639 72.6953 26.7515 74.7342C27.2392 76.7731 29.2873 78.0307 31.3262 77.5431Z" fill="#009688"/>
<path d="M30.4427 98.413C32.5391 98.413 34.2385 96.7136 34.2385 94.6173C34.2385 92.5209 32.5391 90.8215 30.4427 90.8215C28.3464 90.8215 26.647 92.5209 26.647 94.6173C26.647 96.7136 28.3464 98.413 30.4427 98.413Z" fill="#009688"/>
<path d="M34.2379 53.0151V73.8494L26.646 73.783V53.0151H34.2379Z" fill="#009688"/>
<path d="M33.9604 54.5092C34.7488 52.5667 33.8133 50.3529 31.8708 49.5644C29.9284 48.776 27.7146 49.7115 26.9261 51.654C26.1377 53.5965 27.0732 55.8103 29.0157 56.5987C30.9581 57.3872 33.172 56.4516 33.9604 54.5092Z" fill="#009688"/>
<path d="M30.4422 77.6451C32.5386 77.6451 34.238 75.9457 34.238 73.8493C34.238 71.753 32.5386 70.0536 30.4422 70.0536C28.3459 70.0536 26.6465 71.753 26.6465 73.8493C26.6465 75.9457 28.3459 77.6451 30.4422 77.6451Z" fill="#009688"/>
<path d="M26.6138 98.5682H36.9586V97.0761C36.9586 95.7026 35.8454 94.5894 34.4719 94.5894H26.6138V98.5682Z" fill="#333333"/>
<path d="M39.1715 37.0002L33.7583 38.4506L34.7998 42.3376L40.213 40.8872L39.1715 37.0002Z" fill="#FF95A8"/>
<path d="M40.0039 42.9644C40.7236 41.5944 40.1963 39.9002 38.8261 39.1804C37.4559 38.4606 35.7617 38.9876 35.042 40.3576C34.3222 41.7276 34.8495 43.4217 36.2197 44.1415C37.5899 44.8614 39.2841 44.3343 40.0039 42.9644Z" fill="#FF95A8"/>
<path d="M37.0412 27.5378L30.8726 29.1906L33.5695 39.2561L39.7381 37.6033L37.0412 27.5378Z" fill="#2AB8A9"/>
<path d="M36.8521 29.7939C37.6118 28.2025 36.9376 26.2965 35.3462 25.5367C33.7547 24.777 31.8487 25.4512 31.089 27.0426C30.3293 28.6341 31.0035 30.5401 32.5949 31.2998C34.1863 32.0595 36.0923 31.3853 36.8521 29.7939Z" fill="#2AB8A9"/>
<path d="M12.7959 37.0003L11.7544 40.8874L17.1676 42.3378L18.2091 38.4507L12.7959 37.0003Z" fill="#FF95A8"/>
<path d="M15.8735 44.0751C17.2067 43.2889 17.6502 41.5709 16.8641 40.2379C16.078 38.9049 14.36 38.4617 13.0268 39.248C11.6936 40.0342 11.2501 41.7522 12.0362 43.0852C12.8223 44.4182 14.5403 44.8614 15.8735 44.0751Z" fill="#FF95A8"/>
<path d="M14.9264 27.5376L12.2295 37.6031L18.3981 39.2559L21.095 29.1904L14.9264 27.5376Z" fill="#2AB8A9"/>
<path d="M18.4473 31.5812C20.1934 31.3331 21.4078 29.7165 21.1596 27.9704C20.9115 26.2243 19.2949 25.01 17.5488 25.2581C15.8027 25.5062 14.5884 27.1229 14.8365 28.8689C15.0846 30.615 16.7013 31.8294 18.4473 31.5812Z" fill="#2AB8A9"/>
<path d="M33.4469 46.2207H18.5928V30.1729C18.5928 26.0713 21.9181 22.7459 26.0198 22.7459C30.1215 22.7459 33.4469 26.0713 33.4469 30.1729V46.2207Z" fill="#26A69A"/>
<path d="M31.931 56.791H20.1724C18.2732 56.791 16.7334 55.2512 16.7334 53.352V49.9872H35.37V53.352C35.37 55.2512 33.8302 56.791 31.931 56.791Z" fill="#009688"/>
<path d="M36.1377 54.1384H15.9653V49.0606C15.9653 45.8365 18.5789 43.2229 21.8031 43.2229H30.3004C33.5246 43.2229 36.1382 45.8365 36.1382 49.0606V54.1384H36.1377Z" fill="#26A69A"/>
<path d="M40.3228 55.7109V41.611H34.7184V55.7109H40.3228Z" fill="#FF95A8"/>
<path d="M39.5013 43.6418C40.5957 42.5475 40.5957 40.7731 39.5013 39.6787C38.407 38.5843 36.6326 38.5843 35.5382 39.6787C34.4438 40.7731 34.4438 42.5475 35.5382 43.6418C36.6326 44.7362 38.407 44.7362 39.5013 43.6418Z" fill="#FF95A8"/>
<path d="M40.308 56.0348C40.4611 54.4949 39.3366 53.1225 37.7965 52.9694C36.2564 52.8164 34.8838 53.9406 34.7307 55.4805C34.5777 57.0204 35.7021 58.3928 37.2423 58.5459C38.7824 58.6989 40.155 57.5747 40.308 56.0348Z" fill="#FF95A8"/>
<path d="M35.1982 56.6942L36.1867 55.7057C36.5019 55.3905 36.5019 54.8798 36.1867 54.5651C35.8715 54.2499 35.3609 54.2499 35.0462 54.5651L34.0572 55.5531C33.742 55.8684 33.742 56.379 34.0572 56.6937C34.3724 57.0089 34.883 57.0089 35.1982 56.6942Z" fill="#FF95A8"/>
<path d="M34.0574 56.6734L35.0459 57.6619C35.3611 57.9771 35.8717 57.9771 36.1865 57.6619C36.5017 57.3467 36.5017 56.8361 36.1865 56.5213L35.1979 55.5328C34.8827 55.2176 34.3721 55.2176 34.0574 55.5328C33.7426 55.8476 33.7426 56.3582 34.0574 56.6734Z" fill="#FF95A8"/>
<path d="M31.7182 61.4395H30.6267C30.269 61.4395 29.979 61.1495 29.979 60.7919V60.4961C29.979 60.1385 30.269 59.8484 30.6267 59.8484H31.7182C32.0758 59.8484 32.3658 60.1385 32.3658 60.4961V60.7919C32.3658 61.1495 32.0758 61.4395 31.7182 61.4395Z" fill="#333333"/>
<path d="M44.3178 61.4395H43.2263C42.8686 61.4395 42.5786 61.1495 42.5786 60.7919V60.4961C42.5786 60.1385 42.8686 59.8484 43.2263 59.8484H44.3178C44.6754 59.8484 44.9654 60.1385 44.9654 60.4961V60.7919C44.9654 61.1495 44.6754 61.4395 44.3178 61.4395Z" fill="#333333"/>
<path d="M41.1187 62.8056C40.7522 62.8056 40.4556 62.5085 40.4556 62.1424V58.4643C40.4556 58.0629 40.1289 57.7366 39.7279 57.7366H35.2151C34.8137 57.7366 34.4874 58.0629 34.4874 58.4643V62.1424C34.4874 62.5085 34.1908 62.8056 33.8243 62.8056C33.4578 62.8056 33.1611 62.5085 33.1611 62.1424V58.4643C33.1611 57.3316 34.0824 56.4103 35.2151 56.4103H39.7279C40.8605 56.4103 41.7818 57.3316 41.7818 58.4643V62.1424C41.7818 62.5085 41.4852 62.8056 41.1187 62.8056Z" fill="#333333"/>
<path d="M27.3257 75.1398H46.2249C47.3602 75.1398 48.2806 74.2194 48.2806 73.0841V62.6066C48.2806 61.4714 47.3602 60.5509 46.2249 60.5509H27.3257V75.1398Z" fill="#FF5992"/>
<path d="M27.3921 75.1398C28.5274 75.1398 29.4478 74.2194 29.4478 73.0841V62.6066C29.4478 61.4714 28.5274 60.5509 27.3921 60.5509C26.2569 60.5509 25.3364 61.4714 25.3364 62.6066V73.0841C25.3364 74.2194 26.2569 75.1398 27.3921 75.1398Z" fill="#EC407A"/>
<path d="M39.9389 64.7286H37.8169V70.9621H39.9389V64.7286Z" fill="white"/>
<path d="M41.9946 68.9064V66.7844H35.7612V68.9064H41.9946Z" fill="white"/>
<path d="M37.5158 58.4762C39.0633 58.4762 40.3178 57.2217 40.3178 55.6743C40.3178 54.1268 39.0633 52.8723 37.5158 52.8723C35.9683 52.8723 34.7139 54.1268 34.7139 55.6743C34.7139 57.2217 35.9683 58.4762 37.5158 58.4762Z" fill="#FF95A8"/>
<path d="M34.7378 57.7658V55.6438H40.2939V57.7658H34.7378Z" fill="#FF95A8"/>
<path d="M34.7378 57.6981C34.7378 56.9285 35.3616 56.3042 36.1317 56.3042H38.9005C39.6702 56.3042 40.2944 56.9285 40.2944 57.6981C40.2944 58.4678 39.6706 59.092 38.9005 59.092H36.1317C35.3616 59.092 34.7378 58.4678 34.7378 57.6981Z" fill="#FF95A8"/>
<path d="M20.8291 37.4276C22.9532 37.4276 24.6752 35.7056 24.6752 33.5814C24.6752 31.4573 22.9532 29.7353 20.8291 29.7353C18.7049 29.7353 16.9829 31.4573 16.9829 33.5814C16.9829 35.7056 18.7049 37.4276 20.8291 37.4276Z" fill="#26A69A"/>
<path d="M31.1406 37.4276C33.2648 37.4276 34.9867 35.7056 34.9867 33.5814C34.9867 31.4573 33.2648 29.7353 31.1406 29.7353C29.0164 29.7353 27.2944 31.4573 27.2944 33.5814C27.2944 35.7056 29.0164 37.4276 31.1406 37.4276Z" fill="#26A69A"/>
<path d="M26.0241 32.6119L30.2722 24.0854C29.0675 23.2423 27.6019 22.7459 26.0197 22.7459C24.4587 22.7459 23.0113 23.2282 21.8159 24.0509L26.0241 32.6119Z" fill="#FF95A8"/>
<path d="M29.8108 23.787L24.3838 34.8661L26.0116 35.6636L31.2724 24.9232C30.836 24.4859 30.3449 24.1044 29.8108 23.787Z" fill="#2AB8A9"/>
<path d="M22.23 23.7857C21.696 24.1031 21.2048 24.4842 20.7681 24.921L25.318 34.1738L26.4679 32.4042L22.23 23.7857Z" fill="#2AB8A9"/>
<path d="M25.9852 27.4806C24.426 27.4806 23.1616 26.2167 23.1616 24.657V15.4501C23.1616 13.8909 24.4255 12.6265 25.9852 12.6265C27.5445 12.6265 28.8088 13.8905 28.8088 15.4501V24.6575C28.8088 26.2167 27.5445 27.4806 25.9852 27.4806Z" fill="#FF95A8"/>
<path d="M25.9852 23.3692C26.9848 23.3692 27.9384 23.1685 28.8088 22.8073V15.4501C28.8088 13.8909 27.5449 12.6265 25.9852 12.6265C24.426 12.6265 23.1616 13.8905 23.1616 15.4501V22.8073C24.0321 23.1685 24.9857 23.3692 25.9852 23.3692Z" fill="#FF7A9A"/>
<path d="M25.985 22.043C22.6384 22.043 19.9258 19.3303 19.9258 15.9837V8.91123C19.9258 5.56463 22.6384 2.85199 25.985 2.85199C29.3316 2.85199 32.0443 5.56463 32.0443 8.91123V15.9833C32.0443 19.3303 29.3316 22.043 25.985 22.043Z" fill="#FF95A8"/>
<path d="M23.2666 12.0032C23.6694 12.0032 23.996 11.6766 23.996 11.2737C23.996 10.8709 23.6694 10.5443 23.2666 10.5443C22.8637 10.5443 22.5371 10.8709 22.5371 11.2737C22.5371 11.6766 22.8637 12.0032 23.2666 12.0032Z" fill="#333333"/>
<path d="M28.7041 12.0032C29.1069 12.0032 29.4335 11.6766 29.4335 11.2737C29.4335 10.8709 29.1069 10.5443 28.7041 10.5443C28.3012 10.5443 27.9746 10.8709 27.9746 11.2737C27.9746 11.6766 28.3012 12.0032 28.7041 12.0032Z" fill="#333333"/>
<path d="M23.0674 16.5788C23.0674 17.6774 24.3737 18.5682 25.9852 18.5682C27.5966 18.5682 28.9029 17.6774 28.9029 16.5788H23.0674Z" fill="white"/>
<path d="M25.9853 15.6371C25.4919 15.6371 25.0923 15.2375 25.0923 14.7441V13.2543C25.0923 12.7609 25.4919 12.3613 25.9853 12.3613C26.4787 12.3613 26.8783 12.7609 26.8783 13.2543V14.7441C26.8783 15.237 26.4787 15.6371 25.9853 15.6371Z" fill="url(#paint0_linear_3945_27713)"/>
<path d="M20.2554 10.3719H18.6245V8.66675C18.6245 4.77417 21.7801 1.61856 25.6727 1.61856H27.3036V3.32369C27.3036 7.21626 24.1479 10.3719 20.2554 10.3719Z" fill="#333333"/>
<path d="M31.7152 10.3719H33.346V8.66675C33.346 4.77417 30.1904 1.61856 26.2979 1.61856H24.667V3.32369C24.667 7.21626 27.8226 10.3719 31.7152 10.3719Z" fill="#333333"/>
<path d="M5.92903 44.5346L4.56829 44.0752C4.1346 43.9289 3.66466 44.1619 3.51833 44.5951C3.372 45.0288 3.60498 45.4988 4.03822 45.6451L5.39897 46.1044C5.83265 46.2508 6.30259 46.0182 6.44892 45.5845C6.59525 45.1508 6.36227 44.6809 5.92903 44.5346Z" fill="#FF95A8"/>
<path d="M9.02365 56.0779L1.8026 38.4254C1.56786 37.8511 1.84283 37.1955 2.41711 36.9608L14.8229 31.886C15.3972 31.6513 16.0528 31.9263 16.2876 32.5005L23.5086 50.1531C23.7434 50.7273 23.4684 51.3829 22.8941 51.6177L10.4883 56.6924C9.91445 56.9267 9.2584 56.6517 9.02365 56.0779Z" fill="#333333"/>
<path d="M15.2821 32.8463L2.76074 37.968L10.0286 55.7364L22.55 50.6148L15.2821 32.8463Z" fill="white"/>
<path d="M6.09959 40.7216C6.0209 40.7216 5.94707 40.6752 5.91524 40.5978C5.87369 40.4961 5.92232 40.3798 6.024 40.3383L14.6168 36.8233C14.7194 36.7817 14.8348 36.8303 14.8763 36.932C14.9179 37.0337 14.8693 37.15 14.7676 37.1915L6.17475 40.7065C6.14999 40.7167 6.12435 40.7216 6.09959 40.7216Z" fill="#5643A6"/>
<path d="M6.85301 42.5629C6.77432 42.5629 6.70049 42.5165 6.66866 42.4391C6.6271 42.3374 6.67573 42.2212 6.77741 42.1796L15.3698 38.6646C15.4719 38.623 15.5878 38.6716 15.6293 38.7733C15.6709 38.875 15.6222 38.9913 15.5206 39.0328L6.92816 42.5479C6.90341 42.558 6.87777 42.5629 6.85301 42.5629Z" fill="#5643A6"/>
<path d="M7.60594 44.4042C7.52725 44.4042 7.45342 44.3577 7.42159 44.2804C7.38003 44.1787 7.42866 44.0624 7.53034 44.0209L16.1232 40.5058C16.2257 40.4643 16.3411 40.5129 16.3827 40.6146C16.4242 40.7163 16.3756 40.8326 16.2739 40.8741L7.68109 44.3891C7.65678 44.3993 7.63114 44.4042 7.60594 44.4042Z" fill="#5643A6"/>
<path d="M8.35936 46.2454C8.28067 46.2454 8.20684 46.199 8.17501 46.1217C8.13345 46.02 8.18208 45.9037 8.28376 45.8622L16.8762 42.3471C16.9783 42.3056 17.0941 42.3542 17.1357 42.4559C17.1772 42.5576 17.1286 42.6738 17.0269 42.7154L8.43451 46.2304C8.4102 46.2406 8.38456 46.2454 8.35936 46.2454Z" fill="#5643A6"/>
<path d="M9.11229 48.0868C9.0336 48.0868 8.95977 48.0403 8.92794 47.963C8.88638 47.8613 8.93501 47.745 9.03669 47.7035L17.6295 44.1884C17.7321 44.1469 17.8475 44.1955 17.889 44.2972C17.9306 44.3989 17.882 44.5151 17.7803 44.5567L9.18744 48.0717C9.16269 48.0819 9.13704 48.0868 9.11229 48.0868Z" fill="#5643A6"/>
<path d="M9.86571 49.928C9.78701 49.928 9.71319 49.8816 9.68136 49.8042C9.6398 49.7026 9.68843 49.5863 9.79011 49.5447L18.3829 46.0297C18.4855 45.9882 18.6009 46.0368 18.6425 46.1385C18.684 46.2401 18.6354 46.3564 18.5337 46.398L9.94086 49.913C9.9161 49.9232 9.89046 49.928 9.86571 49.928Z" fill="#5643A6"/>
<path d="M14.9155 50.0116C14.8368 50.0116 14.763 49.9652 14.7312 49.8878C14.6896 49.7861 14.7382 49.6699 14.8399 49.6283L19.1361 47.871C19.2387 47.8295 19.3541 47.8781 19.3956 47.9798C19.4372 48.0815 19.3885 48.1977 19.2869 48.2393L14.9907 49.9966C14.9659 50.0067 14.9403 50.0116 14.9155 50.0116Z" fill="#5643A6"/>
<path d="M6.75379 37.9643C6.7277 37.9643 6.70162 37.959 6.67686 37.9488C6.62823 37.9285 6.58977 37.8896 6.56944 37.8405L5.81612 35.9992C5.77456 35.8975 5.82319 35.7813 5.92487 35.7397L11.6941 33.3794C11.7432 33.3595 11.7976 33.3595 11.8466 33.3798C11.8953 33.4002 11.9337 33.4391 11.9541 33.4882L12.7074 35.3294C12.7489 35.4311 12.7003 35.5474 12.5986 35.5889L6.82938 37.9488C6.80463 37.9594 6.77943 37.9643 6.75379 37.9643ZM6.25998 36.0328L6.86254 37.5058L12.2635 35.2963L11.6609 33.8233L6.25998 36.0328Z" fill="#333333"/>
<path d="M11.5723 33.8776L6.36142 36.0094L6.18591 35.581C6.02631 35.1906 6.21332 34.745 6.60368 34.5854L10.4012 33.0319C10.7916 32.8723 11.2372 33.0593 11.3968 33.4497L11.5723 33.8776Z" fill="#333333"/>
<path d="M7.98142 32.5346C7.5747 32.7008 7.37974 33.1655 7.54641 33.5722L7.84791 34.3087C8.01413 34.7154 8.47877 34.9104 8.88549 34.7437C9.29221 34.5775 9.48717 34.1128 9.3205 33.7061L9.019 32.9696C8.85277 32.5633 8.38814 32.3684 7.98142 32.5346ZM8.38283 33.5169C8.24711 33.5722 8.09238 33.5076 8.03712 33.3719C7.98186 33.2362 8.04641 33.0815 8.18213 33.0262C8.31785 32.9709 8.47258 33.0355 8.52828 33.1712C8.58354 33.3065 8.51855 33.4612 8.38283 33.5169Z" fill="#333333"/>
<path d="M7.09958 50.5315C7.83389 50.2313 8.18534 49.3927 7.88517 48.6584L6.92319 46.3065C6.62301 45.5722 5.78437 45.2207 5.05007 45.5209C4.31576 45.8211 3.9643 46.6597 4.26448 47.394L5.22646 49.7459C5.52708 50.4798 6.36572 50.8317 7.09958 50.5315Z" fill="#FF95A8"/>
</g>
<defs>
<linearGradient id="paint0_linear_3945_27713" x1="25.9852" y1="15.637" x2="25.9852" y2="12.3613" gradientUnits="userSpaceOnUse">
<stop stop-color="#FF698D"/>
<stop offset="0.0825" stop-color="#FF7091"/>
<stop offset="0.3945" stop-color="#FF849E"/>
<stop offset="0.7026" stop-color="#FF91A5"/>
<stop offset="1" stop-color="#FF95A8"/>
</linearGradient>
<clipPath id="clip0_3945_27713">
<rect width="50" height="100.524" fill="white" transform="translate(0 0.690186)"/>
</clipPath>
</defs>
</svg>
