<svg width="73" height="73" viewBox="0 0 73 73" fill="none" xmlns="http://www.w3.org/2000/svg">
<path fill-rule="evenodd" clip-rule="evenodd" d="M26.9952 28.8671L26.9908 28.8869C22.5744 29.1161 20.3342 19.6352 25.7064 21.6161C26.5822 17.755 27.5543 15.036 28.6232 13.4583C34.907 21.1621 40.8462 25.1256 46.4414 25.349C46.6425 24.1904 46.778 22.9466 46.8369 21.6161C52.209 19.6352 49.9688 29.1161 45.5526 28.8869L45.549 28.8676C41.7471 39.8902 30.7996 39.888 26.9952 28.8671ZM36.2717 71.6432C26.394 71.6432 17.9183 69.2533 16.1038 65.9545L17.1427 53.6874C17.196 53.0433 16.7133 52.4778 16.0641 52.425C15.4149 52.372 14.8453 52.8508 14.7916 53.4953L13.7154 66.204L13.8269 66.2064C11.0562 66.1673 8.40127 64.8796 6.67029 62.6284C7.87122 56.2497 8.89094 48.9708 13.3607 44.7582C15.8749 42.3887 19.9429 41.2421 23.767 40.3532V48.7272C22.3773 48.8177 21.1214 49.4183 20.1889 50.3422L20.1865 50.3446L20.1839 50.3471C19.1717 51.3533 18.5449 52.739 18.5449 54.2617V58.0656C18.5449 58.7127 19.0731 59.237 19.7248 59.237C20.3766 59.237 20.9049 58.7126 20.9049 58.0656V54.2617C20.9049 53.377 21.2658 52.5763 21.8483 51.9985L21.8528 51.9942C22.435 51.4165 23.2418 51.0578 24.1331 51.0578H25.7614C26.6525 51.0578 27.4595 51.4165 28.0414 51.9942V51.9985C28.6266 52.5792 28.9894 53.3805 28.9894 54.2617V57.9708C28.9894 58.6174 29.5179 59.1423 30.1695 59.1423C30.8211 59.1423 31.3498 58.6174 31.3498 57.9708V54.2617C31.3498 52.7338 30.7222 51.3467 29.7105 50.3423L29.7079 50.3447C28.7751 49.4195 27.518 48.8178 26.1272 48.7274V39.8178C26.7604 39.6737 27.3748 39.5319 27.9609 39.3882L36.2717 62.6178V71.6432ZM44.5821 39.3879C45.1684 39.5326 45.7828 39.6745 46.4157 39.8175V49.415C46.1346 49.5492 45.88 49.729 45.6615 49.9458L45.6567 49.9507C45.1609 50.4434 44.8536 51.1225 44.8536 51.8706C44.8536 52.6189 45.1607 53.2981 45.6567 53.7909L45.6615 53.7948C46.1576 54.2868 46.8422 54.5921 47.5958 54.5921C48.35 54.5921 49.0344 54.2877 49.5307 53.7948L49.5352 53.7909C50.0314 53.2981 50.3389 52.6189 50.3389 51.8706C50.3389 51.1187 50.0314 50.4385 49.5352 49.9458H49.5304C49.3119 49.729 49.0569 49.5492 48.7758 49.415V40.3532C52.6 41.2421 56.666 42.3895 59.1828 44.7582C63.6523 48.9708 64.6721 56.2497 65.8729 62.6284C64.1659 64.8488 61.5606 66.1314 58.8317 66.2041L57.7553 53.4954C57.7019 52.8509 57.1323 52.3721 56.4831 52.4251C55.8337 52.478 55.3507 53.0433 55.4044 53.6875L56.4434 65.9554L56.4455 65.9559L56.4396 65.9546C54.7718 68.9869 47.4734 71.2514 38.6316 71.5975V62.2137L36.462 56.149L44.5821 39.3879ZM47.7383 37.7056C53.0377 35.2184 56.0116 31.1332 55.2533 25.3794C54.1142 15.5973 46.9833 1.348 36.2717 1.35743C25.56 1.348 18.429 15.5973 17.2901 25.3794C16.5278 31.1587 19.6437 35.1932 25.0327 37.6525L26.1274 37.3981V37.4135C26.5509 37.3165 26.9741 37.2169 27.396 37.1132L28.071 36.9482L28.2004 36.7848C28.318 36.6378 28.3875 36.2721 28.4285 35.8986C30.4828 38.0541 33.1887 39.4785 36.2755 39.4779C39.3271 39.4772 42.0522 38.0705 44.116 35.9021C44.1569 36.2774 44.2269 36.6432 44.344 36.7868L44.4747 36.9471L45.1529 37.1148C45.5725 37.2186 45.9942 37.3176 46.4159 37.4142V37.3981L47.7383 37.7056Z" fill="currentColor"/>
</svg>
