<svg width="28" height="28" viewBox="0 0 28 28" fill="none" xmlns="http://www.w3.org/2000/svg">
<path d="M16.7076 15.2923C16.6147 15.1993 16.5044 15.1256 16.383 15.0752C16.2616 15.0249 16.1315 14.999 16.0001 14.999C15.8687 14.999 15.7385 15.0249 15.6171 15.0752C15.4957 15.1256 15.3854 15.1993 15.2926 15.2923L13.0001 17.5861L10.4138 14.9998L12.7076 12.7073C12.8952 12.5197 13.0006 12.2652 13.0006 11.9998C13.0006 11.7344 12.8952 11.4799 12.7076 11.2923C12.5199 11.1047 12.2654 10.9993 12.0001 10.9993C11.7347 10.9993 11.4802 11.1047 11.2926 11.2923L9.00007 13.5861L6.70757 11.2923C6.51993 11.1047 6.26543 10.9993 6.00007 10.9993C5.7347 10.9993 5.48021 11.1047 5.29257 11.2923C5.10493 11.48 4.99951 11.7344 4.99951 11.9998C4.99951 12.2652 5.10493 12.5197 5.29257 12.7073L6.08632 13.4998L3.17132 16.4136C2.79979 16.785 2.50507 17.226 2.30399 17.7114C2.10292 18.1967 1.99942 18.7169 1.99942 19.2423C1.99942 19.7677 2.10292 20.2879 2.30399 20.7733C2.50507 21.2586 2.79979 21.6996 3.17132 22.0711L3.84382 22.7423L0.292568 26.2923C0.199658 26.3852 0.125957 26.4955 0.0756744 26.6169C0.0253918 26.7383 -0.000488281 26.8684 -0.000488281 26.9998C-0.000488281 27.1312 0.0253918 27.2613 0.0756744 27.3827C0.125957 27.5041 0.199658 27.6144 0.292568 27.7073C0.480209 27.895 0.734704 28.0004 1.00007 28.0004C1.13146 28.0004 1.26157 27.9745 1.38296 27.9242C1.50436 27.8739 1.61466 27.8002 1.70757 27.7073L5.25757 24.1561L5.92882 24.8286C6.30026 25.2001 6.74126 25.4948 7.22662 25.6959C7.71198 25.897 8.2322 26.0005 8.75757 26.0005C9.28293 26.0005 9.80315 25.897 10.2885 25.6959C10.7739 25.4948 11.2149 25.2001 11.5863 24.8286L14.5001 21.9136L15.2926 22.7073C15.3855 22.8002 15.4958 22.8739 15.6172 22.9242C15.7386 22.9745 15.8687 23.0004 16.0001 23.0004C16.1315 23.0004 16.2616 22.9745 16.383 22.9242C16.5044 22.8739 16.6147 22.8002 16.7076 22.7073C16.8005 22.6144 16.8742 22.5041 16.9245 22.3827C16.9747 22.2613 17.0006 22.1312 17.0006 21.9998C17.0006 21.8684 16.9747 21.7383 16.9245 21.6169C16.8742 21.4955 16.8005 21.3852 16.7076 21.2923L14.4138 18.9998L16.7076 16.7073C16.8005 16.6144 16.8743 16.5041 16.9246 16.3827C16.975 16.2614 17.0009 16.1312 17.0009 15.9998C17.0009 15.8684 16.975 15.7383 16.9246 15.6169C16.8743 15.4955 16.8005 15.3852 16.7076 15.2923ZM10.1713 23.4173C9.79628 23.7921 9.28777 24.0026 8.75757 24.0026C8.22736 24.0026 7.71885 23.7921 7.34382 23.4173L4.58632 20.6561C4.21153 20.281 4.00099 19.7725 4.00099 19.2423C4.00099 18.7121 4.21153 18.2036 4.58632 17.8286L7.50007 14.9136L13.0863 20.4998L10.1713 23.4173ZM27.7076 0.29231C27.6147 0.199334 27.5044 0.125575 27.383 0.0752503C27.2616 0.024926 27.1315 -0.000976562 27.0001 -0.000976562C26.8687 -0.000976562 26.7385 0.024926 26.6171 0.0752503C26.4957 0.125575 26.3854 0.199334 26.2926 0.29231L22.7426 3.84356L22.0713 3.17106C21.3203 2.42225 20.3031 2.00175 19.2426 2.00175C18.1821 2.00175 17.1648 2.42225 16.4138 3.17106L13.5001 6.08606L12.7076 5.29231C12.5199 5.10467 12.2654 4.99925 12.0001 4.99925C11.7347 4.99925 11.4802 5.10467 11.2926 5.29231C11.1049 5.47995 10.9995 5.73445 10.9995 5.99981C10.9995 6.26517 11.1049 6.51967 11.2926 6.70731L21.2926 16.7073C21.3855 16.8002 21.4958 16.8739 21.6172 16.9242C21.7386 16.9745 21.8687 17.0004 22.0001 17.0004C22.1315 17.0004 22.2616 16.9745 22.383 16.9242C22.5044 16.8739 22.6147 16.8002 22.7076 16.7073C22.8005 16.6144 22.8742 16.5041 22.9245 16.3827C22.9747 16.2613 23.0006 16.1312 23.0006 15.9998C23.0006 15.8684 22.9747 15.7383 22.9245 15.6169C22.8742 15.4955 22.8005 15.3852 22.7076 15.2923L21.9138 14.4998L24.8288 11.5861C25.2003 11.2146 25.4951 10.7736 25.6961 10.2883C25.8972 9.80289 26.0007 9.28267 26.0007 8.75731C26.0007 8.23195 25.8972 7.71173 25.6961 7.22637C25.4951 6.741 25.2003 6.30001 24.8288 5.92856L24.1563 5.25731L27.7076 1.70731C27.8005 1.61444 27.8743 1.50415 27.9246 1.38275C27.975 1.26135 28.0009 1.13123 28.0009 0.99981C28.0009 0.868395 27.975 0.738268 27.9246 0.61687C27.8743 0.495472 27.8005 0.385183 27.7076 0.29231ZM23.4138 10.1673L20.5001 13.0861L14.9138 7.49981L17.8288 4.58606C18.2039 4.21127 18.7124 4.00074 19.2426 4.00074C19.7728 4.00074 20.2813 4.21127 20.6563 4.58606L23.4138 7.33606C23.6005 7.5219 23.7487 7.74279 23.8498 7.98604C23.9509 8.2293 24.0029 8.49013 24.0029 8.75356C24.0029 9.01699 23.9509 9.27782 23.8498 9.52108C23.7487 9.76433 23.6005 9.98522 23.4138 10.1711V10.1673Z" fill="currentColor"/>
</svg>
