<svg width="20" height="21" viewBox="0 0 20 21" fill="none" xmlns="http://www.w3.org/2000/svg">
<path d="M13.7206 0.202149H2.55807C2.22207 0.201904 1.88932 0.267902 1.57885 0.396367C1.26838 0.524832 0.986285 0.713243 0.748697 0.950824C0.51111 1.1884 0.322693 1.47049 0.194224 1.78095C0.0657556 2.09141 -0.000243953 2.42416 6.77563e-07 2.76015V17.643C-0.000243953 17.979 0.0657556 18.3118 0.194224 18.6222C0.322693 18.9327 0.51111 19.2148 0.748697 19.4524C0.986285 19.6899 1.26838 19.8784 1.57885 20.0068C1.88932 20.1353 2.22207 20.2013 2.55807 20.201H11.3858C10.2159 19.4902 9.3108 18.416 8.80874 17.1425C8.30669 15.869 8.23524 14.4662 8.60532 13.1483C8.9754 11.8304 9.76667 10.6698 10.8583 9.8438C11.9499 9.01779 13.2819 8.57174 14.6508 8.57378C15.2011 8.57228 15.749 8.64742 16.2786 8.79702V2.76015C16.2789 2.42416 16.2129 2.09141 16.0844 1.78095C15.956 1.47049 15.7675 1.1884 15.53 0.950824C15.2924 0.713243 15.0103 0.524832 14.6998 0.396367C14.3893 0.267902 14.0566 0.201904 13.7206 0.202149ZM8.13933 9.03887H3.48828C3.30325 9.03887 3.1258 8.96537 2.99496 8.83453C2.86413 8.7037 2.79063 8.52626 2.79063 8.34123C2.79063 8.15621 2.86413 7.97876 2.99496 7.84793C3.1258 7.7171 3.30325 7.6436 3.48828 7.6436H8.13933C8.32436 7.6436 8.50181 7.7171 8.63264 7.84793C8.76348 7.97876 8.83698 8.15621 8.83698 8.34123C8.83698 8.52626 8.76348 8.7037 8.63264 8.83453C8.50181 8.96537 8.32436 9.03887 8.13933 9.03887ZM9.99974 5.31814H3.48828C3.30325 5.31814 3.1258 5.24464 2.99496 5.11381C2.86413 4.98298 2.79063 4.80553 2.79063 4.62051C2.79063 4.43548 2.86413 4.25804 2.99496 4.12721C3.1258 3.99637 3.30325 3.92287 3.48828 3.92287H9.99974C10.1848 3.92287 10.3622 3.99637 10.4931 4.12721C10.6239 4.25804 10.6974 4.43548 10.6974 4.62051C10.6974 4.80553 10.6239 4.98298 10.4931 5.11381C10.3622 5.24464 10.1848 5.31814 9.99974 5.31814Z" fill="currentColor"/>
<path d="M14.6514 9.50488C13.5936 9.50488 12.5594 9.81857 11.6799 10.4063C10.8003 10.994 10.1147 11.8293 9.70988 12.8066C9.30505 13.7839 9.19913 14.8594 9.40551 15.8969C9.61189 16.9344 10.1213 17.8874 10.8693 18.6354C11.6174 19.3834 12.5704 19.8928 13.608 20.0992C14.6455 20.3056 15.7209 20.1996 16.6983 19.7948C17.6756 19.39 18.511 18.7045 19.0987 17.8249C19.6864 16.9453 20.0001 15.9113 20.0001 14.8534C19.9984 13.4354 19.4343 12.076 18.4316 11.0733C17.4289 10.0707 16.0695 9.50661 14.6514 9.50488ZM16.5398 14.4162L14.6793 16.2766C14.6147 16.3415 14.5379 16.393 14.4533 16.4282C14.3687 16.4633 14.2779 16.4814 14.1863 16.4814C14.0947 16.4814 14.004 16.4633 13.9194 16.4282C13.8348 16.393 13.758 16.3415 13.6933 16.2766L12.7631 15.3464C12.6946 15.2826 12.6396 15.2055 12.6015 15.12C12.5633 15.0344 12.5428 14.942 12.5412 14.8483C12.5395 14.7547 12.5568 14.6616 12.5918 14.5747C12.6269 14.4879 12.6792 14.409 12.7454 14.3427C12.8117 14.2765 12.8906 14.2242 12.9774 14.1892C13.0643 14.1541 13.1574 14.1368 13.251 14.1385C13.3447 14.1401 13.4371 14.1606 13.5227 14.1988C13.6082 14.2369 13.6853 14.2919 13.7491 14.3604L14.1863 14.7967L15.5537 13.4302C15.6176 13.3617 15.6946 13.3067 15.7802 13.2686C15.8658 13.2305 15.9582 13.21 16.0518 13.2083C16.1455 13.2067 16.2386 13.2239 16.3254 13.259C16.4123 13.2941 16.4912 13.3463 16.5575 13.4125C16.6237 13.4788 16.6759 13.5577 16.711 13.6446C16.7461 13.7314 16.7633 13.8245 16.7617 13.9181C16.76 14.0118 16.7395 14.1042 16.7014 14.1898C16.6633 14.2754 16.6083 14.3524 16.5398 14.4162Z" fill="currentColor"/>
</svg>
