<?xml version="1.0" encoding="utf-8"?>
<!-- Generator: Adobe Illustrator 27.5.0, SVG Export Plug-In . SVG Version: 6.00 Build 0)  -->
<svg version="1.1" id="Layer_1" xmlns="http://www.w3.org/2000/svg" xmlns:xlink="http://www.w3.org/1999/xlink" x="0px" y="0px"
	 viewBox="0 0 2541.444 2000" style="enable-background:new 0 0 2541.444 2000;" xml:space="preserve">
<g>
	<rect x="0.045" y="-0.036" style="fill:#3093BD;" width="2541.353" height="2000"/>
	<rect x="0.433" y="630.891" style="opacity:0.1;fill:#0E5168;" width="2540.965" height="111.654"/>
	<g>
		<path style="fill:#333333;" d="M714.831,1380.665l-23.838,30.463c-1.926,2.459-1.641,6.122,0.687,8.792l0,0
			c1.531,1.756,1.597,4.163,0.151,5.57l-4.526,4.407c-2.867,2.792-7.727,2.751-11.277-0.095l-8.396-6.73l-10.154,1.717
			c-11.468,1.938-21.569,7.412-28.897,15.659l-7.648,8.608c-2.304,2.593-5.704,4.043-9.443,4.027l-1.783-0.008
			c-7.08-0.029-14.23-2.635-20.065-7.312l0,0l54.539-70.899c1.899-2.372,4.53-4.077,7.582-4.914l14.564-4.199l-9.058-7.26
			l15.638-19.532l36.908,29.585C714.76,1372.509,718.263,1376.285,714.831,1380.665z"/>
		
			<rect x="651.619" y="1346.476" transform="matrix(-0.6124 0.7905 -0.7905 -0.6124 2136.5125 1648.5151)" width="25.039" height="3.054"/>
		<path d="M587.662,1444.229l55.679-71.873c0.925-1.194,2.643-1.412,3.836-0.487l0.253,0.196l-57.354,74.035L587.662,1444.229z"/>
	</g>
	<rect x="0.433" y="1220.838" style="opacity:0.1;fill:#0E5168;" width="2540.965" height="111.653"/>
	<polygon style="fill:#FFFFFF;" points="2165.152,1757.52 1525.136,1757.52 1525.136,511.823 2165.152,373.775 	"/>
	<defs>
		<filter id="Adobe_OpacityMaskFilter" filterUnits="userSpaceOnUse" x="0.045" y="1568.093" width="1939.018" height="431.871">
			<feFlood  style="flood-color:white;flood-opacity:1" result="back"/>
			<feBlend  in="SourceGraphic" in2="back" mode="normal"/>
		</filter>
	</defs>
	<mask maskUnits="userSpaceOnUse" x="0.045" y="1568.093" width="1939.018" height="431.871" id="SVGID_1_">
		<g style="filter:url(#Adobe_OpacityMaskFilter);">
			<defs>
				
					<filter id="Adobe_OpacityMaskFilter_00000079451300372518794230000011433490281651138693_" filterUnits="userSpaceOnUse" x="0.045" y="1568.093" width="1939.018" height="431.871">
					<feFlood  style="flood-color:white;flood-opacity:1" result="back"/>
					<feBlend  in="SourceGraphic" in2="back" mode="normal"/>
				</filter>
			</defs>
			<mask maskUnits="userSpaceOnUse" x="0.045" y="1568.093" width="1939.018" height="431.871" id="SVGID_1_">
				<g style="filter:url(#Adobe_OpacityMaskFilter_00000079451300372518794230000011433490281651138693_);">
				</g>
			</mask>
			
				<linearGradient id="SVGID_00000116949388815490275860000008870371796862497444_" gradientUnits="userSpaceOnUse" x1="0.0454" y1="1784.0283" x2="1939.0635" y2="1784.0283">
				<stop  offset="0" style="stop-color:#000000"/>
				<stop  offset="0.0958" style="stop-color:#232323"/>
				<stop  offset="0.4244" style="stop-color:#989898"/>
				<stop  offset="0.6505" style="stop-color:#E2E2E2"/>
				<stop  offset="0.7545" style="stop-color:#FFFFFF"/>
			</linearGradient>
			<polygon style="mask:url(#SVGID_1_);fill:url(#SVGID_00000116949388815490275860000008870371796862497444_);" points="
				1645.758,1718.658 0.045,1664.918 0.045,1999.964 1332.017,1999.964 1768.883,1867.509 1939.063,1568.093 			"/>
		</g>
	</mask>
	
		<linearGradient id="SVGID_00000065797191047896086660000003188288708461616053_" gradientUnits="userSpaceOnUse" x1="0.0454" y1="1784.0283" x2="1939.0635" y2="1784.0283">
		<stop  offset="0" style="stop-color:#FFFFFF"/>
		<stop  offset="0.7545" style="stop-color:#FFFFFF"/>
	</linearGradient>
	<polygon style="fill:url(#SVGID_00000065797191047896086660000003188288708461616053_);" points="1645.758,1718.658 
		0.045,1664.918 0.045,1999.964 1332.017,1999.964 1768.883,1867.509 1939.063,1568.093 	"/>
	<defs>
		
			<filter id="Adobe_OpacityMaskFilter_00000177472260117106487560000005960511829598350015_" filterUnits="userSpaceOnUse" x="849.854" y="1809.93" width="751.927" height="125">
			<feFlood  style="flood-color:white;flood-opacity:1" result="back"/>
			<feBlend  in="SourceGraphic" in2="back" mode="normal"/>
		</filter>
	</defs>
	
		<mask maskUnits="userSpaceOnUse" x="849.854" y="1809.93" width="751.927" height="125" id="SVGID_00000117659891026735013930000002452016174567865504_">
		<g style="filter:url(#Adobe_OpacityMaskFilter_00000177472260117106487560000005960511829598350015_);">
			<defs>
				
					<filter id="Adobe_OpacityMaskFilter_00000098190089638873192470000011810890668792426148_" filterUnits="userSpaceOnUse" x="849.854" y="1806.218" width="745.736" height="128.712">
					<feFlood  style="flood-color:white;flood-opacity:1" result="back"/>
					<feBlend  in="SourceGraphic" in2="back" mode="normal"/>
				</filter>
			</defs>
			
				<mask maskUnits="userSpaceOnUse" x="849.854" y="1806.218" width="745.736" height="128.712" id="SVGID_00000117659891026735013930000002452016174567865504_">
				<g style="filter:url(#Adobe_OpacityMaskFilter_00000098190089638873192470000011810890668792426148_);">
				</g>
			</mask>
			
				<linearGradient id="SVGID_00000112598815370410913170000003371851102989620358_" gradientUnits="userSpaceOnUse" x1="849.8535" y1="1870.5737" x2="1595.5898" y2="1870.5737">
				<stop  offset="0" style="stop-color:#000000"/>
				<stop  offset="0.0958" style="stop-color:#232323"/>
				<stop  offset="0.4244" style="stop-color:#989898"/>
				<stop  offset="0.6505" style="stop-color:#E2E2E2"/>
				<stop  offset="0.7545" style="stop-color:#FFFFFF"/>
			</linearGradient>
			
				<polygon style="mask:url(#SVGID_00000117659891026735013930000002452016174567865504_);fill:url(#SVGID_00000112598815370410913170000003371851102989620358_);" points="
				1595.59,1823.352 856.057,1934.93 849.854,1821.031 1595.59,1806.218 			"/>
		</g>
	</mask>
	<g>
		<defs>
			
				<filter id="Adobe_OpacityMaskFilter_00000165195941412145917360000012232791822961935795_" filterUnits="userSpaceOnUse" x="849.854" y="1809.93" width="751.927" height="125">
				<feFlood  style="flood-color:white;flood-opacity:1" result="back"/>
				<feBlend  in="SourceGraphic" in2="back" mode="normal"/>
			</filter>
		</defs>
		
			<mask maskUnits="userSpaceOnUse" x="849.854" y="1809.93" width="751.927" height="125" id="SVGID_00000026148847906843729340000008664886369526906270_">
			<g style="filter:url(#Adobe_OpacityMaskFilter_00000165195941412145917360000012232791822961935795_);">
				<defs>
					
						<filter id="Adobe_OpacityMaskFilter_00000028324363592430501830000011157339954501857427_" filterUnits="userSpaceOnUse" x="849.854" y="1809.93" width="751.927" height="125">
						<feFlood  style="flood-color:white;flood-opacity:1" result="back"/>
						<feBlend  in="SourceGraphic" in2="back" mode="normal"/>
					</filter>
				</defs>
				
					<mask maskUnits="userSpaceOnUse" x="849.854" y="1809.93" width="751.927" height="125" id="SVGID_00000026148847906843729340000008664886369526906270_">
					<g style="filter:url(#Adobe_OpacityMaskFilter_00000028324363592430501830000011157339954501857427_);">
					</g>
				</mask>
				
					<linearGradient id="SVGID_00000160150396068041964190000007379469593028898961_" gradientUnits="userSpaceOnUse" x1="849.8535" y1="1872.4297" x2="1601.7803" y2="1872.4297">
					<stop  offset="0" style="stop-color:#000000"/>
					<stop  offset="0.0958" style="stop-color:#232323"/>
					<stop  offset="0.4244" style="stop-color:#989898"/>
					<stop  offset="0.6505" style="stop-color:#E2E2E2"/>
					<stop  offset="0.7545" style="stop-color:#FFFFFF"/>
				</linearGradient>
				
					<polygon style="mask:url(#SVGID_00000026148847906843729340000008664886369526906270_);fill:url(#SVGID_00000160150396068041964190000007379469593028898961_);" points="
					1582.633,1826.064 856.057,1934.93 849.854,1821.031 1601.78,1809.93 				"/>
			</g>
		</mask>
		
			<linearGradient id="SVGID_00000097469042388250529480000008025326087952869791_" gradientUnits="userSpaceOnUse" x1="849.8535" y1="1872.4297" x2="1601.7803" y2="1872.4297">
			<stop  offset="0" style="stop-color:#FFFFFF"/>
			<stop  offset="0.356" style="stop-color:#97C9DE"/>
			<stop  offset="0.6289" style="stop-color:#4DA2C6"/>
			<stop  offset="0.7545" style="stop-color:#3093BD"/>
		</linearGradient>
		<polygon style="fill:url(#SVGID_00000097469042388250529480000008025326087952869791_);" points="1582.633,1826.064 
			856.057,1934.93 849.854,1821.031 1601.78,1809.93 		"/>
	</g>
	<g>
		<path style="fill:#333333;" d="M1548.514,1774.255l29.701-24.78c2.401-2,2.889-5.642,1.175-8.74l0,0
			c-1.129-2.039-0.688-4.406,1.021-5.479l5.351-3.359c3.39-2.127,8.133-1.067,11.006,2.46l6.796,8.342l10.289,0.454
			c11.619,0.512,22.645-2.721,31.539-9.246l9.285-6.812c2.796-2.052,6.425-2.756,10.077-1.956l1.742,0.382
			c6.915,1.515,13.359,5.563,18.082,11.36l0,0l-68.204,57.873c-2.354,1.921-5.285,3.036-8.445,3.214l-15.12,1.048l7.332,9
			l-19.39,15.814l-29.876-36.673C1546.871,1782.244,1544.239,1777.817,1548.514,1774.255z"/>
		
			<rect x="1578.703" y="1815.302" transform="matrix(0.7647 -0.6444 0.6444 0.7647 -796.3239 1452.8518)" width="25.039" height="3.055"/>
		<path d="M1686.192,1738.797l-69.524,58.587c-1.154,0.973-2.88,0.825-3.854-0.329l-0.205-0.244l71.615-60.349L1686.192,1738.797z"
			/>
	</g>
	<polygon style="fill:#14668C;" points="1798.521,275.037 2350.506,406.074 2350.506,1750.391 1798.521,1867.509 1789.355,1847.649 
		1787.064,281.063 	"/>
	<rect x="1768.883" y="275.037" style="fill:#0E5168;" width="29.639" height="1592.472"/>
	<path style="fill:#FFC0BB;" d="M1619.511,1200.742c-0.271,1.181,0.87,2.202,2.006,1.781c8.8-3.259,36.558-13.335,37.896-11.284
		c1.592,2.438-22.991,12.046-22.906,14.748s23.826-7.276,25.107-4.396c1.28,2.881-20.672,11.253-20.556,12.656
		c0.116,1.402,22.006-4.37,23.776-3.128c1.77,1.243-20.848,10.249-21.19,11.99c-0.342,1.742,17.334,0.718,17.598,2.224
		c0.264,1.507,0.69,2.467-38.441,16.175l-15.637,4.739l-14.856-3.023l-3.268-17.93c0,0,29.62-44.389,31.82-44.385
		C1622.957,1180.912,1623.697,1182.565,1619.511,1200.742z"/>
	<path style="fill:#4F2305;" d="M950.721,1125.643c3.685,0.059,255.368-133.59,291.071-139.727l9.223,4.309
		c0,0-252.36,131.841-290.681,151.434C922.014,1161.253,950.721,1125.643,950.721,1125.643z"/>
	<path style="fill:#FFC0BB;" d="M919.034,1112.481c0.272-1.181-0.87-2.202-2.006-1.781c-8.8,3.259-36.557,13.335-37.896,11.284
		c-1.591-2.438,22.991-12.046,22.906-14.748c-0.085-2.703-23.826,7.275-25.107,4.395c-1.281-2.881,20.672-11.252,20.556-12.655
		c-0.116-1.402-22.006,4.37-23.776,3.128c-1.77-1.243,20.848-10.248,21.19-11.99c0.342-1.742-17.333-0.718-17.597-2.225
		c-0.264-1.506-0.691-2.467,38.441-16.174l15.637-4.739l14.856,3.023l3.268,17.929c0,0-29.621,44.389-31.82,44.386
		C915.587,1132.311,914.848,1130.658,919.034,1112.481z"/>
	<path style="fill:#0F134F;" d="M927.612,1496.984c0,0,38.564-141.818,109.163-208.374l120.36,169.188
		c0,0-148.04,140.575-215.217,146.174c-67.178,5.598-236.477-106.312-266.956-170.379c0,0,11.95-41.49,41.185-66.37
		C716.148,1367.223,872.253,1484.545,927.612,1496.984z"/>
	<path style="fill:#BEE1F4;" d="M1331.247,1254.354c0,0,44.837,92.104,92.11,96.458s195.313-103.876,195.313-103.876
		s1.244-20.526-25.503-40.432c0,0-126.891,48.518-142.441,47.896c-15.55-0.622-49.573-119.437-49.573-119.437l-54.303,2.498
		L1331.247,1254.354z"/>
	<path style="fill:#18196B;" d="M1080.815,1240.402c384.215,276.736,297.989,167.371,528.073,493.931
		c0,0-38.152,43.383-62.564,49.695c0,0-265.481-214.802-286.868-234.571c-21.387-19.771-269.658-142.541-269.658-142.541
		L1080.815,1240.402z"/>
	<path style="fill:#E6F7FF;" d="M1275.162,1002.173c0,0-72.775-38.254-118.96-47.118c-46.185-8.864-71.842-6.998-120.826,23.559
		c-48.983,30.556-111.962,85.605-111.962,85.605s2.799,31.256,28.457,39.187c0,0,76.974-49.45,121.292-61.579
		c0,0,25.658-9.797,50.383,3.732c24.725,13.528,50.85,34.055,50.85,34.055l-137.621,208.997c0,0,76.975,72.775,181.939,71.843
		c0,0,156.281-120.826,181.939-219.727c0,0,6.53-15.861-26.592-80.24L1275.162,1002.173z"/>
	<path style="fill:#BEE1F4;" d="M1337.52,1118.801c-10.827,22.355-22.832,44.144-35.614,65.46
		c-12.769,21.328-26.387,42.161-40.917,62.36c-14.603,20.138-30.074,39.71-47.123,57.881c-8.467,9.129-17.403,17.838-26.812,25.997
		c-9.468,8.077-19.297,15.783-29.918,22.241c10.089-7.248,19.589-15.221,28.538-23.768c9.019-8.469,17.571-17.422,25.773-26.681
		c8.179-9.277,16.196-18.704,23.793-28.476c7.66-9.717,15.16-19.567,22.346-29.65c14.529-20.053,28.241-40.702,41.542-61.618
		c6.627-10.474,13.157-21.015,19.544-31.646C1325.139,1140.315,1331.36,1129.583,1337.52,1118.801z"/>
	<path style="fill:#FFC0BB;" d="M1337.52,975.426l-10.574,23.014c0,0-9.952,61.269-9.33,65.001
		c0.622,3.731,31.744,26.436,31.744,26.436h18.328l6.375-29.391c0,0,5.754-19.749,12.285-31.878S1337.52,975.426,1337.52,975.426z"
		/>
	<path style="fill:#F99893;" d="M1337.52,975.426l-7.711,16.781c7.621,19.247,22.166,39.367,49.527,52.508
		c2.02-5.444,4.453-11.356,7.012-16.107C1392.879,1016.479,1337.52,975.426,1337.52,975.426z"/>
	<polygon style="fill:#FFFFFF;" points="1174.396,1079.613 1198.495,1095.894 1173.234,1081.378 	"/>
	<path style="fill:#BEE1F4;" d="M939.287,1050.71c-9.812,8.212-15.873,13.509-15.873,13.509s2.799,31.256,28.457,39.187
		c0,0,5.768-3.702,15.016-9.312C950.115,1074.503,942.599,1060.208,939.287,1050.71z"/>
	<path style="opacity:0.5;fill:#BEE1F4;" d="M1593.167,1206.504c0,0-6.422,2.456-16.537,6.249
		c6.276,5.834,16.247,18.25,28.001,44.188c8.808-6.181,14.039-10.005,14.039-10.005S1619.914,1226.409,1593.167,1206.504z"/>
	<path style="fill:#4F2305;" d="M1257.609,993.387c0,0,27.35,171.269-128.465,338.211l-12.596-11.285c0,0,60.646-63.892,96.101-139
		c35.455-75.108,34.677-192.826,34.677-192.826S1256.635,984.462,1257.609,993.387z"/>
	<g>
		<path style="fill:#4F2305;" d="M958.959,1430.66c-180.589-221.516-181.617-149.703-32.481-284.008l175.439,206.31
			C1007.384,1430.768,991.709,1462.212,958.959,1430.66z"/>
		<path style="fill:#632D07;" d="M1071.82,1373.12c-0.019-0.049-145.489-171.071-167.347-196.795
			c-11.772-14.836-6.771-15.325,24.095-41.703c30.931-28.709,14.014-17.954,184.281,175.641
			c16.508,20.446,27.444,23.139-0.453,44.041C1092.723,1369.8,1083.944,1384.807,1071.82,1373.12z"/>
		
			<rect x="980.502" y="1227.276" transform="matrix(0.7618 -0.6478 0.6478 0.7618 -591.2679 945.2979)" style="fill:#FEB546;" width="18.593" height="98.779"/>
	</g>
	<path style="fill:#E03268;" d="M1327.928,1098.848l2.305,29.694c0,0,2.764,5.623,9.185,5.056l23.061-12.994l1.788-19.297
		l-14.906-11.43l-16.816-3.032L1327.928,1098.848z"/>
	<path style="fill:#BEE1F4;" d="M1326.945,998.44c0,0,0.977,59.247,22.414,91.437c0,0-34.077,12.596-43.874,22.393
		c0,0-31.256-51.783-30.323-110.097C1275.162,1002.173,1291.49,993.775,1326.945,998.44z"/>
	<path style="fill:#BEE1F4;" d="M1349.359,1089.877c0,0,18.95-6.843,24.703-29.391c0,0,12.285,14.151,14.602,24.467
		c1.738,7.736-8.848,28.871-25.331,40.689C1363.333,1125.643,1360.889,1104.494,1349.359,1089.877z"/>
	<polygon style="fill:#07085B;" points="1489.415,918.363 1476.286,959.157 1468.413,960.458 1476.992,907.678 	"/>
	<path style="fill:#F99893;" d="M1466.232,950.161c-5.453,8.202-4.544,18.388,2.029,22.753c6.573,4.365,16.322,1.254,21.775-6.947
		c5.452-8.202,4.544-18.388-2.03-22.752C1481.434,938.849,1471.685,941.959,1466.232,950.161z"/>
	<path style="fill:#FFC0BB;" d="M1453.112,1001.94c3.007-3.405,5.717-7.114,8.088-11.09c6.606-10.632,11.233-22.405,14.418-32.845
		c0.684-2.24,1.495-4.435,2.348-6.616c3.445-8.808,5.364-18.496,5.226-28.888c-0.446-33.434-23.27-63.173-55.504-72.22
		c-43.427-12.187-86.884,15.188-95.554,58.16c-4.154-3.543-9.287-5.206-14.328-4.079c-9.673,2.163-15.31,13.709-12.589,25.79
		c2.72,12.08,12.766,20.121,22.438,17.957c1.344-0.3,2.6-0.798,3.775-1.436c-3.646,37.318,20.658,71.612,56.758,78.3
		c17.654,3.271,35.027-0.646,49.339-9.719c0.938-0.508,1.938-1.123,3.007-1.857
		C1445.225,1010.175,1449.39,1006.267,1453.112,1001.94z"/>
	<path style="fill:#333333;" d="M1399.341,932.821c-0.667,3.612-4.139,5.997-7.756,5.327c-3.616-0.67-6.008-4.141-5.341-7.753
		c0.667-3.612,4.139-5.997,7.755-5.327C1397.616,925.739,1400.007,929.209,1399.341,932.821z"/>
	<path style="fill:#333333;" d="M1455.04,946.854c-0.669,3.623-4.151,6.016-7.78,5.343c-3.627-0.672-6.026-4.154-5.357-7.777
		c0.669-3.623,4.151-6.016,7.779-5.343C1453.31,939.749,1455.709,943.231,1455.04,946.854z"/>
	<path style="fill:#07085B;" d="M1409.638,921.315c-2.963-1.91-5.828-3.539-8.77-4.827c-2.933-1.291-5.927-2.167-8.961-2.567
		c-3.026-0.362-6.134-0.473-9.273,0.113l-1.197,0.143c-0.4,0.054-0.78,0.192-1.183,0.263l-2.417,0.525
		c-1.629,0.378-3.2,0.975-4.984,1.308c1.22-1.246,2.553-2.439,4.009-3.467c1.545-0.844,3.045-1.938,4.802-2.439
		c3.378-1.39,7.229-1.692,10.91-1.22c3.7,0.493,7.239,1.947,10.185,4.069C1405.673,915.368,1408.178,918.065,1409.638,921.315z"/>
	<path style="fill:#07085B;" d="M1435.741,927.538c2.767-2.243,6.217-3.52,9.787-4.125c3.585-0.565,7.398-0.267,10.924,0.963
		c3.498,1.24,6.8,3.247,9.19,6.012c1.342,1.24,2.188,2.893,3.188,4.343c0.837,1.575,1.49,3.241,2.019,4.903
		c-1.443-1.102-2.577-2.344-3.86-3.416l-1.922-1.56c-0.326-0.245-0.604-0.539-0.937-0.768l-1.005-0.668
		c-2.539-1.94-5.363-3.243-8.228-4.285c-2.889-1.013-5.956-1.581-9.154-1.752C1442.537,927.008,1439.246,927.17,1435.741,927.538z"
		/>
	<path style="fill:#F99893;" d="M1425.811,924.375c-2.271,4.248-3.821,8.813-4.832,13.552c-0.503,2.381-0.82,4.803-0.877,7.326
		c-0.006,2.517,0.171,5.141,1.354,7.835l0.551,0.993l0.501,0.856c0.201,0.397,0.545,0.76,0.658,1.17
		c0.38,0.787,0.56,1.604,0.552,2.417c0.084,1.656-0.941,3.278-2.349,4.649c-3.006,2.741-7.689,3.775-12.442,3.992
		c4.447,1.619,9.985,1.898,14.624-1.166c2.262-1.478,4.238-4.078,4.492-7.208c0.064-0.772,0.063-1.547-0.104-2.295
		c-0.085-0.775-0.356-1.469-0.622-2.17c-0.235-0.727-0.687-1.284-1.037-1.926c-0.231-0.364-0.26-0.475-0.373-0.682l-0.305-0.556
		c-0.754-1.633-1.034-3.808-1.18-5.979c-0.188-2.198,0.014-4.479,0.082-6.774C1424.816,933.813,1425.356,929.153,1425.811,924.375z"
		/>
	<path style="fill:#F99893;" d="M1417.974,991.495c6.345-21.295-37.856-9.622-8.65-4.082
		C1413.49,988.935,1415.044,993.282,1417.974,991.495z"/>
	<path style="fill:#07085B;" d="M1508.331,851.521c-11.336-12.957-34.924-29.131-61.283-38.393c7.572-2.198,12.458-4.333,11.277-6
		c-9.598-13.556-58.779-3.051-74.607,0.747c-1.396-4.129-6.667-17.148-17.188-15.423c-12.479,2.046,4.829,17.348,4.829,17.348
		s-14.925-3.133-20.798,3.411c-4.342,4.838,4.807,6.699,9.874,7.342c-1.662-0.011-4.109,0.394-6.953,1.521l-0.001-0.001
		c0,0-25.31,9.722-26.564,19.772c-0.304,2.427,1.593,3.275,4.638,3.169c-5.61,9.001-15.688,26.226-13,29.809
		c1.538,2.051,3.826,1.595,5.969,0.375c-2.3,15.808-2.07,28.894-2.07,28.894c18.205,2.871,26.527,26.24,26.527,26.24
		c3.675-24.457,35.153-62.625,35.153-62.625s56.879,49.277,52.377,26.294c0,0,68.766,51.513,64.716,8.921
		c0,0,30.114,7.619,5.001-32.914C1506.228,870.006,1528.615,874.706,1508.331,851.521z"/>
	<path style="fill:#E03268;" d="M1024.359,1128.131c0,0,46.938-29.079,78.039-35.066c0,0,178.875,56.794,228.849,35.066l11.87-9.952
		v11.196c0,0-3.492,4.444-10.415,10.957c-40.95,38.525-99.37,52.331-153.464,37.006c-12.52-3.548-25.292-6.922-34.542-8.776
		c-25.503-5.113-51.627-8.086-51.627-8.086S1058.904,1130.619,1024.359,1128.131z"/>
	<polygon style="fill:#0E5168;" points="2322.975,1038.616 2322.975,445.558 1826.052,322.228 1826.052,1025.502 	"/>
	<polygon style="fill:#0E5168;" points="1826.052,1119.21 1826.052,1821.031 2322.975,1710.802 2322.975,1132.324 	"/>
	<polygon style="opacity:0.1;fill:#0E5168;" points="2322.975,1038.616 2049.51,800.794 1826.052,322.228 1826.052,1025.502 	"/>
	<polygon style="opacity:0.1;fill:#0E5168;" points="1826.052,1119.21 1826.052,1821.031 2322.975,1710.802 2028.377,1544.936 	"/>
	<path style="fill:#0A3E4C;" d="M1873.043,1073.828c0,22.709-7.781,41.118-16.315,41.118c-13.381,0-32.143-7.251-32.143-41.118
		c0-28.739,17.569-41.118,30.95-41.118S1873.043,1051.119,1873.043,1073.828z"/>
	<path style="fill:#0E5168;" d="M1877.287,1073.828c0,22.709-9.205,41.118-20.56,41.118c-11.354,0-20.559-18.409-20.559-41.118
		s9.204-41.118,20.559-41.118C1868.082,1032.71,1877.287,1051.119,1877.287,1073.828z"/>
	<polygon style="fill:#FFFFFF;" points="2222.314,607.104 2222.314,511.218 1926.712,448.586 1926.712,562.292 	"/>
	<g>
		<g>
			<path style="fill:#14668C;" d="M2025.834,527.96l-30.164-5.382v22.428l33.617,5.999v6.737l-43.633-7.786V487.75l41.906,7.477
				v6.737l-31.891-5.69v19.659l30.164,5.382V527.96z"/>
			<path style="fill:#14668C;" d="M2084.779,567.643l-9.9-15.519c-4.03-5.979-6.563-9.847-8.98-13.877l-0.23-0.041
				c-2.188,3.209-4.374,6.142-8.404,10.868l-9.325,11.996l-11.513-2.054l23.716-27.241l-22.795-34.801l11.627,2.075l10.247,16.411
				c2.878,4.575,5.065,8.103,7.139,11.795l0.346,0.062c2.187-3.301,4.144-5.813,7.021-9.268l10.592-12.693l11.513,2.055
				l-23.601,26.061l24.177,36.248L2084.779,567.643z"/>
			<path style="fill:#14668C;" d="M2118.052,511.375v62.206l-10.016-1.787v-62.206L2118.052,511.375z"/>
			<path style="fill:#14668C;" d="M2150.288,523.956l-23.601-4.211v-6.83l57.448,10.251v6.83l-23.716-4.232v55.376l-10.132-1.808
				V523.956z"/>
		</g>
	</g>
</g>
</svg>
