<svg width="16" height="16" viewBox="0 0 16 16" fill="none" xmlns="http://www.w3.org/2000/svg">
<g clip-path="url(#clip0_10734_1311)">
<path d="M5.99984 6.66667C4.16184 6.66667 2.6665 5.17133 2.6665 3.33333C2.6665 1.49533 4.16184 0 5.99984 0C7.83784 0 9.33317 1.49533 9.33317 3.33333C9.33317 5.17133 7.83784 6.66667 5.99984 6.66667ZM5.99984 1C4.71317 1 3.6665 2.04667 3.6665 3.33333C3.6665 4.62 4.71317 5.66667 5.99984 5.66667C7.2865 5.66667 8.33317 4.62 8.33317 3.33333C8.33317 2.04667 7.2865 1 5.99984 1Z" fill="currentColor"/>
<path d="M4.33333 14H0.5C0.224 14 0 13.776 0 13.5V11.1667C0 9.42067 1.42067 8 3.16667 8H8.83333C9.69667 8 10.5293 8.356 11.1167 8.97667C11.3067 9.17733 11.2973 9.49333 11.0973 9.684C10.8967 9.87267 10.58 9.86467 10.39 9.66467C9.99067 9.24267 9.42333 9.00067 8.83333 9.00067H3.16667C1.972 9.00067 1 9.97267 1 11.1673V13.0007H4.33333C4.60933 13.0007 4.83333 13.2247 4.83333 13.5007C4.83333 13.7767 4.60933 14 4.33333 14Z" fill="currentColor"/>
<path d="M9.66667 16C9.48733 16 9.322 15.904 9.23267 15.748L8.04333 13.6667H6.5C6.224 13.6667 6 13.4427 6 13.1667C6 12.8907 6.224 12.6667 6.5 12.6667H8.33333C8.51267 12.6667 8.67867 12.7633 8.76733 12.9187L9.61933 14.4093L11.2127 10.9567C11.292 10.7853 11.4613 10.6727 11.65 10.666C11.8453 10.6747 12.0153 10.7613 12.1053 10.9267L13.9633 14.3327H15.5C15.776 14.3327 16 14.5567 16 14.8327C16 15.1087 15.776 15.3333 15.5 15.3333H13.6667C13.484 15.3333 13.3153 15.2333 13.228 15.0727L11.704 12.2793L10.1207 15.71C10.042 15.88 9.87533 15.992 9.68867 16C9.68067 16 9.674 16 9.66667 16Z" fill="currentColor"/>
</g>
<defs>
<clipPath id="clip0_10734_1311">
<rect width="16" height="16" fill="currentColor"/>
</clipPath>
</defs>
</svg>
