<svg width="20" height="21" viewBox="0 0 20 21" fill="none" xmlns="http://www.w3.org/2000/svg">
<path d="M6.83166 10.1723C8.81851 10.1723 10.4292 8.66168 10.4292 6.79829C10.4292 4.93489 8.81851 3.42432 6.83166 3.42432C4.8448 3.42432 3.23413 4.93489 3.23413 6.79829C3.23413 8.66168 4.8448 10.1723 6.83166 10.1723Z" fill="currentColor"/>
<path d="M19.1753 3.20215H15.1876C14.7299 3.20215 14.3629 3.55022 14.3629 3.97564V8.33427C14.3629 9.23925 14.8907 10.0746 15.7361 10.5078L16.7707 11.0345V14.2766C16.7707 15.4635 15.741 16.4289 14.4759 16.4289H13.6668C13.6639 16.4289 13.661 16.4304 13.6581 16.4304C13.6161 14.7225 12.868 13.174 11.666 12.047C10.899 11.3315 9.95051 10.7824 8.89072 10.4691C8.27629 10.7746 7.57526 10.9448 6.83299 10.9448C6.09072 10.9448 5.38969 10.7746 4.77526 10.4691C2.00825 11.2851 0 13.7139 0 16.5797V17.2023H13.666H13.6668H14.4759C16.1963 17.2023 17.5955 15.8897 17.5955 14.2766V11.031L18.6227 10.5082C19.4722 10.075 20 9.23964 20 8.33465V3.97564C20 3.55022 19.6289 3.20215 19.1753 3.20215ZM18.5856 7.2127H17.5918V8.14476C17.5918 8.36134 17.4103 8.53151 17.1794 8.53151C16.9526 8.53151 16.767 8.36134 16.767 8.14476V7.2127H15.7732C15.5464 7.2127 15.3608 7.04253 15.3608 6.82596C15.3608 6.61325 15.5464 6.43921 15.7732 6.43921H16.767V5.50715C16.767 5.29444 16.9526 5.12041 17.1794 5.12041C17.4103 5.12041 17.5918 5.29444 17.5918 5.50715V6.43921H18.5856C18.8165 6.43921 18.9979 6.61325 18.9979 6.82596C18.9979 7.04253 18.8165 7.2127 18.5856 7.2127Z" fill="currentColor"/>
</svg>
