<svg width="37" height="36" viewBox="0 0 37 36" fill="none" xmlns="http://www.w3.org/2000/svg">
<path d="M27.5 22.4375H27.4375V22.5V24.75V24.8125H27.5H29.75C30.0318 24.8125 30.302 24.9244 30.5013 25.1237C30.7006 25.323 30.8125 25.5932 30.8125 25.875C30.8125 26.1568 30.7006 26.427 30.5013 26.6263C30.302 26.8256 30.0318 26.9375 29.75 26.9375H27.5H27.4375V27V29.25C27.4375 29.5318 27.3256 29.802 27.1263 30.0013C26.927 30.2006 26.6568 30.3125 26.375 30.3125C26.0932 30.3125 25.823 30.2006 25.6237 30.0013C25.4244 29.802 25.3125 29.5318 25.3125 29.25V21.375C25.3125 21.0932 25.4244 20.823 25.6237 20.6237C25.823 20.4244 26.0932 20.3125 26.375 20.3125H30.875C31.1568 20.3125 31.427 20.4244 31.6263 20.6237C31.8256 20.823 31.9375 21.0932 31.9375 21.375C31.9375 21.6568 31.8256 21.927 31.6263 22.1263C31.427 22.3256 31.1568 22.4375 30.875 22.4375H27.5ZM8.375 28.0625H8.3125V28.125V29.25C8.3125 29.5318 8.20056 29.802 8.0013 30.0013C7.80204 30.2006 7.53179 30.3125 7.25 30.3125C6.96821 30.3125 6.69796 30.2006 6.4987 30.0013C6.29944 29.802 6.1875 29.5318 6.1875 29.25V21.375C6.1875 21.0932 6.29944 20.823 6.4987 20.6237C6.69796 20.4244 6.96821 20.3125 7.25 20.3125H9.5C10.5277 20.3125 11.5133 20.7208 12.24 21.4475C12.9667 22.1742 13.375 23.1598 13.375 24.1875C13.375 25.2152 12.9667 26.2008 12.24 26.9275C11.5133 27.6542 10.5277 28.0625 9.5 28.0625H8.375ZM8.375 22.4375H8.3125V22.5V25.875V25.9375H8.375H9.5C9.96413 25.9375 10.4092 25.7531 10.7374 25.4249C11.0656 25.0967 11.25 24.6516 11.25 24.1875C11.25 23.7234 11.0656 23.2783 10.7374 22.9501C10.4092 22.6219 9.96413 22.4375 9.5 22.4375H8.375ZM17.375 22.4375H17.3125V22.5V28.125V28.1875H17.375H18.5C19.2625 28.1875 19.9938 27.8846 20.5329 27.3454C21.0721 26.8063 21.375 26.075 21.375 25.3125C21.375 24.55 21.0721 23.8187 20.5329 23.2796C19.9938 22.7404 19.2625 22.4375 18.5 22.4375H17.375ZM21.875 3.4375L21.875 3.4375C22.0146 3.43739 22.1528 3.46478 22.2818 3.51811L22.3057 3.46035L22.2818 3.51811C22.4108 3.57143 22.528 3.64965 22.6268 3.74828L30.5017 11.6232C30.6004 11.722 30.6786 11.8392 30.7319 11.9682C30.7852 12.0972 30.8126 12.2354 30.8125 12.375V12.375V15.75C30.8125 16.0318 30.7006 16.302 30.5013 16.5013C30.302 16.7006 30.0318 16.8125 29.75 16.8125C29.4682 16.8125 29.198 16.7006 28.9987 16.5013C28.7994 16.302 28.6875 16.0318 28.6875 15.75V13.5V13.4375H28.625H21.875C21.5932 13.4375 21.323 13.3256 21.1237 13.1263C20.9244 12.927 20.8125 12.6568 20.8125 12.375V5.625V5.5625H20.75H8.375H8.3125V5.625V15.75C8.3125 16.0318 8.20056 16.302 8.0013 16.5013C7.80204 16.7006 7.53179 16.8125 7.25 16.8125C6.96821 16.8125 6.69796 16.7006 6.4987 16.5013C6.29944 16.302 6.1875 16.0318 6.1875 15.75V5.625C6.1875 5.04484 6.41797 4.48844 6.8282 4.0782C7.23844 3.66797 7.79484 3.4375 8.375 3.4375L21.875 3.4375ZM22.9375 11.25V11.3125H23H27.0345H27.1854L27.0787 11.2058L23.0442 7.17127L22.9375 7.06458V7.21547V11.25ZM23.5 25.3125C23.5 26.6386 22.9732 27.9104 22.0355 28.848C21.0979 29.7857 19.8261 30.3125 18.5 30.3125H16.25C15.9682 30.3125 15.698 30.2006 15.4987 30.0013C15.2994 29.802 15.1875 29.5318 15.1875 29.25V21.375C15.1875 21.0932 15.2994 20.823 15.4987 20.6237C15.698 20.4244 15.9682 20.3125 16.25 20.3125H18.5C19.8261 20.3125 21.0979 20.8393 22.0355 21.777C22.9732 22.7146 23.5 23.9864 23.5 25.3125Z" fill="#CF6868" stroke="#0B4565" stroke-width="0.125"/>
</svg>
