<svg width="13" height="13" viewBox="0 0 13 13" fill="none" xmlns="http://www.w3.org/2000/svg">
<path d="M7.51688 1.3705C7.53385 1.30704 7.56316 1.24755 7.60313 1.19543C7.64311 1.14331 7.69296 1.09957 7.74984 1.06672C7.80672 1.03387 7.86951 1.01254 7.93464 1.00397C7.99976 0.995397 8.06594 0.999739 8.12938 1.01675C9.0563 1.25859 9.90199 1.74315 10.5794 2.42052C11.2567 3.09789 11.7413 3.94358 11.9831 4.8705C12.0001 4.93394 12.0045 5.00012 11.9959 5.06524C11.9873 5.13037 11.966 5.19316 11.9332 5.25004C11.9003 5.30692 11.8566 5.35677 11.8044 5.39675C11.7523 5.43672 11.6928 5.46603 11.6294 5.483C11.5871 5.49409 11.5437 5.49976 11.5 5.49987C11.3898 5.49987 11.2827 5.46347 11.1954 5.39634C11.108 5.3292 11.0453 5.23509 11.0169 5.12862C10.8196 4.37195 10.4242 3.68157 9.87124 3.12864C9.31831 2.57571 8.62793 2.18024 7.87126 1.983C7.80774 1.96609 7.74819 1.93683 7.696 1.89689C7.6438 1.85695 7.6 1.80711 7.56708 1.75022C7.53417 1.69333 7.51279 1.63051 7.50418 1.56536C7.49557 1.5002 7.49988 1.43399 7.51688 1.3705ZM7.37126 3.983C8.23313 4.213 8.78688 4.76675 9.01688 5.62862C9.04525 5.73509 9.108 5.8292 9.19536 5.89634C9.28273 5.96347 9.38982 5.99987 9.50001 5.99987C9.54367 5.99976 9.58715 5.99409 9.62938 5.983C9.69284 5.96603 9.75233 5.93672 9.80445 5.89675C9.85657 5.85677 9.90031 5.80692 9.93316 5.75004C9.96601 5.69316 9.98734 5.63037 9.99591 5.56524C10.0045 5.50012 10.0001 5.43394 9.98313 5.3705C9.66313 4.173 8.82688 3.33675 7.62938 3.01675C7.56594 2.9998 7.49977 2.99551 7.43467 3.00413C7.36957 3.01275 7.30681 3.03411 7.24996 3.06699C7.19311 3.09987 7.1433 3.14362 7.10336 3.19575C7.06342 3.24788 7.03414 3.30737 7.01719 3.37081C7.00024 3.43426 6.99596 3.50042 7.00458 3.56552C7.0132 3.63062 7.03456 3.69339 7.06744 3.75023C7.10031 3.80708 7.14407 3.85689 7.1962 3.89683C7.24833 3.93677 7.30781 3.96605 7.37126 3.983ZM12.4925 9.94237C12.3811 10.7893 11.9651 11.5666 11.3224 12.1293C10.6797 12.6919 9.8542 13.0014 9.00001 12.9999C4.03751 12.9999 5.6554e-06 8.96237 5.6554e-06 3.99987C-0.00152558 3.14568 0.307935 2.32014 0.870589 1.67743C1.43324 1.03473 2.21061 0.618815 3.05751 0.507374C3.27166 0.481224 3.48854 0.525037 3.67575 0.632273C3.86296 0.739508 4.01047 0.904414 4.09626 1.10237L5.41626 4.04925V4.05675C5.48194 4.20828 5.50906 4.37372 5.49521 4.5383C5.48136 4.70287 5.42696 4.86145 5.33688 4.99987C5.32563 5.01675 5.31376 5.03237 5.30126 5.048L4.00001 6.5905C4.46813 7.54175 5.46313 8.528 6.42688 8.99737L7.94813 7.703C7.96307 7.69044 7.97872 7.67875 7.99501 7.668C8.13331 7.57575 8.29244 7.51944 8.45799 7.50416C8.62353 7.48888 8.79028 7.51512 8.94313 7.5805L8.95126 7.58425L11.8956 8.90362C12.0939 8.98911 12.2592 9.13649 12.3668 9.32372C12.4744 9.51096 12.5185 9.728 12.4925 9.94237ZM11.5 9.81737C11.5 9.81737 11.4956 9.81737 11.4931 9.81737L8.55563 8.50175L7.03376 9.79612C7.01899 9.80863 7.00355 9.82031 6.98751 9.83112C6.8436 9.92713 6.67726 9.98416 6.50472 9.99665C6.33218 10.0091 6.15936 9.97665 6.00313 9.90237C4.83251 9.33675 3.66563 8.17862 3.09938 7.0205C3.0244 6.86541 2.99075 6.69358 3.0017 6.52166C3.01265 6.34975 3.06783 6.18357 3.16188 6.03925C3.17248 6.0223 3.18439 6.00621 3.19751 5.99112L4.50001 4.44675L3.18751 1.50925C3.18726 1.50675 3.18726 1.50424 3.18751 1.50175C2.58141 1.58081 2.02493 1.8781 1.62226 2.33795C1.2196 2.79779 0.998368 3.38865 1.00001 3.99987C1.00232 6.12089 1.84592 8.15438 3.34571 9.65417C4.8455 11.154 6.87898 11.9976 9.00001 11.9999C9.61085 12.002 10.2016 11.7815 10.6617 11.3797C11.1218 10.9779 11.4198 10.4223 11.5 9.81675V9.81737Z" fill="currentColor"/>
</svg>
