<svg width="20" height="21" viewBox="0 0 20 21" fill="none" xmlns="http://www.w3.org/2000/svg">
<path d="M12.8985 15.2745C12.9611 15.3651 12.9966 15.4698 13.0013 15.5778C13.006 15.6858 12.9796 15.7929 12.9251 15.888C12.8705 15.983 12.7897 16.0623 12.6913 16.1176C12.5929 16.1729 12.4804 16.2021 12.3659 16.2021H0.635949C0.521382 16.2021 0.408945 16.1729 0.310518 16.1176C0.212091 16.0623 0.13133 15.983 0.0767658 15.888C0.0222017 15.7929 -0.00413852 15.6858 0.000527906 15.5778C0.00519433 15.4698 0.0406942 15.3651 0.103277 15.2745C0.998569 13.9747 2.31545 12.9828 3.85743 12.4467C3.00499 11.9114 2.35781 11.1316 2.01159 10.2226C1.66538 9.31356 1.6385 8.32357 1.93495 7.39901C2.23139 6.47446 2.83541 5.66443 3.65769 5.08871C4.47997 4.51299 5.47685 4.20215 6.50091 4.20215C7.52498 4.20215 8.52186 4.51299 9.34413 5.08871C10.1664 5.66443 10.7704 6.47446 11.0669 7.39901C11.3633 8.32357 11.3364 9.31356 10.9902 10.2226C10.644 11.1316 9.99684 11.9114 9.1444 12.4467C10.6864 12.9828 12.0033 13.9747 12.8985 15.2745ZM19.8877 15.2633C18.9922 13.9689 17.6782 12.9813 16.1407 12.4467C17.147 11.8073 17.8572 10.8303 18.1267 9.71439C18.3962 8.59852 18.2048 7.42772 17.5913 6.4403C16.9779 5.45289 15.9885 4.72307 14.8247 4.39942C13.6609 4.07576 12.41 4.18258 11.3268 4.69815C11.2853 4.71832 11.2491 4.74684 11.2207 4.78168C11.1922 4.81652 11.1723 4.85683 11.1622 4.89976C11.1521 4.94269 11.1521 4.98718 11.1623 5.0301C11.1725 5.07301 11.1925 5.11329 11.221 5.14808C12.0265 6.09579 12.4891 7.26189 12.5411 8.47556C12.593 9.68923 12.2315 10.8867 11.5096 11.8926C11.463 11.9583 11.4457 12.0387 11.4617 12.1164C11.4776 12.1941 11.5254 12.2627 11.5947 12.3072C12.5359 12.9269 13.3417 13.7118 13.9679 14.6191C14.2204 14.9839 14.3236 15.4229 14.2581 15.8542C14.2507 15.8971 14.2533 15.941 14.2657 15.9829C14.2781 16.0247 14.3 16.0635 14.3298 16.0966C14.3597 16.1297 14.3968 16.1563 14.4387 16.1745C14.4805 16.1927 14.526 16.2022 14.5721 16.2021H19.3661C19.5062 16.2022 19.6423 16.1586 19.7535 16.0782C19.8646 15.9978 19.9445 15.8851 19.9807 15.7575C20.0028 15.6735 20.006 15.5862 19.9899 15.501C19.9739 15.4159 19.9391 15.3349 19.8877 15.2633Z" fill="currentColor"/>
</svg>
