<svg width="16" height="19" viewBox="0 0 16 19" fill="none" xmlns="http://www.w3.org/2000/svg">
<path d="M7.99721 8.39115C8.90069 8.39115 9.6331 7.65874 9.6331 6.75527C9.6331 5.8518 8.90069 5.11938 7.99721 5.11938C7.09374 5.11938 6.36133 5.8518 6.36133 6.75527C6.36133 7.65874 7.09374 8.39115 7.99721 8.39115Z" fill="currentColor"/>
<path fill-rule="evenodd" clip-rule="evenodd" d="M13.6425 2.40189C12.7693 2.40231 11.91 2.18404 11.1429 1.76699L7.99694 0.0510254L4.85101 1.76699C4.08391 2.18404 3.22457 2.40231 2.35143 2.40189H0.0234375V9.66041C0.0239138 11.1618 0.455354 12.6314 1.2665 13.8948C2.07765 15.1581 3.2344 16.1621 4.59934 16.7874L7.99694 18.3546L11.4003 16.7931C12.7652 16.1678 13.922 15.1639 14.7331 13.9005C15.5443 12.6371 15.9757 11.1675 15.9762 9.66613V2.40189H13.6425ZM7.99694 3.80898C8.57842 3.80898 9.14685 3.98141 9.63033 4.30447C10.1138 4.62752 10.4906 5.08669 10.7132 5.6239C10.9357 6.16112 10.9939 6.75226 10.8805 7.32257C10.767 7.89287 10.487 8.41674 10.0758 8.8279C9.66468 9.23907 9.14082 9.51908 8.57051 9.63252C8.0002 9.74596 7.40907 9.68774 6.87185 9.46522C6.33463 9.2427 5.87546 8.86587 5.55241 8.38239C5.22936 7.8989 5.05693 7.33048 5.05693 6.749C5.05844 5.96972 5.36868 5.2228 5.91971 4.67176C6.47074 4.12073 7.21767 3.81049 7.99694 3.80898ZM10.6109 13.2868C10.6109 12.9394 10.4729 12.6063 10.2273 12.3606C9.98164 12.115 9.64847 11.977 9.30108 11.977H6.68709C6.51583 11.977 6.34625 12.0107 6.18802 12.0762C6.0298 12.1418 5.88603 12.2378 5.76493 12.3589C5.64383 12.48 5.54777 12.6238 5.48223 12.782C5.41669 12.9403 5.38296 13.1098 5.38296 13.2811H4.07311C4.07311 12.5878 4.34851 11.9229 4.83873 11.4327C5.32894 10.9425 5.99382 10.6671 6.68709 10.6671H9.30108C9.99388 10.6686 10.6579 10.9445 11.1478 11.4344C11.6377 11.9243 11.9135 12.5883 11.9151 13.2811L10.6109 13.2868Z" fill="currentColor"/>
</svg>
