<svg width="17" height="18" viewBox="0 0 17 18" fill="none" xmlns="http://www.w3.org/2000/svg">
<path d="M11.3197 0.702393H2.11045C1.83325 0.702191 1.55872 0.756642 1.30258 0.862631C1.04644 0.96862 0.813702 1.12407 0.617688 1.32008C0.421674 1.51609 0.266227 1.74883 0.160238 2.00497C0.0542495 2.26112 -0.000201265 2.53564 5.59001e-07 2.81285V15.0919C-0.000201265 15.3691 0.0542495 15.6436 0.160238 15.8997C0.266227 16.1559 0.421674 16.3886 0.617688 16.5846C0.813702 16.7806 1.04644 16.9361 1.30258 17.0421C1.55872 17.1481 1.83325 17.2025 2.11045 17.2023H9.39344C8.42827 16.6158 7.68156 15.7296 7.26736 14.6789C6.85316 13.6282 6.79421 12.4708 7.09954 11.3835C7.40486 10.2962 8.05766 9.33864 8.95826 8.65715C9.85886 7.97566 10.9578 7.60766 12.0871 7.60933C12.5412 7.6081 12.9932 7.67009 13.4302 7.79352V2.81285C13.4304 2.53564 13.3759 2.26112 13.2699 2.00497C13.1639 1.74883 13.0085 1.51609 12.8125 1.32008C12.6165 1.12407 12.3837 0.96862 12.1276 0.862631C11.8714 0.756642 11.5969 0.702191 11.3197 0.702393ZM6.71508 7.99305H2.87789C2.72524 7.99305 2.57884 7.93241 2.4709 7.82447C2.36295 7.71653 2.30231 7.57013 2.30231 7.41747C2.30231 7.26482 2.36295 7.11842 2.4709 7.01048C2.57884 6.90254 2.72524 6.8419 2.87789 6.8419H6.71508C6.86773 6.8419 7.01413 6.90254 7.12208 7.01048C7.23002 7.11842 7.29066 7.26482 7.29066 7.41747C7.29066 7.57013 7.23002 7.71653 7.12208 7.82447C7.01413 7.93241 6.86773 7.99305 6.71508 7.99305ZM8.24996 4.9233H2.87789C2.72524 4.9233 2.57884 4.86266 2.4709 4.75472C2.36295 4.64678 2.30231 4.50038 2.30231 4.34772C2.30231 4.19507 2.36295 4.04867 2.4709 3.94073C2.57884 3.83279 2.72524 3.77214 2.87789 3.77214H8.24996C8.40261 3.77214 8.54901 3.83279 8.65695 3.94073C8.76489 4.04867 8.82553 4.19507 8.82553 4.34772C8.82553 4.50038 8.76489 4.64678 8.65695 4.75472C8.54901 4.86266 8.40261 4.9233 8.24996 4.9233Z" fill="currentColor"/>
<path d="M12.0876 8.37793C11.2148 8.37793 10.3616 8.63673 9.63597 9.12161C8.9103 9.6065 8.3447 10.2957 8.01071 11.102C7.67672 11.9083 7.58933 12.7956 7.7596 13.6516C7.92986 14.5076 8.35014 15.2939 8.96728 15.911C9.58441 16.5281 10.3707 16.9484 11.2267 17.1187C12.0827 17.2889 12.9699 17.2016 13.7763 16.8676C14.5826 16.5336 15.2718 15.968 15.7567 15.2423C16.2415 14.5166 16.5003 13.6635 16.5003 12.7907C16.4989 11.6208 16.0335 10.4992 15.2063 9.67197C14.3791 8.84472 13.2575 8.37935 12.0876 8.37793ZM13.6455 12.43L12.1106 13.9649C12.0573 14.0184 11.9939 14.0609 11.9241 14.0899C11.8543 14.1189 11.7794 14.1338 11.7039 14.1338C11.6283 14.1338 11.5534 14.1189 11.4836 14.0899C11.4138 14.0609 11.3504 14.0184 11.2971 13.9649L10.5297 13.1974C10.4731 13.1447 10.4278 13.0812 10.3963 13.0106C10.3648 12.94 10.3479 12.8638 10.3466 12.7865C10.3452 12.7092 10.3594 12.6324 10.3884 12.5608C10.4173 12.4891 10.4604 12.424 10.5151 12.3693C10.5697 12.3147 10.6348 12.2716 10.7065 12.2427C10.7782 12.2137 10.8549 12.1995 10.9322 12.2009C11.0095 12.2022 11.0857 12.2191 11.1563 12.2506C11.2269 12.282 11.2905 12.3274 11.3432 12.384L11.7039 12.7439L12.832 11.6165C12.8847 11.56 12.9482 11.5146 13.0188 11.4832C13.0894 11.4517 13.1657 11.4348 13.2429 11.4334C13.3202 11.432 13.397 11.4463 13.4687 11.4752C13.5403 11.5042 13.6054 11.5473 13.6601 11.6019C13.7147 11.6566 13.7578 11.7217 13.7868 11.7933C13.8157 11.865 13.8299 11.9418 13.8286 12.0191C13.8272 12.0963 13.8103 12.1726 13.7788 12.2432C13.7474 12.3138 13.702 12.3773 13.6455 12.43Z" fill="currentColor"/>
</svg>
