<svg
  width="24"
  height="24"
  viewBox="0 0 24 24"
  fill="none"
  xmlns="http://www.w3.org/2000/svg"
>
  <path
    d="M4.4375 6.73594V6.90065L4.54677 6.7774C5.99221 5.14695 8.52093 3.0625 12 3.0625C15.9884 3.0625 18.3881 5.41613 18.4866 5.51369C18.6158 5.64247 18.6885 5.81729 18.6889 5.99972C18.6892 6.18217 18.617 6.35727 18.4882 6.48651C18.3594 6.61575 18.1846 6.68853 18.0022 6.68885C17.8197 6.68918 17.6446 6.61701 17.5154 6.48823C17.482 6.45501 15.3891 4.4375 12 4.4375C8.68898 4.4375 6.30753 6.76829 5.14877 8.21086L5.06713 8.3125H5.1975H8.25C8.43234 8.3125 8.6072 8.38493 8.73614 8.51386C8.86507 8.6428 8.9375 8.81766 8.9375 9C8.9375 9.18234 8.86507 9.3572 8.73614 9.48614C8.6072 9.61507 8.43234 9.6875 8.25 9.6875H3.75C3.56766 9.6875 3.3928 9.61507 3.26386 9.48614C3.13493 9.3572 3.0625 9.18234 3.0625 9V4.5C3.0625 4.31766 3.13493 4.1428 3.26386 4.01386C3.3928 3.88493 3.56766 3.8125 3.75 3.8125C3.93234 3.8125 4.1072 3.88493 4.23614 4.01386C4.36507 4.1428 4.4375 4.31766 4.4375 4.5V6.73594ZM18.8512 15.7891L18.9329 15.6875H18.8025H15.75C15.5677 15.6875 15.3928 15.6151 15.2639 15.4861C15.1349 15.3572 15.0625 15.1823 15.0625 15C15.0625 14.8177 15.1349 14.6428 15.2639 14.5139C15.3928 14.3849 15.5677 14.3125 15.75 14.3125H20.25C20.4323 14.3125 20.6072 14.3849 20.7361 14.5139C20.8651 14.6428 20.9375 14.8177 20.9375 15V19.5C20.9375 19.6823 20.8651 19.8572 20.7361 19.9861C20.6072 20.1151 20.4323 20.1875 20.25 20.1875C20.0677 20.1875 19.8928 20.1151 19.7639 19.9861C19.6349 19.8572 19.5625 19.6823 19.5625 19.5V17.2641V17.0993L19.4532 17.2226C18.0078 18.853 15.4791 20.9375 12 20.9375C8.0121 20.9375 5.6126 18.5845 5.51349 18.4864C5.38425 18.3576 5.31147 18.1827 5.31115 18.0003C5.31082 17.8178 5.38299 17.6427 5.51177 17.5135C5.64055 17.3843 5.8154 17.3115 5.99785 17.3111C6.18029 17.3108 6.3554 17.383 6.48463 17.5118C6.51801 17.545 8.61089 19.5625 12 19.5625C15.311 19.5625 17.6925 17.2317 18.8512 15.7891Z"
    fill="currentColor"
    stroke="currentColor"
    stroke-width="0.125"
  />
</svg>
