<svg width="32" height="32" viewBox="0 0 32 32" fill="none" xmlns="http://www.w3.org/2000/svg">
<path d="M7.84243 10.5461H10.5461C11.1487 10.5461 11.6372 11.0346 11.6372 11.6372C11.6372 12.2397 11.1487 12.7282 10.5461 12.7282H6.18205C4.97694 12.7282 4 11.7513 4 10.5461V6.18205C4 5.5795 4.48847 5.09102 5.09102 5.09102C5.69358 5.09102 6.18205 5.5795 6.18205 6.18205V9.10098C7.56714 7.12993 9.52126 5.61118 11.7992 4.75969C14.5429 3.73411 17.5669 3.74734 20.3015 4.79689C23.0362 5.84644 25.2926 7.85985 26.6455 10.4577C27.9985 13.0556 28.3547 16.0587 27.647 18.901C26.9392 21.7433 25.2165 24.2287 22.8033 25.8888C20.39 27.5489 17.453 28.2692 14.5455 27.914C11.6381 27.5586 8.96091 26.1523 7.01847 23.9599C5.31815 22.0408 4.28359 19.6354 4.05046 17.1008C3.99526 16.5009 4.49332 16.0109 5.09588 16.0104C5.69843 16.0099 6.18588 16.4994 6.25325 17.0983C6.47813 19.0969 7.31357 20.9879 8.65897 22.5065C10.2467 24.2985 12.4349 25.448 14.8114 25.7383C17.1879 26.0288 19.5886 25.4401 21.561 24.083C23.5336 22.7261 24.9417 20.6946 25.5201 18.3714C26.0986 16.0482 25.8075 13.5936 24.7017 11.4701C23.5957 9.34669 21.7514 7.70097 19.5162 6.8431C17.281 5.98523 14.8092 5.9744 12.5666 6.81269C10.6662 7.52304 9.04161 8.80153 7.90579 10.4614C7.88575 10.4907 7.8646 10.5189 7.84243 10.5461Z" fill="currentColor" />
</svg>
