<svg width="12" height="22" viewBox="0 0 12 22" fill="none" xmlns="http://www.w3.org/2000/svg">
<path d="M11.7081 11.7075L1.70806 21.7075C1.61515 21.8004 1.50485 21.8741 1.38345 21.9244C1.26206 21.9747 1.13195 22.0006 1.00056 22.0006C0.869161 22.0006 0.739053 21.9747 0.61766 21.9244C0.496267 21.8741 0.385966 21.8004 0.293056 21.7075C0.200145 21.6146 0.126445 21.5043 0.0761623 21.3829C0.0258797 21.2615 0 21.1314 0 21C0 20.8686 0.0258797 20.7385 0.0761623 20.6171C0.126445 20.4957 0.200145 20.3854 0.293056 20.2925L9.58681 11L0.293056 1.70751C0.105415 1.51987 -1.97712e-09 1.26537 0 1.00001C1.97712e-09 0.734643 0.105415 0.480147 0.293056 0.292507C0.480696 0.104866 0.735192 -0.000549314 1.00056 -0.000549316C1.26592 -0.000549318 1.52042 0.104866 1.70806 0.292507L11.7081 10.2925C11.801 10.3854 11.8748 10.4957 11.9251 10.6171C11.9754 10.7385 12.0013 10.8686 12.0013 11C12.0013 11.1314 11.9754 11.2615 11.9251 11.3829C11.8748 11.5043 11.801 11.6146 11.7081 11.7075Z" fill="currentColor"/>
</svg>
