<svg width="21" height="12" viewBox="0 0 21 12" fill="none" xmlns="http://www.w3.org/2000/svg">
<path d="M12.0858 11.2758C11.8308 11.0758 11.7084 10.8341 11.7186 10.5508C11.7296 10.2674 11.8627 10.0258 12.1177 9.82578L15.7196 7.00078H1.50306C1.1418 7.00078 0.838767 6.90478 0.593961 6.71278C0.350005 6.52145 0.228027 6.28411 0.228027 6.00078C0.228027 5.71745 0.350005 5.47978 0.593961 5.28778C0.838767 5.09645 1.1418 5.00078 1.50306 5.00078H15.7196L12.0858 2.15078C11.8308 1.95078 11.7033 1.71311 11.7033 1.43778C11.7033 1.16311 11.8308 0.925781 12.0858 0.725781C12.3408 0.525781 12.6438 0.425781 12.9949 0.425781C13.3451 0.425781 13.6477 0.525781 13.9027 0.725781L19.736 5.30078C19.8635 5.40078 19.954 5.50911 20.0076 5.62578C20.0603 5.74245 20.0866 5.86745 20.0866 6.00078C20.0866 6.13411 20.0603 6.25911 20.0076 6.37578C19.954 6.49245 19.8635 6.60078 19.736 6.70078L13.8708 11.3008C13.6371 11.4841 13.3451 11.5758 12.9949 11.5758C12.6438 11.5758 12.3408 11.4758 12.0858 11.2758Z" fill="#002646"/>
</svg>
