<svg width="21" height="12" viewBox="0 0 21 12" fill="none" xmlns="http://www.w3.org/2000/svg">
<path d="M8.26381 11.2758C8.51882 11.0758 8.64122 10.8341 8.63102 10.5508C8.61997 10.2674 8.48694 10.0258 8.23194 9.82578L4.62998 7.00078H18.8466C19.2078 7.00078 19.5108 6.90478 19.7556 6.71278C19.9996 6.52145 20.1216 6.28411 20.1216 6.00078C20.1216 5.71745 19.9996 5.47978 19.7556 5.28778C19.5108 5.09645 19.2078 5.00078 18.8466 5.00078H4.62998L8.26381 2.15078C8.51882 1.95078 8.64632 1.71311 8.64632 1.43778C8.64632 1.16311 8.51882 0.925781 8.26381 0.725781C8.00881 0.525781 7.70577 0.425781 7.35472 0.425781C7.00451 0.425781 6.7019 0.525781 6.44689 0.725781L0.613638 5.30078C0.486135 5.40078 0.395607 5.50911 0.342056 5.62578C0.289354 5.74245 0.263004 5.86745 0.263004 6.00078C0.263004 6.13411 0.289354 6.25911 0.342056 6.37578C0.395607 6.49245 0.486135 6.60078 0.613638 6.70078L6.47877 11.3008C6.71253 11.4841 7.00451 11.5758 7.35472 11.5758C7.70577 11.5758 8.00881 11.4758 8.26381 11.2758Z" fill="#002646"/>
</svg>
