<svg width="17" height="13" viewBox="0 0 17 13" fill="none" xmlns="http://www.w3.org/2000/svg">
<path d="M7.17547 12.0399C7.38434 11.8311 7.48459 11.5787 7.47624 11.2828C7.46719 10.9869 7.35823 10.7345 7.14936 10.5257L4.19914 7.57543H15.8434C16.1393 7.57543 16.3875 7.47517 16.588 7.27466C16.7878 7.07485 16.8877 6.827 16.8877 6.5311C16.8877 6.23521 16.7878 5.98701 16.588 5.7865C16.3875 5.58668 16.1393 5.48678 15.8434 5.48678H4.19914L7.17547 2.51045C7.38434 2.30158 7.48877 2.05338 7.48877 1.76584C7.48877 1.479 7.38434 1.23115 7.17547 1.02228C6.96661 0.813417 6.7184 0.708984 6.43087 0.708984C6.14402 0.708984 5.89617 0.813417 5.6873 1.02228L0.909501 5.80008C0.805069 5.90451 0.730921 6.01764 0.687057 6.13948C0.643892 6.26132 0.622309 6.39186 0.622309 6.5311C0.622309 6.67035 0.643892 6.80089 0.687057 6.92273C0.730921 7.04456 0.805069 7.1577 0.909501 7.26213L5.71341 12.066C5.90487 12.2575 6.14402 12.3532 6.43087 12.3532C6.7184 12.3532 6.96661 12.2488 7.17547 12.0399Z" fill="currentColor"/>
</svg>
