<svg width="17" height="13" viewBox="0 0 17 13" fill="none" xmlns="http://www.w3.org/2000/svg">
<path d="M9.88785 12.0399C9.67899 11.8311 9.57873 11.5787 9.58709 11.2828C9.59614 10.9869 9.7051 10.7345 9.91396 10.5257L12.8642 7.57543H1.21993C0.924034 7.57543 0.675832 7.47517 0.475321 7.27466C0.275506 7.07485 0.175598 6.827 0.175598 6.5311C0.175598 6.23521 0.275506 5.98701 0.475321 5.7865C0.675832 5.58668 0.924034 5.48678 1.21993 5.48678H12.8642L9.88785 2.51045C9.67899 2.30158 9.57455 2.05338 9.57455 1.76584C9.57455 1.479 9.67899 1.23115 9.88785 1.02228C10.0967 0.813417 10.3449 0.708984 10.6325 0.708984C10.9193 0.708984 11.1672 0.813417 11.376 1.02228L16.1538 5.80008C16.2583 5.90451 16.3324 6.01764 16.3763 6.13948C16.4194 6.26132 16.441 6.39186 16.441 6.5311C16.441 6.67035 16.4194 6.80089 16.3763 6.92273C16.3324 7.04456 16.2583 7.1577 16.1538 7.26213L11.3499 12.066C11.1585 12.2575 10.9193 12.3532 10.6325 12.3532C10.3449 12.3532 10.0967 12.2488 9.88785 12.0399Z" fill="currentColor"/>
</svg>
