<svg width="30" height="30" viewBox="0 0 30 30" fill="none" xmlns="http://www.w3.org/2000/svg">
<path d="M25 28.75H5C4.00544 28.75 3.05161 28.3549 2.34835 27.6517C1.64509 26.9484 1.25 25.9946 1.25 25V5C1.25 4.00544 1.64509 3.05161 2.34835 2.34835C3.05161 1.64509 4.00544 1.25 5 1.25H12.5C12.8315 1.25 13.1495 1.3817 13.3839 1.61612C13.6183 1.85054 13.75 2.16848 13.75 2.5C13.75 2.83152 13.6183 3.14946 13.3839 3.38388C13.1495 3.6183 12.8315 3.75 12.5 3.75H5C4.66848 3.75 4.35054 3.8817 4.11612 4.11612C3.8817 4.35054 3.75 4.66848 3.75 5V25C3.75 25.3315 3.8817 25.6495 4.11612 25.8839C4.35054 26.1183 4.66848 26.25 5 26.25H25C25.3315 26.25 25.6495 26.1183 25.8839 25.8839C26.1183 25.6495 26.25 25.3315 26.25 25V17.5C26.25 17.1685 26.3817 16.8505 26.6161 16.6161C26.8505 16.3817 27.1685 16.25 27.5 16.25C27.8315 16.25 28.1495 16.3817 28.3839 16.6161C28.6183 16.8505 28.75 17.1685 28.75 17.5V25C28.75 25.9946 28.3549 26.9484 27.6517 27.6517C26.9484 28.3549 25.9946 28.75 25 28.75ZM12.5 18.75C12.3355 18.751 12.1724 18.7194 12.0201 18.6572C11.8678 18.595 11.7293 18.5034 11.6125 18.3875C11.4953 18.2713 11.4023 18.133 11.3389 17.9807C11.2754 17.8284 11.2428 17.665 11.2428 17.5C11.2428 17.335 11.2754 17.1716 11.3389 17.0193C11.4023 16.867 11.4953 16.7287 11.6125 16.6125L24.4875 3.75H20C19.6685 3.75 19.3505 3.6183 19.1161 3.38388C18.8817 3.14946 18.75 2.83152 18.75 2.5C18.75 2.16848 18.8817 1.85054 19.1161 1.61612C19.3505 1.3817 19.6685 1.25 20 1.25H27.5C27.8315 1.25 28.1495 1.3817 28.3839 1.61612C28.6183 1.85054 28.75 2.16848 28.75 2.5V10C28.75 10.3315 28.6183 10.6495 28.3839 10.8839C28.1495 11.1183 27.8315 11.25 27.5 11.25C27.1685 11.25 26.8505 11.1183 26.6161 10.8839C26.3817 10.6495 26.25 10.3315 26.25 10V5.5125L13.3875 18.3875C13.2707 18.5034 13.1322 18.595 12.9799 18.6572C12.8276 18.7194 12.6645 18.751 12.5 18.75Z" fill="currentColor"/>
</svg>
