<svg width="20" height="21" viewBox="0 0 20 21" fill="none" xmlns="http://www.w3.org/2000/svg">
<path d="M18.25 10.4042C18.2538 10.2692 18.2538 10.1342 18.25 9.9992L19.6488 8.2517C19.7221 8.15995 19.7729 8.05225 19.797 7.93729C19.8211 7.82233 19.8179 7.70331 19.7875 7.58983C19.5578 6.72803 19.2148 5.9005 18.7675 5.12889C18.7089 5.02794 18.6275 4.94206 18.5299 4.8781C18.4322 4.81414 18.321 4.77385 18.205 4.76045L15.9813 4.51295C15.8888 4.41545 15.795 4.3217 15.7 4.2317L15.4375 2.00233C15.424 1.88628 15.3836 1.77498 15.3195 1.67733C15.2554 1.57967 15.1693 1.49834 15.0682 1.43983C14.2966 0.992874 13.469 0.650498 12.6072 0.421703C12.4937 0.391384 12.3747 0.388145 12.2598 0.412245C12.1448 0.436345 12.0371 0.487111 11.9454 0.560453L10.2025 1.9517C10.0675 1.9517 9.93254 1.9517 9.79754 1.9517L8.05004 0.555765C7.95829 0.482423 7.85059 0.431657 7.73563 0.407557C7.62067 0.383457 7.50165 0.386697 7.38817 0.417015C6.52637 0.646728 5.69884 0.989718 4.92723 1.43702C4.82628 1.49563 4.7404 1.57701 4.67644 1.67466C4.61248 1.77231 4.57219 1.88355 4.55879 1.99952L4.31129 4.22702C4.21379 4.32014 4.12004 4.41389 4.03004 4.50827L1.80067 4.7642C1.68462 4.7777 1.57332 4.81813 1.47566 4.88226C1.37801 4.94639 1.29668 5.03245 1.23817 5.13358C0.791305 5.90529 0.448637 6.7328 0.219105 7.59452C0.188915 7.70807 0.185827 7.82713 0.210091 7.9421C0.234354 8.05706 0.28529 8.16472 0.358793 8.25639L1.75004 9.9992C1.75004 10.1342 1.75004 10.2692 1.75004 10.4042L0.354105 12.1517C0.280763 12.2435 0.229997 12.3511 0.205897 12.4661C0.181797 12.5811 0.185037 12.7001 0.215355 12.8136C0.445068 13.6754 0.788058 14.5029 1.23536 15.2745C1.29397 15.3755 1.37535 15.4613 1.473 15.5253C1.57065 15.5893 1.68189 15.6296 1.79785 15.643L4.02161 15.8905C4.11473 15.988 4.20848 16.0817 4.30286 16.1717L4.56254 18.4011C4.57604 18.5171 4.61647 18.6284 4.6806 18.7261C4.74473 18.8237 4.83079 18.9051 4.93192 18.9636C5.70363 19.4104 6.53114 19.7531 7.39286 19.9826C7.50641 20.0128 7.62547 20.0159 7.74044 19.9917C7.8554 19.9674 7.96306 19.9165 8.05473 19.843L9.79754 18.4517C9.93254 18.4555 10.0675 18.4555 10.2025 18.4517L11.95 19.8505C12.0418 19.9238 12.1495 19.9746 12.2645 19.9987C12.3794 20.0228 12.4984 20.0195 12.6119 19.9892C13.4739 19.7599 14.3014 19.4169 15.0729 18.9692C15.1738 18.9106 15.2597 18.8292 15.3236 18.7316C15.3876 18.6339 15.4279 18.5227 15.4413 18.4067L15.6888 16.183C15.7863 16.0905 15.88 15.9967 15.97 15.9017L18.1994 15.6392C18.3155 15.6257 18.4268 15.5853 18.5244 15.5211C18.6221 15.457 18.7034 15.371 18.7619 15.2698C19.2088 14.4981 19.5514 13.6706 19.781 12.8089C19.8112 12.6953 19.8143 12.5763 19.79 12.4613C19.7657 12.3463 19.7148 12.2387 19.6413 12.147L18.25 10.4042ZM10 13.9517C9.25836 13.9517 8.53334 13.7318 7.91665 13.3197C7.29997 12.9077 6.81932 12.322 6.53549 11.6368C6.25167 10.9515 6.1774 10.1975 6.3221 9.47011C6.46679 8.74269 6.82395 8.0745 7.34839 7.55005C7.87284 7.02561 8.54103 6.66845 9.26845 6.52376C9.99588 6.37906 10.7499 6.45333 11.4351 6.73715C12.1203 7.02098 12.706 7.50163 13.1181 8.11831C13.5301 8.735 13.75 9.46002 13.75 10.2017C13.75 11.1963 13.355 12.1501 12.6517 12.8534C11.9484 13.5566 10.9946 13.9517 10 13.9517Z" fill="currentColor"/>
</svg>
