<svg width="20" height="22" viewBox="0 0 20 22" fill="none" xmlns="http://www.w3.org/2000/svg">
<path d="M10.6721 0.122469C10.7689 0.17123 10.8656 0.219991 10.9653 0.27023C11.1317 0.352456 11.1317 0.352456 11.3014 0.436343C11.4198 0.496519 11.5382 0.556694 11.6601 0.618693C11.8516 0.713913 12.0434 0.808571 12.2352 0.903197C12.3675 0.968492 12.4998 1.03395 12.6319 1.09956C13.3026 1.43197 13.9819 1.74491 14.6623 2.05708C15.7316 2.55067 16.7959 3.05392 17.8565 3.56595C18.0136 3.64175 18.1707 3.71741 18.328 3.79292C18.5472 3.89826 18.766 4.0042 18.9849 4.11033C19.0506 4.14183 19.1163 4.17333 19.184 4.20578C19.4546 4.33778 19.6602 4.44875 19.8748 4.66334C19.9085 4.94576 19.9295 5.21778 19.9408 5.5013C19.9445 5.58611 19.9483 5.67093 19.9522 5.75832C19.9631 6.02671 19.972 6.29511 19.9804 6.5636C19.9849 6.68661 19.9849 6.68661 19.9895 6.81211C20.1287 10.9428 18.8847 15.0418 16.0681 18.1091C14.8797 19.3659 13.488 20.3366 11.957 21.1322C11.8894 21.1677 11.8218 21.2031 11.7522 21.2397C11.5445 21.3471 11.3355 21.4514 11.1257 21.5545C11.0018 21.6155 10.878 21.6764 10.7504 21.7393C10.1648 21.9443 9.69158 21.966 9.12893 21.7162C8.99296 21.6466 8.85799 21.575 8.72397 21.5017C8.65125 21.4635 8.57854 21.4252 8.50362 21.3858C8.28133 21.2679 8.06057 21.1474 7.83982 21.0267C7.70993 20.9576 7.58003 20.8886 7.45012 20.8196C4.05756 18.9623 1.7506 15.9554 0.644986 12.2825C0.530603 11.8561 0.431484 11.4302 0.344359 10.9975C0.32842 10.9186 0.312481 10.8397 0.296059 10.7584C-0.0313253 9.05438 -0.0261952 7.34177 0.0276495 5.61347C0.0262206 5.51895 0.0247917 5.42444 0.0233195 5.32707C0.0312625 4.99538 0.039586 4.76189 0.274125 4.51504C0.500625 4.36395 0.73103 4.25093 0.977778 4.13549C1.14458 4.05154 1.14458 4.05154 1.31475 3.9659C1.7129 3.76734 2.11357 3.57482 2.51514 3.3833C2.66242 3.31264 2.80968 3.24193 2.95693 3.17118C3.25144 3.02979 3.54608 2.88867 3.84084 2.74782C4.19462 2.57875 4.54799 2.40882 4.90118 2.23853C5.38537 2.0053 5.87056 1.77426 6.35622 1.54413C6.65688 1.40099 6.95685 1.25649 7.25671 1.11166C7.52542 0.982277 7.79473 0.854154 8.06417 0.72628C8.19457 0.664095 8.32473 0.60142 8.45464 0.538221C8.63614 0.450027 8.8186 0.363804 9.00109 0.277653C9.1056 0.227548 9.21012 0.177443 9.3178 0.125819C9.79865 -0.037477 10.1916 -0.0451932 10.6721 0.122469ZM8.9949 1.88677C8.90956 1.9276 8.82423 1.96844 8.7363 2.01051C8.55261 2.09849 8.36905 2.18673 8.18561 2.27523C7.70554 2.5068 7.22454 2.73642 6.74371 2.96639C6.64784 3.01231 6.55198 3.05823 6.45321 3.10555C5.62269 3.50316 4.78913 3.89386 3.95353 4.28065C3.78146 4.3604 3.78146 4.3604 3.60592 4.44176C3.49785 4.49175 3.38979 4.54173 3.27846 4.59323C3.12646 4.66381 3.12646 4.66381 2.97139 4.73581C2.75978 4.83218 2.5469 4.92581 2.33312 5.01727C2.2273 5.06296 2.12148 5.10865 2.01245 5.15572C1.87003 5.21566 1.87003 5.21566 1.72473 5.27681C1.47066 5.39006 1.47066 5.39006 1.40006 5.71904C1.37816 6.16576 1.38044 6.61278 1.3805 7.05997C1.38027 7.27799 1.37836 7.49594 1.37635 7.71394C1.36048 11.3873 2.72992 14.8954 5.28593 17.5326C6.29035 18.5295 7.45545 19.2821 8.68438 19.971C8.78617 20.0303 8.88796 20.0896 8.99284 20.1508C9.08266 20.2003 9.17247 20.2498 9.26501 20.3009C9.34013 20.3425 9.41525 20.3842 9.49265 20.4271C10.0829 20.5982 10.5956 20.3662 11.1124 20.0945C11.1865 20.0538 11.2605 20.013 11.3368 19.971C11.4152 19.9284 11.4935 19.8859 11.5742 19.842C12.8221 19.1522 13.8892 18.3177 14.913 17.3317C14.9823 17.2691 15.0515 17.2065 15.1229 17.142C16.7231 15.6558 17.61 13.4752 18.1857 11.4198C18.2217 11.2914 18.2217 11.2914 18.2584 11.1603C18.6834 9.55891 19.0383 7.01006 18.5024 5.40233C18.2729 5.27047 18.0512 5.15864 17.8108 5.05015C17.7393 5.01682 17.6678 4.98349 17.5941 4.94915C17.3585 4.83965 17.1222 4.73171 16.8858 4.62375C16.7224 4.54811 16.5589 4.47237 16.3955 4.39653C16.0625 4.24215 15.7292 4.08839 15.3957 3.93517C14.9566 3.73343 14.5181 3.53029 14.08 3.32639C13.5892 3.09803 13.0982 2.87029 12.607 2.64308C12.1988 2.45395 11.7919 2.26273 11.3863 2.06822C11.3019 2.02787 11.2176 1.98752 11.1307 1.94595C10.9794 1.87336 10.8283 1.80027 10.6776 1.72656C9.98784 1.39581 9.65105 1.56802 8.9949 1.88677Z" fill="currentColor"/>
<path d="M10.3736 5.93088C10.5524 6.05354 10.5524 6.05354 10.6903 6.24759C10.7312 6.5233 10.7312 6.5233 10.733 6.8583C10.7343 6.98373 10.7357 7.10916 10.737 7.23839C10.7367 7.37398 10.7364 7.50957 10.7361 7.64928C10.7366 7.78842 10.7372 7.92757 10.7378 8.07093C10.7387 8.36548 10.7385 8.66 10.7374 8.95454C10.7362 9.3317 10.7383 9.70874 10.7414 10.0859C10.7438 10.4459 10.7431 10.806 10.7427 11.1661C10.7445 11.3691 10.7445 11.3691 10.7463 11.5763C10.7453 11.7021 10.7443 11.8278 10.7433 11.9574C10.7433 12.1234 10.7433 12.1234 10.7432 12.2927C10.6765 12.6574 10.5634 12.7852 10.268 13.0041C9.88535 12.9975 9.88535 12.9975 9.52905 12.8985C9.28665 12.5349 9.29079 12.3977 9.28891 11.9694C9.2874 11.7807 9.2874 11.7807 9.28586 11.5883C9.28596 11.4524 9.28606 11.3164 9.28616 11.1764C9.28575 11.0356 9.28529 10.8948 9.28478 10.754C9.284 10.459 9.28403 10.164 9.28458 9.86903C9.2852 9.49094 9.28341 9.1129 9.28096 8.73482C9.2794 8.4441 9.27931 8.1534 9.27964 7.86267C9.27956 7.65548 9.27809 7.44829 9.27661 7.2411C9.27727 7.11533 9.27793 6.98956 9.2786 6.85998C9.27854 6.74911 9.27847 6.63824 9.2784 6.52401C9.31791 6.24759 9.31791 6.24759 9.45563 6.05344C9.75624 5.84761 10.0224 5.89325 10.3736 5.93088Z" fill="currentColor"/>
<path d="M10.479 13.6379C10.7297 13.8028 10.7297 13.8028 10.9012 14.0602C10.9762 14.5848 10.9848 14.7832 10.6835 15.2214C10.2913 15.4885 10.1002 15.5157 9.6344 15.4326C9.32503 15.2219 9.14401 15.0706 9.05954 14.6965C9.03868 14.3243 9.075 14.1026 9.2979 13.8028C9.71483 13.505 9.99484 13.5094 10.479 13.6379Z" fill="currentColor"/>
</svg>
