<svg width="16" height="17" viewBox="0 0 16 17" fill="none" xmlns="http://www.w3.org/2000/svg">
<path d="M4.00002 7.0625V3C4.00002 2.86739 3.94734 2.74021 3.85357 2.64645C3.7598 2.55268 3.63262 2.5 3.50002 2.5C3.36741 2.5 3.24023 2.55268 3.14646 2.64645C3.05269 2.74021 3.00002 2.86739 3.00002 3V7.0625C2.56981 7.17265 2.1885 7.42285 1.9162 7.77365C1.64389 8.12446 1.49609 8.55591 1.49609 9C1.49609 9.44409 1.64389 9.87554 1.9162 10.2263C2.1885 10.5771 2.56981 10.8273 3.00002 10.9375V14C3.00002 14.1326 3.05269 14.2598 3.14646 14.3536C3.24023 14.4473 3.36741 14.5 3.50002 14.5C3.63262 14.5 3.7598 14.4473 3.85357 14.3536C3.94734 14.2598 4.00002 14.1326 4.00002 14V10.9375C4.43022 10.8273 4.81153 10.5771 5.08384 10.2263C5.35614 9.87554 5.50394 9.44409 5.50394 9C5.50394 8.55591 5.35614 8.12446 5.08384 7.77365C4.81153 7.42285 4.43022 7.17265 4.00002 7.0625ZM3.50002 10C3.30223 10 3.10889 9.94135 2.94445 9.83147C2.78 9.72159 2.65182 9.56541 2.57614 9.38268C2.50045 9.19996 2.48064 8.99889 2.51923 8.80491C2.55782 8.61093 2.65306 8.43275 2.79291 8.29289C2.93276 8.15304 3.11094 8.0578 3.30493 8.01921C3.49891 7.98063 3.69997 8.00043 3.8827 8.07612C4.06543 8.15181 4.2216 8.27998 4.33148 8.44443C4.44137 8.60888 4.50002 8.80222 4.50002 9C4.50002 9.26522 4.39466 9.51957 4.20712 9.70711C4.01959 9.89464 3.76523 10 3.50002 10ZM8.50002 4.0625V3C8.50002 2.86739 8.44734 2.74021 8.35357 2.64645C8.2598 2.55268 8.13262 2.5 8.00002 2.5C7.86741 2.5 7.74023 2.55268 7.64646 2.64645C7.55269 2.74021 7.50002 2.86739 7.50002 3V4.0625C7.06981 4.17265 6.6885 4.42285 6.4162 4.77365C6.14389 5.12446 5.99609 5.55591 5.99609 6C5.99609 6.44409 6.14389 6.87554 6.4162 7.22635C6.6885 7.57715 7.06981 7.82735 7.50002 7.9375V14C7.50002 14.1326 7.55269 14.2598 7.64646 14.3536C7.74023 14.4473 7.86741 14.5 8.00002 14.5C8.13262 14.5 8.2598 14.4473 8.35357 14.3536C8.44734 14.2598 8.50002 14.1326 8.50002 14V7.9375C8.93022 7.82735 9.31153 7.57715 9.58383 7.22635C9.85614 6.87554 10.0039 6.44409 10.0039 6C10.0039 5.55591 9.85614 5.12446 9.58383 4.77365C9.31153 4.42285 8.93022 4.17265 8.50002 4.0625ZM8.00002 7C7.80223 7 7.60889 6.94135 7.44445 6.83147C7.28 6.72159 7.15182 6.56541 7.07614 6.38268C7.00045 6.19996 6.98064 5.99889 7.01923 5.80491C7.05782 5.61093 7.15306 5.43275 7.29291 5.29289C7.43276 5.15304 7.61094 5.0578 7.80492 5.01921C7.99891 4.98063 8.19997 5.00043 8.3827 5.07612C8.56542 5.15181 8.7216 5.27998 8.83148 5.44443C8.94137 5.60888 9.00002 5.80222 9.00002 6C9.00002 6.26522 8.89466 6.51957 8.70712 6.70711C8.51959 6.89464 8.26523 7 8.00002 7ZM14.5 11C14.4996 10.5566 14.3521 10.1259 14.0807 9.77525C13.8092 9.42464 13.4292 9.17397 13 9.0625V3C13 2.86739 12.9473 2.74021 12.8536 2.64645C12.7598 2.55268 12.6326 2.5 12.5 2.5C12.3674 2.5 12.2402 2.55268 12.1465 2.64645C12.0527 2.74021 12 2.86739 12 3V9.0625C11.5698 9.17265 11.1885 9.42285 10.9162 9.77365C10.6439 10.1245 10.4961 10.5559 10.4961 11C10.4961 11.4441 10.6439 11.8755 10.9162 12.2263C11.1885 12.5771 11.5698 12.8273 12 12.9375V14C12 14.1326 12.0527 14.2598 12.1465 14.3536C12.2402 14.4473 12.3674 14.5 12.5 14.5C12.6326 14.5 12.7598 14.4473 12.8536 14.3536C12.9473 14.2598 13 14.1326 13 14V12.9375C13.4292 12.826 13.8092 12.5754 14.0807 12.2247C14.3521 11.8741 14.4996 11.4434 14.5 11ZM12.5 12C12.3022 12 12.1089 11.9414 11.9444 11.8315C11.78 11.7216 11.6518 11.5654 11.5761 11.3827C11.5004 11.2 11.4806 10.9989 11.5192 10.8049C11.5578 10.6109 11.6531 10.4327 11.7929 10.2929C11.9328 10.153 12.1109 10.0578 12.3049 10.0192C12.4989 9.98063 12.7 10.0004 12.8827 10.0761C13.0654 10.1518 13.2216 10.28 13.3315 10.4444C13.4414 10.6089 13.5 10.8022 13.5 11C13.5 11.2652 13.3947 11.5196 13.2071 11.7071C13.0196 11.8946 12.7652 12 12.5 12Z" fill="currentColor"/>
</svg>
