<svg width="61" height="61" viewBox="0 0 61 61" fill="none" xmlns="http://www.w3.org/2000/svg">
<path d="M48.2269 10.6895H47.6746V47.8213C47.6701 50.894 45.2612 53.3865 42.2865 53.3911H12.3645C12.6519 55.1758 14.1471 56.4847 15.8982 56.4847H48.2272C50.2073 56.4777 51.8126 54.8207 51.8193 52.7715V14.4026C51.8125 12.3534 50.2071 10.6941 48.2269 10.6895Z" fill="currentColor"/>
<path d="M15.9451 29.2559H23.1293V32.969H15.9451V29.2559Z" fill="currentColor"/>
<path d="M25.5249 29.2559H31.5125V32.969H25.5249V29.2559Z" fill="currentColor"/>
<path d="M33.9058 29.2559H38.6945V32.969H33.9058V29.2559Z" fill="currentColor"/>
<path d="M25.5249 23.0664H31.5125V26.7796H25.5249V23.0664Z" fill="currentColor"/>
<path d="M14.3083 5.83708L9.59365 11.683C9.05484 12.3514 8.76074 13.1915 8.76074 14.0618V14.4029H15.945V4.70703C15.3073 4.91822 14.7393 5.30796 14.3083 5.83708Z" fill="currentColor"/>
<path d="M25.5249 35.4414H31.5125V39.1546H25.5249V35.4414Z" fill="currentColor"/>
<path d="M45.8789 47.8213V8.21319C45.8766 6.16398 44.2714 4.50232 42.2868 4.5H18.3409V15.6396C18.3409 15.9668 18.213 16.2824 17.9885 16.5145C17.764 16.7466 17.4609 16.8766 17.142 16.8766H8.76123V47.8214C8.76348 49.8706 10.371 51.5322 12.3533 51.5346H42.2868C44.2714 51.5322 45.8766 49.8705 45.8789 47.8213ZM24.3262 10.6894H38.6947C39.3569 10.6894 39.8935 11.2418 39.8935 11.9264C39.8935 12.611 39.357 13.1633 38.6947 13.1633H24.3262C23.6662 13.1633 23.1296 12.611 23.1296 11.9264C23.1296 11.2418 23.6662 10.6894 24.3262 10.6894ZM24.3262 15.0223L38.6947 15.02C39.3569 15.02 39.8935 15.5746 39.8935 16.2592C39.8935 16.9415 39.357 17.4962 38.6947 17.4962H24.3262C23.6662 17.4962 23.1296 16.9415 23.1296 16.2592C23.1296 15.5746 23.6662 15.02 24.3262 15.02V15.0223ZM41.0902 28.0161V45.3451C41.0902 45.6723 40.9645 45.9879 40.7399 46.22C40.5154 46.4521 40.2101 46.5821 39.8935 46.5821H21.933C21.2707 46.5821 20.7342 46.0297 20.7342 45.3451V41.6319H14.7488C14.0866 41.6319 13.55 41.0773 13.55 40.395V21.8291C13.55 21.1445 14.0866 20.5898 14.7488 20.5898H39.8936C40.2101 20.5898 40.5155 20.7221 40.74 20.9542C40.9645 21.1862 41.0902 21.4995 41.0902 21.8291L41.0902 28.0161Z" fill="currentColor"/>
<path d="M23.1293 35.4414H15.9451V39.1546H23.1293V35.4414Z" fill="currentColor"/>
<path d="M24.326 41.6309H23.1294V44.1071H38.6944V41.6309H24.326Z" fill="currentColor"/>
<path d="M33.9058 23.0664H38.6945V26.7796H33.9058V23.0664Z" fill="currentColor"/>
<path d="M33.9058 35.4414H38.6945V39.1546H33.9058V35.4414Z" fill="currentColor"/>
<path d="M15.9451 23.0664H23.1293V26.7796H15.9451V23.0664Z" fill="currentColor"/>
</svg>
