<svg width="9" height="10" viewBox="0 0 9 10" fill="none" xmlns="http://www.w3.org/2000/svg">
<path d="M7.28125 5.9375C7.28125 6.03021 7.25376 6.12084 7.20225 6.19792C7.15074 6.27501 7.07754 6.33509 6.99188 6.37057C6.90623 6.40605 6.81198 6.41533 6.72105 6.39724C6.63012 6.37916 6.5466 6.33451 6.48104 6.26896C6.41549 6.2034 6.37084 6.11988 6.35276 6.02895C6.33467 5.93802 6.34395 5.84377 6.37943 5.75812C6.41491 5.67246 6.47499 5.59926 6.55208 5.54775C6.62916 5.49624 6.71979 5.46875 6.8125 5.46875C6.93682 5.46875 7.05605 5.51814 7.14396 5.60604C7.23186 5.69395 7.28125 5.81318 7.28125 5.9375ZM7.10352 7.47227C7.03487 7.91478 6.81038 8.3182 6.47052 8.60978C6.13066 8.90137 5.6978 9.06192 5.25 9.0625H4.3125C3.81538 9.06198 3.33876 8.86427 2.98725 8.51275C2.63573 8.16124 2.43802 7.68462 2.4375 7.1875V5.60508C1.83341 5.52897 1.27786 5.23502 0.875104 4.7784C0.472348 4.32177 0.250076 3.73387 0.25 3.125V1.5625C0.25 1.39674 0.315848 1.23777 0.433058 1.12056C0.550268 1.00335 0.70924 0.9375 0.875 0.9375H1.5C1.58288 0.9375 1.66237 0.970424 1.72097 1.02903C1.77958 1.08763 1.8125 1.16712 1.8125 1.25C1.8125 1.33288 1.77958 1.41237 1.72097 1.47097C1.66237 1.52958 1.58288 1.5625 1.5 1.5625H0.875V3.125C0.874978 3.37335 0.924292 3.61922 1.02008 3.84835C1.11587 4.07748 1.25622 4.2853 1.43298 4.45974C1.60975 4.63418 1.81941 4.77177 2.04979 4.86451C2.28017 4.95726 2.52668 5.00331 2.775 5C3.79492 4.98672 4.625 4.13086 4.625 3.09258V1.5625H4C3.91712 1.5625 3.83763 1.52958 3.77903 1.47097C3.72042 1.41237 3.6875 1.33288 3.6875 1.25C3.6875 1.16712 3.72042 1.08763 3.77903 1.02903C3.83763 0.970424 3.91712 0.9375 4 0.9375H4.625C4.79076 0.9375 4.94973 1.00335 5.06694 1.12056C5.18415 1.23777 5.25 1.39674 5.25 1.5625V3.09258C5.25 4.37539 4.2918 5.44766 3.0625 5.60469V7.1875C3.0625 7.51902 3.1942 7.83696 3.42862 8.07138C3.66304 8.3058 3.98098 8.4375 4.3125 8.4375H5.25C5.53386 8.43703 5.80914 8.34014 6.03072 8.16271C6.2523 7.98528 6.40702 7.73783 6.46953 7.46094C6.09212 7.37616 5.75957 7.15441 5.53624 6.83859C5.3129 6.52277 5.21464 6.13533 5.26049 5.75124C5.30633 5.36716 5.49301 5.01373 5.78441 4.75934C6.07581 4.50496 6.4512 4.36771 6.83796 4.37414C7.22472 4.38057 7.59535 4.53024 7.87812 4.79418C8.1609 5.05811 8.33572 5.41755 8.36876 5.80295C8.4018 6.18835 8.29072 6.57231 8.057 6.88052C7.82328 7.18874 7.48353 7.39931 7.10352 7.47148V7.47227ZM7.75 5.9375C7.75 5.75208 7.69502 5.57082 7.592 5.41665C7.48899 5.26248 7.34257 5.14232 7.17127 5.07136C6.99996 5.00041 6.81146 4.98184 6.6296 5.01801C6.44775 5.05419 6.2807 5.14348 6.14959 5.27459C6.01848 5.4057 5.92919 5.57275 5.89301 5.7546C5.85684 5.93646 5.87541 6.12496 5.94636 6.29627C6.01732 6.46757 6.13748 6.61399 6.29165 6.717C6.44582 6.82002 6.62708 6.875 6.8125 6.875C7.06114 6.875 7.2996 6.77623 7.47541 6.60041C7.65123 6.4246 7.75 6.18614 7.75 5.9375Z" fill="currentColor"/>
</svg>
