<svg width="3" height="12" viewBox="0 0 3 12" fill="none" xmlns="http://www.w3.org/2000/svg">
<path d="M1.83398 9.33333C2.0992 9.33333 2.35355 9.43869 2.54109 9.62623C2.72863 9.81376 2.83398 10.0681 2.83398 10.3333C2.83398 10.5985 2.72863 10.8529 2.54109 11.0404C2.35355 11.228 2.0992 11.3333 1.83398 11.3333C1.56877 11.3333 1.31441 11.228 1.12688 11.0404C0.939341 10.8529 0.833984 10.5985 0.833984 10.3333C0.833984 10.0681 0.939341 9.81376 1.12688 9.62623C1.31441 9.43869 1.56877 9.33333 1.83398 9.33333ZM1.83398 4.66667C2.0992 4.66667 2.35355 4.77202 2.54109 4.95956C2.72863 5.1471 2.83398 5.40145 2.83398 5.66667C2.83398 5.93188 2.72863 6.18624 2.54109 6.37377C2.35355 6.56131 2.0992 6.66667 1.83398 6.66667C1.56877 6.66667 1.31441 6.56131 1.12688 6.37377C0.939341 6.18624 0.833984 5.93188 0.833984 5.66667C0.833984 5.40145 0.939341 5.1471 1.12688 4.95956C1.31441 4.77202 1.56877 4.66667 1.83398 4.66667ZM1.83398 0C2.0992 0 2.35355 0.105357 2.54109 0.292893C2.72863 0.48043 2.83398 0.734783 2.83398 1C2.83398 1.26522 2.72863 1.51957 2.54109 1.70711C2.35355 1.89464 2.0992 2 1.83398 2C1.56877 2 1.31441 1.89464 1.12688 1.70711C0.939341 1.51957 0.833984 1.26522 0.833984 1C0.833984 0.734783 0.939341 0.48043 1.12688 0.292893C1.31441 0.105357 1.56877 0 1.83398 0Z" fill="#667085"/>
</svg>
