<svg width="20" height="18" viewBox="0 0 20 18" fill="none" xmlns="http://www.w3.org/2000/svg">
<path d="M13.4163 6.87562L8.91625 3.87562C8.80327 3.80025 8.67195 3.75696 8.53629 3.75039C8.40064 3.74382 8.26575 3.77421 8.14601 3.83831C8.02628 3.90241 7.9262 3.99782 7.85645 4.11436C7.7867 4.2309 7.74991 4.36419 7.75 4.5V10.5C7.74991 10.6358 7.7867 10.7691 7.85645 10.8856C7.9262 11.0022 8.02628 11.0976 8.14601 11.1617C8.26575 11.2258 8.40064 11.2562 8.53629 11.2496C8.67195 11.243 8.80327 11.1998 8.91625 11.1244L13.4163 8.12438C13.5191 8.05591 13.6035 7.96309 13.6618 7.85416C13.7202 7.74523 13.7507 7.62357 13.7507 7.5C13.7507 7.37643 13.7202 7.25477 13.6618 7.14584C13.6035 7.03691 13.5191 6.94409 13.4163 6.87562ZM9.25 9.09844V5.90625L11.6481 7.5L9.25 9.09844ZM18.25 0.75H1.75C1.35218 0.75 0.970644 0.908035 0.68934 1.18934C0.408035 1.47064 0.25 1.85218 0.25 2.25V12.75C0.25 13.1478 0.408035 13.5294 0.68934 13.8107C0.970644 14.092 1.35218 14.25 1.75 14.25H18.25C18.6478 14.25 19.0294 14.092 19.3107 13.8107C19.592 13.5294 19.75 13.1478 19.75 12.75V2.25C19.75 1.85218 19.592 1.47064 19.3107 1.18934C19.0294 0.908035 18.6478 0.75 18.25 0.75ZM18.25 12.75H1.75V2.25H18.25V12.75ZM19.75 16.5C19.75 16.6989 19.671 16.8897 19.5303 17.0303C19.3897 17.171 19.1989 17.25 19 17.25H1C0.801088 17.25 0.610322 17.171 0.46967 17.0303C0.329018 16.8897 0.25 16.6989 0.25 16.5C0.25 16.3011 0.329018 16.1103 0.46967 15.9697C0.610322 15.829 0.801088 15.75 1 15.75H19C19.1989 15.75 19.3897 15.829 19.5303 15.9697C19.671 16.1103 19.75 16.3011 19.75 16.5Z" fill="currentColor"/>
</svg>
