<svg width="58" height="56" viewBox="0 0 58 56" fill="none" xmlns="http://www.w3.org/2000/svg">
<path d="M21.6756 4.66602C15.3743 4.66602 10.2515 9.63602 10.2515 15.7493C10.2515 21.746 15.0857 26.5993 21.387 26.8093C21.5794 26.786 21.7718 26.786 21.9161 26.8093C21.9642 26.8093 21.9883 26.8093 22.0364 26.8093C22.0604 26.8093 22.0604 26.8093 22.0845 26.8093C28.2415 26.5993 33.0757 21.746 33.0997 15.7493C33.0997 9.63602 27.9769 4.66602 21.6756 4.66602Z" fill="white"/>
<path d="M33.8937 33.0167C27.1836 28.6767 16.2404 28.6767 9.48215 33.0167C6.4277 35.0001 4.74414 37.6834 4.74414 40.5534C4.74414 43.4234 6.4277 46.0834 9.4581 48.0434C12.8252 50.2367 17.2506 51.3334 21.6759 51.3334C26.1013 51.3334 30.5266 50.2367 33.8937 48.0434C36.9241 46.0601 38.6077 43.4001 38.6077 40.5067C38.5836 37.6367 36.9241 34.9767 33.8937 33.0167Z" fill="white"/>
<path d="M48.1077 17.1262C48.4925 21.6529 45.1735 25.6196 40.5798 26.1562C40.5557 26.1562 40.5557 26.1562 40.5317 26.1562H40.4595C40.3152 26.1562 40.1709 26.1562 40.0507 26.2029C37.7177 26.3196 35.5772 25.5962 33.9658 24.2662C36.4431 22.1196 37.8621 18.8996 37.5734 15.3996C37.4051 13.5096 36.7317 11.7829 35.7215 10.3129C36.6355 9.86958 37.6937 9.58958 38.776 9.49625C43.4899 9.09958 47.6988 12.5062 48.1077 17.1262Z" fill="white"/>
<path d="M52.9177 38.7103C52.7253 40.9736 51.2341 42.9336 48.7328 44.2636C46.3277 45.5469 43.2973 46.1536 40.291 46.0836C42.0226 44.5669 43.0328 42.6769 43.2252 40.6703C43.4657 37.7769 42.0467 35.0003 39.2087 32.7836C37.5973 31.5469 35.7213 30.5669 33.677 29.8436C38.9922 28.3503 45.6784 29.3536 49.7911 32.5736C52.0037 34.3003 53.1341 36.4703 52.9177 38.7103Z" fill="white"/>
</svg>
