<svg width="20" height="20" viewBox="0 0 20 20" fill="none" xmlns="http://www.w3.org/2000/svg">
<path d="M13.7497 3.45216C13.7497 3.25325 13.8287 3.06248 13.9693 2.92183C14.11 2.78118 14.3007 2.70216 14.4997 2.70216H18.9997C19.1986 2.70216 19.3893 2.78118 19.53 2.92183C19.6706 3.06248 19.7497 3.25325 19.7497 3.45216C19.7497 3.65107 19.6706 3.84184 19.53 3.98249C19.3893 4.12314 19.1986 4.20216 18.9997 4.20216H14.4997C14.3007 4.20216 14.11 4.12314 13.9693 3.98249C13.8287 3.84184 13.7497 3.65107 13.7497 3.45216ZM18.7512 7.96247C18.555 7.9953 18.3799 8.10471 18.2644 8.26663C18.1489 8.42856 18.1025 8.62973 18.1353 8.82591C18.2114 9.2807 18.2497 9.74103 18.2497 10.2022C18.2514 12.2217 17.5092 14.1712 16.1647 15.6781C15.6191 14.8875 14.9265 14.2092 14.1247 13.6803C14.0562 13.6349 13.9747 13.6132 13.8927 13.6187C13.8107 13.6241 13.7328 13.6563 13.6709 13.7103C12.6519 14.592 11.3495 15.0772 10.002 15.0772C8.65451 15.0772 7.35209 14.592 6.3331 13.7103C6.27083 13.6552 6.192 13.6223 6.10901 13.6169C6.02602 13.6114 5.94358 13.6337 5.87466 13.6803C5.07156 14.2086 4.37794 14.887 3.83185 15.6781C2.77674 14.4891 2.08758 13.0207 1.84728 11.4493C1.60698 9.87796 1.82576 8.27065 2.4773 6.82069C3.12885 5.37073 4.18541 4.13988 5.51992 3.27618C6.85442 2.41247 8.41004 1.9527 9.99966 1.95216C10.4608 1.95209 10.9211 1.99034 11.3759 2.06653C11.5712 2.09735 11.7708 2.0498 11.9312 1.93424C12.0916 1.81868 12.1999 1.64445 12.2325 1.44945C12.2651 1.25446 12.2195 1.05446 12.1054 0.892982C11.9913 0.731499 11.8181 0.621589 11.6234 0.587159C9.58664 0.244517 7.49367 0.558035 5.64669 1.48245C3.79972 2.40686 2.29431 3.89433 1.34783 5.73009C0.401351 7.56586 0.0627718 9.65492 0.38098 11.6957C0.699188 13.7364 1.65772 15.6232 3.11817 17.0836C4.57863 18.5441 6.46543 19.5026 8.50617 19.8208C10.5469 20.139 12.636 19.8005 14.4717 18.854C16.3075 17.9075 17.795 16.4021 18.7194 14.5551C19.6438 12.7082 19.9573 10.6152 19.6147 8.57841C19.5818 8.38224 19.4724 8.20714 19.3105 8.09163C19.1486 7.97612 18.9474 7.92966 18.7512 7.96247ZM5.87466 9.45216C5.87466 10.268 6.11659 11.0655 6.56985 11.7439C7.02311 12.4222 7.66734 12.9509 8.42109 13.2632C9.17483 13.5754 10.0042 13.6571 10.8044 13.4979C11.6046 13.3387 12.3396 12.9459 12.9165 12.369C13.4934 11.7921 13.8862 11.0571 14.0454 10.2569C14.2046 9.45673 14.1229 8.62733 13.8107 7.87359C13.4984 7.11984 12.9697 6.47561 12.2914 6.02235C11.613 5.56909 10.8155 5.32716 9.99966 5.32716C8.90564 5.32716 7.85643 5.76176 7.08284 6.53534C6.30926 7.30893 5.87466 8.35814 5.87466 9.45216Z" fill="currentColor"/>
</svg>
