<svg width="20" height="21" viewBox="0 0 20 21" fill="none" xmlns="http://www.w3.org/2000/svg">
<path d="M9.99708 9.31747C10.9447 9.31747 11.7129 8.5193 11.7129 7.53471C11.7129 6.55012 10.9447 5.75195 9.99708 5.75195C9.04945 5.75195 8.28125 6.55012 8.28125 7.53471C8.28125 8.5193 9.04945 9.31747 9.99708 9.31747Z" fill="currentColor"/>
<path d="M9.99733 9.31747C10.945 9.31747 11.7132 8.5193 11.7132 7.53471C11.7132 6.55012 10.945 5.75195 9.99733 5.75195C9.0497 5.75195 8.28149 6.55012 8.28149 7.53471C8.28149 8.5193 9.0497 9.31747 9.99733 9.31747Z" fill="currentColor"/>
<path fill-rule="evenodd" clip-rule="evenodd" d="M15.9184 2.79045C15.0026 2.7909 14.1012 2.55303 13.2967 2.09854L9.99697 0.228516L6.6973 2.09854C5.8927 2.55303 4.99136 2.7909 4.07555 2.79045H1.63379V10.7007C1.63429 12.3368 2.08681 13.9384 2.9376 15.3152C3.78839 16.692 5.00168 17.7861 6.43332 18.4675L9.99697 20.1754L13.5666 18.4737C14.9983 17.7923 16.2116 16.6982 17.0623 15.3214C17.9131 13.9446 18.3657 12.343 18.3662 10.7069V2.79045H15.9184ZM9.99697 4.32387C10.6069 4.32387 11.2031 4.51178 11.7102 4.86384C12.2173 5.21589 12.6125 5.71629 12.8459 6.30174C13.0793 6.88719 13.1404 7.5314 13.0214 8.15291C12.9024 8.77442 12.6087 9.34531 12.1775 9.7934C11.7462 10.2415 11.1968 10.5466 10.5986 10.6703C10.0004 10.7939 9.38037 10.7304 8.81689 10.4879C8.25342 10.2454 7.77181 9.83477 7.43297 9.30788C7.09413 8.78099 6.91327 8.16153 6.91327 7.52785C6.91486 6.67861 7.24026 5.86462 7.81822 5.26411C8.39618 4.66361 9.17961 4.32552 9.99697 4.32387ZM12.7387 14.6526C12.7387 14.2741 12.594 13.911 12.3363 13.6433C12.0787 13.3756 11.7292 13.2252 11.3648 13.2252H8.62311C8.44348 13.2252 8.2656 13.2619 8.09965 13.3334C7.93369 13.4048 7.7829 13.5095 7.65588 13.6415C7.52886 13.7734 7.4281 13.9301 7.35936 14.1025C7.29062 14.275 7.25524 14.4598 7.25524 14.6464H5.88137C5.88137 13.8909 6.17024 13.1663 6.68441 12.6321C7.19858 12.0979 7.89595 11.7977 8.62311 11.7977H11.3648C12.0915 11.7994 12.788 12.1 13.3018 12.6339C13.8156 13.1678 14.105 13.8914 14.1066 14.6464L12.7387 14.6526Z" fill="currentColor"/>
</svg>
