<svg width="58" height="58" viewBox="0 0 58 58" fill="none" xmlns="http://www.w3.org/2000/svg">
<g clip-path="url(#clip0_1573_24923)">
<path d="M13.337 17.4658V31.5919H2.24005V21.4243C2.24005 19.2386 4.01268 17.4658 6.19855 17.4658H8.2221H13.337Z" fill="#C1D9ED"/>
<path d="M55.76 22.2629V53.3461C55.76 55.917 53.6769 58.0001 51.1072 58.0001H12.8761C10.6798 58.0001 8.83947 56.4783 8.35043 54.4314L8.33174 51.7707L8.22322 35.9251V4.65405C8.22333 2.08313 10.3065 0 12.8761 0H33.4971C35.3502 0 41.3521 5.11725 46.6573 10.5065C51.4981 15.4254 55.76 20.5707 55.76 22.2629Z" fill="#C1D9ED"/>
<path d="M55.76 22.2632V33.6496C55.76 33.6368 55.7589 33.6239 55.7589 33.61C55.4087 19.6387 44.0281 18.9922 40.3066 15.2705L46.6574 10.5068C51.4981 15.4256 55.76 20.571 55.76 22.2632Z" fill="#C1D9ED"/>
<path d="M33.4965 0H22.11C22.1228 0 22.1357 0.00113281 22.1497 0.00113281C36.121 0.351285 36.7675 11.7319 40.4891 15.4534L45.2528 9.1026C40.3339 4.26187 35.1886 0 33.4965 0Z" fill="#C1D9ED"/>
<path d="M55.7599 22.2635V24.232C55.7599 20.0875 52.3991 16.7268 48.2547 16.7268H43.6867C41.117 16.7268 39.033 14.6427 39.033 12.0731V7.50522C39.033 3.36071 35.6723 0 31.5278 0H33.4963C37.0408 0 40.4413 1.40843 42.9477 3.91466L51.8451 12.8121C54.3515 15.3185 55.7599 18.7189 55.7599 22.2635Z" fill="#C1D9ED"/>
<path d="M39.7284 35.2202V45.6578C39.7284 49.0339 36.9918 51.7706 33.6157 51.7706H8.33141L8.22289 35.925V29.1074H33.6157C36.9918 29.1074 39.7284 31.844 39.7284 35.2202Z" fill="#C1D9ED"/>
<path d="M43.6871 31.495V41.9326C43.6871 45.3087 40.9505 48.0454 37.5743 48.0454H6.19951C6.08169 48.0454 5.96615 48.0407 5.8506 48.0291C3.82819 47.854 2.24112 46.1561 2.24112 44.0869V21.4238C2.24112 22.5162 2.68462 23.5057 3.40112 24.2223C4.03946 24.8618 4.89609 25.2843 5.8506 25.366C5.96615 25.3777 6.08169 25.3823 6.19951 25.3823H37.5743C40.9506 25.3822 43.6871 28.1189 43.6871 31.495Z" fill="#00BD9D"/>
<path d="M5.8506 25.3659V48.0291C3.82819 47.854 2.24112 46.1561 2.24112 44.0869V21.4238C2.24112 22.5162 2.68462 23.5057 3.40112 24.2223C4.03946 24.8618 4.89598 25.2842 5.8506 25.3659Z" fill="#2C9969"/>
<path d="M26.2157 41.3821C25.3165 41.3872 24.0305 41.392 23.1972 41.3914V31.133C23.1972 30.6497 22.8054 30.2578 22.322 30.2578C21.8386 30.2578 21.4468 30.6497 21.4468 31.133V42.2574C21.4468 42.6837 21.754 43.0481 22.1743 43.12C22.2368 43.1308 22.305 43.1424 23.5106 43.1424C24.0999 43.1424 24.9609 43.1396 26.2257 43.1326C26.709 43.1298 27.0987 42.7357 27.096 42.2524C27.0932 41.7691 26.7014 41.3759 26.2157 41.3821Z" fill="#F7FAFC"/>
<path d="M34.7811 35.9663C33.3284 35.4305 31.9825 34.845 31.6658 34.7057C31.2671 34.4197 31.073 33.9582 31.1445 33.459C31.2327 32.8456 31.6991 32.3547 32.3923 32.1459C34.2431 31.5885 35.9033 32.9254 35.9333 32.9498C36.3034 33.2584 36.8535 33.2098 37.1636 32.8407C37.4746 32.4708 37.4269 31.9186 37.0568 31.6076C36.9604 31.5266 34.6646 29.6331 31.8874 30.4698C30.5451 30.8742 29.5964 31.9243 29.4118 33.2103C29.2404 34.4045 29.7573 35.5529 30.7611 36.2074C30.7997 36.2325 30.8403 36.2547 30.8824 36.2735C30.9462 36.3019 32.4643 36.9777 34.175 37.6088C35.4646 38.0844 36.1169 38.8466 35.9646 39.6998C35.8181 40.5199 34.9085 41.3914 33.5112 41.3914C32.2613 41.3914 31.0534 40.882 30.28 40.0286C29.9553 39.6702 29.4016 39.6433 29.0436 39.9677C28.6856 40.2923 28.6582 40.8459 28.9829 41.204C30.0826 42.4174 31.7754 43.1419 33.5112 43.1419C35.5732 43.1419 37.3688 41.7944 37.6878 40.0075C38.0548 37.9537 36.4267 36.5733 34.7811 35.9663Z" fill="#F7FAFC"/>
<path d="M14.9852 36.305L18.2735 31.6372C18.5519 31.2421 18.4573 30.696 18.062 30.4176C17.6669 30.1392 17.1208 30.2339 16.8425 30.6291L13.9154 34.7842L10.9927 30.6297C10.7146 30.2344 10.1686 30.1394 9.77325 30.4174C9.3779 30.6955 9.28286 31.2415 9.56096 31.6369L12.8444 36.3044L8.99909 41.7628C8.72075 42.1579 8.81534 42.704 9.21058 42.9823C9.36385 43.0903 9.53966 43.1422 9.71389 43.1422C9.98894 43.1422 10.2597 43.0128 10.4302 42.771L13.9144 37.8251L17.3933 42.7705C17.5638 43.0128 17.8347 43.1423 18.11 43.1423C18.284 43.1423 18.4598 43.0905 18.6128 42.9828C19.0082 42.7047 19.1032 42.1587 18.8251 41.7633L14.9852 36.305Z" fill="#F7FAFC"/>
</g>
<defs>
<clipPath id="clip0_1573_24923">
<rect width="58" height="58" fill="white"/>
</clipPath>
</defs>
</svg>
